<svg width="380" height="380" viewBox="0 0 380 380" fill="none" xmlns="http://www.w3.org/2000/svg">
<rect width="380" height="380" rx="190" fill="url(#paint0_linear_2176_1123)"/>
<rect x="10" y="10" width="360" height="360" rx="180" fill="white"/>
<path d="M120.99 152.806L144.139 146.603C146.945 146.038 149.377 147.924 151.068 149.548L152.753 151.167C153.657 152.036 155.002 152.991 156.553 153.647C158.102 154.302 159.914 154.683 161.722 154.314L161.745 154.309L182.051 148.868C184.852 148.118 187.731 149.78 188.481 152.581L197.993 188.078L129.895 206.325L117.277 159.236C116.527 156.436 118.189 153.557 120.99 152.806Z" fill="url(#paint1_linear_2176_1123)" stroke="#BEBEC7" stroke-width="1.5" stroke-linecap="round"/>
<mask id="path-4-inside-1_2176_1123" fill="white">
<path d="M128.977 205.795L198.523 187.16L199.3 190.058C200.157 193.259 198.258 196.549 195.057 197.406L137.101 212.935C133.901 213.793 130.611 211.893 129.753 208.693L128.977 205.795Z"/>
</mask>
<path d="M128.977 205.795L198.523 187.16L199.3 190.058C200.157 193.259 198.258 196.549 195.057 197.406L137.101 212.935C133.901 213.793 130.611 211.893 129.753 208.693L128.977 205.795Z" fill="#FFC400"/>
<path d="M128.977 205.795L198.523 187.16L128.977 205.795M200.749 189.669C201.821 193.67 199.446 197.783 195.445 198.855L137.49 214.384C133.489 215.456 129.376 213.082 128.304 209.081L131.202 208.304C131.845 210.705 134.313 212.13 136.713 211.486L194.669 195.957C197.069 195.314 198.494 192.847 197.851 190.446L200.749 189.669ZM137.49 214.384C133.489 215.456 129.376 213.082 128.304 209.081L127.528 206.183L130.425 205.407L131.202 208.304C131.845 210.705 134.313 212.13 136.713 211.486L137.49 214.384ZM199.972 186.772L200.749 189.669C201.821 193.67 199.446 197.783 195.445 198.855L194.669 195.957C197.069 195.314 198.494 192.847 197.851 190.446L197.074 187.548L199.972 186.772Z" fill="black" fill-opacity="0.2" mask="url(#path-4-inside-1_2176_1123)"/>
<mask id="mask0_2176_1123" style="mask-type:alpha" maskUnits="userSpaceOnUse" x="116" y="145" width="84" height="69">
<path d="M143.978 145.87C147.205 145.213 149.903 147.389 151.588 149.008L153.273 150.627C154.959 152.246 158.347 154.237 161.573 153.579L181.858 148.144C185.058 147.286 188.348 149.186 189.206 152.387L199.3 190.058C200.158 193.258 198.258 196.549 195.057 197.406L137.102 212.935C133.901 213.793 130.611 211.893 129.753 208.693L116.554 159.43C115.696 156.23 117.595 152.94 120.796 152.082L143.978 145.87Z" fill="url(#paint2_linear_2176_1123)"/>
</mask>
<g mask="url(#mask0_2176_1123)">
<path d="M120.99 152.806L144.139 146.603C146.945 146.038 149.377 147.924 151.068 149.548L152.753 151.167C153.657 152.036 155.002 152.991 156.553 153.647C158.102 154.302 159.914 154.683 161.722 154.314L161.745 154.309L182.051 148.868C184.852 148.118 187.731 149.78 188.481 152.581L197.993 188.078L129.895 206.325L117.277 159.236C116.527 156.436 118.189 153.557 120.99 152.806Z" fill="url(#paint3_linear_2176_1123)" stroke="#BEBEC7" stroke-width="1.5" stroke-linecap="round"/>
<mask id="path-8-inside-2_2176_1123" fill="white">
<path d="M128.977 205.795L198.523 187.16L199.3 190.058C200.157 193.259 198.258 196.549 195.057 197.406L137.101 212.935C133.901 213.793 130.611 211.893 129.753 208.693L128.977 205.795Z"/>
</mask>
<path d="M128.977 205.795L198.523 187.16L199.3 190.058C200.157 193.259 198.258 196.549 195.057 197.406L137.101 212.935C133.901 213.793 130.611 211.893 129.753 208.693L128.977 205.795Z" fill="#FF8A00"/>
<path d="M128.977 205.795L198.523 187.16L128.977 205.795M200.749 189.669C201.821 193.67 199.446 197.783 195.445 198.855L137.49 214.384C133.489 215.456 129.376 213.082 128.304 209.081L131.202 208.304C131.845 210.705 134.313 212.13 136.713 211.486L194.669 195.957C197.069 195.314 198.494 192.847 197.851 190.446L200.749 189.669ZM137.49 214.384C133.489 215.456 129.376 213.082 128.304 209.081L127.528 206.183L130.425 205.407L131.202 208.304C131.845 210.705 134.313 212.13 136.713 211.486L137.49 214.384ZM199.972 186.772L200.749 189.669C201.821 193.67 199.446 197.783 195.445 198.855L194.669 195.957C197.069 195.314 198.494 192.847 197.851 190.446L197.074 187.548L199.972 186.772Z" fill="black" fill-opacity="0.2" mask="url(#path-8-inside-2_2176_1123)"/>
</g>
<path d="M220.796 93.5529C217.595 92.6953 214.305 94.5948 213.447 97.7956L200.247 147.058C199.39 150.259 201.289 153.549 204.49 154.406L242.161 164.5C245.362 165.358 248.652 163.458 249.51 160.258L258.894 125.236C259.1 124.467 258.992 123.648 258.594 122.959L246.048 101.229C245.65 100.54 244.995 100.037 244.226 99.8312L220.796 93.5529Z" fill="url(#paint4_linear_2176_1123)"/>
<path d="M220.601 94.2774L244.033 100.556C244.609 100.71 245.1 101.088 245.399 101.604L257.944 123.334C258.243 123.851 258.324 124.465 258.169 125.041L248.785 160.063C248.035 162.864 245.156 164.526 242.355 163.776L204.684 153.682L204.425 153.605C201.782 152.751 200.245 149.965 200.972 147.252L214.172 97.9897C214.922 95.189 217.801 93.5269 220.601 94.2774Z" stroke="black" stroke-opacity="0.2" stroke-width="1.5" stroke-linecap="round" stroke-linejoin="round"/>
<path d="M244.032 100.557C244.609 100.712 245.1 101.089 245.398 101.606L257.944 123.336C258.242 123.852 258.323 124.466 258.169 125.043L257.969 125.789C257.595 125.059 257.088 124.421 256.527 123.88C255.084 122.487 253.231 121.657 252.165 121.371L246.369 119.819C243.568 119.068 241.906 116.189 242.657 113.389L244.21 107.593C244.495 106.527 244.703 104.507 244.219 102.561C244.03 101.804 243.731 101.046 243.286 100.357L244.032 100.557Z" fill="url(#paint5_linear_2176_1123)" stroke="#1E3193" stroke-width="1.5" stroke-linecap="round" stroke-linejoin="round"/>
<path d="M238.463 146.387L241.841 152.435C242.48 153.58 241.446 154.992 240.21 154.66L211.099 146.86C209.863 146.529 209.673 144.789 210.799 144.117L220.526 138.315C222.612 137.071 225.264 137.782 226.448 139.902L230.023 146.302L232.541 144.8C234.627 143.556 237.278 144.266 238.463 146.387Z" fill="url(#paint6_linear_2176_1123)"/>
<path d="M244.22 139.429C243.684 141.43 241.627 142.617 239.627 142.081C237.626 141.545 236.439 139.489 236.975 137.488C237.511 135.488 239.568 134.3 241.568 134.837C243.569 135.373 244.756 137.429 244.22 139.429Z" fill="url(#paint7_linear_2176_1123)"/>
<circle cx="177" cy="118" r="10" stroke="url(#paint8_linear_2176_1123)" stroke-width="4" stroke-linecap="round"/>
<path d="M229.278 195.5L221.278 181.644M214.349 185.644L211.055 197.938M228.206 177.644L240.5 180.938" stroke="url(#paint9_linear_2176_1123)" stroke-width="4" stroke-linecap="round"/>
<path d="M156.647 252.488H154.521L154.535 251.128H156.647C157.263 251.128 157.778 250.993 158.192 250.725C158.612 250.456 158.926 250.071 159.136 249.569C159.35 249.068 159.457 248.471 159.457 247.778V247.238C159.457 246.701 159.396 246.224 159.272 245.81C159.154 245.395 158.976 245.046 158.739 244.764C158.507 244.481 158.22 244.267 157.878 244.121C157.541 243.975 157.151 243.902 156.709 243.902H154.48V242.535H156.709C157.37 242.535 157.974 242.647 158.521 242.87C159.067 243.089 159.539 243.406 159.936 243.82C160.337 244.235 160.644 244.732 160.858 245.311C161.073 245.889 161.18 246.536 161.18 247.252V247.778C161.18 248.494 161.073 249.141 160.858 249.72C160.644 250.299 160.337 250.795 159.936 251.21C159.535 251.62 159.056 251.937 158.5 252.16C157.949 252.379 157.331 252.488 156.647 252.488ZM155.472 242.535V252.488H153.756V242.535H155.472ZM164.393 246.5V252.488H162.745V245.092H164.317L164.393 246.5ZM166.655 245.044L166.642 246.575C166.541 246.557 166.432 246.543 166.313 246.534C166.2 246.525 166.086 246.521 165.972 246.521C165.689 246.521 165.441 246.562 165.227 246.644C165.012 246.721 164.832 246.835 164.687 246.985C164.545 247.131 164.436 247.309 164.358 247.519C164.281 247.728 164.235 247.963 164.222 248.223L163.846 248.25C163.846 247.785 163.891 247.354 163.982 246.958C164.074 246.562 164.21 246.213 164.393 245.912C164.579 245.611 164.812 245.377 165.09 245.208C165.372 245.039 165.698 244.955 166.067 244.955C166.168 244.955 166.275 244.964 166.389 244.982C166.507 245.001 166.596 245.021 166.655 245.044ZM171.611 251.005V247.478C171.611 247.213 171.563 246.985 171.468 246.794C171.372 246.603 171.226 246.454 171.03 246.35C170.839 246.245 170.597 246.192 170.306 246.192C170.037 246.192 169.804 246.238 169.608 246.329C169.412 246.42 169.26 246.543 169.15 246.698C169.041 246.853 168.986 247.029 168.986 247.225H167.346C167.346 246.933 167.416 246.65 167.558 246.377C167.699 246.104 167.904 245.86 168.173 245.646C168.442 245.431 168.763 245.263 169.137 245.14C169.51 245.017 169.93 244.955 170.395 244.955C170.951 244.955 171.443 245.049 171.871 245.235C172.304 245.422 172.644 245.705 172.89 246.083C173.14 246.457 173.266 246.926 173.266 247.491V250.779C173.266 251.117 173.288 251.42 173.334 251.688C173.384 251.953 173.455 252.183 173.546 252.379V252.488H171.857C171.78 252.311 171.718 252.085 171.673 251.812C171.632 251.534 171.611 251.265 171.611 251.005ZM171.851 247.99L171.864 249.009H170.682C170.376 249.009 170.107 249.038 169.875 249.098C169.643 249.152 169.449 249.234 169.294 249.344C169.139 249.453 169.023 249.585 168.945 249.74C168.868 249.895 168.829 250.071 168.829 250.267C168.829 250.463 168.875 250.643 168.966 250.807C169.057 250.966 169.189 251.091 169.362 251.183C169.54 251.274 169.754 251.319 170.005 251.319C170.342 251.319 170.636 251.251 170.887 251.114C171.142 250.973 171.342 250.802 171.488 250.602C171.634 250.396 171.712 250.203 171.721 250.021L172.254 250.752C172.199 250.939 172.106 251.139 171.974 251.354C171.841 251.568 171.668 251.773 171.454 251.969C171.244 252.16 170.992 252.317 170.695 252.44C170.404 252.563 170.066 252.625 169.684 252.625C169.201 252.625 168.77 252.529 168.392 252.338C168.013 252.142 167.717 251.88 167.503 251.552C167.289 251.219 167.182 250.843 167.182 250.424C167.182 250.032 167.255 249.686 167.4 249.385C167.551 249.079 167.77 248.824 168.057 248.619C168.348 248.414 168.704 248.259 169.123 248.154C169.542 248.045 170.021 247.99 170.559 247.99H171.851ZM179.726 245.092H181.223V252.283C181.223 252.949 181.081 253.514 180.799 253.979C180.516 254.443 180.122 254.797 179.616 255.038C179.11 255.284 178.525 255.407 177.859 255.407C177.577 255.407 177.262 255.366 176.916 255.284C176.574 255.202 176.242 255.07 175.918 254.888C175.599 254.71 175.332 254.475 175.118 254.184L175.891 253.213C176.155 253.527 176.447 253.757 176.766 253.903C177.085 254.049 177.42 254.122 177.771 254.122C178.149 254.122 178.47 254.051 178.734 253.91C179.003 253.773 179.211 253.571 179.356 253.302C179.502 253.033 179.575 252.705 179.575 252.317V246.767L179.726 245.092ZM174.701 248.872V248.729C174.701 248.168 174.77 247.658 174.906 247.197C175.043 246.732 175.239 246.334 175.494 246.001C175.749 245.664 176.059 245.406 176.424 245.229C176.788 245.046 177.201 244.955 177.661 244.955C178.14 244.955 178.548 245.042 178.885 245.215C179.227 245.388 179.511 245.636 179.739 245.96C179.967 246.279 180.145 246.662 180.272 247.108C180.405 247.55 180.503 248.043 180.566 248.585V249.043C180.507 249.572 180.407 250.055 180.266 250.492C180.124 250.93 179.938 251.308 179.705 251.627C179.473 251.946 179.186 252.192 178.844 252.365C178.507 252.538 178.108 252.625 177.647 252.625C177.196 252.625 176.788 252.532 176.424 252.345C176.064 252.158 175.754 251.896 175.494 251.559C175.239 251.221 175.043 250.825 174.906 250.369C174.77 249.909 174.701 249.41 174.701 248.872ZM176.349 248.729V248.872C176.349 249.209 176.381 249.524 176.444 249.815C176.513 250.107 176.615 250.365 176.752 250.588C176.893 250.807 177.071 250.98 177.285 251.107C177.504 251.23 177.761 251.292 178.058 251.292C178.445 251.292 178.762 251.21 179.008 251.046C179.258 250.882 179.45 250.661 179.582 250.383C179.719 250.1 179.814 249.786 179.869 249.439V248.202C179.842 247.933 179.785 247.683 179.698 247.45C179.616 247.218 179.505 247.015 179.363 246.842C179.222 246.664 179.044 246.527 178.83 246.432C178.616 246.331 178.363 246.281 178.071 246.281C177.775 246.281 177.518 246.345 177.299 246.473C177.08 246.6 176.9 246.776 176.759 246.999C176.622 247.222 176.52 247.482 176.451 247.778C176.383 248.075 176.349 248.391 176.349 248.729ZM188.12 247.074L189.836 245.919C190.123 245.728 190.328 245.541 190.451 245.358C190.574 245.172 190.636 244.939 190.636 244.661C190.636 244.424 190.545 244.205 190.362 244.005C190.18 243.804 189.923 243.704 189.59 243.704C189.357 243.704 189.161 243.759 189.002 243.868C188.842 243.973 188.722 244.114 188.64 244.292C188.562 244.465 188.523 244.659 188.523 244.873C188.523 245.078 188.576 245.29 188.681 245.509C188.785 245.723 188.929 245.949 189.111 246.186C189.294 246.418 189.499 246.669 189.727 246.938L194.43 252.488H192.522L188.681 247.97C188.348 247.569 188.054 247.202 187.799 246.869C187.544 246.532 187.345 246.206 187.204 245.892C187.063 245.573 186.992 245.244 186.992 244.907C186.992 244.388 187.099 243.941 187.313 243.567C187.528 243.194 187.831 242.907 188.223 242.706C188.615 242.501 189.073 242.398 189.597 242.398C190.103 242.398 190.538 242.501 190.902 242.706C191.271 242.907 191.554 243.173 191.75 243.506C191.951 243.839 192.051 244.203 192.051 244.6C192.051 244.914 191.994 245.201 191.88 245.461C191.766 245.721 191.609 245.958 191.408 246.172C191.208 246.386 190.975 246.589 190.711 246.78L188.626 248.298C188.384 248.494 188.204 248.683 188.086 248.865C187.972 249.043 187.897 249.207 187.86 249.357C187.824 249.508 187.806 249.64 187.806 249.754C187.806 250.046 187.867 250.31 187.99 250.547C188.118 250.784 188.302 250.973 188.544 251.114C188.79 251.251 189.089 251.319 189.439 251.319C189.818 251.319 190.185 251.235 190.54 251.066C190.896 250.893 191.215 250.649 191.497 250.335C191.78 250.021 192.003 249.645 192.167 249.207C192.336 248.77 192.42 248.284 192.42 247.751H193.842C193.842 248.234 193.794 248.692 193.698 249.125C193.607 249.558 193.459 249.959 193.254 250.328C193.053 250.697 192.789 251.028 192.461 251.319C192.429 251.351 192.393 251.392 192.352 251.442C192.315 251.488 192.279 251.527 192.242 251.559C191.85 251.919 191.41 252.188 190.923 252.365C190.44 252.538 189.925 252.625 189.378 252.625C188.717 252.625 188.145 252.504 187.662 252.263C187.179 252.021 186.805 251.688 186.541 251.265C186.281 250.841 186.151 250.355 186.151 249.809C186.151 249.403 186.236 249.048 186.404 248.742C186.573 248.432 186.803 248.145 187.095 247.881C187.391 247.612 187.733 247.343 188.12 247.074ZM203.398 250.957V241.988H205.053V252.488H203.556L203.398 250.957ZM198.586 248.872V248.729C198.586 248.168 198.652 247.658 198.784 247.197C198.916 246.732 199.108 246.334 199.358 246.001C199.609 245.664 199.914 245.406 200.274 245.229C200.634 245.046 201.04 244.955 201.491 244.955C201.938 244.955 202.33 245.042 202.667 245.215C203.004 245.388 203.291 245.636 203.528 245.96C203.765 246.279 203.954 246.662 204.096 247.108C204.237 247.55 204.337 248.043 204.396 248.585V249.043C204.337 249.572 204.237 250.055 204.096 250.492C203.954 250.93 203.765 251.308 203.528 251.627C203.291 251.946 203.002 252.192 202.66 252.365C202.323 252.538 201.929 252.625 201.478 252.625C201.031 252.625 200.628 252.532 200.268 252.345C199.912 252.158 199.609 251.896 199.358 251.559C199.108 251.221 198.916 250.825 198.784 250.369C198.652 249.909 198.586 249.41 198.586 248.872ZM200.233 248.729V248.872C200.233 249.209 200.263 249.524 200.322 249.815C200.386 250.107 200.484 250.365 200.616 250.588C200.748 250.807 200.919 250.98 201.129 251.107C201.343 251.23 201.598 251.292 201.895 251.292C202.268 251.292 202.576 251.21 202.817 251.046C203.059 250.882 203.248 250.661 203.385 250.383C203.526 250.1 203.622 249.786 203.672 249.439V248.202C203.645 247.933 203.588 247.683 203.501 247.45C203.419 247.218 203.307 247.015 203.166 246.842C203.025 246.664 202.849 246.527 202.64 246.432C202.435 246.331 202.191 246.281 201.908 246.281C201.607 246.281 201.352 246.345 201.143 246.473C200.933 246.6 200.76 246.776 200.623 246.999C200.491 247.222 200.393 247.482 200.329 247.778C200.265 248.075 200.233 248.391 200.233 248.729ZM208.43 246.5V252.488H206.782V245.092H208.354L208.43 246.5ZM210.692 245.044L210.679 246.575C210.578 246.557 210.469 246.543 210.351 246.534C210.237 246.525 210.123 246.521 210.009 246.521C209.726 246.521 209.478 246.562 209.264 246.644C209.049 246.721 208.869 246.835 208.724 246.985C208.582 247.131 208.473 247.309 208.396 247.519C208.318 247.728 208.272 247.963 208.259 248.223L207.883 248.25C207.883 247.785 207.928 247.354 208.02 246.958C208.111 246.562 208.247 246.213 208.43 245.912C208.617 245.611 208.849 245.377 209.127 245.208C209.41 245.039 209.735 244.955 210.104 244.955C210.205 244.955 210.312 244.964 210.426 244.982C210.544 245.001 210.633 245.021 210.692 245.044ZM211.232 248.872V248.715C211.232 248.182 211.31 247.687 211.465 247.231C211.62 246.771 211.843 246.372 212.135 246.035C212.431 245.693 212.791 245.429 213.215 245.242C213.643 245.051 214.126 244.955 214.664 244.955C215.206 244.955 215.689 245.051 216.113 245.242C216.542 245.429 216.904 245.693 217.2 246.035C217.496 246.372 217.722 246.771 217.877 247.231C218.032 247.687 218.109 248.182 218.109 248.715V248.872C218.109 249.405 218.032 249.9 217.877 250.355C217.722 250.811 217.496 251.21 217.2 251.552C216.904 251.889 216.544 252.153 216.12 252.345C215.696 252.532 215.215 252.625 214.678 252.625C214.135 252.625 213.65 252.532 213.222 252.345C212.798 252.153 212.438 251.889 212.142 251.552C211.845 251.21 211.62 250.811 211.465 250.355C211.31 249.9 211.232 249.405 211.232 248.872ZM212.88 248.715V248.872C212.88 249.205 212.914 249.519 212.982 249.815C213.051 250.112 213.158 250.371 213.304 250.595C213.45 250.818 213.636 250.993 213.864 251.121C214.092 251.249 214.363 251.312 214.678 251.312C214.983 251.312 215.247 251.249 215.471 251.121C215.699 250.993 215.885 250.818 216.031 250.595C216.177 250.371 216.284 250.112 216.353 249.815C216.425 249.519 216.462 249.205 216.462 248.872V248.715C216.462 248.387 216.425 248.077 216.353 247.785C216.284 247.489 216.175 247.227 216.024 246.999C215.879 246.771 215.692 246.593 215.464 246.466C215.241 246.334 214.974 246.268 214.664 246.268C214.354 246.268 214.085 246.334 213.857 246.466C213.634 246.593 213.45 246.771 213.304 246.999C213.158 247.227 213.051 247.489 212.982 247.785C212.914 248.077 212.88 248.387 212.88 248.715ZM221.145 246.514V255.332H219.497V245.092H221.015L221.145 246.514ZM225.964 248.722V248.865C225.964 249.403 225.9 249.902 225.772 250.362C225.649 250.818 225.465 251.217 225.219 251.559C224.977 251.896 224.679 252.158 224.323 252.345C223.968 252.532 223.558 252.625 223.093 252.625C222.632 252.625 222.229 252.541 221.883 252.372C221.541 252.199 221.252 251.955 221.015 251.641C220.778 251.326 220.586 250.957 220.44 250.533C220.299 250.105 220.199 249.635 220.14 249.125V248.571C220.199 248.029 220.299 247.537 220.44 247.095C220.586 246.653 220.778 246.272 221.015 245.953C221.252 245.634 221.541 245.388 221.883 245.215C222.225 245.042 222.623 244.955 223.079 244.955C223.544 244.955 223.956 245.046 224.316 245.229C224.676 245.406 224.979 245.661 225.226 245.994C225.472 246.322 225.656 246.719 225.779 247.184C225.902 247.644 225.964 248.157 225.964 248.722ZM224.316 248.865V248.722C224.316 248.38 224.285 248.063 224.221 247.771C224.157 247.475 224.057 247.215 223.92 246.992C223.783 246.769 223.608 246.596 223.394 246.473C223.184 246.345 222.931 246.281 222.635 246.281C222.343 246.281 222.092 246.331 221.883 246.432C221.673 246.527 221.498 246.662 221.356 246.835C221.215 247.008 221.106 247.211 221.028 247.443C220.951 247.671 220.896 247.92 220.864 248.188V249.515C220.919 249.843 221.012 250.144 221.145 250.417C221.277 250.69 221.464 250.909 221.705 251.073C221.951 251.233 222.266 251.312 222.648 251.312C222.945 251.312 223.198 251.249 223.407 251.121C223.617 250.993 223.788 250.818 223.92 250.595C224.057 250.367 224.157 250.105 224.221 249.809C224.285 249.512 224.316 249.198 224.316 248.865ZM139.462 270.488H137.808V262.613C137.808 262.016 137.926 261.513 138.163 261.103C138.405 260.692 138.749 260.38 139.195 260.166C139.646 259.952 140.182 259.845 140.802 259.845C141.166 259.845 141.517 259.883 141.854 259.961C142.196 260.038 142.549 260.136 142.914 260.255L142.661 261.595C142.429 261.517 142.171 261.444 141.889 261.376C141.606 261.303 141.28 261.267 140.911 261.267C140.414 261.267 140.048 261.381 139.811 261.608C139.578 261.832 139.462 262.167 139.462 262.613V270.488ZM140.945 263.092V264.295H136.673V263.092H140.945ZM143.693 263.092V270.488H142.046V263.092H143.693ZM147.296 259.988V270.488H145.642V259.988H147.296ZM152.361 270.625C151.814 270.625 151.32 270.536 150.878 270.358C150.44 270.176 150.067 269.923 149.757 269.6C149.451 269.276 149.217 268.896 149.053 268.458C148.889 268.021 148.807 267.549 148.807 267.043V266.77C148.807 266.191 148.891 265.667 149.06 265.197C149.228 264.728 149.463 264.327 149.764 263.994C150.064 263.657 150.42 263.399 150.83 263.222C151.24 263.044 151.685 262.955 152.163 262.955C152.692 262.955 153.154 263.044 153.551 263.222C153.947 263.399 154.275 263.65 154.535 263.974C154.799 264.293 154.995 264.673 155.123 265.115C155.255 265.557 155.321 266.045 155.321 266.578V267.282H149.606V266.1H153.694V265.97C153.685 265.674 153.626 265.396 153.517 265.136C153.412 264.876 153.25 264.666 153.031 264.507C152.812 264.347 152.521 264.268 152.156 264.268C151.883 264.268 151.639 264.327 151.425 264.445C151.215 264.559 151.04 264.726 150.898 264.944C150.757 265.163 150.648 265.427 150.57 265.737C150.497 266.043 150.461 266.387 150.461 266.77V267.043C150.461 267.367 150.504 267.667 150.591 267.945C150.682 268.219 150.814 268.458 150.987 268.663C151.16 268.868 151.37 269.03 151.616 269.148C151.862 269.262 152.143 269.319 152.457 269.319C152.854 269.319 153.207 269.24 153.517 269.08C153.826 268.921 154.095 268.695 154.323 268.403L155.191 269.244C155.032 269.477 154.825 269.7 154.569 269.914C154.314 270.124 154.002 270.295 153.633 270.427C153.268 270.559 152.844 270.625 152.361 270.625ZM160.756 268.485C160.756 268.321 160.715 268.173 160.633 268.041C160.551 267.904 160.394 267.781 160.161 267.672C159.933 267.562 159.596 267.462 159.149 267.371C158.757 267.285 158.397 267.182 158.069 267.063C157.746 266.94 157.468 266.792 157.235 266.619C157.003 266.446 156.823 266.241 156.695 266.004C156.568 265.767 156.504 265.493 156.504 265.184C156.504 264.883 156.57 264.598 156.702 264.329C156.834 264.06 157.023 263.823 157.27 263.618C157.516 263.413 157.814 263.251 158.165 263.133C158.521 263.014 158.917 262.955 159.354 262.955C159.974 262.955 160.505 263.06 160.947 263.27C161.394 263.475 161.736 263.755 161.973 264.11C162.21 264.461 162.328 264.858 162.328 265.3H160.681C160.681 265.104 160.631 264.922 160.53 264.753C160.435 264.58 160.289 264.441 160.093 264.336C159.897 264.227 159.651 264.172 159.354 264.172C159.072 264.172 158.837 264.217 158.65 264.309C158.468 264.395 158.331 264.509 158.24 264.65C158.154 264.792 158.11 264.947 158.11 265.115C158.11 265.238 158.133 265.35 158.179 265.45C158.229 265.546 158.311 265.635 158.425 265.717C158.539 265.794 158.694 265.867 158.89 265.936C159.09 266.004 159.341 266.07 159.642 266.134C160.207 266.252 160.692 266.405 161.098 266.592C161.508 266.774 161.822 267.011 162.041 267.303C162.26 267.59 162.369 267.954 162.369 268.396C162.369 268.725 162.299 269.025 162.157 269.299C162.021 269.568 161.82 269.802 161.556 270.003C161.291 270.199 160.975 270.352 160.605 270.461C160.241 270.57 159.831 270.625 159.375 270.625C158.705 270.625 158.138 270.507 157.673 270.27C157.208 270.028 156.855 269.72 156.613 269.347C156.376 268.968 156.258 268.576 156.258 268.171H157.851C157.869 268.476 157.953 268.72 158.104 268.902C158.258 269.08 158.45 269.21 158.678 269.292C158.91 269.369 159.149 269.408 159.396 269.408C159.692 269.408 159.94 269.369 160.141 269.292C160.341 269.21 160.494 269.101 160.599 268.964C160.703 268.823 160.756 268.663 160.756 268.485ZM166.983 266.872V266.715C166.983 266.182 167.061 265.687 167.216 265.231C167.371 264.771 167.594 264.372 167.886 264.035C168.182 263.693 168.542 263.429 168.966 263.242C169.394 263.051 169.877 262.955 170.415 262.955C170.957 262.955 171.44 263.051 171.864 263.242C172.293 263.429 172.655 263.693 172.951 264.035C173.247 264.372 173.473 264.771 173.628 265.231C173.783 265.687 173.86 266.182 173.86 266.715V266.872C173.86 267.405 173.783 267.9 173.628 268.355C173.473 268.811 173.247 269.21 172.951 269.552C172.655 269.889 172.295 270.153 171.871 270.345C171.447 270.532 170.966 270.625 170.429 270.625C169.886 270.625 169.401 270.532 168.973 270.345C168.549 270.153 168.189 269.889 167.893 269.552C167.596 269.21 167.371 268.811 167.216 268.355C167.061 267.9 166.983 267.405 166.983 266.872ZM168.631 266.715V266.872C168.631 267.205 168.665 267.519 168.733 267.815C168.802 268.112 168.909 268.371 169.055 268.595C169.201 268.818 169.387 268.993 169.615 269.121C169.843 269.249 170.114 269.312 170.429 269.312C170.734 269.312 170.998 269.249 171.222 269.121C171.45 268.993 171.636 268.818 171.782 268.595C171.928 268.371 172.035 268.112 172.104 267.815C172.176 267.519 172.213 267.205 172.213 266.872V266.715C172.213 266.387 172.176 266.077 172.104 265.785C172.035 265.489 171.926 265.227 171.775 264.999C171.63 264.771 171.443 264.593 171.215 264.466C170.992 264.334 170.725 264.268 170.415 264.268C170.105 264.268 169.836 264.334 169.608 264.466C169.385 264.593 169.201 264.771 169.055 264.999C168.909 265.227 168.802 265.489 168.733 265.785C168.665 266.077 168.631 266.387 168.631 266.715ZM176.896 264.5V270.488H175.248V263.092H176.82L176.896 264.5ZM179.158 263.044L179.145 264.575C179.044 264.557 178.935 264.543 178.816 264.534C178.702 264.525 178.589 264.521 178.475 264.521C178.192 264.521 177.944 264.562 177.729 264.644C177.515 264.721 177.335 264.835 177.189 264.985C177.048 265.131 176.939 265.309 176.861 265.519C176.784 265.728 176.738 265.963 176.725 266.223L176.349 266.25C176.349 265.785 176.394 265.354 176.485 264.958C176.576 264.562 176.713 264.213 176.896 263.912C177.082 263.611 177.315 263.377 177.593 263.208C177.875 263.039 178.201 262.955 178.57 262.955C178.671 262.955 178.778 262.964 178.892 262.982C179.01 263.001 179.099 263.021 179.158 263.044ZM185.905 270.488H184.258V262.381C184.258 261.829 184.36 261.367 184.565 260.993C184.775 260.615 185.074 260.33 185.461 260.139C185.848 259.943 186.306 259.845 186.835 259.845C186.999 259.845 187.161 259.856 187.32 259.879C187.48 259.897 187.635 259.927 187.785 259.968L187.744 261.239C187.653 261.216 187.553 261.201 187.443 261.191C187.339 261.182 187.225 261.178 187.102 261.178C186.851 261.178 186.634 261.226 186.452 261.321C186.274 261.412 186.138 261.547 186.042 261.725C185.951 261.902 185.905 262.121 185.905 262.381V270.488ZM187.43 263.092V264.295H183.123V263.092H187.43ZM188.312 266.872V266.715C188.312 266.182 188.389 265.687 188.544 265.231C188.699 264.771 188.922 264.372 189.214 264.035C189.51 263.693 189.87 263.429 190.294 263.242C190.722 263.051 191.205 262.955 191.743 262.955C192.285 262.955 192.769 263.051 193.192 263.242C193.621 263.429 193.983 263.693 194.279 264.035C194.576 264.372 194.801 264.771 194.956 265.231C195.111 265.687 195.188 266.182 195.188 266.715V266.872C195.188 267.405 195.111 267.9 194.956 268.355C194.801 268.811 194.576 269.21 194.279 269.552C193.983 269.889 193.623 270.153 193.199 270.345C192.775 270.532 192.295 270.625 191.757 270.625C191.215 270.625 190.729 270.532 190.301 270.345C189.877 270.153 189.517 269.889 189.221 269.552C188.924 269.21 188.699 268.811 188.544 268.355C188.389 267.9 188.312 267.405 188.312 266.872ZM189.959 266.715V266.872C189.959 267.205 189.993 267.519 190.062 267.815C190.13 268.112 190.237 268.371 190.383 268.595C190.529 268.818 190.715 268.993 190.943 269.121C191.171 269.249 191.442 269.312 191.757 269.312C192.062 269.312 192.326 269.249 192.55 269.121C192.778 268.993 192.965 268.818 193.11 268.595C193.256 268.371 193.363 268.112 193.432 267.815C193.505 267.519 193.541 267.205 193.541 266.872V266.715C193.541 266.387 193.505 266.077 193.432 265.785C193.363 265.489 193.254 265.227 193.104 264.999C192.958 264.771 192.771 264.593 192.543 264.466C192.32 264.334 192.053 264.268 191.743 264.268C191.433 264.268 191.164 264.334 190.937 264.466C190.713 264.593 190.529 264.771 190.383 264.999C190.237 265.227 190.13 265.489 190.062 265.785C189.993 266.077 189.959 266.387 189.959 266.715ZM198.333 259.988V270.488H196.679V259.988H198.333ZM204.649 268.957V259.988H206.304V270.488H204.807L204.649 268.957ZM199.837 266.872V266.729C199.837 266.168 199.903 265.658 200.035 265.197C200.167 264.732 200.359 264.334 200.609 264.001C200.86 263.664 201.165 263.406 201.525 263.229C201.885 263.046 202.291 262.955 202.742 262.955C203.189 262.955 203.581 263.042 203.918 263.215C204.255 263.388 204.542 263.636 204.779 263.96C205.016 264.279 205.205 264.662 205.347 265.108C205.488 265.55 205.588 266.043 205.647 266.585V267.043C205.588 267.572 205.488 268.055 205.347 268.492C205.205 268.93 205.016 269.308 204.779 269.627C204.542 269.946 204.253 270.192 203.911 270.365C203.574 270.538 203.18 270.625 202.729 270.625C202.282 270.625 201.879 270.532 201.519 270.345C201.163 270.158 200.86 269.896 200.609 269.559C200.359 269.221 200.167 268.825 200.035 268.369C199.903 267.909 199.837 267.41 199.837 266.872ZM201.484 266.729V266.872C201.484 267.209 201.514 267.524 201.573 267.815C201.637 268.107 201.735 268.365 201.867 268.588C201.999 268.807 202.17 268.98 202.38 269.107C202.594 269.23 202.849 269.292 203.146 269.292C203.519 269.292 203.827 269.21 204.068 269.046C204.31 268.882 204.499 268.661 204.636 268.383C204.777 268.1 204.873 267.786 204.923 267.439V266.202C204.896 265.933 204.839 265.683 204.752 265.45C204.67 265.218 204.558 265.015 204.417 264.842C204.276 264.664 204.1 264.527 203.891 264.432C203.686 264.331 203.442 264.281 203.159 264.281C202.858 264.281 202.603 264.345 202.394 264.473C202.184 264.6 202.011 264.776 201.874 264.999C201.742 265.222 201.644 265.482 201.58 265.778C201.516 266.075 201.484 266.391 201.484 266.729ZM211.287 270.625C210.74 270.625 210.246 270.536 209.804 270.358C209.366 270.176 208.993 269.923 208.683 269.6C208.377 269.276 208.143 268.896 207.979 268.458C207.814 268.021 207.732 267.549 207.732 267.043V266.77C207.732 266.191 207.817 265.667 207.985 265.197C208.154 264.728 208.389 264.327 208.689 263.994C208.99 263.657 209.346 263.399 209.756 263.222C210.166 263.044 210.61 262.955 211.089 262.955C211.618 262.955 212.08 263.044 212.477 263.222C212.873 263.399 213.201 263.65 213.461 263.974C213.725 264.293 213.921 264.673 214.049 265.115C214.181 265.557 214.247 266.045 214.247 266.578V267.282H208.532V266.1H212.62V265.97C212.611 265.674 212.552 265.396 212.442 265.136C212.338 264.876 212.176 264.666 211.957 264.507C211.738 264.347 211.447 264.268 211.082 264.268C210.809 264.268 210.565 264.327 210.351 264.445C210.141 264.559 209.965 264.726 209.824 264.944C209.683 265.163 209.574 265.427 209.496 265.737C209.423 266.043 209.387 266.387 209.387 266.77V267.043C209.387 267.367 209.43 267.667 209.517 267.945C209.608 268.219 209.74 268.458 209.913 268.663C210.086 268.868 210.296 269.03 210.542 269.148C210.788 269.262 211.068 269.319 211.383 269.319C211.779 269.319 212.132 269.24 212.442 269.08C212.752 268.921 213.021 268.695 213.249 268.403L214.117 269.244C213.958 269.477 213.75 269.7 213.495 269.914C213.24 270.124 212.928 270.295 212.559 270.427C212.194 270.559 211.77 270.625 211.287 270.625ZM217.187 264.5V270.488H215.539V263.092H217.111L217.187 264.5ZM219.449 263.044L219.436 264.575C219.335 264.557 219.226 264.543 219.107 264.534C218.993 264.525 218.88 264.521 218.766 264.521C218.483 264.521 218.235 264.562 218.021 264.644C217.806 264.721 217.626 264.835 217.48 264.985C217.339 265.131 217.23 265.309 217.152 265.519C217.075 265.728 217.029 265.963 217.016 266.223L216.64 266.25C216.64 265.785 216.685 265.354 216.776 264.958C216.868 264.562 217.004 264.213 217.187 263.912C217.373 263.611 217.606 263.377 217.884 263.208C218.166 263.039 218.492 262.955 218.861 262.955C218.962 262.955 219.069 262.964 219.183 262.982C219.301 263.001 219.39 263.021 219.449 263.044ZM224.631 268.485C224.631 268.321 224.59 268.173 224.508 268.041C224.426 267.904 224.269 267.781 224.036 267.672C223.808 267.562 223.471 267.462 223.024 267.371C222.632 267.285 222.272 267.182 221.944 267.063C221.621 266.94 221.343 266.792 221.11 266.619C220.878 266.446 220.698 266.241 220.57 266.004C220.443 265.767 220.379 265.493 220.379 265.184C220.379 264.883 220.445 264.598 220.577 264.329C220.709 264.06 220.898 263.823 221.145 263.618C221.391 263.413 221.689 263.251 222.04 263.133C222.396 263.014 222.792 262.955 223.229 262.955C223.849 262.955 224.38 263.06 224.822 263.27C225.269 263.475 225.611 263.755 225.848 264.11C226.085 264.461 226.203 264.858 226.203 265.3H224.556C224.556 265.104 224.506 264.922 224.405 264.753C224.31 264.58 224.164 264.441 223.968 264.336C223.772 264.227 223.526 264.172 223.229 264.172C222.947 264.172 222.712 264.217 222.525 264.309C222.343 264.395 222.206 264.509 222.115 264.65C222.029 264.792 221.985 264.947 221.985 265.115C221.985 265.238 222.008 265.35 222.054 265.45C222.104 265.546 222.186 265.635 222.3 265.717C222.414 265.794 222.569 265.867 222.765 265.936C222.965 266.004 223.216 266.07 223.517 266.134C224.082 266.252 224.567 266.405 224.973 266.592C225.383 266.774 225.697 267.011 225.916 267.303C226.135 267.59 226.244 267.954 226.244 268.396C226.244 268.725 226.174 269.025 226.032 269.299C225.896 269.568 225.695 269.802 225.431 270.003C225.166 270.199 224.85 270.352 224.48 270.461C224.116 270.57 223.706 270.625 223.25 270.625C222.58 270.625 222.013 270.507 221.548 270.27C221.083 270.028 220.73 269.72 220.488 269.347C220.251 268.968 220.133 268.576 220.133 268.171H221.726C221.744 268.476 221.828 268.72 221.979 268.902C222.133 269.08 222.325 269.21 222.553 269.292C222.785 269.369 223.024 269.408 223.271 269.408C223.567 269.408 223.815 269.369 224.016 269.292C224.216 269.21 224.369 269.101 224.474 268.964C224.578 268.823 224.631 268.663 224.631 268.485ZM234.563 263.092V264.295H230.394V263.092H234.563ZM231.597 261.28H233.244V268.444C233.244 268.672 233.276 268.848 233.34 268.971C233.408 269.089 233.502 269.169 233.62 269.21C233.739 269.251 233.878 269.271 234.037 269.271C234.151 269.271 234.26 269.265 234.365 269.251C234.47 269.237 234.554 269.224 234.618 269.21L234.625 270.468C234.488 270.509 234.329 270.545 234.146 270.577C233.969 270.609 233.764 270.625 233.531 270.625C233.153 270.625 232.818 270.559 232.526 270.427C232.235 270.29 232.007 270.069 231.843 269.764C231.679 269.458 231.597 269.053 231.597 268.547V261.28ZM235.356 266.872V266.715C235.356 266.182 235.434 265.687 235.589 265.231C235.744 264.771 235.967 264.372 236.259 264.035C236.555 263.693 236.915 263.429 237.339 263.242C237.767 263.051 238.25 262.955 238.788 262.955C239.33 262.955 239.813 263.051 240.237 263.242C240.666 263.429 241.028 263.693 241.324 264.035C241.62 264.372 241.846 264.771 242.001 265.231C242.156 265.687 242.233 266.182 242.233 266.715V266.872C242.233 267.405 242.156 267.9 242.001 268.355C241.846 268.811 241.62 269.21 241.324 269.552C241.028 269.889 240.668 270.153 240.244 270.345C239.82 270.532 239.34 270.625 238.802 270.625C238.259 270.625 237.774 270.532 237.346 270.345C236.922 270.153 236.562 269.889 236.266 269.552C235.969 269.21 235.744 268.811 235.589 268.355C235.434 267.9 235.356 267.405 235.356 266.872ZM237.004 266.715V266.872C237.004 267.205 237.038 267.519 237.106 267.815C237.175 268.112 237.282 268.371 237.428 268.595C237.574 268.818 237.76 268.993 237.988 269.121C238.216 269.249 238.487 269.312 238.802 269.312C239.107 269.312 239.371 269.249 239.595 269.121C239.823 268.993 240.009 268.818 240.155 268.595C240.301 268.371 240.408 268.112 240.477 267.815C240.549 267.519 240.586 267.205 240.586 266.872V266.715C240.586 266.387 240.549 266.077 240.477 265.785C240.408 265.489 240.299 265.227 240.148 264.999C240.003 264.771 239.816 264.593 239.588 264.466C239.365 264.334 239.098 264.268 238.788 264.268C238.478 264.268 238.209 264.334 237.981 264.466C237.758 264.593 237.574 264.771 237.428 264.999C237.282 265.227 237.175 265.489 237.106 265.785C237.038 266.077 237.004 266.387 237.004 266.715ZM173.621 286.745V281.092H175.275V288.488H173.717L173.621 286.745ZM173.854 285.207L174.407 285.193C174.407 285.69 174.353 286.148 174.243 286.567C174.134 286.982 173.965 287.344 173.737 287.654C173.509 287.96 173.218 288.199 172.862 288.372C172.507 288.541 172.081 288.625 171.584 288.625C171.224 288.625 170.894 288.573 170.593 288.468C170.292 288.363 170.032 288.201 169.813 287.982C169.599 287.764 169.433 287.479 169.314 287.128C169.196 286.777 169.137 286.358 169.137 285.87V281.092H170.784V285.884C170.784 286.153 170.816 286.378 170.88 286.561C170.944 286.738 171.03 286.882 171.14 286.991C171.249 287.101 171.377 287.178 171.522 287.224C171.668 287.269 171.823 287.292 171.987 287.292C172.457 287.292 172.826 287.201 173.095 287.019C173.368 286.832 173.562 286.581 173.676 286.267C173.794 285.952 173.854 285.599 173.854 285.207ZM178.618 282.514V291.332H176.971V281.092H178.488L178.618 282.514ZM183.438 284.722V284.865C183.438 285.403 183.374 285.902 183.246 286.362C183.123 286.818 182.938 287.217 182.692 287.559C182.451 287.896 182.152 288.158 181.797 288.345C181.441 288.532 181.031 288.625 180.566 288.625C180.106 288.625 179.703 288.541 179.356 288.372C179.015 288.199 178.725 287.955 178.488 287.641C178.251 287.326 178.06 286.957 177.914 286.533C177.773 286.105 177.673 285.635 177.613 285.125V284.571C177.673 284.029 177.773 283.537 177.914 283.095C178.06 282.653 178.251 282.272 178.488 281.953C178.725 281.634 179.015 281.388 179.356 281.215C179.698 281.042 180.097 280.955 180.553 280.955C181.018 280.955 181.43 281.046 181.79 281.229C182.15 281.406 182.453 281.661 182.699 281.994C182.945 282.322 183.13 282.719 183.253 283.184C183.376 283.644 183.438 284.157 183.438 284.722ZM181.79 284.865V284.722C181.79 284.38 181.758 284.063 181.694 283.771C181.631 283.475 181.53 283.215 181.394 282.992C181.257 282.769 181.081 282.596 180.867 282.473C180.658 282.345 180.405 282.281 180.108 282.281C179.817 282.281 179.566 282.331 179.356 282.432C179.147 282.527 178.971 282.662 178.83 282.835C178.689 283.008 178.579 283.211 178.502 283.443C178.424 283.671 178.37 283.92 178.338 284.188V285.515C178.393 285.843 178.486 286.144 178.618 286.417C178.75 286.69 178.937 286.909 179.179 287.073C179.425 287.233 179.739 287.312 180.122 287.312C180.418 287.312 180.671 287.249 180.881 287.121C181.09 286.993 181.261 286.818 181.394 286.595C181.53 286.367 181.631 286.105 181.694 285.809C181.758 285.512 181.79 285.198 181.79 284.865ZM186.603 277.988V288.488H184.948V277.988H186.603ZM188.093 284.872V284.715C188.093 284.182 188.17 283.687 188.325 283.231C188.48 282.771 188.703 282.372 188.995 282.035C189.291 281.693 189.651 281.429 190.075 281.242C190.504 281.051 190.987 280.955 191.524 280.955C192.067 280.955 192.55 281.051 192.974 281.242C193.402 281.429 193.764 281.693 194.061 282.035C194.357 282.372 194.582 282.771 194.737 283.231C194.892 283.687 194.97 284.182 194.97 284.715V284.872C194.97 285.405 194.892 285.9 194.737 286.355C194.582 286.811 194.357 287.21 194.061 287.552C193.764 287.889 193.404 288.153 192.98 288.345C192.557 288.532 192.076 288.625 191.538 288.625C190.996 288.625 190.51 288.532 190.082 288.345C189.658 288.153 189.298 287.889 189.002 287.552C188.706 287.21 188.48 286.811 188.325 286.355C188.17 285.9 188.093 285.405 188.093 284.872ZM189.74 284.715V284.872C189.74 285.205 189.774 285.519 189.843 285.815C189.911 286.112 190.018 286.371 190.164 286.595C190.31 286.818 190.497 286.993 190.725 287.121C190.952 287.249 191.224 287.312 191.538 287.312C191.843 287.312 192.108 287.249 192.331 287.121C192.559 286.993 192.746 286.818 192.892 286.595C193.037 286.371 193.145 286.112 193.213 285.815C193.286 285.519 193.322 285.205 193.322 284.872V284.715C193.322 284.387 193.286 284.077 193.213 283.785C193.145 283.489 193.035 283.227 192.885 282.999C192.739 282.771 192.552 282.593 192.324 282.466C192.101 282.334 191.834 282.268 191.524 282.268C191.215 282.268 190.946 282.334 190.718 282.466C190.494 282.593 190.31 282.771 190.164 282.999C190.018 283.227 189.911 283.489 189.843 283.785C189.774 284.077 189.74 284.387 189.74 284.715ZM200.521 287.005V283.478C200.521 283.213 200.473 282.985 200.377 282.794C200.281 282.603 200.135 282.454 199.939 282.35C199.748 282.245 199.507 282.192 199.215 282.192C198.946 282.192 198.714 282.238 198.518 282.329C198.322 282.42 198.169 282.543 198.06 282.698C197.95 282.853 197.896 283.029 197.896 283.225H196.255C196.255 282.933 196.326 282.65 196.467 282.377C196.608 282.104 196.813 281.86 197.082 281.646C197.351 281.431 197.672 281.263 198.046 281.14C198.42 281.017 198.839 280.955 199.304 280.955C199.86 280.955 200.352 281.049 200.78 281.235C201.213 281.422 201.553 281.705 201.799 282.083C202.049 282.457 202.175 282.926 202.175 283.491V286.779C202.175 287.117 202.198 287.42 202.243 287.688C202.293 287.953 202.364 288.183 202.455 288.379V288.488H200.767C200.689 288.311 200.628 288.085 200.582 287.812C200.541 287.534 200.521 287.265 200.521 287.005ZM200.76 283.99L200.773 285.009H199.591C199.285 285.009 199.017 285.038 198.784 285.098C198.552 285.152 198.358 285.234 198.203 285.344C198.048 285.453 197.932 285.585 197.854 285.74C197.777 285.895 197.738 286.071 197.738 286.267C197.738 286.463 197.784 286.643 197.875 286.807C197.966 286.966 198.098 287.091 198.271 287.183C198.449 287.274 198.663 287.319 198.914 287.319C199.251 287.319 199.545 287.251 199.796 287.114C200.051 286.973 200.252 286.802 200.397 286.602C200.543 286.396 200.621 286.203 200.63 286.021L201.163 286.752C201.108 286.939 201.015 287.139 200.883 287.354C200.751 287.568 200.577 287.773 200.363 287.969C200.154 288.16 199.901 288.317 199.604 288.44C199.313 288.563 198.976 288.625 198.593 288.625C198.11 288.625 197.679 288.529 197.301 288.338C196.923 288.142 196.626 287.88 196.412 287.552C196.198 287.219 196.091 286.843 196.091 286.424C196.091 286.032 196.164 285.686 196.31 285.385C196.46 285.079 196.679 284.824 196.966 284.619C197.257 284.414 197.613 284.259 198.032 284.154C198.451 284.045 198.93 283.99 199.468 283.99H200.76ZM208.409 286.957V277.988H210.063V288.488H208.566L208.409 286.957ZM203.597 284.872V284.729C203.597 284.168 203.663 283.658 203.795 283.197C203.927 282.732 204.118 282.334 204.369 282.001C204.62 281.664 204.925 281.406 205.285 281.229C205.645 281.046 206.051 280.955 206.502 280.955C206.949 280.955 207.34 281.042 207.678 281.215C208.015 281.388 208.302 281.636 208.539 281.96C208.776 282.279 208.965 282.662 209.106 283.108C209.248 283.55 209.348 284.043 209.407 284.585V285.043C209.348 285.572 209.248 286.055 209.106 286.492C208.965 286.93 208.776 287.308 208.539 287.627C208.302 287.946 208.013 288.192 207.671 288.365C207.334 288.538 206.939 288.625 206.488 288.625C206.042 288.625 205.638 288.532 205.278 288.345C204.923 288.158 204.62 287.896 204.369 287.559C204.118 287.221 203.927 286.825 203.795 286.369C203.663 285.909 203.597 285.41 203.597 284.872ZM205.244 284.729V284.872C205.244 285.209 205.274 285.524 205.333 285.815C205.397 286.107 205.495 286.365 205.627 286.588C205.759 286.807 205.93 286.98 206.14 287.107C206.354 287.23 206.609 287.292 206.905 287.292C207.279 287.292 207.587 287.21 207.828 287.046C208.07 286.882 208.259 286.661 208.396 286.383C208.537 286.1 208.632 285.786 208.683 285.439V284.202C208.655 283.933 208.598 283.683 208.512 283.45C208.43 283.218 208.318 283.015 208.177 282.842C208.035 282.664 207.86 282.527 207.65 282.432C207.445 282.331 207.201 282.281 206.919 282.281C206.618 282.281 206.363 282.345 206.153 282.473C205.944 282.6 205.771 282.776 205.634 282.999C205.502 283.222 205.404 283.482 205.34 283.778C205.276 284.075 205.244 284.391 205.244 284.729Z" fill="black"/>
<defs>
<linearGradient id="paint0_linear_2176_1123" x1="190" y1="380" x2="190" y2="0" gradientUnits="userSpaceOnUse">
<stop stop-color="white"/>
<stop offset="1" stop-color="#F5F5F5"/>
</linearGradient>
<linearGradient id="paint1_linear_2176_1123" x1="164.138" y1="197.926" x2="149.773" y2="144.317" gradientUnits="userSpaceOnUse">
<stop stop-color="#FFF7E0"/>
<stop offset="0.5" stop-color="white"/>
</linearGradient>
<linearGradient id="paint2_linear_2176_1123" x1="193.956" y1="169.617" x2="123.979" y2="188.137" gradientUnits="userSpaceOnUse">
<stop stop-opacity="0"/>
<stop offset="1"/>
</linearGradient>
<linearGradient id="paint3_linear_2176_1123" x1="164.138" y1="197.926" x2="149.773" y2="144.317" gradientUnits="userSpaceOnUse">
<stop stop-color="#FFF0E0"/>
<stop offset="0.5" stop-color="white"/>
</linearGradient>
<linearGradient id="paint4_linear_2176_1123" x1="236.796" y1="99.9238" x2="226.174" y2="158.63" gradientUnits="userSpaceOnUse">
<stop offset="0.5" stop-color="#263DB8"/>
<stop offset="1" stop-color="#1B2B7B"/>
</linearGradient>
<linearGradient id="paint5_linear_2176_1123" x1="253.694" y1="111" x2="240.694" y2="118" gradientUnits="userSpaceOnUse">
<stop stop-color="#7988D9"/>
<stop offset="1" stop-color="#CED6FF"/>
</linearGradient>
<linearGradient id="paint6_linear_2176_1123" x1="232.295" y1="152.54" x2="237.43" y2="133.376" gradientUnits="userSpaceOnUse">
<stop stop-color="#263DB8"/>
<stop offset="1" stop-color="#7988D9"/>
</linearGradient>
<linearGradient id="paint7_linear_2176_1123" x1="232.295" y1="152.54" x2="237.43" y2="133.376" gradientUnits="userSpaceOnUse">
<stop stop-color="#263DB8"/>
<stop offset="1" stop-color="#7988D9"/>
</linearGradient>
<linearGradient id="paint8_linear_2176_1123" x1="177" y1="106" x2="177" y2="130" gradientUnits="userSpaceOnUse">
<stop stop-color="#49BA14"/>
<stop offset="1" stop-color="#398415"/>
</linearGradient>
<linearGradient id="paint9_linear_2176_1123" x1="221.278" y1="181.644" x2="229.278" y2="195.5" gradientUnits="userSpaceOnUse">
<stop stop-color="#EA3843"/>
<stop offset="1" stop-color="#FF5BA0"/>
</linearGradient>
</defs>
</svg>
