<svg width="141" height="48" viewBox="0 0 141 48" fill="none" xmlns="http://www.w3.org/2000/svg">
<rect x="8" y="8" width="26" height="32" fill="url(#paint0_linear_4089_1311)"/>
<path d="M0 5C0 2.23858 2.23858 0 5 0H8V40H5C2.23858 40 0 37.7614 0 35V5Z" fill="#FFC400"/>
<path d="M5 0.5H7.5V39.5H5C2.51472 39.5 0.5 37.4853 0.5 35V5C0.5 2.51472 2.51472 0.5 5 0.5Z" stroke="black" stroke-opacity="0.2"/>
<path d="M34 18H37C39.7614 18 42 20.2386 42 23V43C42 45.7614 39.7614 48 37 48H34V18Z" fill="#49BA14"/>
<path d="M37 18.5C39.4853 18.5 41.5 20.5147 41.5 23V43C41.5 45.4853 39.4853 47.5 37 47.5H34.5V18.5H37Z" stroke="black" stroke-opacity="0.2"/>
<path d="M0 5C0 2.23858 2.23858 0 5 0H19C21.7614 0 24 2.23858 24 5V8H0V5Z" fill="#FF8A00"/>
<path d="M5 0.5H19C21.4853 0.5 23.5 2.51472 23.5 5V7.5H0.5V5C0.5 2.51472 2.51472 0.5 5 0.5Z" stroke="black" stroke-opacity="0.2"/>
<path d="M0 5C0 2.23858 2.23858 0 5 0H8V8H0V5Z" fill="#EA3843"/>
<path d="M5 0.5H7.5V7.5H0.5V5C0.5 2.51472 2.51472 0.5 5 0.5Z" stroke="black" stroke-opacity="0.2"/>
<path d="M24 8H29C31.7614 8 34 10.2386 34 13V18H29C26.2386 18 24 15.7614 24 13V8Z" fill="#398415"/>
<path d="M29 8.5C31.4853 8.5 33.5 10.5147 33.5 13V17.5H29C26.5147 17.5 24.5 15.4853 24.5 13V8.5H29Z" stroke="black" stroke-opacity="0.2"/>
<path d="M8 40H42V43C42 45.7614 39.7614 48 37 48H13C10.2386 48 8 45.7614 8 43V40Z" fill="#00A3EF"/>
<path d="M41.5 40.5V43C41.5 45.4853 39.4853 47.5 37 47.5H13C10.5147 47.5 8.5 45.4853 8.5 43V40.5H41.5Z" stroke="black" stroke-opacity="0.2"/>
<path d="M34 40H42V43C42 45.7614 39.7614 48 37 48H34V40Z" fill="#263DB8"/>
<path d="M41.5 40.5V43C41.5 45.4853 39.4853 47.5 37 47.5H34.5V40.5H41.5Z" stroke="black" stroke-opacity="0.2"/>
<path d="M56.432 29.5C56.016 29.5 55.696 29.388 55.472 29.164C55.248 28.94 55.136 28.62 55.136 28.204V19.516C55.136 19.1 55.248 18.78 55.472 18.556C55.696 18.332 56.016 18.22 56.432 18.22H59.552C61.4827 18.22 62.9707 18.7107 64.016 19.692C65.072 20.6627 65.6 22.0493 65.6 23.852C65.6 24.7587 65.4613 25.564 65.184 26.268C64.9173 26.9613 64.528 27.548 64.016 28.028C63.504 28.508 62.8747 28.876 62.128 29.132C61.3813 29.3773 60.5227 29.5 59.552 29.5H56.432ZM57.616 27.468H59.408C60.016 27.468 60.544 27.3933 60.992 27.244C61.44 27.0947 61.8133 26.8707 62.112 26.572C62.4107 26.2733 62.6347 25.9 62.784 25.452C62.9333 24.9933 63.008 24.46 63.008 23.852C63.008 22.636 62.704 21.7347 62.096 21.148C61.4987 20.5507 60.6027 20.252 59.408 20.252H57.616V27.468ZM72.7586 29.676C71.6493 29.676 70.6733 29.436 69.8306 28.956C68.9986 28.4653 68.348 27.7827 67.8786 26.908C67.42 26.0333 67.1906 25.0147 67.1906 23.852C67.1906 22.9667 67.3186 22.172 67.5746 21.468C67.8413 20.7533 68.22 20.1453 68.7106 19.644C69.2013 19.132 69.788 18.7373 70.4706 18.46C71.164 18.1827 71.9266 18.044 72.7586 18.044C73.8893 18.044 74.8706 18.284 75.7026 18.764C76.5346 19.244 77.18 19.9213 77.6386 20.796C78.108 21.66 78.3426 22.6733 78.3426 23.836C78.3426 24.7213 78.2093 25.5213 77.9426 26.236C77.676 26.9507 77.2973 27.564 76.8066 28.076C76.316 28.588 75.7293 28.9827 75.0466 29.26C74.364 29.5373 73.6013 29.676 72.7586 29.676ZM72.7586 27.564C73.388 27.564 73.9213 27.42 74.3586 27.132C74.8066 26.8333 75.148 26.4067 75.3826 25.852C75.628 25.2867 75.7506 24.62 75.7506 23.852C75.7506 22.6787 75.4893 21.772 74.9666 21.132C74.444 20.4813 73.708 20.156 72.7586 20.156C72.14 20.156 71.6066 20.3 71.1586 20.588C70.7106 20.876 70.3693 21.2973 70.1346 21.852C69.9 22.4067 69.7826 23.0733 69.7826 23.852C69.7826 25.0147 70.044 25.9267 70.5666 26.588C71.0893 27.2387 71.82 27.564 72.7586 27.564ZM85.733 29.676C84.517 29.676 83.477 29.436 82.613 28.956C81.749 28.476 81.0823 27.804 80.613 26.94C80.1543 26.0653 79.925 25.036 79.925 23.852C79.925 22.9667 80.053 22.172 80.309 21.468C80.5757 20.7533 80.9597 20.1453 81.461 19.644C81.9623 19.132 82.5703 18.7373 83.285 18.46C84.0103 18.1827 84.8263 18.044 85.733 18.044C86.2663 18.044 86.805 18.1133 87.349 18.252C87.9037 18.38 88.3837 18.5667 88.789 18.812C89.0557 18.9613 89.237 19.148 89.333 19.372C89.429 19.596 89.4557 19.82 89.413 20.044C89.381 20.268 89.2903 20.46 89.141 20.62C89.0023 20.78 88.8263 20.8813 88.613 20.924C88.3997 20.9667 88.1597 20.9187 87.893 20.78C87.573 20.588 87.237 20.4493 86.885 20.364C86.533 20.2787 86.1757 20.236 85.813 20.236C85.0983 20.236 84.4957 20.38 84.005 20.668C83.525 20.9453 83.1623 21.3507 82.917 21.884C82.6717 22.4173 82.549 23.0733 82.549 23.852C82.549 24.62 82.6717 25.276 82.917 25.82C83.1623 26.364 83.525 26.78 84.005 27.068C84.4957 27.3453 85.0983 27.484 85.813 27.484C86.1543 27.484 86.501 27.4413 86.853 27.356C87.2157 27.2707 87.5623 27.1373 87.893 26.956C88.1703 26.8173 88.4157 26.7693 88.629 26.812C88.853 26.844 89.0343 26.94 89.173 27.1C89.3223 27.2493 89.413 27.4307 89.445 27.644C89.4877 27.8573 89.4663 28.0707 89.381 28.284C89.2957 28.4973 89.1357 28.6787 88.901 28.828C88.5063 29.0947 88.021 29.3027 87.445 29.452C86.869 29.6013 86.2983 29.676 85.733 29.676ZM94.9649 29.676C94.5169 29.676 94.0582 29.6387 93.5889 29.564C93.1302 29.5 92.6875 29.404 92.2609 29.276C91.8449 29.148 91.4715 28.988 91.1409 28.796C90.9062 28.668 90.7409 28.5027 90.6449 28.3C90.5489 28.0867 90.5115 27.8733 90.5329 27.66C90.5649 27.4467 90.6449 27.26 90.7729 27.1C90.9115 26.9293 91.0822 26.8227 91.2849 26.78C91.4982 26.7267 91.7329 26.764 91.9889 26.892C92.4262 27.1373 92.9009 27.3187 93.4129 27.436C93.9355 27.5533 94.4529 27.612 94.9649 27.612C95.7435 27.612 96.2982 27.4947 96.6289 27.26C96.9595 27.0147 97.1249 26.7107 97.1249 26.348C97.1249 26.0387 97.0075 25.7933 96.7729 25.612C96.5382 25.4307 96.1275 25.276 95.5409 25.148L93.7329 24.764C92.7089 24.5507 91.9462 24.188 91.4449 23.676C90.9542 23.1533 90.7089 22.4707 90.7089 21.628C90.7089 21.0947 90.8209 20.6093 91.0449 20.172C91.2689 19.7347 91.5835 19.356 91.9889 19.036C92.3942 18.716 92.8742 18.4707 93.4289 18.3C93.9942 18.1293 94.6129 18.044 95.2849 18.044C95.8822 18.044 96.4689 18.1187 97.0449 18.268C97.6209 18.4067 98.1275 18.6147 98.5649 18.892C98.7782 19.02 98.9222 19.1853 98.9969 19.388C99.0822 19.58 99.1089 19.7773 99.0769 19.98C99.0555 20.172 98.9755 20.3427 98.8369 20.492C98.7089 20.6413 98.5435 20.7373 98.3409 20.78C98.1382 20.8227 97.8929 20.7747 97.6049 20.636C97.2529 20.4547 96.8795 20.3213 96.4849 20.236C96.0902 20.1507 95.6849 20.108 95.2689 20.108C94.8209 20.108 94.4369 20.1667 94.1169 20.284C93.8075 20.4013 93.5675 20.5667 93.3969 20.78C93.2369 20.9933 93.1569 21.2387 93.1569 21.516C93.1569 21.8253 93.2689 22.076 93.4929 22.268C93.7169 22.46 94.1062 22.6147 94.6609 22.732L96.4689 23.116C97.5142 23.34 98.2929 23.7027 98.8049 24.204C99.3169 24.6947 99.5729 25.3453 99.5729 26.156C99.5729 26.6893 99.4662 27.1747 99.2529 27.612C99.0395 28.0387 98.7302 28.4067 98.3249 28.716C97.9195 29.0253 97.4342 29.2653 96.8689 29.436C96.3035 29.596 95.6689 29.676 94.9649 29.676ZM102.431 29.644C102.026 29.644 101.716 29.532 101.503 29.308C101.29 29.084 101.183 28.7693 101.183 28.364V19.484C101.183 19.068 101.29 18.7533 101.503 18.54C101.727 18.3267 102.042 18.22 102.447 18.22H106.335C107.594 18.22 108.564 18.54 109.247 19.18C109.93 19.8093 110.271 20.6893 110.271 21.82C110.271 22.9507 109.93 23.836 109.247 24.476C108.564 25.116 107.594 25.436 106.335 25.436H103.663V28.364C103.663 28.7693 103.556 29.084 103.343 29.308C103.14 29.532 102.836 29.644 102.431 29.644ZM103.663 23.516H105.919C106.559 23.516 107.044 23.372 107.375 23.084C107.716 22.796 107.887 22.3747 107.887 21.82C107.887 21.2653 107.716 20.8493 107.375 20.572C107.044 20.2947 106.559 20.156 105.919 20.156H103.663V23.516ZM116.993 29.676C115.884 29.676 114.908 29.436 114.065 28.956C113.233 28.4653 112.582 27.7827 112.113 26.908C111.654 26.0333 111.425 25.0147 111.425 23.852C111.425 22.9667 111.553 22.172 111.809 21.468C112.076 20.7533 112.454 20.1453 112.945 19.644C113.436 19.132 114.022 18.7373 114.705 18.46C115.398 18.1827 116.161 18.044 116.993 18.044C118.124 18.044 119.105 18.284 119.937 18.764C120.769 19.244 121.414 19.9213 121.873 20.796C122.342 21.66 122.577 22.6733 122.577 23.836C122.577 24.7213 122.444 25.5213 122.177 26.236C121.91 26.9507 121.532 27.564 121.041 28.076C120.55 28.588 119.964 28.9827 119.281 29.26C118.598 29.5373 117.836 29.676 116.993 29.676ZM116.993 27.564C117.622 27.564 118.156 27.42 118.593 27.132C119.041 26.8333 119.382 26.4067 119.617 25.852C119.862 25.2867 119.985 24.62 119.985 23.852C119.985 22.6787 119.724 21.772 119.201 21.132C118.678 20.4813 117.942 20.156 116.993 20.156C116.374 20.156 115.841 20.3 115.393 20.588C114.945 20.876 114.604 21.2973 114.369 21.852C114.134 22.4067 114.017 23.0733 114.017 23.852C114.017 25.0147 114.278 25.9267 114.801 26.588C115.324 27.2387 116.054 27.564 116.993 27.564ZM127.76 29.644C127.354 29.644 127.045 29.532 126.832 29.308C126.618 29.084 126.512 28.7693 126.512 28.364V20.268H123.68C123.349 20.268 123.093 20.1773 122.912 19.996C122.73 19.8147 122.639 19.564 122.639 19.244C122.639 18.9133 122.73 18.6627 122.912 18.492C123.093 18.3107 123.349 18.22 123.68 18.22H131.824C132.154 18.22 132.41 18.3107 132.592 18.492C132.773 18.6627 132.864 18.9133 132.864 19.244C132.864 19.564 132.773 19.8147 132.592 19.996C132.41 20.1773 132.154 20.268 131.824 20.268H128.992V28.364C128.992 28.7693 128.885 29.084 128.672 29.308C128.469 29.532 128.165 29.644 127.76 29.644Z" fill="black" fill-opacity="0.87"/>
<defs>
<linearGradient id="paint0_linear_4089_1311" x1="21" y1="40" x2="21" y2="8" gradientUnits="userSpaceOnUse">
<stop stop-color="#E0F4FD"/>
<stop offset="0.65" stop-color="white"/>
</linearGradient>
</defs>
</svg>
