<svg width="78" height="12" viewBox="0 0 78 12" fill="none" xmlns="http://www.w3.org/2000/svg">
<path d="M1.29528 11.4551C0.879281 11.4551 0.559281 11.3431 0.335281 11.1191C0.111281 10.8951 -0.000718713 10.5751 -0.000718713 10.1591V1.47108C-0.000718713 1.05508 0.111281 0.735078 0.335281 0.511078C0.559281 0.287078 0.879281 0.175077 1.29528 0.175077H4.41528C6.34595 0.175077 7.83395 0.665744 8.87928 1.64708C9.93528 2.61774 10.4633 4.00441 10.4633 5.80708C10.4633 6.71374 10.3246 7.51908 10.0473 8.22308C9.78062 8.91641 9.39128 9.50308 8.87928 9.98308C8.36728 10.4631 7.73795 10.8311 6.99128 11.0871C6.24461 11.3324 5.38595 11.4551 4.41528 11.4551H1.29528ZM2.47928 9.42308H4.27128C4.87928 9.42308 5.40728 9.34841 5.85528 9.19908C6.30328 9.04974 6.67662 8.82574 6.97528 8.52708C7.27395 8.22841 7.49795 7.85508 7.64728 7.40708C7.79661 6.94841 7.87128 6.41508 7.87128 5.80708C7.87128 4.59108 7.56728 3.68974 6.95928 3.10308C6.36195 2.50574 5.46595 2.20708 4.27128 2.20708H2.47928V9.42308ZM17.6219 11.6311C16.5126 11.6311 15.5366 11.3911 14.6939 10.9111C13.8619 10.4204 13.2112 9.73774 12.7419 8.86308C12.2832 7.98841 12.0539 6.96974 12.0539 5.80708C12.0539 4.92174 12.1819 4.12708 12.4379 3.42308C12.7046 2.70841 13.0832 2.10041 13.5739 1.59908C14.0646 1.08708 14.6512 0.692411 15.3339 0.415077C16.0272 0.137744 16.7899 -0.000922203 17.6219 -0.000922203C18.7526 -0.000922203 19.7339 0.239078 20.5659 0.719078C21.3979 1.19908 22.0432 1.87641 22.5019 2.75108C22.9712 3.61508 23.2059 4.62841 23.2059 5.79108C23.2059 6.67641 23.0726 7.47641 22.8059 8.19108C22.5392 8.90574 22.1606 9.51908 21.6699 10.0311C21.1792 10.5431 20.5926 10.9377 19.9099 11.2151C19.2272 11.4924 18.4646 11.6311 17.6219 11.6311ZM17.6219 9.51908C18.2512 9.51908 18.7846 9.37508 19.2219 9.08708C19.6699 8.78841 20.0112 8.36174 20.2459 7.80708C20.4912 7.24174 20.6139 6.57508 20.6139 5.80708C20.6139 4.63374 20.3526 3.72708 19.8299 3.08708C19.3072 2.43641 18.5712 2.11108 17.6219 2.11108C17.0032 2.11108 16.4699 2.25508 16.0219 2.54308C15.5739 2.83108 15.2326 3.25241 14.9979 3.80708C14.7632 4.36174 14.6459 5.02841 14.6459 5.80708C14.6459 6.96974 14.9072 7.88174 15.4299 8.54308C15.9526 9.19374 16.6832 9.51908 17.6219 9.51908ZM30.5963 11.6311C29.3803 11.6311 28.3403 11.3911 27.4763 10.9111C26.6123 10.4311 25.9456 9.75908 25.4763 8.89508C25.0176 8.02041 24.7883 6.99108 24.7883 5.80708C24.7883 4.92174 24.9163 4.12708 25.1723 3.42308C25.4389 2.70841 25.8229 2.10041 26.3243 1.59908C26.8256 1.08708 27.4336 0.692411 28.1483 0.415077C28.8736 0.137744 29.6896 -0.000922203 30.5963 -0.000922203C31.1296 -0.000922203 31.6683 0.0684112 32.2123 0.207078C32.7669 0.335078 33.2469 0.521744 33.6523 0.767077C33.9189 0.916411 34.1003 1.10308 34.1963 1.32708C34.2923 1.55108 34.3189 1.77508 34.2763 1.99908C34.2443 2.22308 34.1536 2.41508 34.0043 2.57508C33.8656 2.73508 33.6896 2.83641 33.4763 2.87908C33.2629 2.92174 33.0229 2.87374 32.7563 2.73508C32.4363 2.54308 32.1003 2.40441 31.7483 2.31908C31.3963 2.23374 31.0389 2.19108 30.6763 2.19108C29.9616 2.19108 29.3589 2.33508 28.8683 2.62308C28.3883 2.90041 28.0256 3.30574 27.7803 3.83908C27.5349 4.37241 27.4123 5.02841 27.4123 5.80708C27.4123 6.57508 27.5349 7.23108 27.7803 7.77508C28.0256 8.31908 28.3883 8.73508 28.8683 9.02308C29.3589 9.30041 29.9616 9.43908 30.6763 9.43908C31.0176 9.43908 31.3643 9.39641 31.7163 9.31108C32.0789 9.22574 32.4256 9.09241 32.7563 8.91108C33.0336 8.77241 33.2789 8.72441 33.4923 8.76708C33.7163 8.79908 33.8976 8.89508 34.0363 9.05508C34.1856 9.20441 34.2763 9.38574 34.3083 9.59908C34.3509 9.81241 34.3296 10.0257 34.2443 10.2391C34.1589 10.4524 33.9989 10.6337 33.7643 10.7831C33.3696 11.0497 32.8843 11.2577 32.3083 11.4071C31.7323 11.5564 31.1616 11.6311 30.5963 11.6311ZM39.8282 11.6311C39.3802 11.6311 38.9215 11.5937 38.4522 11.5191C37.9935 11.4551 37.5508 11.3591 37.1242 11.2311C36.7082 11.1031 36.3348 10.9431 36.0042 10.7511C35.7695 10.6231 35.6042 10.4577 35.5082 10.2551C35.4122 10.0417 35.3748 9.82841 35.3962 9.61508C35.4282 9.40174 35.5082 9.21508 35.6362 9.05508C35.7748 8.88441 35.9455 8.77774 36.1482 8.73508C36.3615 8.68174 36.5962 8.71908 36.8522 8.84708C37.2895 9.09241 37.7642 9.27374 38.2762 9.39108C38.7988 9.50841 39.3162 9.56708 39.8282 9.56708C40.6068 9.56708 41.1615 9.44974 41.4922 9.21508C41.8228 8.96974 41.9882 8.66574 41.9882 8.30308C41.9882 7.99374 41.8708 7.74841 41.6362 7.56708C41.4015 7.38574 40.9908 7.23108 40.4042 7.10308L38.5962 6.71908C37.5722 6.50574 36.8095 6.14308 36.3082 5.63108C35.8175 5.10841 35.5722 4.42574 35.5722 3.58308C35.5722 3.04974 35.6842 2.56441 35.9082 2.12708C36.1322 1.68974 36.4468 1.31108 36.8522 0.991077C37.2575 0.671078 37.7375 0.425744 38.2922 0.255077C38.8575 0.084411 39.4762 -0.000922203 40.1482 -0.000922203C40.7455 -0.000922203 41.3322 0.0737445 41.9082 0.223078C42.4842 0.361745 42.9908 0.569744 43.4282 0.847077C43.6415 0.975078 43.7855 1.14041 43.8602 1.34308C43.9455 1.53508 43.9722 1.73241 43.9402 1.93508C43.9188 2.12708 43.8388 2.29774 43.7002 2.44708C43.5722 2.59641 43.4068 2.69241 43.2042 2.73508C43.0015 2.77774 42.7562 2.72974 42.4682 2.59108C42.1162 2.40974 41.7428 2.27641 41.3482 2.19108C40.9535 2.10574 40.5482 2.06308 40.1322 2.06308C39.6842 2.06308 39.3002 2.12174 38.9802 2.23908C38.6708 2.35641 38.4308 2.52174 38.2602 2.73508C38.1002 2.94841 38.0202 3.19374 38.0202 3.47108C38.0202 3.78041 38.1322 4.03108 38.3562 4.22308C38.5802 4.41508 38.9695 4.56974 39.5242 4.68708L41.3322 5.07108C42.3775 5.29508 43.1562 5.65774 43.6682 6.15908C44.1802 6.64974 44.4362 7.30041 44.4362 8.11108C44.4362 8.64441 44.3295 9.12974 44.1162 9.56708C43.9028 9.99374 43.5935 10.3617 43.1882 10.6711C42.7828 10.9804 42.2975 11.2204 41.7322 11.3911C41.1668 11.5511 40.5322 11.6311 39.8282 11.6311ZM47.2942 11.5991C46.8888 11.5991 46.5795 11.4871 46.3662 11.2631C46.1528 11.0391 46.0462 10.7244 46.0462 10.3191V1.43908C46.0462 1.02308 46.1528 0.708411 46.3662 0.495077C46.5902 0.281744 46.9048 0.175077 47.3102 0.175077H51.1982C52.4568 0.175077 53.4275 0.495077 54.1102 1.13508C54.7928 1.76441 55.1342 2.64441 55.1342 3.77508C55.1342 4.90574 54.7928 5.79108 54.1102 6.43108C53.4275 7.07108 52.4568 7.39108 51.1982 7.39108H48.5262V10.3191C48.5262 10.7244 48.4195 11.0391 48.2062 11.2631C48.0035 11.4871 47.6995 11.5991 47.2942 11.5991ZM48.5262 5.47108H50.7822C51.4222 5.47108 51.9075 5.32708 52.2382 5.03908C52.5795 4.75108 52.7502 4.32974 52.7502 3.77508C52.7502 3.22041 52.5795 2.80441 52.2382 2.52708C51.9075 2.24974 51.4222 2.11108 50.7822 2.11108H48.5262V5.47108ZM61.8563 11.6311C60.7469 11.6311 59.7709 11.3911 58.9283 10.9111C58.0963 10.4204 57.4456 9.73774 56.9763 8.86308C56.5176 7.98841 56.2883 6.96974 56.2883 5.80708C56.2883 4.92174 56.4163 4.12708 56.6723 3.42308C56.9389 2.70841 57.3176 2.10041 57.8083 1.59908C58.2989 1.08708 58.8856 0.692411 59.5683 0.415077C60.2616 0.137744 61.0243 -0.000922203 61.8563 -0.000922203C62.9869 -0.000922203 63.9683 0.239078 64.8003 0.719078C65.6323 1.19908 66.2776 1.87641 66.7363 2.75108C67.2056 3.61508 67.4403 4.62841 67.4403 5.79108C67.4403 6.67641 67.3069 7.47641 67.0403 8.19108C66.7736 8.90574 66.3949 9.51908 65.9043 10.0311C65.4136 10.5431 64.8269 10.9377 64.1443 11.2151C63.4616 11.4924 62.6989 11.6311 61.8563 11.6311ZM61.8563 9.51908C62.4856 9.51908 63.0189 9.37508 63.4563 9.08708C63.9043 8.78841 64.2456 8.36174 64.4803 7.80708C64.7256 7.24174 64.8483 6.57508 64.8483 5.80708C64.8483 4.63374 64.5869 3.72708 64.0643 3.08708C63.5416 2.43641 62.8056 2.11108 61.8563 2.11108C61.2376 2.11108 60.7043 2.25508 60.2563 2.54308C59.8083 2.83108 59.4669 3.25241 59.2323 3.80708C58.9976 4.36174 58.8803 5.02841 58.8803 5.80708C58.8803 6.96974 59.1416 7.88174 59.6643 8.54308C60.1869 9.19374 60.9176 9.51908 61.8563 9.51908ZM72.6228 11.5991C72.2174 11.5991 71.9081 11.4871 71.6948 11.2631C71.4814 11.0391 71.3748 10.7244 71.3748 10.3191V2.22308H68.5428C68.2121 2.22308 67.9561 2.13241 67.7748 1.95108C67.5934 1.76974 67.5028 1.51908 67.5028 1.19908C67.5028 0.868411 67.5934 0.617744 67.7748 0.447078C67.9561 0.265744 68.2121 0.175077 68.5428 0.175077H76.6868C77.0174 0.175077 77.2734 0.265744 77.4548 0.447078C77.6361 0.617744 77.7268 0.868411 77.7268 1.19908C77.7268 1.51908 77.6361 1.76974 77.4548 1.95108C77.2734 2.13241 77.0174 2.22308 76.6868 2.22308H73.8548V10.3191C73.8548 10.7244 73.7481 11.0391 73.5348 11.2631C73.3321 11.4871 73.0281 11.5991 72.6228 11.5991Z" fill="black" fill-opacity="0.87"/>
</svg>
