<svg width="32" height="29" viewBox="0 0 32 29" fill="none" xmlns="http://www.w3.org/2000/svg">
<mask id="path-1-inside-1_1891_471" fill="white">
<path fill-rule="evenodd" clip-rule="evenodd" d="M8 1C6.34315 1 5 2.34315 5 4L5 26C5 27.6569 6.34315 29 8 29L24 29C25.6569 29 27 27.6569 27 26L27 10L18 1L8 1Z"/>
</mask>
<path fill-rule="evenodd" clip-rule="evenodd" d="M8 1C6.34315 1 5 2.34315 5 4L5 26C5 27.6569 6.34315 29 8 29L24 29C25.6569 29 27 27.6569 27 26L27 10L18 1L8 1Z" fill="url(#paint0_linear_1891_471)"/>
<path d="M8 29L8 28L8 29ZM24 29L24 30L24 29ZM27 10L28 10C28 9.73478 27.8946 9.48043 27.7071 9.29289L27 10ZM18 1L18.7071 0.292893C18.5196 0.105357 18.2652 -6.88446e-08 18 -6.74682e-08L18 1ZM6 4C6 2.89543 6.89543 2 8 2L8 -1.55696e-08C5.79086 -4.10446e-09 4 1.79086 4 4L6 4ZM6 26L6 4L4 4L4 26L6 26ZM8 28C6.89543 28 6 27.1046 6 26L4 26C4 28.2091 5.79086 30 8 30L8 28ZM24 28L8 28L8 30L24 30L24 28ZM26 26C26 27.1046 25.1046 28 24 28L24 30C26.2091 30 28 28.2091 28 26L26 26ZM26 10L26 26L28 26L28 10L26 10ZM27.7071 9.29289L18.7071 0.292893L17.2929 1.70711L26.2929 10.7071L27.7071 9.29289ZM8 2L18 2L18 -6.74682e-08L8 -1.55696e-08L8 2Z" fill="#BEBEC7" mask="url(#path-1-inside-1_1891_471)"/>
<g filter="url(#filter0_d_1891_471)">
<path d="M27 10L21 10C19.3431 10 18 8.65686 18 7L18 1L27 10Z" fill="white"/>
<path d="M18.5 2.20711L25.7929 9.5L21 9.5C19.6193 9.5 18.5 8.38071 18.5 7L18.5 2.20711Z" stroke="#BEBEC7" stroke-linejoin="round"/>
</g>
<defs>
<filter id="filter0_d_1891_471" x="16.5" y="0" width="12" height="12" filterUnits="userSpaceOnUse" color-interpolation-filters="sRGB">
<feFlood flood-opacity="0" result="BackgroundImageFix"/>
<feColorMatrix in="SourceAlpha" type="matrix" values="0 0 0 0 0 0 0 0 0 0 0 0 0 0 0 0 0 0 127 0" result="hardAlpha"/>
<feOffset dy="0.5"/>
<feGaussianBlur stdDeviation="0.75"/>
<feComposite in2="hardAlpha" operator="out"/>
<feColorMatrix type="matrix" values="0 0 0 0 0 0 0 0 0 0 0 0 0 0 0 0 0 0 0.08 0"/>
<feBlend mode="normal" in2="BackgroundImageFix" result="effect1_dropShadow_1891_471"/>
<feBlend mode="normal" in="SourceGraphic" in2="effect1_dropShadow_1891_471" result="shape"/>
</filter>
<linearGradient id="paint0_linear_1891_471" x1="15.2684" y1="1.89454" x2="17.4614" y2="28.3187" gradientUnits="userSpaceOnUse">
<stop stop-color="#F0F2F2"/>
<stop offset="0.5" stop-color="white"/>
</linearGradient>
</defs>
</svg>
