<svg width="54" height="44" viewBox="0 0 54 44" fill="none" xmlns="http://www.w3.org/2000/svg">
<g filter="url(#filter0_d_1392_810)">
<mask id="path-1-inside-1_1392_810" fill="white">
<path fill-rule="evenodd" clip-rule="evenodd" d="M28.1648 6.66667C28.9707 8 30.8091 9.86667 33 10H47C49.2091 10 51 11.7909 51 14V39H3V10V6C3 3.79086 4.79086 2 7 2H23C25.1909 2.13333 26.5531 4 27.359 5.33333L28.1648 6.66667Z"/>
</mask>
<path fill-rule="evenodd" clip-rule="evenodd" d="M28.1648 6.66667C28.9707 8 30.8091 9.86667 33 10H47C49.2091 10 51 11.7909 51 14V39H3V10V6C3 3.79086 4.79086 2 7 2H23C25.1909 2.13333 26.5531 4 27.359 5.33333L28.1648 6.66667Z" fill="url(#paint0_linear_1392_810)"/>
<path d="M33 10L32.9393 10.9982L32.9696 11H33V10ZM28.1648 6.66667L27.309 7.18393L28.1648 6.66667ZM51 39V40H52V39H51ZM3 39H2V40H3V39ZM23 2L23.0607 1.00185L23.0304 1H23V2ZM27.359 5.33333L28.2148 4.81607V4.81607L27.359 5.33333ZM33.0607 9.00185C32.2298 8.95128 31.411 8.56592 30.6777 7.99452C29.9461 7.42451 29.3648 6.71872 29.0207 6.14941L27.309 7.18393C27.7708 7.94795 28.5115 8.84216 29.4484 9.57214C30.3834 10.3007 31.5792 10.9154 32.9393 10.9982L33.0607 9.00185ZM33 11H47V9H33V11ZM47 11C48.6569 11 50 12.3431 50 14H52C52 11.2386 49.7614 9 47 9V11ZM50 14V39H52V14H50ZM51 38H3V40H51V38ZM4 39V10H2V39H4ZM2 6V10H4V6H2ZM7 1C4.23858 1 2 3.23858 2 6H4C4 4.34315 5.34315 3 7 3V1ZM23 1H7V3H23V1ZM28.2148 4.81607C27.4167 3.49563 25.8154 1.16949 23.0607 1.00185L22.9393 2.99815C24.5665 3.09718 25.6895 4.50437 26.5031 5.85059L28.2148 4.81607ZM29.0207 6.14941L28.2148 4.81607L26.5031 5.85059L27.309 7.18393L29.0207 6.14941Z" fill="#BEBEC7" mask="url(#path-1-inside-1_1392_810)"/>
</g>
<path d="M38 26C39.6569 26 41 24.6569 41 23C41 21.3431 39.6569 20 38 20C36.3431 20 35 21.3431 35 23C35 24.6569 36.3431 26 38 26Z" fill="#FF5BA0"/>
<path d="M44 31C44 32.6567 44 34 38 34C32 34 32 32.6567 32 31C32 29.3433 34.6865 28 38 28C41.3135 28 44 29.3433 44 31Z" fill="#FF5BA0"/>
<mask id="path-5-inside-2_1392_810" fill="white">
<path d="M3 38H51V40C51 42.2091 49.2091 44 47 44H7C4.79086 44 3 42.2091 3 40V38Z"/>
</mask>
<path d="M3 38H51V40C51 42.2091 49.2091 44 47 44H7C4.79086 44 3 42.2091 3 40V38Z" fill="#FF5BA0"/>
<path d="M3 38H51H3ZM52 40C52 42.7614 49.7614 45 47 45H7C4.23858 45 2 42.7614 2 40H4C4 41.6569 5.34315 43 7 43H47C48.6569 43 50 41.6569 50 40H52ZM7 45C4.23858 45 2 42.7614 2 40V38H4V40C4 41.6569 5.34315 43 7 43V45ZM52 38V40C52 42.7614 49.7614 45 47 45V43C48.6569 43 50 41.6569 50 40V38H52Z" fill="black" fill-opacity="0.2" mask="url(#path-5-inside-2_1392_810)"/>
<defs>
<filter id="filter0_d_1392_810" x="0" y="0" width="54" height="43" filterUnits="userSpaceOnUse" color-interpolation-filters="sRGB">
<feFlood flood-opacity="0" result="BackgroundImageFix"/>
<feColorMatrix in="SourceAlpha" type="matrix" values="0 0 0 0 0 0 0 0 0 0 0 0 0 0 0 0 0 0 127 0" result="hardAlpha"/>
<feOffset dy="1"/>
<feGaussianBlur stdDeviation="1.5"/>
<feComposite in2="hardAlpha" operator="out"/>
<feColorMatrix type="matrix" values="0 0 0 0 0 0 0 0 0 0 0 0 0 0 0 0 0 0 0.08 0"/>
<feBlend mode="normal" in2="BackgroundImageFix" result="effect1_dropShadow_1392_810"/>
<feBlend mode="normal" in="SourceGraphic" in2="effect1_dropShadow_1392_810" result="shape"/>
</filter>
<linearGradient id="paint0_linear_1392_810" x1="27" y1="39" x2="27" y2="2" gradientUnits="userSpaceOnUse">
<stop stop-color="#FFEBF3"/>
<stop offset="0.5" stop-color="white"/>
</linearGradient>
</defs>
</svg>
