<svg width="48" height="48" viewBox="0 0 48 48" fill="none" xmlns="http://www.w3.org/2000/svg">
<rect x="0.5" y="0.5" width="47" height="47" rx="23.5" fill="url(#paint0_linear_1474_127)"/>
<rect x="0.5" y="0.5" width="47" height="47" rx="23.5" stroke="#BEBEC7"/>
<path d="M22.4693 8.63405C23.4494 8.22807 24.5506 8.22807 25.5307 8.63405L33.783 12.0522C34.7631 12.4582 35.5418 13.2369 35.9478 14.217L39.3659 22.4693C39.7719 23.4494 39.7719 24.5506 39.3659 25.5307L35.9478 33.783C35.5418 34.7631 34.7631 35.5418 33.783 35.9478L25.5307 39.3659C24.5506 39.7719 23.4494 39.7719 22.4693 39.3659L14.217 35.9478C13.2369 35.5418 12.4582 34.7631 12.0522 33.783L8.63405 25.5307C8.22807 24.5506 8.22807 23.4494 8.63405 22.4693L12.0522 14.217C12.4582 13.2369 13.2369 12.4582 14.217 12.0522L22.4693 8.63405Z" fill="#FFC400"/>
<path d="M22.6606 9.09599C23.5182 8.74076 24.4818 8.74076 25.3394 9.09599L33.5916 12.5142C34.4492 12.8694 35.1306 13.5508 35.4858 14.4084L38.904 22.6606C39.2592 23.5182 39.2592 24.4818 38.904 25.3394L35.4858 33.5916C35.1306 34.4492 34.4492 35.1306 33.5916 35.4858L25.3394 38.904C24.4818 39.2592 23.5182 39.2592 22.6606 38.904L14.4084 35.4858C13.5508 35.1306 12.8694 34.4492 12.5142 33.5916L9.09599 25.3394C8.74076 24.4818 8.74076 23.5182 9.09599 22.6606L12.5142 14.4084C12.8694 13.5508 13.5508 12.8694 14.4084 12.5142L22.6606 9.09599Z" stroke="black" stroke-opacity="0.2"/>
<defs>
<linearGradient id="paint0_linear_1474_127" x1="24" y1="48" x2="24" y2="0" gradientUnits="userSpaceOnUse">
<stop stop-color="#F0F2F2"/>
<stop offset="0.5" stop-color="white"/>
</linearGradient>
</defs>
</svg>
