<svg width="48" height="42" viewBox="0 0 48 42" fill="none" xmlns="http://www.w3.org/2000/svg">
<path d="M4 0.5H19.9805C21.8833 0.621703 23.1224 2.25461 23.9307 3.5918L24.7373 4.92578C25.1697 5.64102 25.8706 6.48791 26.7559 7.17773C27.6405 7.867 28.742 8.42431 29.9697 8.49902L29.9844 8.5H44C45.933 8.5 47.5 10.067 47.5 12V36.5H0.5V4C0.5 2.067 2.067 0.5 4 0.5Z" fill="url(#paint0_linear_1462_192)" stroke="#BEBEC7"/>
<mask id="path-2-inside-1_1462_192" fill="white">
<path d="M0 36H48V38C48 40.2091 46.2091 42 44 42H4C1.79086 42 0 40.2091 0 38V36Z"/>
</mask>
<path d="M0 36H48V38C48 40.2091 46.2091 42 44 42H4C1.79086 42 0 40.2091 0 38V36Z" fill="#00A3EF"/>
<path d="M0 36H48H0ZM49 38C49 40.7614 46.7614 43 44 43H4C1.23858 43 -1 40.7614 -1 38H1C1 39.6569 2.34315 41 4 41H44C45.6569 41 47 39.6569 47 38H49ZM4 43C1.23858 43 -1 40.7614 -1 38V36H1V38C1 39.6569 2.34315 41 4 41V43ZM49 36V38C49 40.7614 46.7614 43 44 43V41C45.6569 41 47 39.6569 47 38V36H49Z" fill="black" fill-opacity="0.2" mask="url(#path-2-inside-1_1462_192)"/>
<defs>
<linearGradient id="paint0_linear_1462_192" x1="24" y1="37" x2="24" y2="0" gradientUnits="userSpaceOnUse">
<stop stop-color="#E0F4FD"/>
<stop offset="0.5" stop-color="white"/>
</linearGradient>
</defs>
</svg>
