<svg width="48" height="42" viewBox="0 0 48 42" fill="none" xmlns="http://www.w3.org/2000/svg">
<path d="M48 36V12C48 9.79086 46.2091 8 44 8H30C27.8091 7.86667 25.9707 6 25.1648 4.66667L24.359 3.33333C23.5531 2 22.1909 0.133333 20 0H4C1.79086 0 0 1.79086 0 4V36H48Z" fill="url(#paint0_linear_1464_30)"/>
<path d="M0 36H48V38C48 40.2091 46.2091 42 44 42H4C1.79086 42 0 40.2091 0 38V36Z" fill="#879399"/>
<path fill-rule="evenodd" clip-rule="evenodd" d="M48 36H47V38C47 39.6569 45.6569 41 44 41H4C2.34315 41 1 39.6569 1 38V36H0V38C0 40.2091 1.79086 42 4 42H44C46.2091 42 48 40.2091 48 38V36Z" fill="black" fill-opacity="0.2"/>
<path d="M25.1648 4.66667C25.9707 6 27.8091 7.86667 30 8H44C46.2091 8 48 9.79086 48 12V36H47V12C47 10.3431 45.6569 9 44 9H29.9696L29.9393 8.99815C28.5792 8.91539 27.3835 8.30075 26.4484 7.57214C25.5115 6.84216 24.7708 5.94795 24.309 5.18393L23.5031 3.85059C22.6942 2.51214 21.5794 1.11344 19.9674 1H4C2.34315 1 1 2.34315 1 4V36H0V4C0 1.79086 1.79086 0 4 0H20C22.1909 0.133333 23.5531 2 24.359 3.33333L25.1648 4.66667Z" fill="black" fill-opacity="0.2"/>
<defs>
<linearGradient id="paint0_linear_1464_30" x1="24" y1="42" x2="24" y2="0" gradientUnits="userSpaceOnUse">
<stop stop-color="#F0F2F2"/>
<stop offset="0.5" stop-color="white"/>
</linearGradient>
</defs>
</svg>
