<svg width="20" height="24" viewBox="0 0 20 24" fill="none" xmlns="http://www.w3.org/2000/svg">
<g clip-path="url(#clip0_2444_1033)">
<path d="M2.35157 0.5H11.3815C11.8456 0.5 12.289 0.674065 12.6044 0.980469L18.9998 7.19336C19.2851 7.47064 19.4436 7.83495 19.4436 8.21289V21.7139C19.4436 22.7366 18.6 23.4997 17.6467 23.5H2.35157C1.3983 23.4997 0.554688 22.7366 0.554688 21.7139V2.28613C0.554688 1.26345 1.3983 0.500272 2.35157 0.5Z" fill="url(#paint0_linear_2444_1033)" stroke="#BEBEC7" stroke-linejoin="round"/>
<path d="M12.2559 0.726562C12.3829 0.797109 12.5019 0.880999 12.6052 0.981445L19.0006 7.19434C19.1127 7.30332 19.2041 7.42626 19.2752 7.55762C19.2194 7.52358 19.1649 7.48859 19.1081 7.45801C18.3715 7.06179 17.5344 6.92969 17.0583 6.92969H16.7969C14.6493 6.92944 12.9081 5.36247 12.908 3.42969V2.8584C12.908 2.41419 12.7769 1.61868 12.3763 0.916016C12.3399 0.85213 12.2977 0.789716 12.2559 0.726562Z" fill="white" stroke="#BEBEC7" stroke-linejoin="round"/>
</g>
<defs>
<linearGradient id="paint0_linear_2444_1033" x1="9.05945" y1="0.766751" x2="10.8863" y2="23.4248" gradientUnits="userSpaceOnUse">
<stop stop-color="#F0F2F2"/>
<stop offset="0.5" stop-color="white"/>
</linearGradient>
<clipPath id="clip0_2444_1033">
<rect width="20" height="24" fill="white"/>
</clipPath>
</defs>
</svg>
