<svg width="36" height="42" viewBox="0 0 36 42" fill="none" xmlns="http://www.w3.org/2000/svg">
<path d="M4.23535 0.5H21.4404C21.8232 0.500077 22.1914 0.646468 22.4697 0.90918L35.0303 12.7715C35.3302 13.0548 35.5 13.4497 35.5 13.8623V38C35.5 39.9065 33.8549 41.5 31.7646 41.5H4.23535C2.1451 41.5 0.5 39.9065 0.5 38V4C0.5 2.09355 2.1451 0.5 4.23535 0.5Z" fill="url(#paint0_linear_1839_899)" stroke="#BEBEC7" stroke-linejoin="round"/>
<path d="M21.4404 0.5C21.8232 0.500075 22.1914 0.646468 22.4697 0.90918L35.0303 12.7715C35.3302 13.0548 35.5 13.4497 35.5 13.8623V14.3994C35.1 13.9633 34.6163 13.6201 34.1143 13.3574C32.8828 12.7133 31.4767 12.5 30.7061 12.5H26.2354C24.3024 12.5 22.7354 10.933 22.7354 9V5C22.7354 4.2595 22.5067 2.91915 21.8193 1.74707C21.5539 1.29449 21.2162 0.862325 20.7949 0.5H21.4404Z" fill="white" stroke="#BEBEC7" stroke-linejoin="round"/>
<path d="M25.9346 30.9738L29.3429 34.2857C29.9881 34.9126 29.5406 36 28.6374 36L7.36373 35.9998C6.46052 35.9998 6.01301 34.9124 6.65819 34.2855L12.2304 28.8709C13.4255 27.7097 15.363 27.7097 16.5581 28.8709L20.1645 32.3753L21.607 30.9738C22.802 29.8125 24.7396 29.8125 25.9346 30.9738Z" fill="url(#paint1_linear_1839_899)"/>
<path d="M28.5888 25.5C28.5888 26.8807 27.4037 28 25.9417 28C24.4798 28 23.2947 26.8807 23.2947 25.5C23.2947 24.1193 24.4798 23 25.9417 23C27.4037 23 28.5888 24.1193 28.5888 25.5Z" fill="url(#paint2_linear_1839_899)"/>
<defs>
<linearGradient id="paint0_linear_1839_899" x1="16.3086" y1="1.34181" x2="19.4177" y2="41.0074" gradientUnits="userSpaceOnUse">
<stop stop-color="#F0F2F2"/>
<stop offset="0.5" stop-color="white"/>
</linearGradient>
<linearGradient id="paint1_linear_1839_899" x1="22.8535" y1="35.9999" x2="22.8535" y2="22.7736" gradientUnits="userSpaceOnUse">
<stop stop-color="#BEBEC7"/>
<stop offset="1" stop-color="#96969C"/>
</linearGradient>
<linearGradient id="paint2_linear_1839_899" x1="22.8535" y1="35.9999" x2="22.8535" y2="22.7736" gradientUnits="userSpaceOnUse">
<stop stop-color="#BEBEC7"/>
<stop offset="1" stop-color="#96969C"/>
</linearGradient>
</defs>
</svg>
