<svg width="36" height="42" viewBox="0 0 36 42" fill="none" xmlns="http://www.w3.org/2000/svg">
<path d="M4.23535 0.5H21.4404C21.8232 0.500077 22.1914 0.646468 22.4697 0.90918L35.0303 12.7715C35.3302 13.0548 35.5 13.4497 35.5 13.8623V38C35.5 39.9065 33.8549 41.5 31.7646 41.5H4.23535C2.1451 41.5 0.5 39.9065 0.5 38V4C0.5 2.09355 2.1451 0.5 4.23535 0.5Z" fill="url(#paint0_linear_1839_898)" stroke="#BEBEC7" stroke-linejoin="round"/>
<path d="M16.9434 18.3075C16.9434 17.6493 17.5686 17.1702 18.2041 17.3417L23.6152 18.8026C24.0515 18.9204 24.3553 19.3157 24.3555 19.7675V22.6962C24.3555 23.3544 23.7302 23.8334 23.0947 23.662L19.0605 22.5722V32.9999H19.0215C18.7794 34.6965 17.3221 36.0007 15.5586 36.0009H15.1465C13.2135 36.0009 11.6465 34.4339 11.6465 32.5009C11.6467 30.568 13.2136 29.0009 15.1465 29.0009H15.5586C16.0505 29.0009 16.5187 29.1028 16.9434 29.286V18.3075Z" fill="url(#paint1_linear_1839_898)"/>
<path d="M21.4404 0.5C21.8232 0.500075 22.1914 0.646468 22.4697 0.90918L35.0303 12.7715C35.3302 13.0548 35.5 13.4497 35.5 13.8623V14.3994C35.1 13.9633 34.6163 13.6201 34.1143 13.3574C32.8828 12.7133 31.4767 12.5 30.7061 12.5H26.2354C24.3024 12.5 22.7354 10.933 22.7354 9V5C22.7354 4.2595 22.5067 2.91915 21.8193 1.74707C21.5539 1.29449 21.2162 0.862325 20.7949 0.5H21.4404Z" fill="white" stroke="#BEBEC7" stroke-linejoin="round"/>
<defs>
<linearGradient id="paint0_linear_1839_898" x1="16.3086" y1="1.34181" x2="19.4177" y2="41.0074" gradientUnits="userSpaceOnUse">
<stop stop-color="#F0F2F2"/>
<stop offset="0.5" stop-color="white"/>
</linearGradient>
<linearGradient id="paint1_linear_1839_898" x1="20.6487" y1="36.0008" x2="20.6487" y2="16.9811" gradientUnits="userSpaceOnUse">
<stop stop-color="#BEBEC7"/>
<stop offset="1" stop-color="#96969C"/>
</linearGradient>
</defs>
</svg>
