<svg width="20" height="24" viewBox="0 0 20 24" fill="none" xmlns="http://www.w3.org/2000/svg">
<g clip-path="url(#clip0_2444_1081)">
<mask id="mask0_2444_1081" style="mask-type:luminance" maskUnits="userSpaceOnUse" x="0" y="0" width="20" height="24">
<path d="M20 0H0V24H20V0Z" fill="white"/>
</mask>
<g mask="url(#mask0_2444_1081)">
<path d="M2.35254 0.611328H11.9109C12.1236 0.611371 12.3281 0.692699 12.4827 0.83865L19.4609 7.42883C19.6275 7.58622 19.7218 7.80561 19.7218 8.03483V21.4447C19.7218 22.5038 18.8079 23.3891 17.6466 23.3891H2.35254C1.19129 23.3891 0.277344 22.5038 0.277344 21.4447V2.55577C0.277344 1.49663 1.19129 0.611328 2.35254 0.611328Z" fill="url(#paint0_linear_2444_1081)" stroke="#BEBEC7" stroke-width="0.555556" stroke-linejoin="round"/>
<path d="M9.41342 10.5033C9.41342 10.1376 9.76076 9.87147 10.1138 9.96675L13.12 10.7784C13.3623 10.8438 13.5312 11.0634 13.5312 11.3144V12.9415C13.5312 13.3071 13.1839 13.5732 12.8308 13.478L10.5896 12.8726V18.6658H10.5679C10.4334 19.6083 9.62376 20.3329 8.64409 20.333H8.41515C7.34126 20.333 6.4707 19.4624 6.4707 18.3885C6.47076 17.3147 7.34131 16.4441 8.41515 16.4441H8.64409C8.91737 16.4441 9.17748 16.5007 9.41342 16.6025V10.5033Z" fill="url(#paint1_linear_2444_1081)"/>
<path d="M11.9093 0.611328C12.122 0.61137 12.3266 0.692699 12.4812 0.83865L19.4593 7.42883C19.6259 7.58622 19.7202 7.80561 19.7202 8.03483V8.33322C19.498 8.09094 19.2293 7.90027 18.9504 7.75433C18.2662 7.3965 17.4851 7.278 17.057 7.278H14.5732C13.4993 7.278 12.6288 6.40744 12.6288 5.33355V3.11133C12.6288 2.69994 12.5018 1.9553 12.1199 1.30414C11.9724 1.05271 11.7848 0.81262 11.5508 0.611328H11.9093Z" fill="white" stroke="#BEBEC7" stroke-width="0.555556" stroke-linejoin="round"/>
</g>
</g>
<defs>
<linearGradient id="paint0_linear_2444_1081" x1="9.0599" y1="1.079" x2="10.7872" y2="23.1154" gradientUnits="userSpaceOnUse">
<stop stop-color="#F0F2F2"/>
<stop offset="0.5" stop-color="white"/>
</linearGradient>
<linearGradient id="paint1_linear_2444_1081" x1="11.4719" y1="20.3329" x2="11.4719" y2="9.76642" gradientUnits="userSpaceOnUse">
<stop stop-color="#BEBEC7"/>
<stop offset="1" stop-color="#96969C"/>
</linearGradient>
<clipPath id="clip0_2444_1081">
<rect width="20" height="24" fill="white"/>
</clipPath>
</defs>
</svg>
