<svg width="36" height="42" viewBox="0 0 36 42" fill="none" xmlns="http://www.w3.org/2000/svg">
<path d="M4.23535 0.5H21.4404C21.8232 0.500077 22.1914 0.646468 22.4697 0.90918L35.0303 12.7715C35.3302 13.0548 35.5 13.4497 35.5 13.8623V38C35.5 39.9065 33.8549 41.5 31.7646 41.5H4.23535C2.1451 41.5 0.5 39.9065 0.5 38V4C0.5 2.09355 2.1451 0.5 4.23535 0.5Z" fill="url(#paint0_linear_1839_901)" stroke="#BEBEC7" stroke-linejoin="round"/>
<path d="M21.4404 0.5C21.8232 0.500075 22.1914 0.646468 22.4697 0.90918L35.0303 12.7715C35.3302 13.0548 35.5 13.4497 35.5 13.8623V14.3994C35.1 13.9633 34.6163 13.6201 34.1143 13.3574C32.8828 12.7133 31.4767 12.5 30.7061 12.5H26.2354C24.3024 12.5 22.7354 10.933 22.7354 9V5C22.7354 4.2595 22.5067 2.91915 21.8193 1.74707C21.5539 1.29449 21.2162 0.862325 20.7949 0.5H21.4404Z" fill="white" stroke="#BEBEC7" stroke-linejoin="round"/>
<path d="M27.4744 34.08V28.634H26.4664V27.136H27.4744V26.324C27.4744 25.484 27.6967 24.8867 28.1414 24.532C28.596 24.1773 29.2087 24 29.9795 24H30.7948V25.526H30.276C29.9499 25.526 29.7177 25.5867 29.5793 25.708C29.4409 25.8293 29.3718 26.0347 29.3718 26.324V27.136H30.9579V28.634H29.3718V34.08H27.4744Z" fill="url(#paint1_linear_1839_901)"/>
<path d="M20.8432 34.248C20.1514 34.248 19.5337 34.0893 18.9902 33.772C18.4467 33.4547 18.0168 33.0207 17.7006 32.47C17.3843 31.9193 17.2262 31.294 17.2262 30.594C17.2262 29.894 17.3843 29.2733 17.7006 28.732C18.0168 28.1813 18.4467 27.752 18.9902 27.444C19.5337 27.1267 20.1514 26.968 20.8432 26.968C21.3966 26.968 21.8808 27.066 22.2959 27.262C22.7109 27.458 23.0469 27.7333 23.3039 28.088V24H25.2013V34.08H23.5114L23.3039 33.086C23.0667 33.394 22.7505 33.6647 22.3552 33.898C21.9697 34.1313 21.4657 34.248 20.8432 34.248ZM21.2434 32.68C21.8561 32.68 22.3552 32.4887 22.7406 32.106C23.1359 31.714 23.3335 31.2147 23.3335 30.608C23.3335 30.0013 23.1359 29.5067 22.7406 29.124C22.3552 28.732 21.8561 28.536 21.2434 28.536C20.6406 28.536 20.1415 28.7273 19.7462 29.11C19.3509 29.4927 19.1533 29.9873 19.1533 30.594C19.1533 31.2007 19.3509 31.7 19.7462 32.092C20.1415 32.484 20.6406 32.68 21.2434 32.68Z" fill="url(#paint2_linear_1839_901)"/>
<path d="M8.16609 37.1599V27.1359H9.85597L10.0635 28.1299C10.3007 27.8219 10.612 27.5512 10.9974 27.3179C11.3927 27.0846 11.9016 26.9679 12.5242 26.9679C13.216 26.9679 13.8336 27.1266 14.3771 27.4439C14.9207 27.7612 15.3506 28.1952 15.6668 28.7459C15.983 29.2966 16.1411 29.9219 16.1411 30.6219C16.1411 31.3219 15.983 31.9472 15.6668 32.4979C15.3506 33.0392 14.9207 33.4686 14.3771 33.7859C13.8336 34.0939 13.216 34.2479 12.5242 34.2479C11.9708 34.2479 11.4866 34.1499 11.0715 33.9539C10.6564 33.7579 10.3204 33.4826 10.0635 33.1279V37.1599H8.16609ZM12.124 32.6799C12.7268 32.6799 13.2259 32.4886 13.6211 32.1059C14.0164 31.7232 14.2141 31.2286 14.2141 30.6219C14.2141 30.0152 14.0164 29.5159 13.6211 29.1239C13.2259 28.7319 12.7268 28.5359 12.124 28.5359C11.5113 28.5359 11.0073 28.7319 10.612 29.1239C10.2266 29.5066 10.0339 30.0012 10.0339 30.6079C10.0339 31.2146 10.2266 31.7139 10.612 32.1059C11.0073 32.4886 11.5113 32.6799 12.124 32.6799Z" fill="url(#paint3_linear_1839_901)"/>
<path d="M5.42026 34.178C5.07437 34.178 4.78779 34.0753 4.56049 33.87C4.34308 33.6646 4.23438 33.4173 4.23438 33.128C4.23438 32.8293 4.34308 32.5773 4.56049 32.372C4.78779 32.1666 5.07437 32.064 5.42026 32.064C5.76614 32.064 6.04779 32.1666 6.2652 32.372C6.49249 32.5773 6.60614 32.8293 6.60614 33.128C6.60614 33.4173 6.49249 33.6646 6.2652 33.87C6.04779 34.0753 5.76614 34.178 5.42026 34.178Z" fill="url(#paint4_linear_1839_901)"/>
<defs>
<linearGradient id="paint0_linear_1839_901" x1="16.3086" y1="1.34181" x2="19.4177" y2="41.0074" gradientUnits="userSpaceOnUse">
<stop stop-color="#F0F2F2"/>
<stop offset="0.5" stop-color="white"/>
</linearGradient>
<linearGradient id="paint1_linear_1839_901" x1="5.91437" y1="37" x2="5.91437" y2="24" gradientUnits="userSpaceOnUse">
<stop stop-color="#BEBEC7"/>
<stop offset="1" stop-color="#9C9696"/>
</linearGradient>
<linearGradient id="paint2_linear_1839_901" x1="5.91437" y1="37" x2="5.91437" y2="24" gradientUnits="userSpaceOnUse">
<stop stop-color="#BEBEC7"/>
<stop offset="1" stop-color="#9C9696"/>
</linearGradient>
<linearGradient id="paint3_linear_1839_901" x1="5.91437" y1="37" x2="5.91437" y2="24" gradientUnits="userSpaceOnUse">
<stop stop-color="#BEBEC7"/>
<stop offset="1" stop-color="#9C9696"/>
</linearGradient>
<linearGradient id="paint4_linear_1839_901" x1="5.91437" y1="37" x2="5.91437" y2="24" gradientUnits="userSpaceOnUse">
<stop stop-color="#BEBEC7"/>
<stop offset="1" stop-color="#9C9696"/>
</linearGradient>
</defs>
</svg>
