<svg width="20" height="24" viewBox="0 0 20 24" fill="none" xmlns="http://www.w3.org/2000/svg">
<g clip-path="url(#clip0_2444_1101)">
<mask id="mask0_2444_1101" style="mask-type:luminance" maskUnits="userSpaceOnUse" x="0" y="0" width="20" height="24">
<path d="M20 0H0V24H20V0Z" fill="white"/>
</mask>
<g mask="url(#mask0_2444_1101)">
<path d="M2.35254 0.611328H11.9109C12.1236 0.611371 12.3281 0.692699 12.4827 0.83865L19.4609 7.42883C19.6275 7.58622 19.7218 7.80561 19.7218 8.03483V21.4447C19.7218 22.5038 18.8079 23.3891 17.6466 23.3891H2.35254C1.19129 23.3891 0.277344 22.5038 0.277344 21.4447V2.55577C0.277344 1.49663 1.19129 0.611328 2.35254 0.611328Z" fill="url(#paint0_linear_2444_1101)" stroke="#BEBEC7" stroke-width="0.555556" stroke-linejoin="round"/>
<path d="M11.9093 0.611328C12.122 0.61137 12.3266 0.692699 12.4812 0.83865L19.4593 7.42883C19.6259 7.58622 19.7202 7.80561 19.7202 8.03483V8.33322C19.498 8.09094 19.2293 7.90027 18.9504 7.75433C18.2662 7.3965 17.4851 7.278 17.057 7.278H14.5732C13.4993 7.278 12.6288 6.40744 12.6288 5.33355V3.11133C12.6288 2.69994 12.5018 1.9553 12.1199 1.30414C11.9724 1.05271 11.7848 0.81262 11.5508 0.611328H11.9093Z" fill="white" stroke="#BEBEC7" stroke-width="0.555556" stroke-linejoin="round"/>
<path d="M15.2631 19.266V16.2405H14.7031V15.4082H15.2631V14.9571C15.2631 14.4905 15.3867 14.1586 15.6337 13.9616C15.8862 13.7645 16.2267 13.666 16.6549 13.666H17.1078V14.5138H16.8196C16.6385 14.5138 16.5095 14.5475 16.4326 14.6149C16.3557 14.6823 16.3172 14.7964 16.3172 14.9571V15.4082H17.1985V16.2405H16.3172V19.266H15.2631Z" fill="url(#paint1_linear_2444_1101)"/>
<path d="M11.5798 19.3593C11.1954 19.3593 10.8523 19.2712 10.5503 19.0949C10.2484 18.9186 10.0095 18.6775 9.83387 18.3716C9.65815 18.0656 9.57031 17.7182 9.57031 17.3293C9.57031 16.9405 9.65815 16.5956 9.83387 16.2949C10.0095 15.989 10.2484 15.7505 10.5503 15.5793C10.8523 15.4031 11.1954 15.3149 11.5798 15.3149C11.8872 15.3149 12.1562 15.3693 12.3868 15.4782C12.6173 15.5871 12.804 15.7401 12.9468 15.9371V13.666H14.0009V19.266H13.0621L12.9468 18.7138C12.815 18.8849 12.6393 19.0353 12.4198 19.1649C12.2056 19.2945 11.9256 19.3593 11.5798 19.3593ZM11.8021 18.4882C12.1424 18.4882 12.4198 18.382 12.6339 18.1693C12.8534 17.9516 12.9632 17.6742 12.9632 17.3371C12.9632 17.0001 12.8534 16.7253 12.6339 16.5127C12.4198 16.2949 12.1424 16.186 11.8021 16.186C11.4672 16.186 11.1899 16.2923 10.9703 16.5049C10.7507 16.7175 10.6409 16.9923 10.6409 17.3293C10.6409 17.6664 10.7507 17.9438 10.9703 18.1616C11.1899 18.3793 11.4672 18.4882 11.8021 18.4882Z" fill="url(#paint2_linear_2444_1101)"/>
<path d="M4.53711 20.9786V15.4097H5.47593L5.59123 15.962C5.72301 15.7909 5.89595 15.6405 6.11006 15.5109C6.32968 15.3812 6.6124 15.3164 6.95829 15.3164C7.34262 15.3164 7.68573 15.4046 7.98768 15.5809C8.28968 15.7571 8.52851 15.9982 8.70418 16.3042C8.87984 16.6101 8.96768 16.9575 8.96768 17.3464C8.96768 17.7353 8.87984 18.0827 8.70418 18.3886C8.52851 18.6894 8.28968 18.9279 7.98768 19.1042C7.68573 19.2753 7.34262 19.3609 6.95829 19.3609C6.65084 19.3609 6.38184 19.3064 6.15123 19.1975C5.92062 19.0886 5.73395 18.9357 5.59123 18.7386V20.9786H4.53711ZM6.73595 18.4897C7.07084 18.4897 7.34812 18.3835 7.56768 18.1709C7.78729 17.9582 7.89712 17.6835 7.89712 17.3464C7.89712 17.0094 7.78729 16.732 7.56768 16.5142C7.34812 16.2964 7.07084 16.1875 6.73595 16.1875C6.39556 16.1875 6.11556 16.2964 5.89595 16.5142C5.68184 16.7268 5.57479 17.0016 5.57479 17.3386C5.57479 17.6757 5.68184 17.9531 5.89595 18.1709C6.11556 18.3835 6.39556 18.4897 6.73595 18.4897Z" fill="url(#paint3_linear_2444_1101)"/>
<path d="M3.01038 19.3209C2.81822 19.3209 2.65901 19.2639 2.53273 19.1498C2.41195 19.0357 2.35156 18.8983 2.35156 18.7376C2.35156 18.5717 2.41195 18.4317 2.53273 18.3176C2.65901 18.2035 2.81822 18.1465 3.01038 18.1465C3.20254 18.1465 3.35901 18.2035 3.4798 18.3176C3.60606 18.4317 3.66921 18.5717 3.66921 18.7376C3.66921 18.8983 3.60606 19.0357 3.4798 19.1498C3.35901 19.2639 3.20254 19.3209 3.01038 19.3209Z" fill="url(#paint4_linear_2444_1101)"/>
</g>
</g>
<defs>
<linearGradient id="paint0_linear_2444_1101" x1="9.0599" y1="1.079" x2="10.7872" y2="23.1154" gradientUnits="userSpaceOnUse">
<stop stop-color="#F0F2F2"/>
<stop offset="0.5" stop-color="white"/>
</linearGradient>
<linearGradient id="paint1_linear_2444_1101" x1="3.28536" y1="20.8882" x2="3.28536" y2="13.666" gradientUnits="userSpaceOnUse">
<stop stop-color="#BEBEC7"/>
<stop offset="1" stop-color="#9C9696"/>
</linearGradient>
<linearGradient id="paint2_linear_2444_1101" x1="3.28597" y1="20.8882" x2="3.28597" y2="13.666" gradientUnits="userSpaceOnUse">
<stop stop-color="#BEBEC7"/>
<stop offset="1" stop-color="#9C9696"/>
</linearGradient>
<linearGradient id="paint3_linear_2444_1101" x1="3.28615" y1="20.8898" x2="3.28615" y2="13.6676" gradientUnits="userSpaceOnUse">
<stop stop-color="#BEBEC7"/>
<stop offset="1" stop-color="#9C9696"/>
</linearGradient>
<linearGradient id="paint4_linear_2444_1101" x1="3.28488" y1="20.8887" x2="3.28488" y2="13.6665" gradientUnits="userSpaceOnUse">
<stop stop-color="#BEBEC7"/>
<stop offset="1" stop-color="#9C9696"/>
</linearGradient>
<clipPath id="clip0_2444_1101">
<rect width="20" height="24" fill="white"/>
</clipPath>
</defs>
</svg>
