<svg width="20" height="24" viewBox="0 0 20 24" fill="none" xmlns="http://www.w3.org/2000/svg">
<g clip-path="url(#clip0_2446_1128)">
<g filter="url(#filter0_d_2446_1128)">
<path fill-rule="evenodd" clip-rule="evenodd" d="M10.6868 4.82292C10.989 5.34375 11.6784 6.07292 12.5 6.125H18.125C19.1606 6.125 20 6.96447 20 8V18.625H0V6.125V4.875C0 3.83947 0.839469 3 1.875 3H8.75C9.57162 3.05208 10.0824 3.78125 10.3846 4.30208L10.6868 4.82292Z" fill="url(#paint0_linear_2446_1128)"/>
<mask id="mask0_2446_1128" style="mask-type:luminance" maskUnits="userSpaceOnUse" x="0" y="3" width="20" height="16">
<path fill-rule="evenodd" clip-rule="evenodd" d="M10.6868 4.82292C10.989 5.34375 11.6784 6.07292 12.5 6.125H18.125C19.1606 6.125 20 6.96447 20 8V18.625H0V6.125V4.875C0 3.83947 0.839469 3 1.875 3H8.75C9.57162 3.05208 10.0824 3.78125 10.3846 4.30208L10.6868 4.82292Z" fill="white"/>
</mask>
<g mask="url(#mask0_2446_1128)">
<path d="M12.502 6.12695L12.4624 6.7507L12.4821 6.75195H12.502V6.12695ZM20.002 18.627V19.252H20.627V18.627H20.002ZM0.00195312 18.627H-0.623047V19.252H0.00195312V18.627ZM8.75195 3.00195L8.79152 2.3782L8.77177 2.37695H8.75195V3.00195ZM12.502 6.12695L12.5415 5.5032C12.3028 5.48807 12.0455 5.37015 11.7945 5.16642C11.5453 4.96417 11.3456 4.71147 11.2293 4.51121L10.6888 4.82487L10.1481 5.13853C10.3341 5.45911 10.6303 5.8314 11.0067 6.13697C11.3813 6.44104 11.8795 6.71375 12.4624 6.7507L12.502 6.12695ZM12.502 6.12695V6.75195H18.127V6.12695V5.50195H12.502V6.12695ZM18.127 6.12695V6.75195C18.8173 6.75195 19.377 7.3116 19.377 8.00195H20.002H20.627C20.627 6.62124 19.5076 5.50195 18.127 5.50195V6.12695ZM20.002 8.00195H19.377V18.627H20.002H20.627V8.00195H20.002ZM20.002 18.627V18.002H0.00195312V18.627V19.252H20.002V18.627ZM0.00195312 18.627H0.626953V6.12695H0.00195312H-0.623047V18.627H0.00195312ZM0.00195312 4.87695H-0.623047V6.12695H0.00195312H0.626953V4.87695H0.00195312ZM1.87695 3.00195V2.37695C0.496241 2.37695 -0.623047 3.49624 -0.623047 4.87695H0.00195312H0.626953C0.626953 4.1866 1.1866 3.62695 1.87695 3.62695V3.00195ZM8.75195 3.00195V2.37695H1.87695V3.00195V3.62695H8.75195V3.00195ZM10.3866 4.30403L10.9271 3.99037C10.7664 3.71323 10.5274 3.33924 10.1938 3.02336C9.85508 2.7027 9.3907 2.41619 8.79152 2.3782L8.75195 3.00195L8.71239 3.6257C8.93483 3.6398 9.13664 3.74391 9.33433 3.93107C9.53708 4.123 9.70458 4.374 9.84595 4.6177L10.3866 4.30403ZM10.6888 4.82487L11.2293 4.51121L10.9271 3.99037L10.3866 4.30403L9.84595 4.6177L10.1481 5.13853L10.6888 4.82487Z" fill="#BEBEC7"/>
</g>
</g>
<path d="M0 18H20V18.625C20 19.6606 19.1606 20.5 18.125 20.5H1.875C0.839469 20.5 0 19.6606 0 18.625V18Z" fill="#FFC400"/>
<mask id="mask1_2446_1128" style="mask-type:luminance" maskUnits="userSpaceOnUse" x="0" y="18" width="20" height="3">
<path d="M0 18H20V18.625C20 19.6606 19.1606 20.5 18.125 20.5H1.875C0.839469 20.5 0 19.6606 0 18.625V18Z" fill="white"/>
</mask>
<g mask="url(#mask1_2446_1128)">
<path d="M20.627 18.625C20.627 20.0057 19.5076 21.125 18.127 21.125H1.87695C0.496241 21.125 -0.623047 20.0057 -0.623047 18.625H0.626953C0.626953 19.3154 1.1866 19.875 1.87695 19.875H18.127C18.8173 19.875 19.377 19.3154 19.377 18.625H20.627ZM1.87695 21.125C0.496241 21.125 -0.623047 20.0057 -0.623047 18.625V18H0.626953V18.625C0.626953 19.3154 1.1866 19.875 1.87695 19.875V21.125ZM20.627 18V18.625C20.627 20.0057 19.5076 21.125 18.127 21.125V19.875C18.8173 19.875 19.377 19.3154 19.377 18.625V18H20.627Z" fill="black" fill-opacity="0.2"/>
</g>
</g>
<defs>
<filter id="filter0_d_2446_1128" x="-1.57895" y="1.94737" width="23.1579" height="18.7829" filterUnits="userSpaceOnUse" color-interpolation-filters="sRGB">
<feFlood flood-opacity="0" result="BackgroundImageFix"/>
<feColorMatrix in="SourceAlpha" type="matrix" values="0 0 0 0 0 0 0 0 0 0 0 0 0 0 0 0 0 0 127 0" result="hardAlpha"/>
<feOffset dy="0.526316"/>
<feGaussianBlur stdDeviation="0.789474"/>
<feComposite in2="hardAlpha" operator="out"/>
<feColorMatrix type="matrix" values="0 0 0 0 0 0 0 0 0 0 0 0 0 0 0 0 0 0 0.08 0"/>
<feBlend mode="normal" in2="BackgroundImageFix" result="effect1_dropShadow_2446_1128"/>
<feBlend mode="normal" in="SourceGraphic" in2="effect1_dropShadow_2446_1128" result="shape"/>
</filter>
<linearGradient id="paint0_linear_2446_1128" x1="10" y1="18.625" x2="10" y2="3" gradientUnits="userSpaceOnUse">
<stop stop-color="#FFF7E0"/>
<stop offset="0.5" stop-color="white"/>
</linearGradient>
<clipPath id="clip0_2446_1128">
<rect width="20" height="24" fill="white"/>
</clipPath>
</defs>
</svg>
