<svg width="36" height="42" viewBox="0 0 36 42" fill="none" xmlns="http://www.w3.org/2000/svg">
<path d="M4.23535 0.5H21.4404C21.8232 0.500077 22.1914 0.646468 22.4697 0.90918L35.0303 12.7715C35.3302 13.0548 35.5 13.4497 35.5 13.8623V38C35.5 39.9065 33.8549 41.5 31.7646 41.5H4.23535C2.1451 41.5 0.5 39.9065 0.5 38V4C0.5 2.09355 2.1451 0.5 4.23535 0.5Z" fill="url(#paint0_linear_1838_879)" stroke="#BEBEC7" stroke-linejoin="round"/>
<path d="M21.4404 0.5C21.8232 0.500075 22.1914 0.646468 22.4697 0.90918L35.0303 12.7715C35.3302 13.0548 35.5 13.4497 35.5 13.8623V14.3994C35.1 13.9633 34.6163 13.6201 34.1143 13.3574C32.8828 12.7133 31.4767 12.5 30.7061 12.5H26.2354C24.3024 12.5 22.7354 10.933 22.7354 9V5C22.7354 4.2595 22.5067 2.91915 21.8193 1.74707C21.5539 1.29449 21.2162 0.862325 20.7949 0.5H21.4404Z" fill="white" stroke="#BEBEC7" stroke-linejoin="round"/>
<path fill-rule="evenodd" clip-rule="evenodd" d="M10.5898 23.9987C10.005 23.9987 9.53093 24.4464 9.53093 24.9987V34.9987C9.53093 35.551 10.005 35.9987 10.5898 35.9987H25.4133C25.998 35.9987 26.4721 35.551 26.4721 34.9987V24.9987C26.4721 24.4464 25.998 23.9987 25.4133 23.9987H10.5898ZM20.225 30.5494C20.6486 30.3185 20.6486 29.7411 20.225 29.5102L16.5721 27.5183C16.1486 27.2874 15.6192 27.5761 15.6192 28.0379V32.0217C15.6192 32.4835 16.1486 32.7722 16.5721 32.5413L20.225 30.5494Z" fill="url(#paint1_linear_1838_879)"/>
<path d="M9.47089 19.7C9.41992 19.1498 9.85086 18.6648 10.4334 18.6166L11.4882 18.5295L11.8573 22.5142L10.8025 22.6014C10.22 22.6495 9.70642 22.2425 9.65545 21.6924L9.47089 19.7Z" fill="url(#paint2_linear_1838_879)"/>
<path d="M13.9669 22.3399L17.1313 22.0785L16.7622 18.0937L13.5978 18.3552L13.9669 22.3399Z" fill="url(#paint3_linear_1838_879)"/>
<path d="M22.4053 21.6427L19.2409 21.9042L18.8718 17.9194L22.0361 17.6579L22.4053 21.6427Z" fill="url(#paint4_linear_1838_879)"/>
<path d="M24.5149 21.4684L25.5696 21.3812C26.1522 21.3331 26.5831 20.8481 26.5322 20.2979L26.3476 18.3055C26.2966 17.7553 25.7831 17.3483 25.2005 17.3964L24.1457 17.4836L24.5149 21.4684Z" fill="url(#paint5_linear_1838_879)"/>
<defs>
<linearGradient id="paint0_linear_1838_879" x1="16.3086" y1="1.34181" x2="19.4177" y2="41.0074" gradientUnits="userSpaceOnUse">
<stop stop-color="#F0F2F2"/>
<stop offset="0.5" stop-color="white"/>
</linearGradient>
<linearGradient id="paint1_linear_1838_879" x1="23.7802" y1="48.4026" x2="23.7802" y2="4.2325" gradientUnits="userSpaceOnUse">
<stop stop-color="#BEBEC7"/>
<stop offset="1" stop-color="#96969C"/>
</linearGradient>
<linearGradient id="paint2_linear_1838_879" x1="26.0221" y1="44.4314" x2="23.6752" y2="16.0291" gradientUnits="userSpaceOnUse">
<stop stop-color="#BEBEC7"/>
<stop offset="1" stop-color="#96969C"/>
</linearGradient>
<linearGradient id="paint3_linear_1838_879" x1="26.0221" y1="44.4314" x2="23.6752" y2="16.0291" gradientUnits="userSpaceOnUse">
<stop stop-color="#BEBEC7"/>
<stop offset="1" stop-color="#96969C"/>
</linearGradient>
<linearGradient id="paint4_linear_1838_879" x1="26.0221" y1="44.4314" x2="23.6752" y2="16.0291" gradientUnits="userSpaceOnUse">
<stop stop-color="#BEBEC7"/>
<stop offset="1" stop-color="#96969C"/>
</linearGradient>
<linearGradient id="paint5_linear_1838_879" x1="26.0221" y1="44.4314" x2="23.6752" y2="16.0291" gradientUnits="userSpaceOnUse">
<stop stop-color="#BEBEC7"/>
<stop offset="1" stop-color="#96969C"/>
</linearGradient>
</defs>
</svg>
