<svg width="20" height="24" viewBox="0 0 20 24" fill="none" xmlns="http://www.w3.org/2000/svg">
<g clip-path="url(#clip0_2444_1045)">
<mask id="mask0_2444_1045" style="mask-type:luminance" maskUnits="userSpaceOnUse" x="0" y="0" width="20" height="24">
<path d="M20 0H0V24H20V0Z" fill="white"/>
</mask>
<g mask="url(#mask0_2444_1045)">
<path d="M2.35254 0.611328H11.9109C12.1236 0.611371 12.3281 0.692699 12.4827 0.83865L19.4609 7.42883C19.6275 7.58622 19.7218 7.80561 19.7218 8.03483V21.4447C19.7218 22.5038 18.8079 23.3891 17.6466 23.3891H2.35254C1.19129 23.3891 0.277344 22.5038 0.277344 21.4447V2.55577C0.277344 1.49663 1.19129 0.611328 2.35254 0.611328Z" fill="url(#paint0_linear_2444_1045)" stroke="#BEBEC7" stroke-width="0.555556" stroke-linejoin="round"/>
<path d="M11.9093 0.611328C12.122 0.61137 12.3266 0.692699 12.4812 0.83865L19.4593 7.42883C19.6259 7.58622 19.7202 7.80561 19.7202 8.03483V8.33322C19.498 8.09094 19.2293 7.90027 18.9504 7.75433C18.2662 7.3965 17.4851 7.278 17.057 7.278H14.5732C13.4993 7.278 12.6288 6.40744 12.6288 5.33355V3.11133C12.6288 2.69994 12.5018 1.9553 12.1199 1.30414C11.9724 1.05271 11.7848 0.81262 11.5508 0.611328H11.9093Z" fill="white" stroke="#BEBEC7" stroke-width="0.555556" stroke-linejoin="round"/>
<path fill-rule="evenodd" clip-rule="evenodd" d="M5.29595 0.888672H3.53125V2.55534C3.53125 2.86216 3.79462 3.1109 4.11948 3.1109H5.29595V5.33312H4.11948C3.79462 5.33312 3.53125 5.58185 3.53125 5.88867V6.99976C3.53125 7.30659 3.79462 7.55531 4.11948 7.55531H5.29595V9.77753H4.11948C3.79462 9.77753 3.53125 10.0263 3.53125 10.3331V11.4442C3.53125 11.751 3.79462 11.9998 4.11948 11.9998H5.29595V14.222H4.11948C3.79462 14.222 3.53125 14.4708 3.53125 14.7775V15.8886C3.53125 16.1955 3.79462 16.4442 4.11948 16.4442H4.70772C5.03259 16.4442 5.29595 16.1955 5.29595 15.8886V14.222H6.47241C6.79729 14.222 7.06068 13.9733 7.06068 13.6664V12.5553C7.06068 12.2485 6.79729 11.9998 6.47241 11.9998H5.29595V9.77753H6.47241C6.79729 9.77753 7.06068 9.52881 7.06068 9.22198V8.11087C7.06068 7.80409 6.79729 7.55531 6.47241 7.55531H5.29595V5.33312H6.47241C6.79729 5.33312 7.06068 5.08439 7.06068 4.77756V3.66645C7.06068 3.35962 6.79729 3.1109 6.47241 3.1109H5.29595V0.888672ZM4.20949 16.9998C3.85152 16.9998 3.57654 17.2992 3.62717 17.6339L4.04734 20.4117C4.08874 20.6854 4.33693 20.8886 4.62966 20.8886H5.96224C6.25496 20.8886 6.50318 20.6854 6.54457 20.4117L6.96474 17.6339C7.01535 17.2992 6.74041 16.9998 6.38241 16.9998H4.20949ZM5.05492 18.1109C4.87317 18.1109 4.73492 18.265 4.76479 18.4343L5.00584 19.8003C5.06045 20.1097 5.53146 20.1097 5.58607 19.8003L5.82713 18.4343C5.85696 18.265 5.71874 18.1109 5.53699 18.1109H5.05492Z" fill="url(#paint1_linear_2444_1045)"/>
</g>
</g>
<defs>
<linearGradient id="paint0_linear_2444_1045" x1="9.0599" y1="1.079" x2="10.7872" y2="23.1154" gradientUnits="userSpaceOnUse">
<stop stop-color="#F0F2F2"/>
<stop offset="0.5" stop-color="white"/>
</linearGradient>
<linearGradient id="paint1_linear_2444_1045" x1="6.03124" y1="20.8886" x2="6.03124" y2="0.5404" gradientUnits="userSpaceOnUse">
<stop stop-color="#BEBEC7"/>
<stop offset="1" stop-color="#96969C"/>
</linearGradient>
<clipPath id="clip0_2444_1045">
<rect width="20" height="24" fill="white"/>
</clipPath>
</defs>
</svg>
