<svg width="36" height="42" viewBox="0 0 36 42" fill="none" xmlns="http://www.w3.org/2000/svg">
<path d="M4.23535 0.5H21.4404C21.8232 0.500077 22.1914 0.646468 22.4697 0.90918L35.0303 12.7715C35.3302 13.0548 35.5 13.4497 35.5 13.8623V38C35.5 39.9065 33.8549 41.5 31.7646 41.5H4.23535C2.1451 41.5 0.5 39.9065 0.5 38V4C0.5 2.09355 2.1451 0.5 4.23535 0.5Z" fill="url(#paint0_linear_1839_900)" stroke="#BEBEC7" stroke-linejoin="round"/>
<path d="M21.4404 0.5C21.8232 0.500075 22.1914 0.646468 22.4697 0.90918L35.0303 12.7715C35.3302 13.0548 35.5 13.4497 35.5 13.8623V14.3994C35.1 13.9633 34.6163 13.6201 34.1143 13.3574C32.8828 12.7133 31.4767 12.5 30.7061 12.5H26.2354C24.3024 12.5 22.7354 10.933 22.7354 9V5C22.7354 4.2595 22.5067 2.91915 21.8193 1.74707C21.5539 1.29449 21.2162 0.862325 20.7949 0.5H21.4404Z" fill="white" stroke="#BEBEC7" stroke-linejoin="round"/>
<path fill-rule="evenodd" clip-rule="evenodd" d="M9.52998 0.998047H6.35352V3.99805C6.35352 4.55033 6.82757 4.99805 7.41234 4.99805H9.52998V8.99805H7.41234C6.82757 8.99805 6.35352 9.44576 6.35352 9.99805V11.998C6.35352 12.5503 6.82757 12.998 7.41234 12.998H9.52998V16.998H7.41234C6.82757 16.998 6.35352 17.4458 6.35352 17.998V19.998C6.35352 20.5503 6.82757 20.998 7.41234 20.998H9.52998V24.998H7.41234C6.82757 24.998 6.35352 25.4458 6.35352 25.998V27.998C6.35352 28.5503 6.82757 28.998 7.41234 28.998H8.47116C9.05593 28.998 9.52998 28.5503 9.52998 27.998V24.998H11.6476C12.2324 24.998 12.7065 24.5503 12.7065 23.998V21.998C12.7065 21.4458 12.2324 20.998 11.6476 20.998H9.52998V16.998H11.6476C12.2324 16.998 12.7065 16.5503 12.7065 15.998V13.998C12.7065 13.4458 12.2324 12.998 11.6476 12.998H9.52998V8.99805H11.6476C12.2324 8.99805 12.7065 8.55033 12.7065 7.99805V5.99805C12.7065 5.44576 12.2324 4.99805 11.6476 4.99805H9.52998V0.998047ZM7.57435 29.998C6.93 29.998 6.43504 30.537 6.52617 31.1395L7.28247 36.1395C7.35699 36.6321 7.80373 36.998 8.33065 36.998H10.7293C11.2562 36.998 11.703 36.6321 11.7775 36.1395L12.5338 31.1395C12.6249 30.537 12.13 29.998 11.4856 29.998H7.57435ZM9.09611 31.998C8.76897 31.998 8.52012 32.2755 8.5739 32.5802L9.00778 35.0389C9.10608 35.5959 9.95389 35.5959 10.0522 35.0389L10.4861 32.5802C10.5398 32.2755 10.291 31.998 9.96386 31.998H9.09611Z" fill="url(#paint1_linear_1839_900)"/>
<defs>
<linearGradient id="paint0_linear_1839_900" x1="16.3086" y1="1.34181" x2="19.4177" y2="41.0074" gradientUnits="userSpaceOnUse">
<stop stop-color="#F0F2F2"/>
<stop offset="0.5" stop-color="white"/>
</linearGradient>
<linearGradient id="paint1_linear_1839_900" x1="10.8535" y1="36.998" x2="10.8535" y2="0.37116" gradientUnits="userSpaceOnUse">
<stop stop-color="#BEBEC7"/>
<stop offset="1" stop-color="#96969C"/>
</linearGradient>
</defs>
</svg>
