<svg width="32" height="28" viewBox="0 0 32 28" fill="none" xmlns="http://www.w3.org/2000/svg">
<path d="M3 0.5H13.9775C14.4799 0.534402 14.905 0.772501 15.2754 1.12305C15.652 1.47962 15.9487 1.93078 16.1826 2.33398L16.666 3.16797C16.9357 3.63274 17.3715 4.18039 17.9229 4.62793C18.4728 5.07427 19.1739 5.44863 19.9688 5.49902L19.9844 5.5H29C30.3807 5.5 31.5 6.61929 31.5 8V24.5H0.5V3C0.5 1.61929 1.61929 0.5 3 0.5Z" fill="url(#paint0_linear_1462_232)" stroke="#BEBEC7"/>
<mask id="path-2-inside-1_1462_232" fill="white">
<path d="M0 24H32V25C32 26.6569 30.6569 28 29 28H3C1.34315 28 0 26.6569 0 25V24Z"/>
</mask>
<path d="M0 24H32V25C32 26.6569 30.6569 28 29 28H3C1.34315 28 0 26.6569 0 25V24Z" fill="#49BA14"/>
<path d="M0 24H32H0ZM33 25C33 27.2091 31.2091 29 29 29H3C0.790861 29 -1 27.2091 -1 25H1C1 26.1046 1.89543 27 3 27H29C30.1046 27 31 26.1046 31 25H33ZM3 29C0.790861 29 -1 27.2091 -1 25V24H1V25C1 26.1046 1.89543 27 3 27V29ZM33 24V25C33 27.2091 31.2091 29 29 29V27C30.1046 27 31 26.1046 31 25V24H33Z" fill="black" fill-opacity="0.2" mask="url(#path-2-inside-1_1462_232)"/>
<path fill-rule="evenodd" clip-rule="evenodd" d="M25 13C25 13.5304 24.7893 14.0391 24.4142 14.4142C24.0391 14.7893 23.5304 15 23 15C22.4696 15 21.9609 14.7893 21.5858 14.4142C21.2107 14.0391 21 13.5304 21 13C21 12.4696 21.2107 11.9609 21.5858 11.5858C21.9609 11.2107 22.4696 11 23 11C23.5304 11 24.0391 11.2107 24.4142 11.5858C24.7893 11.9609 25 12.4696 25 13ZM23 21C27 21 27 20.105 27 19C27 17.895 25.21 17 23 17C20.79 17 19 17.895 19 19C19 20.105 19 21 23 21Z" fill="#49BA14"/>
<defs>
<linearGradient id="paint0_linear_1462_232" x1="16" y1="25" x2="16" y2="0" gradientUnits="userSpaceOnUse">
<stop stop-color="#E9F6E2"/>
<stop offset="0.5" stop-color="white"/>
</linearGradient>
</defs>
</svg>
