<svg width="32" height="28" viewBox="0 0 32 28" fill="none" xmlns="http://www.w3.org/2000/svg">
<path d="M3 0.5H13.9775C14.4799 0.534402 14.905 0.772501 15.2754 1.12305C15.652 1.47962 15.9487 1.93078 16.1826 2.33398L16.666 3.16797C16.9357 3.63274 17.3715 4.18039 17.9229 4.62793C18.4728 5.07427 19.1739 5.44863 19.9688 5.49902L19.9844 5.5H29C30.3807 5.5 31.5 6.61929 31.5 8V24.5H0.5V3C0.5 1.61929 1.61929 0.5 3 0.5Z" fill="url(#paint0_linear_1462_280)" stroke="#BEBEC7"/>
<mask id="path-2-inside-1_1462_280" fill="white">
<path d="M0 24H32V25C32 26.6569 30.6569 28 29 28H3C1.34315 28 0 26.6569 0 25V24Z"/>
</mask>
<path d="M0 24H32V25C32 26.6569 30.6569 28 29 28H3C1.34315 28 0 26.6569 0 25V24Z" fill="#879399"/>
<path d="M0 24H32H0ZM33 25C33 27.2091 31.2091 29 29 29H3C0.790861 29 -1 27.2091 -1 25H1C1 26.1046 1.89543 27 3 27H29C30.1046 27 31 26.1046 31 25H33ZM3 29C0.790861 29 -1 27.2091 -1 25V24H1V25C1 26.1046 1.89543 27 3 27V29ZM33 24V25C33 27.2091 31.2091 29 29 29V27C30.1046 27 31 26.1046 31 25V24H33Z" fill="black" fill-opacity="0.2" mask="url(#path-2-inside-1_1462_280)"/>
<defs>
<linearGradient id="paint0_linear_1462_280" x1="16" y1="25" x2="16" y2="0" gradientUnits="userSpaceOnUse">
<stop stop-color="#F0F2F2"/>
<stop offset="0.5" stop-color="white"/>
</linearGradient>
</defs>
</svg>
