<svg xmlns="http://www.w3.org/2000/svg" xmlns:xlink="http://www.w3.org/1999/xlink" viewBox="0 0 48 42"><defs><style>.cls-1{fill:url(#linear-gradient);}.cls-2{fill:#ff5ba0;}.cls-3{opacity:0.2;}.cls-4{fill:#bebec7;}</style><linearGradient id="linear-gradient" x1="24" y1="12476.5" x2="24" y2="12439.5" gradientTransform="translate(0 -12440)" gradientUnits="userSpaceOnUse"><stop offset="0" stop-color="#ffebf3"/><stop offset="0.5" stop-color="#fff"/></linearGradient></defs><g id="Layer_2" data-name="Layer 2"><g id="Layer_1-2" data-name="Layer 1"><path class="cls-1" d="M30,8H44a4,4,0,0,1,4,4V36H0V4A4,4,0,0,1,4,0H20c1.9.1,3.1,1.8,3.9,3.1l.8,1.3a8.23,8.23,0,0,0,2,2.3A6.08,6.08,0,0,0,30,8Z"/><path class="cls-2" d="M0,36H48v2a4,4,0,0,1-4,4H4a4,4,0,0,1-4-4Z"/><path class="cls-3" d="M44,41a3,3,0,0,0,3-3V36h1v2a4,4,0,0,1-4,4H4a4,4,0,0,1-4-4V36H1v2a3,3,0,0,0,3,3Z"/><path class="cls-4" d="M48,36V12a4,4,0,0,0-4-4H30a6.08,6.08,0,0,1-3.3-1.3,8.23,8.23,0,0,1-2-2.3l-.8-1.3c-.8-1.3-2-3-3.9-3.1H4A4,4,0,0,0,0,4V36H1V4A3,3,0,0,1,4,1H20c1.34.08,2.31,1.37,3.08,2.62l.78,1.28a9.29,9.29,0,0,0,2.26,2.59A7.06,7.06,0,0,0,29.92,9H44a3,3,0,0,1,3,3V36Z"/><path class="cls-2" d="M36,24a3,3,0,1,0-3-3A3,3,0,0,0,36,24Zm6,5c0,1.66,0,3-6,3s-6-1.34-6-3,2.69-3,6-3S42,27.34,42,29Z"/></g></g></svg>