<svg xmlns="http://www.w3.org/2000/svg" xmlns:xlink="http://www.w3.org/1999/xlink" viewBox="0 0 32 28"><defs><style>.cls-1{fill:url(#linear-gradient);}.cls-2{fill:#263db8;}.cls-3{fill:#bebec7;}.cls-4{opacity:0.2;}</style><linearGradient id="linear-gradient" x1="16" y1="-367.92" x2="16" y2="-342.92" gradientTransform="matrix(1, 0, 0, -1, 0, -342.92)" gradientUnits="userSpaceOnUse"><stop offset="0" stop-color="#e5e7f6"/><stop offset="0.5" stop-color="#fff"/></linearGradient></defs><g id="Layer_2" data-name="Layer 2"><g id="Layer_1-2" data-name="Layer 1"><path class="cls-1" d="M32,24V8a3,3,0,0,0-3-3H20a4.08,4.08,0,0,1-2.9-2.08l-.48-.84A3.6,3.6,0,0,0,14,0H3A3,3,0,0,0,0,3V24Z"/><path class="cls-2" d="M0,24H32v1a3,3,0,0,1-3,3H3a3,3,0,0,1-3-3Z"/><path class="cls-3" d="M1,24V3A2,2,0,0,1,3,1H14c.63.05,1.19.56,1.79,1.59l.48.83A5.06,5.06,0,0,0,19.94,6H29a2,2,0,0,1,2,2V24h1V8a3,3,0,0,0-3-3H20a4.08,4.08,0,0,1-2.9-2.08l-.48-.84A3.6,3.6,0,0,0,14,0H3A3,3,0,0,0,0,3V24"/><g class="cls-4"><path d="M31,24v1a2,2,0,0,1-2,2H3a2,2,0,0,1-2-2V24H0v1a3,3,0,0,0,3,3H29a3,3,0,0,0,3-3V24H31Z"/></g></g></g></svg>