<svg width="24" height="24" viewBox="0 0 24 24" fill="none" xmlns="http://www.w3.org/2000/svg">
<path d="M10 14C10.5304 14 11.0391 14.2107 11.4142 14.5858C11.7893 14.9609 12 15.4696 12 16C12 16.5304 11.7893 17.0391 11.4142 17.4142C11.0391 17.7893 10.5304 18 10 18C9.46957 18 8.96086 17.7893 8.58579 17.4142C8.21071 17.0391 8 16.5304 8 16C8 15.4696 8.21071 14.9609 8.58579 14.5858C8.96086 14.2107 9.46957 14 10 14Z" stroke="black" stroke-width="1.5"/>
<path d="M12 8C12 6.89543 12.8954 6 14 6C15.1046 6 16 6.89543 16 8C16 9.10457 15.1046 10 14 10C12.8954 10 12 9.10457 12 8Z" stroke="black" stroke-width="1.5"/>
<path d="M14 16H19M10 8H5M5 16H6M19 8H18" stroke="black" stroke-width="1.5" stroke-linecap="round"/>
</svg>
