<svg width="24" height="24" viewBox="0 0 24 24" fill="none" xmlns="http://www.w3.org/2000/svg">
<path d="M7 2V4" stroke="black" stroke-width="1.5" stroke-linecap="round"/>
<path d="M17 2V4" stroke="black" stroke-width="1.5" stroke-linecap="round"/>
<path d="M17.2265 17.3638C17.6039 16.8787 18.3961 16.8787 18.7735 17.3638C19.0755 17.7518 19.0755 18.2482 18.7735 18.6362C18.3961 19.1213 17.6039 19.1213 17.2265 18.6362C16.9245 18.2482 16.9245 17.7518 17.2265 17.3638Z" fill="black" stroke="black" stroke-width="1.5" stroke-linecap="round"/>
<path d="M2 9V17.7C2 20.0748 3.92518 22 6.3 22H17.7C20.0748 22 22 20.0748 22 17.7V9M2 9V8.3C2 5.92518 3.92518 4 6.3 4H17.7C20.0748 4 22 5.92518 22 8.3V9M2 9H22" stroke="black" stroke-width="1.5"/>
</svg>
