<svg width="24" height="24" viewBox="0 0 24 24" fill="none" xmlns="http://www.w3.org/2000/svg">
<path fill-rule="evenodd" clip-rule="evenodd" d="M8.46844 1.25H15.5324C15.9724 1.25 16.3524 1.25 16.6624 1.278C16.9924 1.308 17.3184 1.374 17.6254 1.551C17.9674 1.749 18.2514 2.033 18.4494 2.375C18.6264 2.682 18.6924 3.008 18.7224 3.337C18.7331 3.46367 18.7404 3.60133 18.7444 3.75H19.0694C19.4934 3.75 19.8484 3.75 20.1394 3.769C20.4424 3.789 20.7294 3.831 21.0074 3.941C21.3588 4.07928 21.678 4.28844 21.945 4.55545C22.212 4.82247 22.4212 5.14161 22.5594 5.493C22.6694 5.772 22.7114 6.058 22.7314 6.361C22.7504 6.652 22.7504 7.007 22.7504 7.431V7.575C22.7504 8.234 22.7514 8.746 22.5934 9.193C22.364 9.84277 21.899 10.3827 21.2904 10.706C20.8714 10.929 20.3644 11.004 19.7144 11.101L19.5944 11.119L15.5184 11.731C14.6864 11.855 14.1324 11.94 13.7214 12.056C13.3314 12.166 13.1624 12.28 13.0534 12.406C12.9234 12.556 12.8364 12.766 12.7904 13.26C12.9371 13.266 13.0728 13.277 13.1974 13.293C13.5534 13.341 13.9284 13.453 14.2374 13.763C14.5464 14.073 14.6594 14.447 14.7074 14.803C14.7504 15.126 14.7504 15.523 14.7504 15.955V20.045C14.7504 20.478 14.7504 20.875 14.7074 21.197C14.6594 21.553 14.5474 21.928 14.2374 22.237C13.9274 22.546 13.5534 22.659 13.1974 22.707C12.8744 22.75 12.4774 22.75 12.0454 22.75H11.9554C11.5224 22.75 11.1254 22.75 10.8034 22.707C10.4474 22.659 10.0724 22.547 9.76344 22.237C9.45444 21.927 9.34144 21.553 9.29344 21.197C9.25044 20.874 9.25044 20.477 9.25044 20.045V15.955C9.25044 15.522 9.25044 15.125 9.29344 14.803C9.34144 14.447 9.45344 14.072 9.76344 13.763C10.0734 13.454 10.4474 13.341 10.8034 13.293C10.9501 13.2743 11.1101 13.2623 11.2834 13.257C11.3364 12.553 11.4804 11.934 11.9164 11.427C12.2914 10.992 12.7724 10.764 13.3154 10.612C13.8274 10.467 14.4754 10.37 15.2494 10.254L19.3724 9.636C20.2004 9.512 20.4254 9.467 20.5874 9.381C20.8638 9.23418 21.0751 8.98903 21.1794 8.694C21.2394 8.522 21.2504 8.292 21.2504 7.455C21.2504 7 21.2504 6.695 21.2344 6.459C21.2324 6.31726 21.2088 6.17665 21.1644 6.042C21.1015 5.88231 21.0063 5.7373 20.8848 5.61601C20.7634 5.49471 20.6182 5.39974 20.4584 5.337C20.3844 5.307 20.2714 5.281 20.0414 5.266C19.7097 5.25094 19.3775 5.2456 19.0454 5.25H18.7454C18.7408 5.398 18.7331 5.53567 18.7224 5.663C18.6924 5.992 18.6264 6.318 18.4494 6.625C18.2519 6.96726 17.9677 7.25146 17.6254 7.449C17.3184 7.626 16.9924 7.692 16.6634 7.722C16.3514 7.75 15.9724 7.75 15.5334 7.75H8.46744C8.02744 7.75 7.64744 7.75 7.33744 7.722C7.00744 7.692 6.68144 7.626 6.37444 7.449C6.03218 7.25146 5.74798 6.96726 5.55044 6.625C5.37344 6.318 5.30744 5.992 5.27744 5.663C5.26486 5.51196 5.25719 5.36054 5.25444 5.209C5.1069 5.1581 4.97891 5.06244 4.88831 4.93535C4.79772 4.80826 4.74902 4.65608 4.74902 4.5C4.74902 4.34392 4.79772 4.19174 4.88831 4.06465C4.97891 3.93756 5.1069 3.8419 5.25444 3.791C5.25778 3.62633 5.26544 3.475 5.27744 3.337C5.30744 3.008 5.37344 2.682 5.55044 2.375C5.74798 2.03274 6.03218 1.74854 6.37444 1.551C6.68144 1.374 7.00744 1.308 7.33644 1.278C7.64844 1.25 8.02744 1.25 8.46644 1.25M12.0034 14.75H12.0004C11.5074 14.75 11.2134 14.752 11.0034 14.78C10.9429 14.7862 10.8834 14.8004 10.8264 14.822L10.8234 14.823L10.8224 14.826L10.8174 14.836C10.7983 14.8899 10.7859 14.946 10.7804 15.003C10.7524 15.213 10.7504 15.507 10.7504 16V20C10.7504 20.493 10.7524 20.787 10.7804 20.997C10.7867 21.0576 10.8008 21.1171 10.8224 21.174L10.8234 21.177L10.8264 21.178L10.8364 21.183C10.8584 21.192 10.9064 21.207 11.0034 21.22C11.2134 21.248 11.5074 21.25 12.0004 21.25C12.4934 21.25 12.7874 21.248 12.9974 21.22C13.0544 21.2145 13.1105 21.2021 13.1644 21.183L13.1724 21.179H13.1744L13.1774 21.177L13.1784 21.174L13.1834 21.164C13.2026 21.1101 13.215 21.054 13.2204 20.997C13.2484 20.787 13.2504 20.493 13.2504 20V16C13.2504 15.507 13.2484 15.213 13.2204 15.003C13.2142 14.9424 13.2001 14.8829 13.1784 14.826L13.1774 14.823L13.1744 14.822L13.1694 14.819L13.1644 14.817C13.1105 14.7979 13.0544 14.7855 12.9974 14.78C12.7874 14.752 12.4954 14.75 12.0054 14.75M7.47344 2.772C7.24844 2.792 7.16644 2.827 7.12544 2.85C7.01119 2.91589 6.91634 3.01075 6.85044 3.125C6.82744 3.165 6.79244 3.248 6.77244 3.473C6.75144 3.708 6.75044 4.019 6.75044 4.5C6.75044 4.981 6.75044 5.292 6.77244 5.527C6.79244 5.752 6.82744 5.834 6.85044 5.875C6.91634 5.98925 7.01119 6.08411 7.12544 6.15C7.16544 6.173 7.24844 6.208 7.47344 6.228C7.70844 6.249 8.01944 6.25 8.50044 6.25H15.5004C15.9814 6.25 16.2924 6.25 16.5274 6.228C16.7524 6.208 16.8344 6.173 16.8754 6.15C16.9893 6.08397 17.0838 5.98912 17.1494 5.875C17.1734 5.835 17.2074 5.752 17.2284 5.527C17.2494 5.292 17.2504 4.981 17.2504 4.5C17.2504 4.019 17.2504 3.708 17.2284 3.473C17.2084 3.248 17.1734 3.166 17.1494 3.125C17.0838 3.01088 16.9893 2.91603 16.8754 2.85C16.8354 2.827 16.7524 2.792 16.5274 2.772C16.1855 2.75114 15.8429 2.7438 15.5004 2.75H8.50044C8.01944 2.75 7.70844 2.75 7.47344 2.772Z" fill="black"/>
</svg>
