<svg width="24" height="24" viewBox="0 0 24 24" fill="none" xmlns="http://www.w3.org/2000/svg">
<path d="M3 11C3 8.172 3 6.757 3.879 5.879C4.757 5 6.172 5 9 5H12C14.828 5 16.243 5 17.121 5.879C18 6.757 18 8.172 18 11V16C18 18.828 18 20.243 17.121 21.121C16.243 22 14.828 22 12 22H9C6.172 22 4.757 22 3.879 21.121C3 20.243 3 18.828 3 16V11Z" stroke="#49BA14" stroke-width="1.5"/>
<path d="M18 19C18.7956 19 19.5587 18.6839 20.1213 18.1213C20.6839 17.5587 21 16.7956 21 16V10C21 6.229 21 4.343 19.828 3.172C18.656 2.001 16.771 2 13 2H9C8.20435 2 7.44129 2.31607 6.87868 2.87868C6.31607 3.44129 6 4.20435 6 5" stroke="#49BA14" stroke-width="1.5"/>
</svg>
