<svg width="24" height="24" viewBox="0 0 24 24" fill="none" xmlns="http://www.w3.org/2000/svg">
<path d="M14.1629 18.4861L13.4419 19.2061C12.2897 20.3285 10.7419 20.9518 9.13352 20.9413C7.52512 20.9307 5.9856 20.2871 4.84827 19.1498C3.71094 18.0124 3.06732 16.4729 3.05677 14.8645C3.04622 13.2561 3.66959 11.7083 4.7919 10.5561L5.5119 9.83615M9.8369 14.1611L14.1629 9.83515M9.8369 5.51015L10.5579 4.79015C11.1231 4.20989 11.798 3.74768 12.5433 3.43034C13.2886 3.113 14.0895 2.94685 14.8995 2.94154C15.7095 2.93622 16.5126 3.09185 17.262 3.39939C18.0114 3.70692 18.6922 4.16024 19.265 4.73303C19.8378 5.30582 20.2911 5.98668 20.5987 6.73608C20.9062 7.48548 21.0618 8.2885 21.0565 9.09853C21.0512 9.90856 20.885 10.7095 20.5677 11.4548C20.2504 12.2001 19.7882 12.8749 19.2079 13.4401L18.4879 14.1601" stroke="black" stroke-width="1.5" stroke-linecap="round"/>
</svg>
