<svg width="24" height="24" viewBox="0 0 24 24" fill="none" xmlns="http://www.w3.org/2000/svg">
<path d="M12 1C13.4445 1 14.8749 1.28452 16.2095 1.83733C17.5441 2.39013 18.7567 3.20038 19.7782 4.22183C20.7996 5.24327 21.6099 6.4559 22.1627 7.79048C22.7155 9.12507 23 10.5555 23 12C23 13.4445 22.7155 14.8749 22.1627 16.2095C21.6099 17.5441 20.7996 18.7567 19.7782 19.7782C18.7567 20.7996 17.5441 21.6099 16.2095 22.1627C14.8749 22.7155 13.4445 23 12 23C10.5555 23 9.12506 22.7155 7.79048 22.1627C6.4559 21.6099 5.24327 20.7996 4.22182 19.7782C3.20038 18.7567 2.39012 17.5441 1.83732 16.2095C1.28452 14.8749 0.999999 13.4445 1 12C1 10.5555 1.28452 9.12506 1.83733 7.79048C2.39013 6.4559 3.20038 5.24326 4.22183 4.22182C5.24328 3.20038 6.45591 2.39012 7.79049 1.83732C9.12507 1.28452 10.5555 0.999999 12 1L12 1Z" stroke="#398415" stroke-width="2" stroke-linecap="round"/>
<path d="M8.5 12.5L10.5 14.5L15.5 9.5" stroke="#398415" stroke-width="2" stroke-linecap="round" stroke-linejoin="round"/>
</svg>
