<svg width="24" height="24" viewBox="0 0 24 24" fill="none" xmlns="http://www.w3.org/2000/svg">
<path d="M10 10C12.2091 10 14 8.20914 14 6C14 3.79086 12.2091 2 10 2C7.79086 2 6 3.79086 6 6C6 8.20914 7.79086 10 10 10Z" stroke="black" stroke-width="1.5"/>
<path d="M10 22C2 22 2 19.985 2 17.5C2 15.015 5.582 13 10 13C11.4571 13 12.8233 13.2192 14 13.6021" stroke="black" stroke-width="1.5" stroke-linecap="round"/>
<path d="M13.2658 19.6482L13.0245 20.3714C12.9964 20.4556 12.9924 20.5459 13.0128 20.6323C13.0333 20.7187 13.0774 20.7976 13.1402 20.8604C13.203 20.9231 13.282 20.967 13.3684 20.9873C13.4548 21.0076 13.5452 21.0035 13.6293 20.9753L14.3524 20.7349L15.47 20.3623C15.8185 20.2462 15.9928 20.1881 16.157 20.11C16.3505 20.0169 16.5335 19.9035 16.7028 19.7714C16.846 19.6613 16.9762 19.5311 17.2366 19.2707L21.0772 15.4297L21.4948 15.0121C21.8211 14.6784 22.0026 14.2295 22 13.7628C21.9973 13.2961 21.8108 12.8492 21.4808 12.5192C21.1508 12.1892 20.704 12.0026 20.2374 12C19.7707 11.9974 19.3218 12.1789 18.9882 12.5052L18.5706 12.9229M18.5706 12.9229C18.5706 12.9229 18.6226 13.8112 19.4058 14.5944C20.1889 15.3777 21.0772 15.4297 21.0772 15.4297M18.5706 12.9229L14.7299 16.7638C14.4696 17.0242 14.3394 17.1544 14.2292 17.2976C14.0972 17.4669 13.9837 17.6499 13.8907 17.8435C13.8126 18.0077 13.7545 18.182 13.6384 18.5305L13.2658 19.6482M13.2658 19.6482L14.3524 20.7349" stroke="black" stroke-width="1.5"/>
</svg>
