<svg width="24" height="24" viewBox="0 0 24 24" fill="none" xmlns="http://www.w3.org/2000/svg">
<path d="M22 10.5V12C22 16.714 22 19.071 20.535 20.535C19.072 22 16.714 22 12 22C7.286 22 4.929 22 3.464 20.535C2 19.072 2 16.714 2 12C2 7.286 2 4.929 3.464 3.464C4.93 2 7.286 2 12 2H13.5" stroke="black" stroke-width="1.5" stroke-linecap="round"/>
<path d="M16.6527 3.45512L17.3017 2.80612C17.8181 2.28988 18.5184 1.99991 19.2485 2C19.9787 2.00009 20.6789 2.29024 21.1952 2.80662C21.7114 3.323 22.0014 4.0233 22.0013 4.75347C22.0012 5.48365 21.7111 6.18388 21.1947 6.70012L20.5447 7.34912C20.5447 7.34912 19.1667 7.26812 17.9507 6.05112C16.7337 4.83512 16.6527 3.45612 16.6527 3.45612L10.6877 9.42012C10.2837 9.82412 10.0817 10.0261 9.90767 10.2491C9.70234 10.5125 9.52767 10.7951 9.38367 11.0971C9.26267 11.3521 9.17267 11.6231 8.99167 12.1651L8.41267 13.9001M8.41267 13.9001L8.03867 15.0221C7.99469 15.153 7.98808 15.2935 8.01959 15.4279C8.0511 15.5623 8.11948 15.6853 8.21705 15.7829C8.31461 15.8806 8.43749 15.9491 8.57186 15.9808C8.70623 16.0124 8.84677 16.006 8.97767 15.9621L10.1007 15.5881M8.41267 13.9001L10.1007 15.5881M20.5457 7.34812L14.5807 13.3131C14.1767 13.7171 13.9747 13.9191 13.7517 14.0931C13.4888 14.298 13.2045 14.4737 12.9037 14.6171C12.6487 14.7381 12.3777 14.8281 11.8357 15.0091L10.1007 15.5881" stroke="black" stroke-width="1.5"/>
</svg>
