<svg width="24" height="24" viewBox="0 0 24 24" fill="none" xmlns="http://www.w3.org/2000/svg">
<path d="M2.01577 13.3888C2.08114 16.2741 2.11383 17.7166 3.24496 18.7853C4.37608 19.8539 5.95033 19.8911 9.09883 19.9656C11.0393 20.0115 12.9607 20.0115 14.9012 19.9656C18.0497 19.8911 19.6239 19.8539 20.7551 18.7853C21.8862 17.7166 21.9189 16.2741 21.9842 13.3888C22.0053 12.4611 22.0053 11.5389 21.9842 10.6112C21.9189 7.72599 21.8862 6.28338 20.7551 5.21474C19.6239 4.1461 18.0497 4.10888 14.9012 4.03442C12.9607 3.98853 11.0393 3.98853 9.09882 4.03441C5.95033 4.10886 4.37608 4.14608 3.24495 5.21473C2.11382 6.28337 2.08114 7.72598 2.01576 10.6112C1.99474 11.5389 1.99475 12.4611 2.01577 13.3888Z" stroke="black" stroke-width="1.5" stroke-linejoin="round"/>
<path d="M2.5 7C2.5 7 7.89548 10.928 12 11C16.0248 11.0706 21.5 7 21.5 7" stroke="black" stroke-width="1.5"/>
</svg>
