<svg width="24" height="24" viewBox="0 0 24 24" fill="none" xmlns="http://www.w3.org/2000/svg">
<path d="M10 21.2501H14V22.7501H10V21.2501ZM21.25 14.0001V10.0001H22.75V14.0001H21.25ZM2.75 13.5631V14.0001H1.25V13.5631H2.75ZM9.109 4.61106L5.15 8.17406L4.147 7.05806L8.105 3.49506L9.109 4.61106ZM1.25 13.5631C1.25 11.8741 1.235 10.8041 1.66 9.84805L3.031 10.4591C2.765 11.0571 2.75 11.7421 2.75 13.5631H1.25ZM5.15 8.17406C3.797 9.39206 3.297 9.86205 3.031 10.4591L1.66 9.84805C2.086 8.89106 2.891 8.18806 4.147 7.05806L5.15 8.17406ZM13.97 2.75006C12.388 2.75006 11.791 2.76206 11.26 2.96606L10.722 1.56606C11.574 1.23806 12.502 1.25006 13.97 1.25006V2.75006ZM8.105 3.49606C9.191 2.51906 9.87 1.89206 10.722 1.56606L11.259 2.96606C10.727 3.17006 10.279 3.55806 9.109 4.61106L8.105 3.49606ZM14 21.2501C15.907 21.2501 17.261 21.2481 18.29 21.1101C19.295 20.9751 19.875 20.7211 20.298 20.2981L21.358 21.3581C20.61 22.1081 19.661 22.4391 18.489 22.5971C17.339 22.7521 15.864 22.7501 14 22.7501V21.2501ZM22.75 14.0001C22.75 15.8641 22.752 17.3381 22.597 18.4891C22.439 19.6611 22.107 20.6101 21.359 21.3591L20.299 20.2991C20.721 19.8751 20.975 19.2951 21.11 18.2891C21.248 17.2621 21.25 15.9071 21.25 14.0001H22.75ZM10 22.7501C8.136 22.7501 6.662 22.7521 5.511 22.5971C4.339 22.4391 3.39 22.1071 2.641 21.3591L3.701 20.2991C4.125 20.7211 4.705 20.9751 5.711 21.1101C6.738 21.2481 8.093 21.2501 10 21.2501V22.7501ZM2.75 14.0001C2.75 15.9071 2.752 17.2621 2.89 18.2901C3.025 19.2951 3.279 19.8751 3.702 20.2981L2.642 21.3581C1.892 20.6101 1.561 19.6611 1.403 18.4891C1.248 17.3391 1.25 15.8641 1.25 14.0001H2.75ZM21.25 10.0001C21.25 8.09306 21.248 6.73906 21.11 5.71006C20.975 4.70506 20.721 4.12506 20.298 3.70206L21.358 2.64206C22.108 3.39006 22.439 4.33906 22.597 5.51106C22.752 6.66106 22.75 8.13606 22.75 10.0001H21.25ZM13.97 1.25006C15.845 1.25006 17.326 1.24806 18.481 1.40306C19.658 1.56106 20.61 1.89306 21.359 2.64106L20.299 3.70106C19.875 3.27906 19.294 3.02506 18.282 2.89006C17.249 2.75206 15.887 2.75006 13.97 2.75006V1.25006Z" fill="black"/>
<path d="M11 2.5V5C11 7.357 11 8.536 10.268 9.268C9.536 10 8.357 10 6 10H2" stroke="black" stroke-width="1.5"/>
<path d="M19 15H15M15 15H11M15 15V11M15 15V19" stroke="black" stroke-width="1.5" stroke-linecap="round"/>
</svg>
