<svg width="24" height="24" viewBox="0 0 24 24" fill="none" xmlns="http://www.w3.org/2000/svg">
<path d="M2.40039 5.99844C2.40039 4.30104 2.40039 3.45324 2.92779 2.92584C3.45519 2.39844 4.30299 2.39844 6.00039 2.39844C7.69779 2.39844 8.54559 2.39844 9.07299 2.92584C9.60039 3.45324 9.60039 4.30104 9.60039 5.99844C9.60039 7.69584 9.60039 8.54364 9.07299 9.07104C8.54559 9.59844 7.69779 9.59844 6.00039 9.59844C4.30299 9.59844 3.45519 9.59844 2.92779 9.07104C2.40039 8.54364 2.40039 7.69584 2.40039 5.99844Z" stroke="black" stroke-width="1.5" stroke-linejoin="round"/>
<path d="M14.4004 5.99844C14.4004 4.30104 14.4004 3.45324 14.9278 2.92584C15.4552 2.39844 16.303 2.39844 18.0004 2.39844C19.6978 2.39844 20.5456 2.39844 21.073 2.92584C21.6004 3.45324 21.6004 4.30104 21.6004 5.99844C21.6004 7.69584 21.6004 8.54364 21.073 9.07104C20.5456 9.59844 19.6978 9.59844 18.0004 9.59844C16.303 9.59844 15.4552 9.59844 14.9278 9.07104C14.4004 8.54364 14.4004 7.69584 14.4004 5.99844Z" stroke="black" stroke-width="1.5" stroke-linejoin="round"/>
<path d="M14.4004 17.9984C14.4004 16.301 14.4004 15.4532 14.9278 14.9258C15.4552 14.3984 16.303 14.3984 18.0004 14.3984C19.6978 14.3984 20.5456 14.3984 21.073 14.9258C21.6004 15.4532 21.6004 16.301 21.6004 17.9984C21.6004 19.6958 21.6004 20.5436 21.073 21.071C20.5456 21.5984 19.6978 21.5984 18.0004 21.5984C16.303 21.5984 15.4552 21.5984 14.9278 21.071C14.4004 20.5436 14.4004 19.6958 14.4004 17.9984Z" stroke="black" stroke-width="1.5" stroke-linejoin="round"/>
<path d="M2.40039 17.9984C2.40039 16.301 2.40039 15.4532 2.92779 14.9258C3.45519 14.3984 4.30299 14.3984 6.00039 14.3984C7.69779 14.3984 8.54559 14.3984 9.07299 14.9258C9.60039 15.4532 9.60039 16.301 9.60039 17.9984C9.60039 19.6958 9.60039 20.5436 9.07299 21.071C8.54559 21.5984 7.69779 21.5984 6.00039 21.5984C4.30299 21.5984 3.45519 21.5984 2.92779 21.071C2.40039 20.5436 2.40039 19.6958 2.40039 17.9984Z" stroke="black" stroke-width="1.5" stroke-linejoin="round"/>
</svg>
