<svg width="24" height="24" viewBox="0 0 24 24" fill="none" xmlns="http://www.w3.org/2000/svg">
<path d="M10.3557 2.94234L4.09288 8.09998C3.40089 8.66986 3 9.51933 3 10.4158V18C3 19.6569 4.34315 21 6 21H7.5C8.05228 21 8.5 20.5523 8.5 20V15.5C8.5 14.3954 9.39543 13.5 10.5 13.5H12.5C13.6046 13.5 14.5 14.3954 14.5 15.5V20C14.5 20.5523 14.9477 21 15.5 21H17C18.6569 21 20 19.6569 20 18V10.4158C20 9.51933 19.5991 8.66986 18.9071 8.09998L12.6443 2.94234C11.9796 2.39498 11.0204 2.39498 10.3557 2.94234Z" stroke="black" stroke-width="1.5" stroke-linejoin="round"/>
</svg>
