<svg width="118" height="104" viewBox="0 0 118 104" fill="none" xmlns="http://www.w3.org/2000/svg">
<path d="M30.5039 7.82031V12.1203" stroke="#BABABA" stroke-linecap="round" stroke-linejoin="round"/>
<path d="M28.3438 9.96875H32.6538" stroke="#BABABA" stroke-linecap="round" stroke-linejoin="round"/>
<path d="M79.4512 34.9413C71.0812 34.9413 62.5612 34.6013 54.5912 32.3813C46.7712 30.2113 39.5912 26.0013 33.1912 21.1313C29.0012 17.9613 25.1912 15.4313 19.7512 15.8113C14.4293 16.0993 9.34 18.0866 5.23121 21.4813C-1.68879 27.5413 -0.648793 38.7713 2.12121 46.6313C6.28121 58.5013 18.9412 66.7713 29.7012 72.1213C42.1312 78.3313 55.7912 81.9413 69.4812 84.0113C81.4812 85.8413 96.9012 87.1613 107.301 79.3313C116.851 72.1213 119.471 55.6813 117.131 44.5813C116.563 41.3022 114.817 38.3434 112.221 36.2613C105.511 31.3513 95.5012 34.6313 87.9612 34.7913C85.1612 34.8513 82.3112 34.9213 79.4512 34.9413Z" fill="#F2F2F2"/>
<path d="M65.9136 1.96C66.4548 1.96 66.8936 1.52124 66.8936 0.98C66.8936 0.43876 66.4548 0 65.9136 0C65.3724 0 64.9336 0.43876 64.9336 0.98C64.9336 1.52124 65.3724 1.96 65.9136 1.96Z" fill="#CFCFCF"/>
<path d="M14.9922 78.2695V82.5695" stroke="#BABABA" stroke-linecap="round" stroke-linejoin="round"/>
<path d="M12.8438 80.418H17.1437" stroke="#BABABA" stroke-linecap="round" stroke-linejoin="round"/>
<path d="M59.3741 103.471C79.6484 103.471 96.0841 102.445 96.0841 101.181C96.0841 99.9159 79.6484 98.8906 59.3741 98.8906C39.0997 98.8906 22.6641 99.9159 22.6641 101.181C22.6641 102.445 39.0997 103.471 59.3741 103.471Z" fill="#F2F2F2"/>
<path d="M88.8848 76.6511H25.4748C25.0505 76.6508 24.6312 76.5583 24.2461 76.3801C23.861 76.2018 23.5192 75.942 23.2444 75.6187C22.9696 75.2954 22.7682 74.9162 22.6544 74.5074C22.5405 74.0986 22.5167 73.67 22.5848 73.2511L30.6948 24.0711C30.8044 23.3866 31.1547 22.7638 31.6827 22.3146C32.2107 21.8655 32.8816 21.6195 33.5748 21.6211H96.9848C97.4089 21.6211 97.8278 21.7135 98.2125 21.8919C98.5973 22.0702 98.9385 22.3302 99.2126 22.6538C99.4867 22.9773 99.687 23.3567 99.7997 23.7656C99.9123 24.1744 99.9345 24.6028 99.8648 25.0211L91.7948 74.2011C91.6825 74.8898 91.3273 75.5156 90.7935 75.965C90.2597 76.4144 89.5826 76.6578 88.8848 76.6511Z" fill="#D2D2D2"/>
<path d="M89.6633 20.3348L52.0245 3.52974C50.915 3.03438 49.6141 3.53221 49.1187 4.64168L37.1896 31.3595C36.6942 32.469 37.1921 33.77 38.3015 34.2653L75.9403 51.0704C77.0498 51.5658 78.3507 51.068 78.8461 49.9585L90.7752 23.2406C91.2705 22.1312 90.7727 20.8302 89.6633 20.3348Z" fill="white" stroke="#BABABA" stroke-linecap="round" stroke-linejoin="round"/>
<path d="M57.543 25.5076C58.5337 24.1175 59.9746 23.1126 61.6215 22.6633C63.2683 22.214 65.0199 22.3479 66.5793 23.0422C68.1388 23.7366 69.4102 24.9488 70.1781 26.4734C70.9461 27.998 71.1633 29.7412 70.793 31.4076" stroke="#BABABA" stroke-width="0.68" stroke-linecap="round" stroke-linejoin="round"/>
<path d="M75.5417 24.0014C76.1106 24.0014 76.5717 23.5403 76.5717 22.9714C76.5717 22.4026 76.1106 21.9414 75.5417 21.9414C74.9729 21.9414 74.5117 22.4026 74.5117 22.9714C74.5117 23.5403 74.9729 24.0014 75.5417 24.0014Z" fill="#BABABA"/>
<path d="M60.6237 17.3413C61.1926 17.3413 61.6537 16.8801 61.6537 16.3113C61.6537 15.7424 61.1926 15.2812 60.6237 15.2812C60.0549 15.2812 59.5938 15.7424 59.5938 16.3113C59.5938 16.8801 60.0549 17.3413 60.6237 17.3413Z" fill="#BABABA"/>
<path d="M88.6018 76.6295H24.8818C24.1064 76.6269 23.3637 76.317 22.8164 75.7678C22.2691 75.2186 21.9618 74.4749 21.9618 73.6995V28.7695C21.9525 28.3797 22.021 27.992 22.1635 27.6291C22.3059 27.2661 22.5194 26.9353 22.7913 26.6559C23.0633 26.3765 23.3882 26.1542 23.7472 26.002C24.1062 25.8498 24.4919 25.7708 24.8818 25.7695H48.0918C48.6303 25.7715 49.158 25.9219 49.6166 26.2042C50.0753 26.4864 50.4473 26.8896 50.6918 27.3695L54.0018 33.8495C54.2453 34.3301 54.6171 34.734 55.076 35.0164C55.5349 35.2988 56.063 35.4487 56.6018 35.4495H88.6018C89.3762 35.4495 90.1189 35.7572 90.6665 36.3048C91.2141 36.8524 91.5218 37.5951 91.5218 38.3695V73.6995C91.5218 74.4749 91.2145 75.2186 90.6671 75.7678C90.1198 76.317 89.3771 76.6269 88.6018 76.6295Z" fill="white" stroke="#BABABA" stroke-linecap="round" stroke-linejoin="round"/>
<path d="M78.7919 36.9805C75.1107 36.9785 71.5117 38.0683 68.45 40.112C65.3883 42.1557 63.0014 45.0614 61.5914 48.4618C60.1813 51.8622 59.8113 55.6043 60.5282 59.215C61.2452 62.8256 63.0168 66.1425 65.6191 68.7462C68.2213 71.3498 71.5373 73.1233 75.1476 73.8422C78.7578 74.561 82.5002 74.1931 85.9013 72.7848C89.3024 71.3766 92.2095 68.9913 94.2548 65.9307C96.3002 62.8701 97.3919 59.2716 97.3919 55.5905C97.3919 50.6565 95.4326 45.9245 91.9447 42.4347C88.4568 38.945 83.7258 36.9831 78.7919 36.9805Z" fill="white" stroke="#BABABA" stroke-linecap="round" stroke-linejoin="round"/>
<path d="M92.0312 69.0898L96.9912 74.0498" stroke="#BABABA" stroke-linecap="round" stroke-linejoin="round"/>
<path d="M96.4323 71.6383L94.8913 73.2502C94.2006 73.9728 94.2264 75.1186 94.949 75.8093L108.322 88.593C109.044 89.2837 110.19 89.2579 110.881 88.5354L112.422 86.9234C113.112 86.2008 113.087 85.0551 112.364 84.3643L98.9914 71.5807C98.2688 70.8899 97.1231 70.9157 96.4323 71.6383Z" fill="#D2D2D2"/>
<path d="M106.332 0.980469V5.29047" stroke="#BABABA" stroke-linecap="round" stroke-linejoin="round"/>
<path d="M104.172 3.14062H108.482" stroke="#BABABA" stroke-linecap="round" stroke-linejoin="round"/>
</svg>
