<svg width="92" height="104" viewBox="0 0 92 104" fill="none" xmlns="http://www.w3.org/2000/svg">
<path d="M0.98 75.8936C1.52124 75.8936 1.96 75.4548 1.96 74.9136C1.96 74.3724 1.52124 73.9336 0.98 73.9336C0.43876 73.9336 0 74.3724 0 74.9136C0 75.4548 0.43876 75.8936 0.98 75.8936Z" fill="#CFCFCF"/>
<path d="M47.1025 85.2402C53.3378 85.2402 58.3925 80.1855 58.3925 73.9502C58.3925 67.7149 53.3378 62.6602 47.1025 62.6602C40.8672 62.6602 35.8125 67.7149 35.8125 73.9502C35.8125 80.1855 40.8672 85.2402 47.1025 85.2402Z" fill="#D2D2D2"/>
<path d="M35.433 3.46707C36.0572 3.32788 36.7027 3.31301 37.3326 3.42329C37.9626 3.53358 38.5647 3.76686 39.1045 4.10983C39.6443 4.45279 40.1112 4.89872 40.4787 5.42215C40.8461 5.94558 41.1069 6.53626 41.2461 7.16047L43.0503 15.2518L33.5242 17.3759L31.72 9.28456C31.5805 8.65871 31.5659 8.01145 31.6771 7.37995C31.7883 6.74844 32.0232 6.14512 32.3681 5.6046C32.7131 5.06409 33.1614 4.59702 33.6874 4.2302C34.2133 3.86339 34.8065 3.60405 35.433 3.46707Z" fill="white" stroke="#BABABA" stroke-linecap="round" stroke-linejoin="round"/>
<path d="M79.9405 66.9418L22.0505 79.8418C21.6909 79.9225 21.3165 79.9081 20.9642 79.7999C20.6119 79.6918 20.2939 79.4937 20.0415 79.2252C19.7891 78.9566 19.6111 78.6269 19.525 78.2686C19.4389 77.9103 19.4477 77.5357 19.5505 77.1818L19.7905 76.3518C21.7905 69.2618 23.5305 61.4518 21.9305 54.2518L18.5105 38.8918C15.6305 25.9818 23.3705 12.8318 36.2105 9.66183C39.3415 8.88456 42.5963 8.74142 45.7834 9.24083C48.9706 9.74024 52.0256 10.8721 54.7688 12.5698C57.512 14.2675 59.8879 16.4968 61.7566 19.1264C63.6254 21.756 64.9493 24.7329 65.6505 27.8818L69.1805 43.7618C70.7905 50.9618 75.6505 57.3218 80.5105 62.8618L81.0805 63.5118C81.3112 63.7902 81.4674 64.1227 81.5341 64.4781C81.6009 64.8334 81.576 65.1999 81.462 65.5431C81.348 65.8862 81.1484 66.1947 80.8823 66.4394C80.6161 66.6841 80.292 66.857 79.9405 66.9418Z" fill="white" stroke="#BABABA" stroke-linecap="round" stroke-linejoin="round"/>
<path d="M37.1213 57.0431C37.1055 54.7074 37.8903 52.4368 39.3449 50.6092C40.7995 48.7817 42.8362 47.5076 45.1159 46.9991C47.3956 46.4905 49.7808 46.7782 51.8742 47.8142C53.9676 48.8503 55.643 50.5721 56.6213 52.6931" stroke="#BABABA" stroke-linecap="round" stroke-linejoin="round"/>
<path d="M54.9825 40.8127C55.7667 40.8127 56.4025 40.1769 56.4025 39.3927C56.4025 38.6084 55.7667 37.9727 54.9825 37.9727C54.1983 37.9727 53.5625 38.6084 53.5625 39.3927C53.5625 40.1769 54.1983 40.8127 54.9825 40.8127Z" fill="#BABABA"/>
<path d="M32.963 45.7228C33.7472 45.7228 34.383 45.0871 34.383 44.3028C34.383 43.5186 33.7472 42.8828 32.963 42.8828C32.1787 42.8828 31.543 43.5186 31.543 44.3028C31.543 45.0871 32.1787 45.7228 32.963 45.7228Z" fill="#BABABA"/>
<path d="M59.4409 1.96C59.9822 1.96 60.4209 1.52124 60.4209 0.98C60.4209 0.43876 59.9822 0 59.4409 0C58.8997 0 58.4609 0.43876 58.4609 0.98C58.4609 1.52124 58.8997 1.96 59.4409 1.96Z" fill="#CFCFCF"/>
<path d="M0.98 75.8936C1.52124 75.8936 1.96 75.4548 1.96 74.9136C1.96 74.3724 1.52124 73.9336 0.98 73.9336C0.43876 73.9336 0 74.3724 0 74.9136C0 75.4548 0.43876 75.8936 0.98 75.8936Z" fill="#CFCFCF"/>
<path d="M86.5195 24.6523V28.9523" stroke="#BABABA" stroke-linecap="round" stroke-linejoin="round"/>
<path d="M84.3711 26.8008H88.6711" stroke="#BABABA" stroke-linecap="round" stroke-linejoin="round"/>
<path d="M88.4805 89.3906V93.6906" stroke="#BABABA" stroke-linecap="round" stroke-linejoin="round"/>
<path d="M86.332 91.543H90.632" stroke="#BABABA" stroke-linecap="round" stroke-linejoin="round"/>
<path d="M13.3008 8.35156V12.6516" stroke="#BABABA" stroke-linecap="round" stroke-linejoin="round"/>
<path d="M11.1523 10.5H15.4523" stroke="#BABABA" stroke-linecap="round" stroke-linejoin="round"/>
<path d="M44.4522 103.463C64.7266 103.463 81.1622 102.438 81.1622 101.173C81.1622 99.9081 64.7266 98.8828 44.4522 98.8828C24.1778 98.8828 7.74219 99.9081 7.74219 101.173C7.74219 102.438 24.1778 103.463 44.4522 103.463Z" fill="#F2F2F2"/>
<path d="M79.522 22.2117C79.5194 25.2529 78.3101 28.1688 76.1596 30.3193C74.0091 32.4697 71.0932 33.679 68.052 33.6817C67.6779 33.6816 67.304 33.6616 66.932 33.6217L63.532 39.1717L62.472 32.2217C60.7055 31.2381 59.2305 29.805 58.1962 28.0677C57.162 26.3304 56.6054 24.3505 56.5827 22.3288C56.5601 20.3071 57.0723 18.3153 58.0674 16.5553C59.0625 14.7952 60.5052 13.3295 62.2492 12.3066C63.9932 11.2837 65.9766 10.74 67.9985 10.7306C70.0203 10.7212 72.0087 11.2463 73.7622 12.2529C75.5157 13.2594 76.972 14.7116 77.9835 16.4622C78.995 18.2129 79.5257 20.1998 79.522 22.2217V22.2117Z" fill="white" stroke="#BABABA" stroke-linecap="round" stroke-linejoin="round"/>
<path d="M63.1522 23.3708C63.7928 23.3708 64.3122 22.8514 64.3122 22.2108C64.3122 21.5701 63.7928 21.0508 63.1522 21.0508C62.5115 21.0508 61.9922 21.5701 61.9922 22.2108C61.9922 22.8514 62.5115 23.3708 63.1522 23.3708Z" fill="#D2D2D2" stroke="#D2D2D2" stroke-miterlimit="10"/>
<path d="M68.0506 23.3708C68.6913 23.3708 69.2106 22.8514 69.2106 22.2108C69.2106 21.5701 68.6913 21.0508 68.0506 21.0508C67.41 21.0508 66.8906 21.5701 66.8906 22.2108C66.8906 22.8514 67.41 23.3708 68.0506 23.3708Z" fill="#D2D2D2" stroke="#D2D2D2" stroke-miterlimit="10"/>
<path d="M72.953 23.3708C73.5936 23.3708 74.113 22.8514 74.113 22.2108C74.113 21.5701 73.5936 21.0508 72.953 21.0508C72.3123 21.0508 71.793 21.5701 71.793 22.2108C71.793 22.8514 72.3123 23.3708 72.953 23.3708Z" fill="#D2D2D2" stroke="#D2D2D2" stroke-miterlimit="10"/>
</svg>
