<svg width="24" height="24" viewBox="0 0 24 24" fill="none" xmlns="http://www.w3.org/2000/svg">
<path d="M4 14.5C4 11.672 4 10.257 4.879 9.379C5.757 8.5 7.172 8.5 10 8.5H14C16.828 8.5 18.243 8.5 19.121 9.379C20 10.257 20 11.672 20 14.5C20 17.328 20 18.743 19.121 19.621C18.243 20.5 16.828 20.5 14 20.5H10C7.172 20.5 5.757 20.5 4.879 19.621C4 18.743 4 17.328 4 14.5Z" stroke="black" stroke-width="1.5"/>
<path d="M8 8.5C8 5.672 8 4.257 8.879 3.379C9.757 2.5 10.172 2.5 12 2.5C13.828 2.5 14.243 2.5 15.121 3.379C16 4.257 16 5.672 16 8.5" stroke="black" stroke-width="1.5"/>
<path d="M12 16.5C13.1046 16.5 14 15.6046 14 14.5C14 13.3954 13.1046 12.5 12 12.5C10.8954 12.5 10 13.3954 10 14.5C10 15.6046 10.8954 16.5 12 16.5Z" stroke="black" stroke-width="1.5"/>
</svg>
