<svg width="24" height="24" viewBox="0 0 24 24" fill="none" xmlns="http://www.w3.org/2000/svg">
<path d="M6.6 5.439C7.302 6.0789 8.7492 7.8267 8.9175 9.7023C9.075 11.4564 10.2315 12.882 12 12.9C12.6795 12.9072 13.3662 12.4167 13.3644 11.7372C13.3644 11.5275 13.3293 11.3124 13.2753 11.1144C13.1844 10.811 13.2111 10.4846 13.35 10.2C13.899 9.0687 14.979 8.7645 15.834 8.1498C16.2129 7.8771 16.5594 7.5891 16.7115 7.3578C17.1336 6.7188 17.5548 5.4399 17.3442 4.8M21 12.9C20.703 13.7379 20.4942 15.9375 17.1462 15.9726C17.1462 15.9726 14.1825 15.9726 13.2933 17.6484C12.5814 18.9894 12.9963 20.4411 13.2933 21M21 12C21 16.9706 16.9706 21 12 21C7.02944 21 3 16.9706 3 12C3 7.02944 7.02944 3 12 3C16.9706 3 21 7.02944 21 12Z" stroke="black" stroke-width="1.5"/>
</svg>
