<svg width="24" height="24" viewBox="0 0 24 24" fill="none" xmlns="http://www.w3.org/2000/svg">
<path fill-rule="evenodd" clip-rule="evenodd" d="M5.07934 5.06902C8.87434 1.27902 15.0443 1.31902 18.8623 5.13802C22.6823 8.95802 22.7223 15.131 18.9263 18.926C15.1303 22.721 8.95834 22.682 5.13834 18.862C4.06371 17.792 3.25177 16.4875 2.76629 15.0508C2.28081 13.6142 2.13501 12.0845 2.34034 10.582C2.36726 10.3848 2.47141 10.2064 2.62988 10.086C2.78835 9.96562 2.98815 9.9131 3.18534 9.94002C3.38253 9.96694 3.56095 10.0711 3.68134 10.2296C3.80174 10.388 3.85426 10.5878 3.82734 10.785C3.65302 12.0583 3.77642 13.3547 4.18782 14.5723C4.59923 15.7899 5.28744 16.8954 6.19834 17.802C9.44334 21.046 14.6663 21.065 17.8663 17.866C21.0653 14.666 21.0463 9.44302 17.8023 6.19802C14.5593 2.95602 9.33934 2.93502 6.13934 6.13002L6.88734 6.13302C6.98583 6.13348 7.08327 6.15334 7.17409 6.19145C7.2649 6.22957 7.34733 6.2852 7.41664 6.35517C7.48596 6.42514 7.54082 6.50807 7.57809 6.59924C7.61536 6.69041 7.6343 6.78803 7.63384 6.88652C7.63338 6.98501 7.61353 7.08245 7.57541 7.17327C7.53729 7.26409 7.48166 7.34651 7.41169 7.41583C7.34173 7.48515 7.25879 7.54 7.16762 7.57727C7.07645 7.61454 6.97883 7.63348 6.88034 7.63302L4.33434 7.62102C4.13664 7.61997 3.94735 7.5409 3.80765 7.40101C3.66795 7.26112 3.58913 7.07172 3.58834 6.87402L3.57534 4.33002C3.57481 4.23153 3.59369 4.1339 3.6309 4.0427C3.6681 3.95151 3.72291 3.86854 3.79218 3.79852C3.86145 3.7285 3.94384 3.67282 4.03463 3.63464C4.12542 3.59647 4.22285 3.57655 4.32134 3.57602C4.41983 3.5755 4.51746 3.59438 4.60866 3.63158C4.69985 3.66879 4.78283 3.72359 4.85284 3.79286C4.92286 3.86214 4.97854 3.94452 5.01672 4.03531C5.05489 4.12611 5.07481 4.22353 5.07534 4.32202L5.07934 5.06902ZM11.9993 7.24902C12.1983 7.24902 12.389 7.32804 12.5297 7.46869C12.6703 7.60934 12.7493 7.80011 12.7493 7.99902V11.689L15.0303 13.969C15.102 14.0382 15.1592 14.1209 15.1985 14.2124C15.2379 14.3039 15.2586 14.4023 15.2595 14.5019C15.2604 14.6014 15.2415 14.7002 15.2038 14.7924C15.1662 14.8846 15.1105 14.9684 15.0401 15.0388C14.9698 15.1093 14.886 15.165 14.7939 15.2027C14.7017 15.2405 14.603 15.2595 14.5034 15.2587C14.4038 15.2579 14.3054 15.2372 14.2139 15.198C14.1223 15.1587 14.0396 15.1016 13.9703 15.03L11.2503 12.31V8.00002C11.2503 7.80111 11.3294 7.61034 11.47 7.46969C11.6107 7.32904 11.8014 7.25002 12.0003 7.25002" fill="black"/>
</svg>
