<svg width="24" height="24" viewBox="0 0 24 24" fill="none" xmlns="http://www.w3.org/2000/svg">
<path d="M15.7139 15.6979L20 20M15.7139 15.6979C16.3496 15.0601 16.8534 14.3033 17.1966 13.4708C17.5399 12.6383 17.7158 11.7463 17.7143 10.8458C17.7128 9.94534 17.534 9.05396 17.188 8.22258C16.842 7.3912 16.3357 6.63611 15.6979 6.00042C15.0601 5.36473 14.3033 4.86088 13.4708 4.51765C12.6383 4.17442 11.7463 3.99852 10.8458 4.00001C9.94534 4.00149 9.05396 4.18033 8.22258 4.52631C7.3912 4.87228 6.63611 5.37862 6.00042 6.01642C4.71658 7.3045 3.99701 9.04983 4.00001 10.8685C4.00301 12.6871 4.72833 14.43 6.01642 15.7139C7.3045 16.9977 9.04983 17.7173 10.8685 17.7143C12.6871 17.7113 14.43 16.986 15.7139 15.6979Z" stroke="white" stroke-width="1.5" stroke-linecap="round"/>
</svg>
