<svg width="118" height="111" viewBox="0 0 118 111" fill="none" xmlns="http://www.w3.org/2000/svg">
<path d="M79.4562 42.1952C71.0762 42.1952 62.5662 41.8552 54.5962 39.6352C46.7762 37.4652 39.5962 33.2552 33.1962 28.3852C28.9962 25.2152 25.1962 22.6852 19.7462 23.0652C14.4235 23.3603 9.33664 25.3586 5.23621 28.7652C-1.69379 34.8252 -0.643785 46.0352 2.11621 53.9152C6.28621 65.7852 18.9362 74.0352 29.7062 79.4052C42.1362 85.6152 55.7862 89.1952 69.4862 91.2952C81.4862 93.1252 96.8962 94.4452 107.296 86.6152C116.856 79.4152 119.476 62.9652 117.136 51.8652C116.565 48.5849 114.815 45.6262 112.216 43.5452C105.506 38.6352 95.4962 41.9152 87.9562 42.0752C85.1562 42.1952 82.3162 42.1952 79.4562 42.1952Z" fill="#F2F2F2"/>
<path d="M58.9678 110.756C79.2422 110.756 95.6778 109.731 95.6778 108.466C95.6778 107.201 79.2422 106.176 58.9678 106.176C38.6934 106.176 22.2578 107.201 22.2578 108.466C22.2578 109.731 38.6934 110.756 58.9678 110.756Z" fill="#F2F2F2"/>
<path d="M36.4762 8.44466C36.1247 6.59094 36.5234 4.6735 37.5847 3.11351C38.6459 1.55351 40.2829 0.478523 42.1362 0.124659H42.3062C44.1599 -0.226813 46.0774 0.171855 47.6374 1.2331C49.1974 2.29435 50.2724 3.93139 50.6262 5.78466L36.4762 8.44466Z" fill="#D2D2D2"/>
<path d="M20.2325 11.53L66.8679 2.66752C69.1347 2.23675 71.4798 2.7241 73.3873 4.02237C75.2948 5.32065 76.6084 7.32349 77.0392 9.59031L13.3196 21.6994C12.8891 19.4343 13.3754 17.0909 14.6716 15.1841C15.9678 13.2773 17.9679 11.963 20.2325 11.53Z" fill="white" stroke="#BABABA" stroke-linecap="round" stroke-linejoin="round"/>
<path d="M9.81641 22.3558L80.5264 8.92578" stroke="#BABABA" stroke-linecap="round" stroke-linejoin="round"/>
<path d="M106.197 77.9559L71.5969 101.896C70.6677 102.53 69.533 102.79 68.4203 102.623C67.3075 102.456 66.299 101.875 65.5969 100.996L27.0469 52.4259L75.5969 18.8359L107.487 71.9759C108.07 72.9506 108.261 74.1102 108.021 75.2204C107.782 76.3306 107.13 77.3083 106.197 77.9559Z" fill="white" stroke="#BABABA" stroke-linecap="round" stroke-linejoin="round"/>
<path d="M21.4492 56.307L81.1992 14.957" stroke="#BABABA" stroke-linecap="round" stroke-linejoin="round"/>
<path d="M48.9502 43.0007L48.9421 43.0066C48.1586 43.5725 47.9822 44.6664 48.5481 45.4499L79.6745 88.5443C80.2405 89.3278 81.3344 89.5042 82.1179 88.9383L82.126 88.9324C82.9095 88.3665 83.0859 87.2726 82.5199 86.4891L51.3935 43.3947C50.8276 42.6112 49.7337 42.4348 48.9502 43.0007Z" fill="#D2D2D2"/>
<path d="M90.6408 83.1555L90.6491 83.15C91.4513 82.6184 91.6706 81.5372 91.1391 80.735L61.9011 36.6122C61.3695 35.81 60.2883 35.5906 59.4861 36.1222L59.4778 36.1277C58.6756 36.6593 58.4562 37.7405 58.9878 38.5427L88.2258 82.6655C88.7573 83.4677 89.8386 83.6871 90.6408 83.1555Z" fill="#D2D2D2"/>
<path d="M68.6913 29.3853L68.6828 29.3906C67.8613 29.8997 67.6081 30.9785 68.1172 31.8L96.1223 76.9852C96.6315 77.8067 97.7102 78.0599 98.5317 77.5507L98.5402 77.5454C99.3617 77.0363 99.6149 75.9576 99.1058 75.1361L71.1007 29.9509C70.5915 29.1294 69.5128 28.8762 68.6913 29.3853Z" fill="#D2D2D2"/>
<path d="M73.812 94.6317L73.82 94.6256C74.586 94.0363 74.7293 92.9376 74.14 92.1715L41.7267 50.0364C41.1374 49.2704 40.0387 49.1271 39.2726 49.7164L39.2647 49.7225C38.4987 50.3118 38.3554 51.4105 38.9447 52.1766L71.3579 94.3117C71.9472 95.0777 73.046 95.221 73.812 94.6317Z" fill="#D2D2D2"/>
<path d="M47.4766 23.1641V27.4641" stroke="#BABABA" stroke-linecap="round" stroke-linejoin="round"/>
<path d="M45.3281 25.3164H49.6381" stroke="#BABABA" stroke-linecap="round" stroke-linejoin="round"/>
<path d="M33.0273 82.6055V86.9055" stroke="#BABABA" stroke-linecap="round" stroke-linejoin="round"/>
<path d="M30.8672 84.7539H35.1772" stroke="#BABABA" stroke-linecap="round" stroke-linejoin="round"/>
<path d="M93.5156 31.8242V36.1342" stroke="#BABABA" stroke-linecap="round" stroke-linejoin="round"/>
<path d="M91.3672 33.9844H95.6672" stroke="#BABABA" stroke-linecap="round" stroke-linejoin="round"/>
</svg>
