<svg width="24" height="24" viewBox="0 0 24 24" fill="none" xmlns="http://www.w3.org/2000/svg">
<path d="M12.5545 2.4939C12.4842 2.41705 12.3987 2.35567 12.3034 2.31368C12.2081 2.27169 12.1051 2.25 12.001 2.25C11.8968 2.25 11.7938 2.27169 11.6985 2.31368C11.6032 2.35567 11.5177 2.41705 11.4475 2.4939L7.44745 6.8689C7.32383 7.01713 7.26212 7.20731 7.27515 7.39989C7.28818 7.59246 7.37495 7.7726 7.51742 7.90282C7.65988 8.03305 7.84706 8.10334 8.04003 8.09907C8.233 8.0948 8.41689 8.0163 8.55345 7.8799L11.2495 4.9299V15.9999C11.2495 16.1988 11.3285 16.3896 11.4691 16.5302C11.6098 16.6709 11.8005 16.7499 11.9995 16.7499C12.1984 16.7499 12.3891 16.6709 12.5298 16.5302C12.6704 16.3896 12.7495 16.1988 12.7495 15.9999V4.9319L15.4465 7.8819C15.5808 8.0287 15.7679 8.11612 15.9667 8.12493C16.1655 8.13375 16.3597 8.06323 16.5065 7.9289C16.6532 7.79457 16.7407 7.60742 16.7495 7.40863C16.7583 7.20984 16.6878 7.0157 16.5535 6.8689L12.5545 2.4939Z" fill="black"/>
<path d="M3.75 15C3.75 14.8011 3.67098 14.6103 3.53033 14.4697C3.38968 14.329 3.19891 14.25 3 14.25C2.80109 14.25 2.61032 14.329 2.46967 14.4697C2.32902 14.6103 2.25 14.8011 2.25 15V15.055C2.25 16.422 2.25 17.525 2.367 18.392C2.487 19.292 2.747 20.05 3.348 20.652C3.95 21.254 4.708 21.512 5.608 21.634C6.475 21.75 7.578 21.75 8.945 21.75H15.055C16.422 21.75 17.525 21.75 18.392 21.634C19.292 21.512 20.05 21.254 20.652 20.652C21.254 20.05 21.512 19.292 21.634 18.392C21.75 17.525 21.75 16.422 21.75 15.055V15C21.75 14.8011 21.671 14.6103 21.5303 14.4697C21.3897 14.329 21.1989 14.25 21 14.25C20.8011 14.25 20.6103 14.329 20.4697 14.4697C20.329 14.6103 20.25 14.8011 20.25 15C20.25 16.435 20.248 17.436 20.147 18.192C20.048 18.926 19.867 19.314 19.591 19.591C19.314 19.868 18.926 20.048 18.191 20.147C17.436 20.248 16.435 20.25 15 20.25H9C7.565 20.25 6.563 20.248 5.808 20.147C5.074 20.048 4.686 19.867 4.409 19.591C4.132 19.314 3.952 18.926 3.853 18.191C3.752 17.436 3.75 16.435 3.75 15Z" fill="black"/>
</svg>
