<svg width="26" height="26" viewBox="0 0 26 26" fill="none" xmlns="http://www.w3.org/2000/svg">
<path d="M12.7504 12.7508C14.7386 12.7508 16.3504 11.139 16.3504 9.15078C16.3504 7.16256 14.7386 5.55078 12.7504 5.55078C10.7622 5.55078 9.15039 7.16256 9.15039 9.15078C9.15039 11.139 10.7622 12.7508 12.7504 12.7508Z" stroke="black" stroke-width="1.5"/>
<path d="M12.75 24.75C19.3774 24.75 24.75 19.3774 24.75 12.75C24.75 6.12258 19.3774 0.75 12.75 0.75C6.12258 0.75 0.75 6.12258 0.75 12.75C0.75 19.3774 6.12258 24.75 12.75 24.75Z" stroke="black" stroke-width="1.5"/>
<path d="M19.9139 22.3496C19.7219 18.8792 18.6599 16.3496 12.7499 16.3496C6.83994 16.3496 5.77794 18.8792 5.58594 22.3496" stroke="black" stroke-width="1.5" stroke-linecap="round"/>
</svg>
