<svg width="24" height="24" viewBox="0 0 24 24" fill="none" xmlns="http://www.w3.org/2000/svg">
<path d="M5.892 14.06C5.297 13.37 5 13.025 5 12C5 10.975 5.297 10.63 5.892 9.94C7.08 8.562 9.072 7 12 7C14.928 7 16.92 8.562 18.108 9.94C18.703 10.63 19 10.975 19 12C19 13.025 18.703 13.37 18.108 14.06C16.92 15.438 14.928 17 12 17C9.072 17 7.08 15.438 5.892 14.06Z" stroke="black" stroke-width="1.5"/>
<path d="M12 14C13.1046 14 14 13.1046 14 12C14 10.8954 13.1046 10 12 10C10.8954 10 10 10.8954 10 12C10 13.1046 10.8954 14 12 14Z" stroke="black" stroke-width="1.5"/>
</svg>
