<svg width="24" height="24" viewBox="0 0 24 24" fill="none" xmlns="http://www.w3.org/2000/svg">
<g clip-path="url(#clip0_1841_935)">
<mask id="mask0_1841_935" style="mask-type:luminance" maskUnits="userSpaceOnUse" x="0" y="0" width="24" height="24">
<path d="M24 0H0V24H24V0Z" fill="white"/>
</mask>
<g mask="url(#mask0_1841_935)">
<path d="M12.001 3.87891C16.2368 3.87891 19.1148 6.41127 20.8223 8.63086L20.8252 8.63379L20.8545 8.6709C21.2108 9.1343 21.4989 9.51343 21.709 9.92481L21.794 10.1035C22.0152 10.6053 22.1231 11.1713 22.1231 12.001C22.1231 12.8312 22.0154 13.3975 21.794 13.8994C21.5808 14.3824 21.2626 14.8019 20.8555 15.3291L20.8516 15.335L20.8233 15.3711C19.1146 17.5908 16.2367 20.1231 12.001 20.1231C7.76519 20.1231 4.88722 17.5907 3.17969 15.3711L3.17676 15.3682L3.14649 15.3301C2.79071 14.8682 2.50316 14.4889 2.29297 14.0772L2.20801 13.8985C1.98678 13.3967 1.87891 12.8307 1.87891 12.001C1.87891 11.1708 1.98654 10.6045 2.20801 10.1026C2.42124 9.61956 2.73956 9.20114 3.14746 8.67188L3.15039 8.667L3.17774 8.62989L3.17871 8.63086C4.88734 6.41115 7.76529 3.87891 12.001 3.87891Z" stroke="black" stroke-width="1.5"/>
</g>
<path d="M10 9.76367C9.38625 10.313 9 11.1113 9 11.9998C9 13.6566 10.3431 14.9998 12 14.9998C12.8884 14.9998 13.6866 14.6136 14.2359 14" stroke="black" stroke-width="1.5"/>
<path d="M4 4L20 20" stroke="black" stroke-width="1.5" stroke-linecap="round" stroke-linejoin="round"/>
</g>
<defs>
<clipPath id="clip0_1841_935">
<rect width="24" height="24" fill="white"/>
</clipPath>
</defs>
</svg>
