<svg width="24" height="24" viewBox="0 0 24 24" fill="none" xmlns="http://www.w3.org/2000/svg">
<g clip-path="url(#clip0_1833_880)">
<path fill-rule="evenodd" clip-rule="evenodd" d="M12 8.25C11.0054 8.25 10.0516 8.64509 9.34835 9.34835C8.64509 10.0516 8.25 11.0054 8.25 12C8.25 12.9946 8.64509 13.9484 9.34835 14.6517C10.0516 15.3549 11.0054 15.75 12 15.75C12.9946 15.75 13.9484 15.3549 14.6517 14.6517C15.3549 13.9484 15.75 12.9946 15.75 12C15.75 11.0054 15.3549 10.0516 14.6517 9.34835C13.9484 8.64509 12.9946 8.25 12 8.25ZM9.75 12C9.75 11.4033 9.98705 10.831 10.409 10.409C10.831 9.98705 11.4033 9.75 12 9.75C12.5967 9.75 13.169 9.98705 13.591 10.409C14.0129 10.831 14.25 11.4033 14.25 12C14.25 12.5967 14.0129 13.169 13.591 13.591C13.169 14.0129 12.5967 14.25 12 14.25C11.4033 14.25 10.831 14.0129 10.409 13.591C9.98705 13.169 9.75 12.5967 9.75 12Z" fill="black"/>
<path d="M12 3.87793C16.2358 3.87793 19.1138 6.41029 20.8213 8.62988L20.8242 8.63281L20.8535 8.66992V8.6709C21.2098 9.1343 21.4979 9.51246 21.708 9.92383L21.793 10.1025C22.0142 10.6043 22.1221 11.1703 22.1221 12C22.1221 12.8302 22.0144 13.3965 21.793 13.8984C21.5798 14.3814 21.2616 14.8009 20.8545 15.3281L20.8506 15.334L20.8223 15.3701C19.1136 17.5898 16.2357 20.1221 12 20.1221C7.76421 20.1221 4.88624 17.5897 3.17871 15.3701L3.17578 15.3672L3.14551 15.3291H3.14648C2.7907 14.8672 2.50218 14.4879 2.29199 14.0762L2.20703 13.8975C1.9858 13.3957 1.87793 12.8297 1.87793 12C1.87793 11.1698 1.98556 10.6035 2.20703 10.1016C2.42026 9.61858 2.73858 9.20016 3.14648 8.6709L3.14941 8.66602L3.17676 8.62891L3.17773 8.62988C4.88636 6.41017 7.76431 3.87793 12 3.87793ZM12 4.12207C7.87256 4.12207 5.05811 6.58822 3.37305 8.7793H3.37207C3.0006 9.26271 2.71677 9.63228 2.51367 10.0283L2.43066 10.2002C2.22719 10.6612 2.12207 11.1913 2.12207 12C2.12207 12.7077 2.20292 13.2017 2.35938 13.623L2.43066 13.7998C2.63619 14.2644 2.94482 14.666 3.37305 15.2207C5.05895 17.4116 7.8724 19.8779 12 19.8779C16.1278 19.8779 18.9403 17.4112 20.6279 15.2207H20.6289C21.001 14.7364 21.2846 14.3675 21.4873 13.9717L21.5693 13.7998C21.7728 13.3388 21.8779 12.8087 21.8779 12C21.8779 11.2923 21.7971 10.7983 21.6406 10.377L21.5693 10.2002L21.4873 10.0283C21.2847 9.63246 21.0009 9.26403 20.626 8.77832C18.94 6.58771 16.1269 4.12207 12 4.12207Z" fill="black" stroke="black" stroke-width="1.255"/>
</g>
<defs>
<clipPath id="clip0_1833_880">
<rect width="24" height="24" fill="white"/>
</clipPath>
</defs>
</svg>
