<svg width="24" height="24" viewBox="0 0 24 24" fill="none" xmlns="http://www.w3.org/2000/svg">
<path d="M13.9248 21H10.0752C5.44476 21 3.12955 21 2.27636 19.4939C1.42317 17.9879 2.60736 15.9914 4.97574 11.9985L6.90057 8.75333C9.17559 4.91778 10.3131 3 12 3C13.6869 3 14.8244 4.91777 17.0994 8.75332L19.0243 11.9985C21.3926 15.9914 22.5768 17.9879 21.7236 19.4939C20.8704 21 18.5552 21 13.9248 21Z" stroke="#FFB800" stroke-width="1.5" stroke-linecap="round" stroke-linejoin="round"/>
<path d="M12 16.2422C12.4142 16.2422 12.75 16.578 12.75 16.9922V17.002C12.75 17.4162 12.4142 17.752 12 17.752C11.5858 17.752 11.25 17.4162 11.25 17.002V16.9922C11.25 16.578 11.5858 16.2422 12 16.2422ZM12 8.25C12.4142 8.25 12.75 8.58579 12.75 9V13.5C12.75 13.9142 12.4142 14.25 12 14.25C11.5858 14.25 11.25 13.9142 11.25 13.5V9C11.25 8.58579 11.5858 8.25 12 8.25Z" fill="#FFB800"/>
</svg>
