<svg width="48" height="48" viewBox="0 0 48 48" fill="none" xmlns="http://www.w3.org/2000/svg">
<rect width="48" height="48" rx="24" fill="url(#paint0_linear_2465_882)"/>
<path d="M22.4693 8.63405C23.4494 8.22807 24.5506 8.22807 25.5307 8.63405L33.783 12.0522C34.7631 12.4582 35.5418 13.2369 35.9478 14.217L39.366 22.4693C39.7719 23.4494 39.7719 24.5506 39.3659 25.5307L35.9478 33.783C35.5418 34.7631 34.7631 35.5418 33.783 35.9478L25.5307 39.366C24.5506 39.7719 23.4494 39.7719 22.4693 39.3659L14.217 35.9478C13.2369 35.5418 12.4582 34.7631 12.0522 33.783L8.63405 25.5307C8.22807 24.5506 8.22807 23.4494 8.63405 22.4693L12.0522 14.217C12.4582 13.2369 13.2369 12.4582 14.217 12.0522L22.4693 8.63405Z" fill="#FF8A00"/>
<path d="M22.6602 9.0957C23.5178 8.74047 24.4822 8.74047 25.3398 9.0957L33.5918 12.5146C34.4492 12.8699 35.1301 13.5508 35.4854 14.4082L38.9043 22.6602C39.2595 23.5178 39.2595 24.4822 38.9043 25.3398L35.4854 33.5918C35.1301 34.4492 34.4492 35.1301 33.5918 35.4854L25.3398 38.9043C24.4822 39.2595 23.5178 39.2595 22.6602 38.9043L14.4082 35.4854C13.5508 35.1301 12.8699 34.4492 12.5146 33.5918L9.0957 25.3398C8.74047 24.4822 8.74047 23.5178 9.0957 22.6602L12.5146 14.4082C12.8699 13.5509 13.5508 12.8699 14.4082 12.5146L22.6602 9.0957Z" stroke="black" stroke-opacity="0.2"/>
<defs>
<linearGradient id="paint0_linear_2465_882" x1="24" y1="48" x2="24" y2="0" gradientUnits="userSpaceOnUse">
<stop stop-color="#F0F2F2"/>
<stop offset="0.5" stop-color="white"/>
</linearGradient>
</defs>
</svg>
