<?xml version="1.0" standalone="no"?>
<!DOCTYPE svg PUBLIC "-//W3C//DTD SVG 1.1//EN" "http://www.w3.org/Graphics/SVG/1.1/DTD/svg11.dtd" >
<svg xmlns="http://www.w3.org/2000/svg" xmlns:xlink="http://www.w3.org/1999/xlink" version="1.1">
<metadata>
Created by FontForge 20201107 at Wed Jan 14 16:52:03 2026
 By www-data
Copyright 2011 The Roboto Project Authors (https://github.com/googlefonts/roboto-classic)
</metadata>
<defs>
<font id="RobotoSemiCondensed-Black" horiz-adv-x="730" >
  <font-face 
    font-family="Roboto SemiCondensed Black"
    font-weight="900"
    font-stretch="semi-condensed"
    units-per-em="2048"
    panose-1="2 0 0 0 0 0 0 0 0 0"
    ascent="1536"
    descent="-512"
    x-height="1082"
    cap-height="1456"
    bbox="-1476 -555 2329 2163"
    underline-thickness="100"
    underline-position="-200"
    unicode-range="U+0002-FFFD"
  />
<missing-glyph horiz-adv-x="856" 
d="M725 1456v-54h-598v54h598zM152 1456v-1456h-50v1456h50zM754 1456v-1456h-50v1456h50zM725 54v-54h-598v54h598zM725 1426l-545 -1396h-54l546 1396h53zM672 30l-546 1396h54l545 -1396h-53z" />
    <glyph glyph-name="uniFB01" unicode="fi" horiz-adv-x="1238" 
d="M498 0h-335v1110q0 145 57 244.5t165.5 151t262.5 51.5q87 0 166.5 -16t165.5 -42l-47 -266q-54 16 -114 30t-150 14q-81 0 -126 -43t-45 -124v-1110zM687 1082v-234h-665v234h665zM1131 1082v-1082h-334v1082h334z" />
    <glyph glyph-name="uniFB02" unicode="fl" horiz-adv-x="1234" 
d="M494 0h-335v1150q0 132 54 222.5t158 137.5t248 47q62 0 156.5 -3.5t190 -8t160.5 -9.5l-132 -271q-83 14 -163 23t-160 9q-57 0 -96.5 -17t-60 -49.5t-20.5 -80.5v-1150zM793 0v1536h333v-1536h-333zM681 1082v-234h-663v234h663z" />
    <glyph glyph-name="uniFB03" unicode="ffi" horiz-adv-x="1867" 
d="M494 0h-335v1170q0 126 48.5 212t136 130.5t207.5 44.5q42 0 78.5 -6t70.5 -15l2 -248q-16 5 -33 7t-42 2q-43 0 -73 -14.5t-45 -43t-15 -69.5v-1170zM673 1082v-234h-655v234h655zM1126 0h-333v1110q0 145 56.5 244.5t165.5 151t263 51.5q85 0 165 -16t165 -42l-45 -266
q-55 16 -115 30t-150 14q-81 0 -126.5 -43t-45.5 -124v-1110zM1316 1082v-234h-665v234h665zM1760 1082v-1082h-334v1082h334z" />
    <glyph glyph-name="uniFB04" unicode="ffl" horiz-adv-x="1867" 
d="M494 0h-335v1170q0 126 48.5 212t136 130.5t207.5 44.5q42 0 78.5 -6t70.5 -15l2 -248q-16 5 -33 7t-42 2q-43 0 -73 -14.5t-45 -43t-15 -69.5v-1170zM672 1082v-234h-654v234h654zM1126 0h-333v1150q0 132 54 222.5t157 137.5t248 47q62 0 156.5 -3.5t190.5 -8t161 -9.5
l-132 -271q-83 14 -163.5 23t-160.5 9q-56 0 -96 -17t-61 -49.5t-21 -80.5v-1150zM1426 0v1536h334v-1536h-334zM1315 1082v-234h-664v234h664z" />
    <glyph glyph-name=".notdef" horiz-adv-x="856" 
d="M725 1456v-54h-598v54h598zM152 1456v-1456h-50v1456h50zM754 1456v-1456h-50v1456h50zM725 54v-54h-598v54h598zM725 1426l-545 -1396h-54l546 1396h53zM672 30l-546 1396h54l545 -1396h-53z" />
    <glyph glyph-name="glyph1" horiz-adv-x="0" 
 />
    <glyph glyph-name="glyph1" horiz-adv-x="0" 
 />
    <glyph glyph-name="uni000D" unicode="&#xd;" horiz-adv-x="491" 
 />
    <glyph glyph-name="uni0002" horiz-adv-x="0" 
 />
    <glyph glyph-name="space" unicode=" " horiz-adv-x="491" 
 />
    <glyph glyph-name="exclam" unicode="!" horiz-adv-x="554" 
d="M466 1456l-43 -995h-270l-43 995h356zM102 151q0 72 51 120.5t132 48.5t131 -48.5t50 -120.5t-50 -120.5t-131 -48.5t-132 48.5t-51 120.5z" />
    <glyph glyph-name="quotedbl" unicode="&#x22;" horiz-adv-x="650" 
d="M256 1537v-139l-43 -429h-187v415v153h230zM607 1537v-139l-43 -429h-186v424v144h229z" />
    <glyph glyph-name="numbersign" unicode="#" horiz-adv-x="1121" 
d="M175 0l219 1456h194l-218 -1456h-195zM502 0l219 1456h194l-218 -1456h-195zM1063 857h-958v183h958v-183zM993 410h-957v183h957v-183z" />
    <glyph glyph-name="dollar" unicode="$" horiz-adv-x="1117" 
d="M675 1685v-291h-154v291h154zM655 52v-270h-155v270h155zM696 386q0 55 -14.5 91t-46 63t-83.5 54q-123 54 -217 111t-147.5 142t-53.5 221q0 124 57.5 216t158.5 142.5t233 50.5q100 0 183 -32t144 -92.5t93.5 -148t32.5 -198.5h-333q0 57 -10 98t-27 67t-39.5 38.5
t-48.5 12.5q-40 0 -64.5 -21.5t-36 -56.5t-11.5 -78q0 -45 13.5 -78.5t45 -62t85.5 -58.5q120 -55 214 -114t149 -144.5t55 -220.5q0 -130 -57 -221.5t-158 -139.5t-235 -48q-89 0 -176.5 25t-160 81.5t-115 150.5t-42.5 231h332q0 -67 13.5 -112t36 -71.5t51.5 -38
t61 -11.5q42 0 68 20.5t38 55t12 76.5z" />
    <glyph glyph-name="percent" unicode="%" horiz-adv-x="1419" 
d="M92 1099v77q0 83 33.5 151t100.5 109t167 41q104 0 171.5 -41t100 -109t32.5 -151v-77q0 -81 -33 -149t-100 -109t-169 -41q-101 0 -168 41t-101 109t-34 149zM304 1176v-77q0 -30 9.5 -57t30 -43.5t51.5 -16.5t50.5 16.5t29 43.5t9.5 57v77q0 32 -10 59t-30 43.5
t-51 16.5q-30 0 -50 -16.5t-29.5 -43.5t-9.5 -59zM723 280v77q0 82 33.5 150t101 109t168.5 41q103 0 170 -41t99.5 -109t32.5 -150v-77q0 -82 -33 -150t-99 -109t-168 -41t-170 41t-101.5 109t-33.5 150zM935 357v-77q0 -31 13.5 -58t34 -43.5t44.5 -16.5q40 0 59 16.5
t24.5 43.5t5.5 58v77q0 31 -10 58t-30 43.5t-50 16.5t-50.5 -16.5t-30.5 -43.5t-10 -58zM1111 1247l-654 -1138l-154 79l654 1138z" />
    <glyph glyph-name="ampersand" unicode="&#x26;" horiz-adv-x="1301" 
d="M288 765l290 193q57 40 67 75.5t10 69.5q0 41 -25 77.5t-69 36.5q-32 0 -54 -17.5t-33.5 -46.5t-11.5 -65q0 -45 24 -91t62 -97t86 -112l627 -788h-371l-507 634q-63 88 -109 162t-72 144t-26 144q0 115 47 203.5t134 139t205 50.5q109 0 189.5 -48t125 -127.5
t44.5 -174.5q0 -66 -22.5 -125t-62.5 -108t-92 -89l-315 -233q-12 -25 -20.5 -50.5t-12.5 -51.5t-4 -56q0 -52 18.5 -91.5t48.5 -61.5t63 -22q72 0 139.5 35.5t121.5 100.5t85.5 155t31.5 198h278q0 -118 -22 -224.5t-73 -196.5t-137 -158q-4 -3 -17.5 -11.5t-19.5 -11.5
q-98 -75 -191.5 -111t-218.5 -36q-137 0 -236 53t-152.5 146t-53.5 213q0 85 29 148.5t81.5 117.5t120.5 108z" />
    <glyph glyph-name="quotesingle" unicode="'" horiz-adv-x="316" 
d="M284 1536v-162l-34 -413h-206v400v175h240z" />
    <glyph glyph-name="parenleft" unicode="(" horiz-adv-x="694" 
d="M119 564v28q0 207 40 377.5t107.5 299.5t150 214.5t168.5 122.5l62 -166q-50 -41 -97 -111.5t-85 -173.5t-60 -242t-22 -319v-32q0 -180 22 -319t60 -242t85 -173.5t97 -111.5l-62 -166q-86 38 -168.5 123t-150 214t-107.5 299.5t-40 377.5z" />
    <glyph glyph-name="parenright" unicode=")" horiz-adv-x="692" 
d="M599 592v-28q0 -197 -41.5 -366t-112 -301t-157 -220.5t-177.5 -126.5l-63 166q50 41 97 111.5t85 173.5t60 242t22 319v32q0 180 -22 319t-60 242t-85 173.5t-97 111.5l63 166q91 -37 177.5 -126t157 -221t112 -301t41.5 -366z" />
    <glyph glyph-name="asterisk" unicode="*" horiz-adv-x="953" 
d="M125 684l227 272l-325 90l65 189l318 -131l-24 352h213l-26 -359l311 128l64 -191l-330 -90l219 -265l-172 -118l-184 294l-184 -284z" />
    <glyph glyph-name="plus" unicode="+" horiz-adv-x="1022" 
d="M968 826v-289h-918v289h918zM666 1206v-1060h-311v1060h311z" />
    <glyph glyph-name="comma" unicode="," horiz-adv-x="552" 
d="M421 254l-2 -214q0 -121 -59.5 -239t-145.5 -193l-171 80q21 46 46 92.5t43 104.5t18 136v233h271z" />
    <glyph glyph-name="hyphen" unicode="-" horiz-adv-x="892" 
d="M721 758v-261h-564v261h564z" />
    <glyph glyph-name="period" unicode="." horiz-adv-x="620" 
d="M117 158q0 72 52 120.5t134 48.5q83 0 134.5 -48.5t51.5 -120.5t-51.5 -120.5t-134.5 -48.5q-82 0 -134 48.5t-52 120.5z" />
    <glyph glyph-name="slash" unicode="/" horiz-adv-x="677" 
d="M662 1456l-449 -1581h-235l449 1581h235z" />
    <glyph glyph-name="zero" unicode="0" horiz-adv-x="1117" 
d="M1031 861v-266q0 -157 -34 -273t-97 -192t-149.5 -113t-190.5 -37q-83 0 -155.5 23.5t-131 72t-100.5 121.5t-64.5 172.5t-22.5 225.5v266q0 158 34 273.5t98 191.5t150.5 113t189.5 37q84 0 156 -23.5t130.5 -72t100.5 -121.5t64 -172.5t22 -225.5zM699 554v350
q0 70 -6.5 122t-18.5 88t-29 58.5t-39 33t-48 10.5q-32 0 -57.5 -16.5t-44 -52.5t-28 -96t-9.5 -147v-350q0 -71 6.5 -123.5t18 -89t29 -59t40 -32.5t47.5 -10q31 0 56.5 16t44.5 52.5t28.5 97t9.5 148.5z" />
    <glyph glyph-name="one" unicode="1" horiz-adv-x="1117" 
d="M794 1456v-1456h-333v1076l-299 -97v256l602 221h30z" />
    <glyph glyph-name="two" unicode="2" horiz-adv-x="1117" 
d="M1034 260v-260h-946v220l430 492q55 71 88 127.5t48.5 102.5t15.5 83q0 63 -15.5 105.5t-44.5 64.5t-71 22q-44 0 -76.5 -30t-50 -82t-17.5 -117h-334q0 134 61 245t170.5 177.5t254.5 66.5q150 0 251.5 -50t153.5 -144.5t52 -227.5q0 -76 -22 -146t-63.5 -138.5
t-102 -140.5t-137.5 -153l-155 -217h510z" />
    <glyph glyph-name="three" unicode="3" horiz-adv-x="1117" 
d="M374 869h155q52 0 86 22.5t50.5 64t16.5 98.5q0 44 -15.5 81t-47.5 59.5t-81 22.5q-32 0 -63 -16.5t-51.5 -46.5t-20.5 -73h-333q0 124 63.5 212.5t168 136t225.5 47.5q145 0 254.5 -47.5t171 -140t61.5 -228.5q0 -75 -32.5 -141t-91 -116t-136 -78.5t-169.5 -28.5h-211
v172zM374 618v168h211q100 0 183 -24.5t143 -72.5t92.5 -118.5t32.5 -161.5q0 -102 -38.5 -182t-108 -135t-162 -83.5t-201.5 -28.5q-84 0 -168.5 24.5t-154 76t-111.5 132t-42 192.5h334q0 -46 21 -83.5t56.5 -59.5t75.5 -22q53 0 89.5 23.5t56 63.5t19.5 89q0 74 -20 118
t-59 64t-94 20h-155z" />
    <glyph glyph-name="four" unicode="4" horiz-adv-x="1117" 
d="M1050 569v-260h-967l-20 206l529 941h262l-279 -473l-197 -414h672zM923 1456v-1456h-333v1456h333z" />
    <glyph glyph-name="five" unicode="5" horiz-adv-x="1117" 
d="M366 649l-264 63l82 744h795v-262h-524l-28 -289q21 14 72 33.5t113 19.5q100 0 177.5 -32.5t130.5 -95t80 -153.5t27 -208q0 -94 -28.5 -181.5t-87 -157t-147.5 -110t-210 -40.5q-90 0 -176 30t-155 86.5t-108.5 137t-37.5 180.5h334q2 -53 20.5 -92t49 -60.5
t70.5 -21.5q43 0 71 20t43.5 55t22 80.5t6.5 96.5q0 54 -10 97t-31 73.5t-55 46.5t-81 16q-64 0 -100 -25t-51 -51z" />
    <glyph glyph-name="six" unicode="6" horiz-adv-x="1117" 
d="M794 1477h52v-265h-16q-87 0 -162 -27t-132 -81.5t-88 -137.5t-31 -195v-255q0 -70 9.5 -122t29 -86t49 -51t68.5 -17q33 0 60.5 18t48 51t31.5 77t11 96q0 56 -12 101t-33.5 76.5t-51.5 48t-65 16.5q-55 0 -92 -28.5t-55 -72.5t-18 -89l-77 82q-2 60 20 124t67 119
t113.5 89t159.5 34q92 0 162 -38t118.5 -106t73 -159t24.5 -197q0 -107 -35 -198.5t-98.5 -159.5t-150.5 -106t-192 -38q-107 0 -197.5 39.5t-158 115t-105 184.5t-37.5 247v123q0 187 57 333t156 247.5t227 154.5t270 53z" />
    <glyph glyph-name="seven" unicode="7" horiz-adv-x="1117" 
d="M1032 1456v-180l-493 -1276h-352l495 1196h-626v260h976z" />
    <glyph glyph-name="eight" unicode="8" horiz-adv-x="1117" 
d="M1029 401q0 -139 -60.5 -233t-167 -141t-241.5 -47t-242 47t-169 141t-62 233q0 95 36 170.5t100 128.5t149.5 81t185.5 28q135 0 242 -49.5t168 -140.5t61 -218zM695 428q0 60 -17 101.5t-47.5 63.5t-72.5 22q-40 0 -71.5 -22t-48.5 -63.5t-17 -101.5q0 -58 17.5 -100.5
t48.5 -65t73 -22.5t72 22.5t46.5 65t16.5 100.5zM1002 1067q0 -114 -56 -199.5t-156 -133t-230 -47.5q-129 0 -230 47.5t-158 133t-57 199.5q0 134 57 225t157.5 138t229.5 47q130 0 230 -47t156.5 -138t56.5 -225zM669 1049q0 52 -11.5 89.5t-36 58t-62.5 20.5
q-37 0 -61.5 -20t-36.5 -57.5t-12 -90.5q0 -52 12 -91t37 -61t62 -22q38 0 62.5 22t35.5 61t11 91z" />
    <glyph glyph-name="nine" unicode="9" horiz-adv-x="1117" 
d="M289 250h18q87 0 158 22t122 68.5t78.5 121t27.5 180.5v301q0 70 -10 121.5t-28.5 85.5t-44.5 50.5t-58 16.5q-34 0 -58.5 -22.5t-42 -60t-26.5 -84t-9 -93.5q0 -53 9.5 -98.5t28 -79t47.5 -52.5t68 -19q37 0 64 16.5t45 44t26.5 59.5t7.5 63l96 -77q0 -64 -26 -126
t-72.5 -112.5t-106 -80.5t-126.5 -30q-91 0 -164 35t-124.5 100t-79 155.5t-27.5 201.5q0 107 34.5 201t98 165.5t150 112.5t190.5 41q96 0 181.5 -39.5t150.5 -115.5t102.5 -187t37.5 -254v-116q0 -155 -36 -280t-102 -219.5t-155 -158t-196 -95.5t-225 -32h-23z" />
    <glyph glyph-name="colon" unicode=":" horiz-adv-x="606" 
d="M121 158q0 72 52 120.5t134 48.5q83 0 134.5 -48.5t51.5 -120.5t-51.5 -120.5t-134.5 -48.5q-82 0 -134 48.5t-52 120.5zM120 956q0 72 52 120.5t134 48.5q83 0 134.5 -48.5t51.5 -120.5t-51.5 -120.5t-134.5 -48.5q-82 0 -134 48.5t-52 120.5z" />
    <glyph glyph-name="semicolon" unicode=";" horiz-adv-x="581" 
d="M109 956q0 72 52 120.5t134 48.5q83 0 134.5 -48.5t51.5 -120.5t-51.5 -120.5t-134.5 -48.5q-82 0 -134 48.5t-52 120.5zM447 254l-2 -214q0 -121 -59.5 -239t-145.5 -193l-171 80q21 46 46 92.5t43 104.5t18 136v233h271z" />
    <glyph glyph-name="less" unicode="&#x3c;" horiz-adv-x="981" 
d="M322 631l546 -206v-307l-818 360v228zM868 798l-547 -210l-271 -72v228l818 360v-306z" />
    <glyph glyph-name="equal" unicode="=" horiz-adv-x="1129" 
d="M987 982v-260h-860v260h860zM987 543v-260h-860v260h860z" />
    <glyph glyph-name="greater" unicode="&#x3e;" horiz-adv-x="987" 
d="M656 591l-544 206v306l813 -360v-229zM112 423l544 211l269 71v-228l-813 -360v306z" />
    <glyph glyph-name="question" unicode="?" horiz-adv-x="993" 
d="M605 461h-282q-1 88 10.5 155.5t39.5 121.5t77 100q42 39 72.5 75t47 73t16.5 79q0 52 -12 85t-35.5 49.5t-58.5 16.5q-28 0 -52.5 -17t-41 -52.5t-17.5 -93.5h-335q3 149 62.5 242.5t159 137t224.5 43.5q137 0 235.5 -45t151.5 -133.5t53 -217.5q0 -86 -30.5 -149.5
t-81 -118t-111.5 -116.5q-52 -51 -71 -103.5t-21 -131.5zM284 157q0 72 50.5 120.5t131.5 48.5t132 -48.5t51 -120.5t-51 -120.5t-132 -48.5t-131.5 48.5t-50.5 120.5z" />
    <glyph glyph-name="at" unicode="@" horiz-adv-x="1702" 
d="M1624 550q-4 -106 -29.5 -208t-76 -184t-128.5 -130.5t-188 -48.5q-58 0 -107 22t-84 63t-53 99t-15 130l47 587h221l-46 -587q-5 -42 0.5 -69t17.5 -42t28.5 -21.5t34.5 -6.5q37 0 69 29t56.5 81.5t38.5 123t16 152.5q5 125 -12 232.5t-58.5 193.5t-106.5 146.5
t-154.5 93t-204.5 32.5q-110 0 -202.5 -38t-165 -108.5t-124 -167.5t-81.5 -215t-35 -251q-6 -144 14 -259.5t66 -202t113.5 -144t157.5 -86.5t199 -29q80 0 163.5 19t141.5 46l36 -166q-65 -45 -162 -67t-182 -22q-150 0 -273 37t-216.5 111t-156.5 183.5t-92.5 254.5
t-23.5 325q7 164 47.5 308.5t112 262.5t171 203.5t224.5 131.5t272 46q145 0 263 -40t207.5 -115.5t149.5 -181.5t87.5 -238t22.5 -285zM714 436q-4 -64 0.5 -113.5t18 -82.5t36 -50t51.5 -17q14 0 32 8.5t37.5 31t38 64t32.5 108.5l90 -114q-21 -72 -51 -126t-68.5 -90
t-85.5 -54t-102 -18q-68 0 -122 32t-92 91.5t-54 143t-7 186.5q12 101 39 187t67.5 153.5t93.5 115.5t115.5 73t132.5 25q112 0 175 -33.5t120 -76.5l-106 -156q-27 26 -69.5 50.5t-100.5 24.5q-55 0 -93 -23.5t-63.5 -70t-41 -114t-23.5 -155.5z" />
    <glyph glyph-name="A" unicode="A" horiz-adv-x="1318" 
d="M689 1150l-313 -1150h-373l492 1456h235zM942 0l-314 1150l-45 306h238l494 -1456h-373zM940 543v-271h-689v271h689z" />
    <glyph glyph-name="B" unicode="B" horiz-adv-x="1243" 
d="M660 619h-339l-1 230h274q71 0 113 18.5t61 54.5t19 90q0 62 -19.5 100t-61.5 55.5t-108 17.5h-146v-1185h-347v1456h493q126 0 224.5 -24.5t168.5 -74.5t106.5 -125.5t36.5 -177.5q0 -89 -35.5 -167t-119 -126.5t-229.5 -50.5zM647 0h-410l119 270h291q62 0 98.5 22.5
t52 60t15.5 83.5q0 56 -15 97t-48 63.5t-90 22.5h-276l2 230h325l82 -92q139 6 218.5 -41t113 -124t33.5 -161q0 -143 -57 -239t-171 -144t-283 -48z" />
    <glyph glyph-name="C" unicode="C" horiz-adv-x="1258" 
d="M858 493h346q-3 -158 -72.5 -273.5t-194.5 -177.5t-293 -62q-137 0 -243 46.5t-179.5 134.5t-111 213.5t-37.5 283.5v141q0 157 40 283t114 214t178.5 134.5t233.5 46.5q178 0 301.5 -65t190.5 -183t75 -276h-346q2 89 -19.5 144t-71 80t-130.5 25q-57 0 -97.5 -21.5
t-66.5 -69t-38 -124.5t-12 -186v-143q0 -111 10.5 -187.5t35.5 -124t67 -69.5t106 -22q69 0 117 22.5t73.5 74.5t23.5 141z" />
    <glyph glyph-name="D" unicode="D" horiz-adv-x="1238" 
d="M546 0h-295l2 270h293q88 0 146.5 40.5t88 126.5t29.5 220v143q0 101 -16.5 173.5t-49.5 119.5t-84 69.5t-119 22.5h-295v271h295q138 0 252 -46t197 -133t128.5 -207.5t45.5 -271.5v-141q0 -149 -45.5 -270.5t-128 -208t-195.5 -132.5t-249 -46zM452 1456v-1456h-347
v1456h347z" />
    <glyph glyph-name="E" unicode="E" horiz-adv-x="1073" 
d="M1036 270v-270h-706v270h706zM452 1456v-1456h-347v1456h347zM945 878v-261h-615v261h615zM1039 1456v-271h-709v271h709z" />
    <glyph glyph-name="F" unicode="F" horiz-adv-x="1047" 
d="M452 1456v-1456h-347v1456h347zM958 850v-270h-603v270h603zM1007 1456v-271h-652v271h652z" />
    <glyph glyph-name="G" unicode="G" horiz-adv-x="1304" 
d="M1214 778v-603q-35 -37 -106.5 -82.5t-179 -79t-253.5 -33.5q-135 0 -244 42.5t-186.5 126.5t-119.5 208.5t-42 289.5v161q0 165 42.5 290.5t119 209.5t181.5 126.5t231 42.5q188 0 307.5 -61t180 -172t68.5 -263h-332q-7 78 -31 128t-68 74t-113 24q-54 0 -97.5 -22.5
t-74 -70.5t-46.5 -123.5t-16 -180.5v-163q0 -104 15.5 -179.5t46.5 -123t81.5 -71t121.5 -23.5q47 0 79.5 10t54 23.5t34.5 22.5v231h-209v241h555z" />
    <glyph glyph-name="H" unicode="H" horiz-adv-x="1344" 
d="M1006 878v-270h-669v270h669zM452 1456v-1456h-347v1456h347zM1239 1456v-1456h-346v1456h346z" />
    <glyph glyph-name="I" unicode="I" horiz-adv-x="597" 
d="M471 1456v-1456h-346v1456h346z" />
    <glyph glyph-name="J" unicode="J" horiz-adv-x="1081" 
d="M630 457v999h346v-999q0 -146 -62 -253t-168 -165.5t-238 -58.5q-135 0 -241 49t-166.5 151t-60.5 260h348q0 -74 13.5 -115.5t40.5 -58t66 -16.5q40 0 67 24.5t41 71t14 111.5z" />
    <glyph glyph-name="K" unicode="K" horiz-adv-x="1226" 
d="M452 1456v-1456h-347v1456h347zM1247 1456l-512 -738l-306 -361l-65 322l191 320l265 457h427zM834 0l-321 656l270 201l460 -857h-409z" />
    <glyph glyph-name="L" unicode="L" horiz-adv-x="1046" 
d="M1003 270v-270h-674v270h674zM452 1456v-1456h-347v1456h347z" />
    <glyph glyph-name="M" unicode="M" horiz-adv-x="1675" 
d="M278 1456h281l277 -1013l277 1013h281l-443 -1456h-229zM105 1456h292l55 -1116v-340h-347v1456zM1275 1456h293v-1456h-348v340z" />
    <glyph glyph-name="N" unicode="N" horiz-adv-x="1342" 
d="M1237 1456v-1456h-345l-440 906v-906h-347v1456h347l440 -906v906h345z" />
    <glyph glyph-name="O" unicode="O" horiz-adv-x="1325" 
d="M1250 797v-139q0 -162 -42.5 -288t-121 -213t-186 -132t-237.5 -45q-131 0 -238.5 45t-186.5 132t-121.5 213t-42.5 288v139q0 162 42.5 288.5t120.5 213.5t186 132t239 45q130 0 238 -45t186 -132t121 -213.5t43 -288.5zM899 658v141q0 103 -15.5 179t-45.5 125.5
t-74 73.5t-102 24q-61 0 -105 -24t-73 -73.5t-43.5 -125.5t-14.5 -179v-141q0 -102 14.5 -177.5t44 -126t74 -75.5t104.5 -25q58 0 102 25t73.5 75.5t45 126t15.5 177.5z" />
    <glyph glyph-name="P" unicode="P" horiz-adv-x="1256" 
d="M650 494h-327v271h327q62 0 101 25t57 69.5t18 100.5q0 60 -18.5 111t-57 82.5t-100.5 31.5h-198v-1185h-347v1456h545q162 0 280.5 -64t182 -175.5t63.5 -254.5q0 -141 -63.5 -246t-182 -163.5t-280.5 -58.5z" />
    <glyph glyph-name="Q" unicode="Q" horiz-adv-x="1325" 
d="M862 240l382 -322l-215 -184l-375 322zM1254 797v-139q0 -162 -43 -288t-122 -213t-186.5 -132t-237.5 -45q-131 0 -238.5 45t-186.5 132t-121.5 213t-42.5 288v139q0 163 42.5 289t120.5 213t186 132t239 45q130 0 237.5 -45t186.5 -132t122.5 -213t43.5 -289zM901 658
v141q0 103 -15 179t-45.5 125.5t-75 73.5t-101.5 24q-61 0 -105 -24t-73 -73.5t-43 -125.5t-14 -179v-141q0 -102 14 -177.5t43.5 -126t74 -75.5t104.5 -25q58 0 102 25t74 75.5t45 126t15 177.5z" />
    <glyph glyph-name="R" unicode="R" horiz-adv-x="1249" 
d="M106 1456h535q157 0 272.5 -50t178 -148t62.5 -242q0 -125 -35 -209t-98.5 -138.5t-147.5 -89.5l-113 -65h-436l-2 271h315q57 0 94.5 24t56.5 68.5t19 106.5q0 63 -19 108t-55.5 69t-91.5 24h-189v-1185h-346v1456zM827 0l-290 644l367 2l294 -631v-15h-371z" />
    <glyph glyph-name="S" unicode="S" horiz-adv-x="1205" 
d="M786 387q0 34 -8.5 61.5t-31 51.5t-66.5 48.5t-116 51.5q-87 32 -169 72.5t-146.5 95t-103 128t-38.5 171.5q0 94 39 169.5t109 129t165 82t208 28.5q149 0 263 -55.5t178.5 -157t64.5 -239.5h-345q0 55 -18.5 97t-55.5 66t-95 24q-55 0 -92 -20t-56 -53.5t-19 -73.5
q0 -33 16.5 -59.5t47 -49.5t73 -44t94.5 -41q107 -37 190.5 -82.5t141 -103t87 -130.5t29.5 -165q0 -98 -35 -174t-100.5 -128.5t-157 -79.5t-205.5 -27q-105 0 -206 28.5t-182.5 88t-130.5 153t-49 222.5h348q0 -64 13.5 -108t41 -70.5t68.5 -38t97 -11.5t89.5 19.5t48 52
t14.5 71.5z" />
    <glyph glyph-name="T" unicode="T" horiz-adv-x="1214" 
d="M775 1456v-1456h-347v1456h347zM1171 1456v-271h-1128v271h1128z" />
    <glyph glyph-name="U" unicode="U" horiz-adv-x="1272" 
d="M821 1456h347v-971q0 -170 -66 -282.5t-185 -167.5t-280 -55q-160 0 -280.5 55t-188 167.5t-67.5 282.5v971h348v-971q0 -90 21.5 -141.5t63.5 -72.5t103 -21q62 0 103 21t61 72.5t20 141.5v971z" />
    <glyph glyph-name="V" unicode="V" horiz-adv-x="1276" 
d="M621 343l264 1113h388l-447 -1456h-250zM390 1456l264 -1113l47 -343h-253l-445 1456h387z" />
    <glyph glyph-name="W" unicode="W" horiz-adv-x="1652" 
d="M413 132l262 1324h169l100 -113l-280 -1343h-187zM371 1456l221 -1334l-71 -122h-216l-278 1456h344zM1058 129l220 1327h342l-278 -1456h-215zM969 1456l269 -1332l-67 -124h-187l-287 1345l104 111h168z" />
    <glyph glyph-name="X" unicode="X" horiz-adv-x="1231" 
d="M415 1456l201 -484l200 484h394l-365 -722l375 -734h-399l-205 493l-206 -493h-400l376 734l-367 722h396z" />
    <glyph glyph-name="Y" unicode="Y" horiz-adv-x="1209" 
d="M377 1456l227 -632l229 632h372l-424 -933v-523h-352v523l-425 933h373z" />
    <glyph glyph-name="Z" unicode="Z" horiz-adv-x="1172" 
d="M1121 270v-270h-973v270h973zM1117 1276l-796 -1276h-251v185l806 1271h241v-180zM1006 1456v-271h-945v271h945z" />
    <glyph glyph-name="bracketleft" unicode="[" horiz-adv-x="563" 
d="M538 1706v-246h-99v-1564h99v-245h-434v2055h434z" />
    <glyph glyph-name="backslash" unicode="\" horiz-adv-x="832" 
d="M543 -125l-558 1581h348l559 -1581h-349z" />
    <glyph glyph-name="bracketright" unicode="]" horiz-adv-x="563" 
d="M25 1460v246h434v-2055h-434v245h102v1564h-102z" />
    <glyph glyph-name="asciicircum" unicode="^" horiz-adv-x="869" 
d="M443 1201l-155 -472h-249l275 727h184zM586 729l-155 472l-55 255h184l275 -727h-249z" />
    <glyph glyph-name="underscore" unicode="_" horiz-adv-x="858" 
d="M845 0v-251h-835v251h835z" />
    <glyph glyph-name="grave" unicode="`" horiz-adv-x="696" 
d="M411 1536l199 -314h-273l-282 314h356z" />
    <glyph glyph-name="a" unicode="a" horiz-adv-x="1022" 
d="M599 272v461q0 46 -10 75t-31.5 43.5t-60.5 14.5q-31 0 -52 -12.5t-31 -38t-10 -66.5h-333q0 75 31.5 139.5t89.5 112.5t139.5 74.5t182.5 26.5q120 0 215 -39t150 -121t55 -211v-458q0 -106 11.5 -160.5t32.5 -95.5v-17h-333q-24 50 -35 122.5t-11 149.5zM638 661
l2 -180h-117q-39 0 -66 -13.5t-44 -37t-24.5 -52t-7.5 -59.5q0 -37 12 -59t32 -31t44 -9q47 0 79.5 19t48.5 46t14 48l54 -135q-19 -38 -39.5 -76.5t-51.5 -70.5t-75.5 -51.5t-109.5 -19.5q-92 0 -169.5 37.5t-124 110t-46.5 174.5q0 80 27 145.5t83.5 113.5t147.5 74
t219 26h112z" />
    <glyph glyph-name="b" unicode="b" horiz-adv-x="1083" 
d="M95 1536h332v-1270l-34 -266h-298v1536zM1029 573v-61q0 -128 -22.5 -226.5t-70.5 -166.5t-121 -103.5t-173 -35.5q-89 0 -150.5 42t-102.5 116t-66 171.5t-41 208.5v47q16 110 40.5 208t65.5 172t102.5 115.5t149.5 41.5q101 0 174.5 -36t121.5 -105t70.5 -166.5
t22.5 -221.5zM697 512v61q0 64 -5.5 113.5t-20 84.5t-42 53t-73.5 18t-77 -17t-49 -49t-25 -78.5t-5 -105.5v-100q-4 -81 9 -137.5t49 -86t100 -29.5q47 0 75 16.5t41.5 50t18 85.5t4.5 121z" />
    <glyph glyph-name="c" unicode="c" horiz-adv-x="1002" 
d="M519 240q41 0 68 14.5t40.5 46.5t12.5 85h312q1 -128 -55 -219t-152 -139t-218 -48q-118 0 -206.5 37t-147.5 106.5t-88.5 167t-29.5 218.5v63q0 122 29.5 220t88.5 167t147 106t205 37q127 0 223 -48.5t150.5 -145t53.5 -240.5h-312q1 56 -11 94.5t-39.5 59t-72.5 20.5
q-44 0 -70 -18.5t-39 -53.5t-16.5 -85t-3.5 -113v-63q0 -64 4 -114t17 -84.5t39 -52.5t71 -18z" />
    <glyph glyph-name="d" unicode="d" horiz-adv-x="1083" 
d="M656 248v1288h334v-1536h-300zM53 508v61q0 128 25 227t73.5 167.5t122 103.5t168.5 35q83 0 144 -41.5t103.5 -116t70 -174.5t41.5 -214v-47q-15 -107 -42 -202.5t-70 -169t-104.5 -115.5t-144.5 -42q-96 0 -168 36.5t-120.5 105t-73.5 166t-25 220.5zM386 569v-61
q0 -65 6 -115t22 -84t43.5 -51.5t68.5 -17.5q56 0 92 29.5t53 84.5t12 129v100q3 64 -6 112.5t-29 81t-50 49t-70 16.5t-67.5 -17t-43.5 -51.5t-23.5 -85.5t-7.5 -119z" />
    <glyph glyph-name="e" unicode="e" horiz-adv-x="1053" 
d="M584 -20q-124 0 -221 37t-163.5 104.5t-101 160t-34.5 203.5v78q0 125 30.5 224t90.5 169.5t151.5 108t213.5 37.5q108 0 193 -33.5t144 -99t90 -163t31 -224.5v-147h-818v211h493v32q1 60 -15 96t-46.5 52t-74.5 16q-48 0 -77.5 -19t-45 -54.5t-21 -87.5t-5.5 -118v-78
q0 -65 14 -111.5t41 -75.5t65.5 -43.5t87.5 -14.5q65 0 127 23.5t106 76.5l143 -193q-30 -41 -86.5 -79.5t-135 -63t-176.5 -24.5z" />
    <glyph glyph-name="f" unicode="f" horiz-adv-x="711" 
d="M494 0h-335v1170q0 126 48.5 212t136 130.5t207.5 44.5q42 0 78.5 -6t70.5 -15l2 -248q-16 5 -33 7t-42 2q-43 0 -73 -14.5t-45 -43t-15 -69.5v-1170zM681 1082v-234h-663v234h663z" />
    <glyph glyph-name="g" unicode="g" horiz-adv-x="1109" 
d="M714 1082h301v-1056q0 -150 -64.5 -250.5t-180.5 -151t-271 -50.5q-65 0 -134.5 17.5t-130 48t-101.5 71.5l129 204q36 -34 92.5 -63t133.5 -29q63 0 106 22t65.5 67.5t22.5 115.5v798zM56 508v61q0 128 28.5 227t82 167.5t129.5 103.5t171 35q102 0 165.5 -41.5
t100.5 -116t58 -174.5t36 -214v-47q-16 -107 -41.5 -202.5t-66.5 -169t-103.5 -115.5t-150.5 -42q-95 0 -170 36.5t-128.5 105t-82 166t-28.5 220.5zM389 569v-61q0 -65 10 -115t30.5 -84t50.5 -51.5t71 -17.5q64 0 102.5 29.5t55 84.5t12.5 129v100q2 64 -7 112.5t-29 81
t-53 49t-79 16.5q-39 0 -70 -17t-51.5 -51.5t-31.5 -85.5t-11 -119z" />
    <glyph glyph-name="h" unicode="h" horiz-adv-x="1087" 
d="M417 1536v-1536h-333v1536h333zM378 578l-77 -2q-1 114 24.5 210t73 167t115 110t149.5 39q73 0 134.5 -23t106 -74t69.5 -133t25 -200v-672h-335v674q0 66 -15 102.5t-44 51t-71 14.5q-51 0 -82 -20t-47 -55.5t-21 -83.5t-5 -105z" />
    <glyph glyph-name="i" unicode="i" horiz-adv-x="549" 
d="M442 1082v-1082h-333v1082h333zM91 1361q0 72 50.5 118t131.5 46q82 0 132.5 -46t50.5 -118t-50.5 -118t-132.5 -46q-81 0 -131.5 46t-50.5 118z" />
    <glyph glyph-name="j" unicode="j" horiz-adv-x="539" 
d="M116 1082h333v-1117q0 -130 -47 -219.5t-135 -136t-211 -46.5q-41 0 -75 3.5t-76 13.5l-1 255q25 -4 45 -6.5t43 -2.5q41 0 68 15t41.5 46t14.5 78v1117zM92 1361q0 72 51 118t132 46q80 0 131 -46t51 -118t-51 -118t-131 -46q-81 0 -132 46t-51 118z" />
    <glyph glyph-name="k" unicode="k" horiz-adv-x="1063" 
d="M427 1537v-1537h-332v1537h332zM1063 1082l-426 -551l-233 -246l-146 214l193 267l215 316h397zM706 0l-248 493l246 177l382 -670h-380z" />
    <glyph glyph-name="l" unicode="l" horiz-adv-x="549" 
d="M442 1536v-1536h-333v1536h333z" />
    <glyph glyph-name="m" unicode="m" horiz-adv-x="1637" 
d="M428 853v-853h-332v1082h311zM388 578l-75 -2q-1 114 23.5 210t73 167t120.5 110t167 39q64 0 116.5 -21.5t91 -67t59.5 -118t21 -173.5v-722h-333v679q0 69 -12.5 104t-36 47t-59.5 12q-35 0 -64.5 -20t-50 -55.5t-31 -83.5t-10.5 -105zM947 578l-91 -2q-1 114 21.5 210
t69.5 167t118 110t167 39q67 0 124 -22t98.5 -71t64.5 -129.5t23 -198.5v-681h-334v681q0 67 -12.5 101.5t-36.5 47t-56 12.5q-41 0 -70 -20t-49 -55.5t-28.5 -83.5t-8.5 -105z" />
    <glyph glyph-name="n" unicode="n" horiz-adv-x="1087" 
d="M418 851v-851h-333v1082h312zM379 578l-77 -2q-1 124 26.5 221.5t78 165.5t121.5 103.5t158 35.5q68 0 125.5 -22t99 -71t64.5 -129.5t23 -198.5v-681h-335v682q0 65 -14.5 99.5t-43.5 47.5t-71 13q-44 0 -74 -20t-48 -55.5t-25.5 -83.5t-7.5 -105z" />
    <glyph glyph-name="o" unicode="o" horiz-adv-x="1081" 
d="M55 510v61q0 124 33 222t95.5 166.5t152 105.5t203.5 37q116 0 205.5 -37t152 -105.5t95.5 -166.5t33 -222v-61q0 -122 -33 -220.5t-95 -167.5t-152 -105.5t-204 -36.5t-204.5 36.5t-153 105.5t-95.5 167.5t-33 220.5zM388 571v-61q0 -65 8.5 -115.5t27 -85t47.5 -52
t70 -17.5q45 0 74.5 17.5t46.5 52t24 85t7 115.5v61q0 64 -8.5 114t-26.5 85.5t-47.5 53.5t-71.5 18q-40 0 -69 -18t-47 -53.5t-26.5 -85.5t-8.5 -114z" />
    <glyph glyph-name="p" unicode="p" horiz-adv-x="1083" 
d="M427 874v-1290h-332v1498h309zM1029 574v-61q0 -123 -24.5 -221.5t-73.5 -168t-121.5 -106.5t-167.5 -37q-88 0 -150 42.5t-102.5 117t-65.5 170.5t-41 203v48q16 114 40.5 213t65.5 172.5t102.5 114.5t149.5 41q96 0 168 -34t121.5 -101.5t74 -166t24.5 -226.5zM697 513
v61q0 68 -7.5 118t-23.5 84t-42.5 50t-66.5 16q-46 0 -77 -15.5t-49 -47.5t-24.5 -79.5t-4.5 -111.5v-104q-4 -73 9 -128t49 -85.5t99 -30.5q41 0 67.5 17.5t42 53t22 86.5t6.5 116z" />
    <glyph glyph-name="q" unicode="q" horiz-adv-x="1082" 
d="M656 -416v1271l46 227h288v-1498h-334zM53 511v61q0 128 25 227t73.5 166.5t121.5 102t168 34.5q88 0 149.5 -41t102.5 -115t66.5 -173.5t40.5 -213.5v-47q-16 -107 -41.5 -203t-66.5 -170t-102.5 -116.5t-150.5 -42.5q-94 0 -166 37t-121 106t-74 167t-25 221zM386 572
v-61q0 -65 6.5 -115.5t22.5 -85.5t42.5 -52.5t67.5 -17.5q64 0 99.5 30.5t49 85.5t8.5 130v100q2 64 -5 112t-25 80t-48.5 48t-76.5 16q-39 0 -66.5 -16.5t-43.5 -50.5t-23.5 -84.5t-7.5 -118.5z" />
    <glyph glyph-name="r" unicode="r" horiz-adv-x="741" 
d="M427 814v-814h-333v1082h311zM713 1090l-5 -313q-20 2 -52.5 5t-53.5 3q-52 0 -89 -13.5t-61 -40t-34.5 -66.5t-9.5 -93l-58 40q0 109 19.5 198.5t55.5 155t87 101t114 35.5q23 0 46 -3t41 -9z" />
    <glyph glyph-name="s" unicode="s" horiz-adv-x="989" 
d="M606 299q0 29 -20 47.5t-62 36.5t-110 42q-71 23 -134 53t-110.5 69.5t-74 93.5t-26.5 124q0 69 27.5 130t81 107.5t131 73t177.5 26.5q136 0 235 -43t153 -121.5t54 -182.5h-333q0 41 -10 69t-34.5 42t-65.5 14q-26 0 -49.5 -11.5t-38 -33.5t-14.5 -53q0 -22 9.5 -38.5
t28.5 -30.5t47 -26.5t66 -25.5q98 -27 187.5 -65t147.5 -105t58 -182q0 -72 -31 -131.5t-89 -104.5t-139.5 -69t-183.5 -24q-144 0 -244 54.5t-150.5 137.5t-50.5 170h309q2 -50 20 -80.5t49.5 -44.5t75.5 -14q38 0 62.5 12t37.5 33.5t13 50.5z" />
    <glyph glyph-name="t" unicode="t" horiz-adv-x="672" 
d="M632 1082v-234h-612v234h612zM141 1351h333v-998q0 -43 8 -66.5t29.5 -33t59.5 -9.5q26 0 43.5 1.5t31.5 4.5l-1 -241q-41 -14 -85 -21.5t-95 -7.5q-103 0 -175.5 34t-110.5 107t-38 190v1040z" />
    <glyph glyph-name="u" unicode="u" horiz-adv-x="1087" 
d="M666 263v819h333v-1082h-312zM697 483l84 2q0 -109 -24 -201.5t-70 -160.5t-113 -105.5t-155 -37.5q-74 0 -135 22.5t-105 71t-68.5 125t-24.5 183.5v700h332v-702q0 -36 7 -62t21 -43.5t35.5 -26t49.5 -8.5q64 0 100 32t51 87t15 124z" />
    <glyph glyph-name="v" unicode="v" horiz-adv-x="1000" 
d="M457 231l181 851h350l-320 -1082h-206zM361 1082l178 -851l-3 -231h-207l-319 1082h351z" />
    <glyph glyph-name="w" unicode="w" horiz-adv-x="1383" 
d="M394 322l181 760h207l-69 -381l-177 -701h-165zM344 1082l106 -754l8 -328h-201l-231 1082h318zM930 344l107 738h318l-229 -1082h-201zM805 1082l183 -758l23 -324h-167l-172 699l-67 383h200z" />
    <glyph glyph-name="x" unicode="x" horiz-adv-x="997" 
d="M380 1082l124 -298l130 298h344l-254 -527l267 -555h-347l-140 320l-139 -320h-347l267 555l-253 527h348z" />
    <glyph glyph-name="y" unicode="y" horiz-adv-x="1003" 
d="M397 127l250 955h357l-397 -1243q-13 -41 -34.5 -88.5t-59 -90.5t-96 -70t-144.5 -27q-48 0 -68 4.5t-66 15.5l1 241h19h19q48 0 77 11t44 32t23 51zM358 1082l180 -757l36 -357h-222l-350 1114h356z" />
    <glyph glyph-name="z" unicode="z" horiz-adv-x="997" 
d="M921 260v-260h-772v260h772zM915 900l-616 -900h-229v188l616 894h229v-182zM807 1082v-260h-719v260h719z" />
    <glyph glyph-name="braceleft" unicode="{" horiz-adv-x="634" 
d="M521 1597l62 -176q-64 -31 -86 -109t-22 -180v-203q0 -101 -44.5 -183.5t-139 -131t-246.5 -48.5v166q76 0 109 53.5t33 143.5v203q0 105 30 196.5t103 161t201 107.5zM583 -183l-62 -177q-128 39 -201 108.5t-103 161t-30 196.5v203q0 60 -14.5 104t-46 68t-81.5 24v167
q152 0 246.5 -48.5t139 -130.5t44.5 -184v-203q0 -68 9 -126t32.5 -100t66.5 -63z" />
    <glyph glyph-name="bar" unicode="|" horiz-adv-x="524" 
d="M356 1456v-1726h-183v1726h183z" />
    <glyph glyph-name="braceright" unicode="}" horiz-adv-x="634" 
d="M51 1421l63 176q127 -38 200 -107.5t103.5 -161t30.5 -196.5v-203q0 -60 14 -104t46 -68.5t82 -24.5v-165q-152 0 -247 48t-139 130.5t-44 183.5v203q0 68 -9 126t-32.5 100.5t-67.5 62.5zM114 -360l-63 177q45 21 68.5 63t32 100t8.5 126v203q0 102 44 184t139 130
t247 48v-166q-76 0 -109 -53.5t-33 -142.5v-203q0 -105 -30.5 -196.5t-103.5 -161t-200 -108.5z" />
    <glyph glyph-name="asciitilde" unicode="~" horiz-adv-x="1202" 
d="M872 800l237 -1q0 -101 -23.5 -181t-65 -136t-99 -85.5t-126.5 -29.5q-71 0 -126.5 31t-118.5 99q-32 39 -62.5 59t-62.5 20q-29 0 -51 -23t-35 -61.5t-13 -86.5l-234 4q0 102 22.5 181.5t64.5 134t99 83t125 28.5q70 0 130 -32t118 -97q32 -39 61.5 -59t60.5 -20
q29 0 51 23t35 62t13 87z" />
    <glyph glyph-name="uni00A0" unicode="&#xa0;" horiz-adv-x="491" 
 />
    <glyph glyph-name="exclamdown" unicode="&#xa1;" horiz-adv-x="604" 
d="M124 -372l43 995h270l43 -995h-356zM487 933q0 -72 -50.5 -120.5t-131.5 -48.5q-82 0 -132.5 48.5t-50.5 120.5t50.5 120.5t132.5 48.5q81 0 131.5 -48.5t50.5 -120.5z" />
    <glyph glyph-name="cent" unicode="&#xa2;" horiz-adv-x="1141" 
d="M673 1318v-292h-196v292h196zM673 46v-291h-196v291h196zM562 240q41 0 68 17.5t40.5 50t11.5 78.5h313q1 -122 -54.5 -213.5t-152 -142t-218.5 -50.5q-118 0 -206.5 41.5t-147.5 116t-88 174.5t-29 217v23q0 117 29 217.5t88 175t147 116t205 41.5q127 0 223 -51
t150.5 -148t53.5 -235h-313q2 49 -10 88t-39.5 62.5t-72.5 23.5q-44 0 -70 -23t-39 -63.5t-16.5 -92.5t-3.5 -111v-23q0 -60 4 -112.5t17 -92t39 -62t71 -22.5z" />
    <glyph glyph-name="sterling" unicode="&#xa3;" horiz-adv-x="1158" 
d="M1101 0h-992v270h992v-270zM870 561h-764v261h764v-261zM584 1039l24 -590q-1 -101 -47 -166t-166 -112l-192 99q26 8 37 30.5t13 55.5t2 70l-16 613q0 138 52 235.5t147.5 149t224.5 51.5q144 0 243 -53.5t150 -149.5t51 -224h-324q0 60 -15 94t-40 48.5t-56 14.5
q-26 0 -46.5 -18t-31 -55t-10.5 -93z" />
    <glyph glyph-name="currency" unicode="&#xa4;" horiz-adv-x="1398" 
d="M290 608q0 -92 31.5 -171.5t88 -138.5t131 -92t159.5 -33t159 33t130 92t88 138.5t32 171.5t-32 171t-88 138t-130 92t-159 33t-159.5 -33t-131 -92t-88 -138t-31.5 -171zM104 608q0 133 46.5 247t128.5 199t190 132.5t231 47.5t230.5 -47.5t189.5 -132.5t128 -199
t46 -247t-46 -247t-128 -199.5t-189.5 -133.5t-230.5 -48t-231 48t-190 133.5t-128.5 199.5t-46.5 247zM1335 1120l-202 -206l-141 145l201 206zM412 180l-202 -206l-141 144l202 205zM1193 -27l-201 206l141 144l202 -205zM271 914l-202 206l141 144l202 -206z" />
    <glyph glyph-name="yen" unicode="&#xa5;" horiz-adv-x="1045" 
d="M933 742v-190h-858v190h858zM933 452v-189h-858v189h858zM448 729l228 727h353l-355 -916h-182zM370 1456l234 -736l-47 -180h-183l-356 916h352zM693 752v-752h-346v752h346z" />
    <glyph glyph-name="brokenbar" unicode="&#xa6;" horiz-adv-x="525" 
d="M411 -270h-292v795h292v-795zM411 1456v-758h-292v758h292z" />
    <glyph glyph-name="section" unicode="&#xa7;" horiz-adv-x="1225" 
d="M622 151v150q54 0 92 20.5t57.5 57t19.5 83.5q0 31 -11.5 56t-37 46.5t-70.5 42.5t-112 45q-105 32 -188.5 68.5t-142.5 86t-90 118t-31 165.5q0 88 35 159t100.5 122t157 78t204.5 27q153 0 264.5 -49t171.5 -144t60 -232h-333q0 47 -18 84t-54 59t-91 22
q-58 0 -94 -16.5t-52.5 -44.5t-16.5 -63q0 -31 9.5 -54.5t34 -42t69 -36.5t115.5 -39q107 -29 190.5 -65t141 -84.5t87.5 -115t30 -155.5q0 -87 -35.5 -152.5t-100.5 -109t-156.5 -65.5t-204.5 -22zM576 878v-153q-53 0 -85.5 -20.5t-48 -55.5t-15.5 -81q0 -35 9.5 -60.5
t33.5 -46t68 -40.5t113 -45q109 -31 193.5 -67t143 -85t88 -118.5t29.5 -166.5q0 -91 -35 -161.5t-100.5 -118t-156 -72t-202.5 -24.5q-97 0 -189 20t-165.5 66.5t-117 126t-43.5 199.5h333q0 -48 15 -78t41 -45.5t59 -21.5t67 -6q54 0 89.5 13.5t54 39t18.5 61.5
q0 28 -11.5 50t-37.5 41.5t-71 38.5t-112 41q-105 30 -187.5 66t-141 84t-88.5 114t-30 155q0 85 34.5 150t98 109.5t152 67.5t197.5 23z" />
    <glyph glyph-name="dieresis" unicode="&#xa8;" horiz-adv-x="1013" 
d="M95 1365q0 56 45 94.5t106 38.5q62 0 106.5 -38.5t44.5 -94.5t-44.5 -94.5t-106.5 -38.5q-61 0 -106 38.5t-45 94.5zM614 1365q0 56 45 94.5t106 38.5q62 0 106.5 -38.5t44.5 -94.5t-44.5 -94.5t-106.5 -38.5q-61 0 -106 38.5t-45 94.5z" />
    <glyph glyph-name="copyright" unicode="&#xa9;" horiz-adv-x="1609" 
d="M961 596h156q0 -157 -90 -235.5t-245 -78.5q-107 0 -185.5 49t-121 136t-42.5 202v119q0 115 42.5 202t121 136t185.5 49q155 0 245.5 -78.5t90.5 -235.5h-156q0 96 -45.5 137.5t-134.5 41.5q-64 0 -107 -32t-65 -88.5t-22 -130.5v-120q0 -74 22 -131t65 -89t107 -32
q89 0 134 41t45 138zM208 729q0 -132 45.5 -245.5t126.5 -198.5t187.5 -132.5t228.5 -47.5t228 47.5t187 132.5t126.5 198.5t45.5 245.5t-45.5 245.5t-126.5 198t-187 131.5t-228 47t-228.5 -47t-187.5 -131.5t-126.5 -198t-45.5 -245.5zM86 729q0 159 55 295t153 237.5
t226.5 158t275.5 56.5t275.5 -56.5t226 -158t153 -237.5t55.5 -295t-55.5 -295t-153 -238t-226 -159t-275.5 -57t-275.5 57t-226.5 159t-153 238t-55 295z" />
    <glyph glyph-name="ordfeminine" unicode="&#xaa;" horiz-adv-x="853" 
d="M535 861v340q0 41 -11 69.5t-33.5 43t-56.5 14.5q-55 0 -87 -25.5t-32 -73.5l-168 14q0 68 35.5 120.5t100 82.5t151.5 30q82 0 142.5 -31t94.5 -92t34 -153v-314q0 -49 5.5 -93t18.5 -88h-172q-22 70 -22 156zM576 1150l1 -117h-130q-51 0 -83 -15.5t-47 -40.5t-15 -54
q0 -41 24.5 -64.5t76.5 -23.5q36 0 73 18.5t62.5 45.5t25.5 51l16 -117q-14 -32 -42 -65t-71.5 -55t-106.5 -22q-111 0 -170 62.5t-59 165.5q0 74 34.5 125.5t104 78.5t176.5 27h130z" />
    <glyph glyph-name="guillemotleft" unicode="&#xab;" horiz-adv-x="1002" 
d="M512 915l-211 -404l-238 1v13l249 390h200zM301 520l211 -404h-200l-249 390v13zM903 915l-211 -404l-238 1v13l249 390h200zM692 520l211 -404h-200l-249 390v13z" />
    <glyph glyph-name="logicalnot" unicode="&#xac;" horiz-adv-x="1057" 
d="M898 805v-171h-771v171h771zM898 728v-354h-196v354h196z" />
    <glyph glyph-name="uni00AD" unicode="&#xad;" horiz-adv-x="892" 
d="M721 758v-261h-564v261h564z" />
    <glyph glyph-name="registered" unicode="&#xae;" horiz-adv-x="1609" 
d="M820 653h-214l-2 134h175q48 0 88.5 13t65 39t24.5 64q0 49 -16.5 77t-55 40.5t-103.5 12.5h-130v-717h-151v850h281q99 0 172 -30t113 -89t40 -145q0 -54 -25.5 -95t-74 -70.5t-119.5 -48.5q-3 0 -6.5 -7t-6.5 -7q-17 -10 -21.5 -14.5t-9 -5.5t-24.5 -1zM810 653l21 115
q157 0 215 -71.5t58 -181.5v-56q0 -37 3.5 -70.5t13.5 -56.5v-16h-155q-10 26 -11.5 74t-1.5 70v54q0 71 -32.5 105t-110.5 34zM208 729q0 -132 45.5 -245.5t126.5 -198.5t187.5 -132.5t228.5 -47.5t228 47.5t187 132.5t126.5 198.5t45.5 245.5t-45.5 245.5t-126.5 198
t-187 131.5t-228 47t-228.5 -47t-187.5 -131.5t-126.5 -198t-45.5 -245.5zM86 729q0 159 55 295t153 237.5t226.5 158t275.5 56.5t275.5 -56.5t226 -158t153 -237.5t55.5 -295t-55.5 -295t-153 -238t-226 -159t-275.5 -57t-275.5 57t-226.5 159t-153 238t-55 295z" />
    <glyph glyph-name="macron" unicode="&#xaf;" horiz-adv-x="1021" 
d="M829 1458v-173h-648v173h648z" />
    <glyph glyph-name="degree" unicode="&#xb0;" horiz-adv-x="814" 
d="M126 1195q0 77 38 141t102 102t140 38t138.5 -38t100 -102t37.5 -141t-37.5 -140t-100 -100t-138.5 -37t-140 37t-102 100t-38 140zM280 1195q0 -53 37.5 -88.5t88.5 -35.5t86 35t35 89q0 55 -35 91.5t-86 36.5t-88.5 -36.5t-37.5 -91.5z" />
    <glyph glyph-name="plusminus" unicode="&#xb1;" horiz-adv-x="1037" 
d="M931 974v-271h-842v271h842zM653 1293v-938h-289v938h289zM913 265v-264h-812v264h812z" />
    <glyph glyph-name="uni00B2" unicode="&#xb2;" 
d="M655 842v-175h-584v147l262 253q30 30 48.5 59t28.5 53t10 37q0 35 -16.5 55.5t-51.5 20.5q-38 0 -57 -31.5t-19 -71.5h-221q0 76 35 139.5t99 101.5t151 38q96 0 163 -29.5t102 -85.5t35 -137q0 -60 -22.5 -107.5t-69 -93.5t-124.5 -105l-60 -68h291z" />
    <glyph glyph-name="uni00B3" unicode="&#xb3;" 
d="M265 1141h86q28 0 45.5 10t26.5 28.5t9 43.5q0 23 -16.5 46t-63.5 23q-28 0 -50 -13t-22 -38h-220q0 76 40.5 126.5t106 75.5t137.5 25q91 0 160.5 -26t108.5 -76.5t39 -124.5q0 -64 -37.5 -107t-98 -64.5t-130.5 -21.5h-121v93zM265 999v89h121q74 0 138 -16.5
t102.5 -59.5t38.5 -123q0 -74 -42.5 -126t-115 -79.5t-163.5 -27.5q-68 0 -136.5 24t-115 79.5t-46.5 148.5h222q0 -28 24.5 -52t68.5 -24q47 0 65.5 25t18.5 56q0 32 -11.5 50.5t-32.5 27t-50 8.5h-86z" />
    <glyph glyph-name="acute" unicode="&#xb4;" horiz-adv-x="692" 
d="M90 1222l198 314h356l-279 -314h-275z" />
    <glyph glyph-name="mu" unicode="&#xb5;" horiz-adv-x="1244" 
d="M752 1082h334v-1082h-314l-20 250v832zM789 503l136 2q0 -114 -21.5 -210t-64.5 -167t-106.5 -110t-146.5 -39q-63 0 -114.5 25t-91.5 77.5t-65 134.5l-23 246h170q0 -67 9 -110t27 -66.5t44 -33t60 -9.5q51 0 87 19.5t58 54.5t32 82.5t10 103.5zM129 1082h333v-1498
h-333v1498z" />
    <glyph glyph-name="paragraph" unicode="&#xb6;" horiz-adv-x="945" 
d="M835 0h-225v520h-73q-147 0 -247.5 60.5t-153 166.5t-52.5 241q0 134 52.5 240t153 167t247.5 61h298v-1456z" />
    <glyph glyph-name="periodcentered" unicode="&#xb7;" horiz-adv-x="640" 
d="M134 685q0 72 50.5 120.5t131.5 48.5q82 0 132 -48.5t50 -120.5t-50 -120.5t-132 -48.5q-81 0 -131.5 48.5t-50.5 120.5z" />
    <glyph glyph-name="cedilla" unicode="&#xb8;" horiz-adv-x="551" 
d="M115 10h253l-10 -61q50 -10 92.5 -48.5t42.5 -124.5q0 -56 -22 -101.5t-66.5 -78.5t-110 -50.5t-152.5 -17.5l-6 186q22 0 37.5 8t24 25t8.5 44q0 26 -12 40.5t-38.5 22t-69.5 10.5z" />
    <glyph glyph-name="uni00B9" unicode="&#xb9;" 
d="M519 1453v-786h-220v533l-156 -36v167l357 122h19z" />
    <glyph glyph-name="ordmasculine" unicode="&#xba;" horiz-adv-x="886" 
d="M116 1044v77q0 104 39.5 184t112 125.5t170.5 45.5q100 0 172 -45.5t111.5 -125.5t39.5 -184v-77q0 -103 -39.5 -183t-111 -125.5t-170.5 -45.5t-172 45.5t-112.5 125.5t-39.5 183zM287 1121v-77q0 -59 16.5 -106.5t50.5 -74.5t85 -27t84.5 27t50 74.5t16.5 106.5v77
q0 59 -17 105.5t-50.5 74t-84.5 27.5t-84 -27.5t-50 -74t-17 -105.5z" />
    <glyph glyph-name="guillemotright" unicode="&#xbb;" horiz-adv-x="1002" 
d="M78 115l210 404l240 -1v-13l-250 -390h-200zM78 914h200l250 -390v-13l-240 -1zM468 115l210 404l240 -1v-13l-250 -390h-200zM468 914h200l250 -390v-13l-240 -1z" />
    <glyph glyph-name="onequarter" unicode="&#xbc;" horiz-adv-x="1355" 
d="M487 1450v-786h-220v533l-156 -36v167l357 122h19zM1096 1255l-655 -1138l-153 79l654 1138zM1269 335v-178h-588l-15 145l314 487h174l-185 -286l-97 -168h397zM1201 789v-789h-221v789h221z" />
    <glyph glyph-name="onehalf" unicode="&#xbd;" horiz-adv-x="1437" 
d="M1059 1255l-655 -1138l-153 79l654 1138zM465 1458v-786h-220v533l-156 -36v167l357 122h19zM1369 175v-175h-584v147l262 253q30 30 48.5 59t28.5 53t10 37q0 35 -16.5 55.5t-51.5 20.5q-38 0 -57 -31.5t-19 -71.5h-221q0 76 35 139.5t99 101.5t151 38q96 0 163 -29.5
t102 -85.5t35 -137q0 -60 -22.5 -107.5t-69 -93.5t-124.5 -105l-60 -68h291z" />
    <glyph glyph-name="threequarters" unicode="&#xbe;" horiz-adv-x="1582" 
d="M1265 1255l-655 -1138l-153 79l654 1138zM1455 335v-178h-588l-15 145l314 487h174l-185 -286l-97 -168h397zM1387 789v-789h-221v789h221zM306 1141h86q28 0 45.5 10t26.5 28.5t9 43.5q0 23 -16.5 46t-63.5 23q-28 0 -50 -13t-22 -38h-220q0 76 40.5 126.5t106 75.5
t137.5 25q91 0 160.5 -26t108.5 -76.5t39 -124.5q0 -64 -37.5 -107t-98 -64.5t-130.5 -21.5h-121v93zM306 999v89h121q74 0 138 -16.5t102.5 -59.5t38.5 -123q0 -74 -42.5 -126t-115 -79.5t-163.5 -27.5q-68 0 -136.5 24t-115 79.5t-46.5 148.5h222q0 -28 24.5 -52t68.5 -24
q47 0 65.5 25t18.5 56q0 32 -11.5 50.5t-32.5 27t-50 8.5h-86z" />
    <glyph glyph-name="questiondown" unicode="&#xbf;" horiz-adv-x="991" 
d="M391 630h282q0 -87 -10.5 -154t-37 -119.5t-76.5 -98.5q-42 -42 -74 -79t-49.5 -77t-17.5 -91q0 -47 13 -77.5t35 -44.5t49 -14q33 0 59.5 17t42.5 53t18 93h334q-2 -149 -61.5 -242.5t-160 -137t-224.5 -43.5q-136 0 -234.5 45.5t-151 133.5t-52.5 217q0 87 32 152.5
t86 123t115 118.5q35 34 52 65.5t23.5 69.5t7.5 90zM723 934q0 -72 -50.5 -120.5t-132.5 -48.5q-80 0 -131 48.5t-51 120.5t51 120.5t131 48.5q82 0 132.5 -48.5t50.5 -120.5z" />
    <glyph glyph-name="Agrave" unicode="&#xc0;" horiz-adv-x="1318" 
d="M689 1150l-313 -1150h-373l492 1456h235zM942 0l-314 1150l-45 306h238l494 -1456h-373zM940 543v-271h-689v271h689zM621 1846l199 -314h-273l-282 314h356z" />
    <glyph glyph-name="Aacute" unicode="&#xc1;" horiz-adv-x="1318" 
d="M689 1150l-313 -1150h-373l492 1456h235zM942 0l-314 1150l-45 306h238l494 -1456h-373zM940 543v-271h-689v271h689zM506 1532l198 314h356l-279 -314h-275z" />
    <glyph glyph-name="Acircumflex" unicode="&#xc2;" horiz-adv-x="1318" 
d="M689 1150l-313 -1150h-373l492 1456h235zM942 0l-314 1150l-45 306h238l494 -1456h-373zM940 543v-271h-689v271h689zM756 1846l309 -281v-13h-260l-145 136l-143 -136h-255v17l304 277h190z" />
    <glyph glyph-name="Atilde" unicode="&#xc3;" horiz-adv-x="1318" 
d="M689 1150l-313 -1150h-373l492 1456h235zM942 0l-314 1150l-45 306h238l494 -1456h-373zM940 543v-271h-689v271h689zM839 1848l181 -11q0 -73 -27.5 -135t-76.5 -100t-113 -38q-41 0 -74 12.5t-61.5 29.5t-57.5 29.5t-63 12.5q-27 0 -47 -22t-20 -68l-183 10
q0 71 27.5 133.5t76.5 101t113 38.5q35 0 67 -12.5t62.5 -29t62 -29t63.5 -12.5q28 0 49 22t21 68z" />
    <glyph glyph-name="Adieresis" unicode="&#xc4;" horiz-adv-x="1318" 
d="M689 1150l-313 -1150h-373l492 1456h235zM942 0l-314 1150l-45 306h238l494 -1456h-373zM940 543v-271h-689v271h689zM247 1675q0 56 45 94.5t106 38.5q62 0 106.5 -38.5t44.5 -94.5t-44.5 -94.5t-106.5 -38.5q-61 0 -106 38.5t-45 94.5zM766 1675q0 56 45 94.5t106 38.5
q62 0 106.5 -38.5t44.5 -94.5t-44.5 -94.5t-106.5 -38.5q-61 0 -106 38.5t-45 94.5z" />
    <glyph glyph-name="Aring" unicode="&#xc5;" horiz-adv-x="1318" 
d="M689 1150l-313 -1150h-373l492 1456h235zM942 0l-314 1150l-45 306h238l494 -1456h-373zM940 543v-271h-689v271h689zM438 1729q0 55 29 101t79.5 74t115.5 28q98 0 161.5 -60t63.5 -143q0 -55 -29 -100t-79.5 -72t-116.5 -27q-97 0 -160.5 58.5t-63.5 140.5zM559 1729
q0 -43 27.5 -73.5t75.5 -30.5q49 0 76.5 30.5t27.5 73.5q0 44 -27.5 75t-76.5 31q-48 0 -75.5 -31t-27.5 -75z" />
    <glyph glyph-name="AE" unicode="&#xc6;" horiz-adv-x="1801" 
d="M940 1298l-533 -1298h-385l665 1456h209zM1017 599v-270h-700v270h700zM1721 264v-264h-674v264h674zM1160 1456l56 -1456h-332l-56 1456h332zM1590 876v-264h-581v264h581zM1665 1456v-264h-674v264h674z" />
    <glyph glyph-name="Ccedilla" unicode="&#xc7;" horiz-adv-x="1258" 
d="M858 493h346q-3 -158 -72.5 -273.5t-194.5 -177.5t-293 -62q-137 0 -243 46.5t-179.5 134.5t-111 213.5t-37.5 283.5v141q0 157 40 283t114 214t178.5 134.5t233.5 46.5q178 0 301.5 -65t190.5 -183t75 -276h-346q2 89 -19.5 144t-71 80t-130.5 25q-57 0 -97.5 -21.5
t-66.5 -69t-38 -124.5t-12 -186v-143q0 -111 10.5 -187.5t35.5 -124t67 -69.5t106 -22q69 0 117 22.5t73.5 74.5t23.5 141zM520 10h253l-10 -61q50 -10 92.5 -48.5t42.5 -124.5q0 -56 -22 -101.5t-66.5 -78.5t-110 -50.5t-152.5 -17.5l-6 186q22 0 37.5 8t24 25t8.5 44
q0 26 -12 40.5t-38.5 22t-69.5 10.5z" />
    <glyph glyph-name="Egrave" unicode="&#xc8;" horiz-adv-x="1073" 
d="M1036 270v-270h-706v270h706zM452 1456v-1456h-347v1456h347zM945 878v-261h-615v261h615zM1039 1456v-271h-709v271h709zM566 1846l199 -314h-273l-282 314h356z" />
    <glyph glyph-name="Eacute" unicode="&#xc9;" horiz-adv-x="1073" 
d="M1036 270v-270h-706v270h706zM452 1456v-1456h-347v1456h347zM945 878v-261h-615v261h615zM1039 1456v-271h-709v271h709zM451 1532l198 314h356l-279 -314h-275z" />
    <glyph glyph-name="Ecircumflex" unicode="&#xca;" horiz-adv-x="1073" 
d="M1036 270v-270h-706v270h706zM452 1456v-1456h-347v1456h347zM945 878v-261h-615v261h615zM1039 1456v-271h-709v271h709zM701 1846l309 -281v-13h-260l-145 136l-143 -136h-255v17l304 277h190z" />
    <glyph glyph-name="Edieresis" unicode="&#xcb;" horiz-adv-x="1073" 
d="M1036 270v-270h-706v270h706zM452 1456v-1456h-347v1456h347zM945 878v-261h-615v261h615zM1039 1456v-271h-709v271h709zM192 1675q0 56 45 94.5t106 38.5q62 0 106.5 -38.5t44.5 -94.5t-44.5 -94.5t-106.5 -38.5q-61 0 -106 38.5t-45 94.5zM711 1675q0 56 45 94.5
t106 38.5q62 0 106.5 -38.5t44.5 -94.5t-44.5 -94.5t-106.5 -38.5q-61 0 -106 38.5t-45 94.5z" />
    <glyph glyph-name="Igrave" unicode="&#xcc;" horiz-adv-x="597" 
d="M471 1456v-1456h-346v1456h346zM258 1846l199 -314h-273l-282 314h356z" />
    <glyph glyph-name="Iacute" unicode="&#xcd;" horiz-adv-x="597" 
d="M471 1456v-1456h-346v1456h346zM143 1532l198 314h356l-279 -314h-275z" />
    <glyph glyph-name="Icircumflex" unicode="&#xce;" horiz-adv-x="597" 
d="M471 1456v-1456h-346v1456h346zM393 1846l309 -281v-13h-260l-145 136l-143 -136h-255v17l304 277h190z" />
    <glyph glyph-name="Idieresis" unicode="&#xcf;" horiz-adv-x="597" 
d="M471 1456v-1456h-346v1456h346zM-116 1675q0 56 45 94.5t106 38.5q62 0 106.5 -38.5t44.5 -94.5t-44.5 -94.5t-106.5 -38.5q-61 0 -106 38.5t-45 94.5zM403 1675q0 56 45 94.5t106 38.5q62 0 106.5 -38.5t44.5 -94.5t-44.5 -94.5t-106.5 -38.5q-61 0 -106 38.5t-45 94.5z
" />
    <glyph glyph-name="Eth" unicode="&#xd0;" horiz-adv-x="1268" 
d="M576 0h-295l2 270h293q88 0 146.5 40.5t88 126.5t29.5 220v143q0 101 -16.5 173.5t-49.5 119.5t-84 69.5t-119 22.5h-295v271h295q138 0 252 -46t197 -133t128.5 -207.5t45.5 -271.5v-141q0 -149 -45.5 -270.5t-128 -208t-195.5 -132.5t-249 -46zM482 1456v-1456h-347
v1456h347zM688 826v-191h-683v191h683z" />
    <glyph glyph-name="Ntilde" unicode="&#xd1;" horiz-adv-x="1342" 
d="M1237 1456v-1456h-345l-440 906v-906h-347v1456h347l440 -906v906h345zM857 1848l181 -11q0 -73 -27.5 -135t-76.5 -100t-113 -38q-41 0 -74 12.5t-61.5 29.5t-57.5 29.5t-63 12.5q-27 0 -47 -22t-20 -68l-183 10q0 71 27.5 133.5t76.5 101t113 38.5q35 0 67 -12.5
t62.5 -29t62 -29t63.5 -12.5q28 0 49 22t21 68z" />
    <glyph glyph-name="Ograve" unicode="&#xd2;" horiz-adv-x="1325" 
d="M1250 797v-139q0 -162 -42.5 -288t-121 -213t-186 -132t-237.5 -45q-131 0 -238.5 45t-186.5 132t-121.5 213t-42.5 288v139q0 162 42.5 288.5t120.5 213.5t186 132t239 45q130 0 238 -45t186 -132t121 -213.5t43 -288.5zM899 658v141q0 103 -15.5 179t-45.5 125.5
t-74 73.5t-102 24q-61 0 -105 -24t-73 -73.5t-43.5 -125.5t-14.5 -179v-141q0 -102 14.5 -177.5t44 -126t74 -75.5t104.5 -25q58 0 102 25t73.5 75.5t45 126t15.5 177.5zM621 1846l199 -314h-273l-282 314h356z" />
    <glyph glyph-name="Oacute" unicode="&#xd3;" horiz-adv-x="1325" 
d="M1250 797v-139q0 -162 -42.5 -288t-121 -213t-186 -132t-237.5 -45q-131 0 -238.5 45t-186.5 132t-121.5 213t-42.5 288v139q0 162 42.5 288.5t120.5 213.5t186 132t239 45q130 0 238 -45t186 -132t121 -213.5t43 -288.5zM899 658v141q0 103 -15.5 179t-45.5 125.5
t-74 73.5t-102 24q-61 0 -105 -24t-73 -73.5t-43.5 -125.5t-14.5 -179v-141q0 -102 14.5 -177.5t44 -126t74 -75.5t104.5 -25q58 0 102 25t73.5 75.5t45 126t15.5 177.5zM506 1532l198 314h356l-279 -314h-275z" />
    <glyph glyph-name="Ocircumflex" unicode="&#xd4;" horiz-adv-x="1325" 
d="M1250 797v-139q0 -162 -42.5 -288t-121 -213t-186 -132t-237.5 -45q-131 0 -238.5 45t-186.5 132t-121.5 213t-42.5 288v139q0 162 42.5 288.5t120.5 213.5t186 132t239 45q130 0 238 -45t186 -132t121 -213.5t43 -288.5zM899 658v141q0 103 -15.5 179t-45.5 125.5
t-74 73.5t-102 24q-61 0 -105 -24t-73 -73.5t-43.5 -125.5t-14.5 -179v-141q0 -102 14.5 -177.5t44 -126t74 -75.5t104.5 -25q58 0 102 25t73.5 75.5t45 126t15.5 177.5zM756 1846l309 -281v-13h-260l-145 136l-143 -136h-255v17l304 277h190z" />
    <glyph glyph-name="Otilde" unicode="&#xd5;" horiz-adv-x="1325" 
d="M1250 797v-139q0 -162 -42.5 -288t-121 -213t-186 -132t-237.5 -45q-131 0 -238.5 45t-186.5 132t-121.5 213t-42.5 288v139q0 162 42.5 288.5t120.5 213.5t186 132t239 45q130 0 238 -45t186 -132t121 -213.5t43 -288.5zM899 658v141q0 103 -15.5 179t-45.5 125.5
t-74 73.5t-102 24q-61 0 -105 -24t-73 -73.5t-43.5 -125.5t-14.5 -179v-141q0 -102 14.5 -177.5t44 -126t74 -75.5t104.5 -25q58 0 102 25t73.5 75.5t45 126t15.5 177.5zM839 1848l181 -11q0 -73 -27.5 -135t-76.5 -100t-113 -38q-41 0 -74 12.5t-61.5 29.5t-57.5 29.5
t-63 12.5q-27 0 -47 -22t-20 -68l-183 10q0 71 27.5 133.5t76.5 101t113 38.5q35 0 67 -12.5t62.5 -29t62 -29t63.5 -12.5q28 0 49 22t21 68z" />
    <glyph glyph-name="Odieresis" unicode="&#xd6;" horiz-adv-x="1325" 
d="M1250 797v-139q0 -162 -42.5 -288t-121 -213t-186 -132t-237.5 -45q-131 0 -238.5 45t-186.5 132t-121.5 213t-42.5 288v139q0 162 42.5 288.5t120.5 213.5t186 132t239 45q130 0 238 -45t186 -132t121 -213.5t43 -288.5zM899 658v141q0 103 -15.5 179t-45.5 125.5
t-74 73.5t-102 24q-61 0 -105 -24t-73 -73.5t-43.5 -125.5t-14.5 -179v-141q0 -102 14.5 -177.5t44 -126t74 -75.5t104.5 -25q58 0 102 25t73.5 75.5t45 126t15.5 177.5zM247 1675q0 56 45 94.5t106 38.5q62 0 106.5 -38.5t44.5 -94.5t-44.5 -94.5t-106.5 -38.5
q-61 0 -106 38.5t-45 94.5zM766 1675q0 56 45 94.5t106 38.5q62 0 106.5 -38.5t44.5 -94.5t-44.5 -94.5t-106.5 -38.5q-61 0 -106 38.5t-45 94.5z" />
    <glyph glyph-name="multiply" unicode="&#xd7;" horiz-adv-x="1020" 
d="M245 198l-190 183l717 794l190 -183zM770 198l-717 794l190 183l717 -794z" />
    <glyph glyph-name="Oslash" unicode="&#xd8;" horiz-adv-x="1321" 
d="M1184 1518l-846 -1613h-203l847 1613h202zM1267 757v-59q0 -167 -43.5 -299.5t-123.5 -226t-188 -143t-238 -49.5q-104 0 -195 32t-164 92.5t-125.5 148.5t-81 200t-28.5 245v59q0 167 43.5 300t122.5 226.5t187 143t240 49.5q104 0 194 -32t163.5 -93t126.5 -148.5
t81.5 -199.5t28.5 -246zM914 698v61q0 86 -10.5 156.5t-30.5 123.5t-49.5 89t-67 54.5t-83.5 18.5q-61 0 -105.5 -28.5t-75 -84.5t-45 -138.5t-14.5 -190.5v-61q0 -85 10 -155.5t29 -124t48 -90t67.5 -55.5t86.5 -19q58 0 102.5 29t75 86t46.5 139.5t16 189.5z" />
    <glyph glyph-name="Ugrave" unicode="&#xd9;" horiz-adv-x="1272" 
d="M821 1456h347v-971q0 -170 -66 -282.5t-185 -167.5t-280 -55q-160 0 -280.5 55t-188 167.5t-67.5 282.5v971h348v-971q0 -90 21.5 -141.5t63.5 -72.5t103 -21q62 0 103 21t61 72.5t20 141.5v971zM590 1846l199 -314h-273l-282 314h356z" />
    <glyph glyph-name="Uacute" unicode="&#xda;" horiz-adv-x="1272" 
d="M821 1456h347v-971q0 -170 -66 -282.5t-185 -167.5t-280 -55q-160 0 -280.5 55t-188 167.5t-67.5 282.5v971h348v-971q0 -90 21.5 -141.5t63.5 -72.5t103 -21q62 0 103 21t61 72.5t20 141.5v971zM475 1532l198 314h356l-279 -314h-275z" />
    <glyph glyph-name="Ucircumflex" unicode="&#xdb;" horiz-adv-x="1272" 
d="M821 1456h347v-971q0 -170 -66 -282.5t-185 -167.5t-280 -55q-160 0 -280.5 55t-188 167.5t-67.5 282.5v971h348v-971q0 -90 21.5 -141.5t63.5 -72.5t103 -21q62 0 103 21t61 72.5t20 141.5v971zM725 1846l309 -281v-13h-260l-145 136l-143 -136h-255v17l304 277h190z
" />
    <glyph glyph-name="Udieresis" unicode="&#xdc;" horiz-adv-x="1272" 
d="M821 1456h347v-971q0 -170 -66 -282.5t-185 -167.5t-280 -55q-160 0 -280.5 55t-188 167.5t-67.5 282.5v971h348v-971q0 -90 21.5 -141.5t63.5 -72.5t103 -21q62 0 103 21t61 72.5t20 141.5v971zM216 1675q0 56 45 94.5t106 38.5q62 0 106.5 -38.5t44.5 -94.5
t-44.5 -94.5t-106.5 -38.5q-61 0 -106 38.5t-45 94.5zM735 1675q0 56 45 94.5t106 38.5q62 0 106.5 -38.5t44.5 -94.5t-44.5 -94.5t-106.5 -38.5q-61 0 -106 38.5t-45 94.5z" />
    <glyph glyph-name="Yacute" unicode="&#xdd;" horiz-adv-x="1209" 
d="M377 1456l227 -632l229 632h372l-424 -933v-523h-352v523l-425 933h373zM452 1532l198 314h356l-279 -314h-275z" />
    <glyph glyph-name="Thorn" unicode="&#xde;" horiz-adv-x="1189" 
d="M111 1456h334v-1456h-334v1456zM212 1198h402q170 0 286.5 -59t177 -162.5t60.5 -238.5q0 -134 -60.5 -238t-177 -163t-286.5 -59h-207v260h207q69 0 110.5 28t61 73t19.5 97q0 53 -19.5 99t-61 74.5t-110.5 28.5h-167z" />
    <glyph glyph-name="germandbls" unicode="&#xdf;" horiz-adv-x="1256" 
d="M465 1093v-1093h-333v1099q0 114 33 200.5t96.5 144.5t153.5 87.5t204 29.5q113 0 208.5 -43t152.5 -127.5t57 -209.5q0 -72 -13 -112.5t-29.5 -70t-29.5 -65.5t-13 -98q0 -35 24.5 -70t61 -73.5t73 -85t61.5 -105t25 -133.5q0 -120 -49 -207t-148 -134t-250 -47
q-46 0 -92.5 6t-86.5 17.5t-65 27.5l58 253q26 -16 73.5 -30t113.5 -14q33 0 58.5 14.5t41 42.5t15.5 68q0 47 -25 83t-62.5 70.5t-74.5 74.5t-61.5 94t-24.5 130q0 70 12.5 112t30 74t30 69t12.5 95q0 39 -15.5 69.5t-43 48t-63.5 17.5q-34 0 -60.5 -18.5t-41 -64
t-14.5 -126.5z" />
    <glyph glyph-name="agrave" unicode="&#xe0;" horiz-adv-x="1022" 
d="M599 272v461q0 46 -10 75t-31.5 43.5t-60.5 14.5q-31 0 -52 -12.5t-31 -38t-10 -66.5h-333q0 75 31.5 139.5t89.5 112.5t139.5 74.5t182.5 26.5q120 0 215 -39t150 -121t55 -211v-458q0 -106 11.5 -160.5t32.5 -95.5v-17h-333q-24 50 -35 122.5t-11 149.5zM638 661
l2 -180h-117q-39 0 -66 -13.5t-44 -37t-24.5 -52t-7.5 -59.5q0 -37 12 -59t32 -31t44 -9q47 0 79.5 19t48.5 46t14 48l54 -135q-19 -38 -39.5 -76.5t-51.5 -70.5t-75.5 -51.5t-109.5 -19.5q-92 0 -169.5 37.5t-124 110t-46.5 174.5q0 80 27 145.5t83.5 113.5t147.5 74
t219 26h112zM460 1536l199 -314h-273l-282 314h356z" />
    <glyph glyph-name="aacute" unicode="&#xe1;" horiz-adv-x="1022" 
d="M599 272v461q0 46 -10 75t-31.5 43.5t-60.5 14.5q-31 0 -52 -12.5t-31 -38t-10 -66.5h-333q0 75 31.5 139.5t89.5 112.5t139.5 74.5t182.5 26.5q120 0 215 -39t150 -121t55 -211v-458q0 -106 11.5 -160.5t32.5 -95.5v-17h-333q-24 50 -35 122.5t-11 149.5zM638 661
l2 -180h-117q-39 0 -66 -13.5t-44 -37t-24.5 -52t-7.5 -59.5q0 -37 12 -59t32 -31t44 -9q47 0 79.5 19t48.5 46t14 48l54 -135q-19 -38 -39.5 -76.5t-51.5 -70.5t-75.5 -51.5t-109.5 -19.5q-92 0 -169.5 37.5t-124 110t-46.5 174.5q0 80 27 145.5t83.5 113.5t147.5 74
t219 26h112zM345 1222l198 314h356l-279 -314h-275z" />
    <glyph glyph-name="acircumflex" unicode="&#xe2;" horiz-adv-x="1022" 
d="M599 272v461q0 46 -10 75t-31.5 43.5t-60.5 14.5q-31 0 -52 -12.5t-31 -38t-10 -66.5h-333q0 75 31.5 139.5t89.5 112.5t139.5 74.5t182.5 26.5q120 0 215 -39t150 -121t55 -211v-458q0 -106 11.5 -160.5t32.5 -95.5v-17h-333q-24 50 -35 122.5t-11 149.5zM638 661
l2 -180h-117q-39 0 -66 -13.5t-44 -37t-24.5 -52t-7.5 -59.5q0 -37 12 -59t32 -31t44 -9q47 0 79.5 19t48.5 46t14 48l54 -135q-19 -38 -39.5 -76.5t-51.5 -70.5t-75.5 -51.5t-109.5 -19.5q-92 0 -169.5 37.5t-124 110t-46.5 174.5q0 80 27 145.5t83.5 113.5t147.5 74
t219 26h112zM595 1536l309 -281v-13h-260l-145 136l-143 -136h-255v17l304 277h190z" />
    <glyph glyph-name="atilde" unicode="&#xe3;" horiz-adv-x="1022" 
d="M599 272v461q0 46 -10 75t-31.5 43.5t-60.5 14.5q-31 0 -52 -12.5t-31 -38t-10 -66.5h-333q0 75 31.5 139.5t89.5 112.5t139.5 74.5t182.5 26.5q120 0 215 -39t150 -121t55 -211v-458q0 -106 11.5 -160.5t32.5 -95.5v-17h-333q-24 50 -35 122.5t-11 149.5zM638 661
l2 -180h-117q-39 0 -66 -13.5t-44 -37t-24.5 -52t-7.5 -59.5q0 -37 12 -59t32 -31t44 -9q47 0 79.5 19t48.5 46t14 48l54 -135q-19 -38 -39.5 -76.5t-51.5 -70.5t-75.5 -51.5t-109.5 -19.5q-92 0 -169.5 37.5t-124 110t-46.5 174.5q0 80 27 145.5t83.5 113.5t147.5 74
t219 26h112zM678 1538l181 -11q0 -73 -27.5 -135t-76.5 -100t-113 -38q-41 0 -74 12.5t-61.5 29.5t-57.5 29.5t-63 12.5q-27 0 -47 -22t-20 -68l-183 10q0 71 27.5 133.5t76.5 101t113 38.5q35 0 67 -12.5t62.5 -29t62 -29t63.5 -12.5q28 0 49 22t21 68z" />
    <glyph glyph-name="adieresis" unicode="&#xe4;" horiz-adv-x="1022" 
d="M599 272v461q0 46 -10 75t-31.5 43.5t-60.5 14.5q-31 0 -52 -12.5t-31 -38t-10 -66.5h-333q0 75 31.5 139.5t89.5 112.5t139.5 74.5t182.5 26.5q120 0 215 -39t150 -121t55 -211v-458q0 -106 11.5 -160.5t32.5 -95.5v-17h-333q-24 50 -35 122.5t-11 149.5zM638 661
l2 -180h-117q-39 0 -66 -13.5t-44 -37t-24.5 -52t-7.5 -59.5q0 -37 12 -59t32 -31t44 -9q47 0 79.5 19t48.5 46t14 48l54 -135q-19 -38 -39.5 -76.5t-51.5 -70.5t-75.5 -51.5t-109.5 -19.5q-92 0 -169.5 37.5t-124 110t-46.5 174.5q0 80 27 145.5t83.5 113.5t147.5 74
t219 26h112zM86 1365q0 56 45 94.5t106 38.5q62 0 106.5 -38.5t44.5 -94.5t-44.5 -94.5t-106.5 -38.5q-61 0 -106 38.5t-45 94.5zM605 1365q0 56 45 94.5t106 38.5q62 0 106.5 -38.5t44.5 -94.5t-44.5 -94.5t-106.5 -38.5q-61 0 -106 38.5t-45 94.5z" />
    <glyph glyph-name="aring" unicode="&#xe5;" horiz-adv-x="1022" 
d="M599 272v461q0 46 -10 75t-31.5 43.5t-60.5 14.5q-31 0 -52 -12.5t-31 -38t-10 -66.5h-333q0 75 31.5 139.5t89.5 112.5t139.5 74.5t182.5 26.5q120 0 215 -39t150 -121t55 -211v-458q0 -106 11.5 -160.5t32.5 -95.5v-17h-333q-24 50 -35 122.5t-11 149.5zM638 661
l2 -180h-117q-39 0 -66 -13.5t-44 -37t-24.5 -52t-7.5 -59.5q0 -37 12 -59t32 -31t44 -9q47 0 79.5 19t48.5 46t14 48l54 -135q-19 -38 -39.5 -76.5t-51.5 -70.5t-75.5 -51.5t-109.5 -19.5q-92 0 -169.5 37.5t-124 110t-46.5 174.5q0 80 27 145.5t83.5 113.5t147.5 74
t219 26h112zM277 1419q0 55 29 101t79.5 74t115.5 28q98 0 161.5 -60t63.5 -143q0 -55 -29 -100t-79.5 -72t-116.5 -27q-97 0 -160.5 58.5t-63.5 140.5zM398 1419q0 -43 27.5 -73.5t75.5 -30.5q49 0 76.5 30.5t27.5 73.5q0 44 -27.5 75t-76.5 31q-48 0 -75.5 -31t-27.5 -75z
" />
    <glyph glyph-name="ae" unicode="&#xe6;" horiz-adv-x="1611" 
d="M662 183v518q0 44 -13 75.5t-37 48.5t-60 17q-39 0 -65 -13.5t-40 -36.5t-14 -52l-334 19q0 75 32.5 137.5t92.5 108.5t144.5 71.5t189.5 25.5q130 0 225.5 -45t148.5 -134.5t53 -223.5v-481zM704 655l3 -204h-156q-49 0 -84 -18.5t-52.5 -48.5t-17.5 -64
q0 -33 13.5 -57.5t41 -37.5t71.5 -13q32 0 64.5 13t60.5 33.5t45 44.5t17 46l149 -156q-24 -48 -75 -97.5t-132 -82.5t-193 -33q-128 0 -216 42.5t-133.5 120t-45.5 181.5q0 79 31 140.5t92 104t151.5 64.5t210.5 22h155zM1147 -20q-118 0 -208 37t-152.5 105t-94 160.5
t-31.5 202.5v79q0 119 29 217.5t87.5 170.5t148 111.5t211.5 38.5q98 0 176.5 -34t134 -98t85.5 -154.5t30 -203.5v-177h-776v211h451v26q0 54 -12 92t-34.5 58t-54.5 20q-47 0 -77.5 -20.5t-46.5 -58t-22 -88.5t-6 -111v-79q0 -53 11.5 -97.5t36.5 -77.5t64.5 -51.5
t96.5 -18.5q88 0 144 19.5t113 47.5l80 -206q-38 -31 -99 -59t-134.5 -45t-150.5 -17z" />
    <glyph glyph-name="ccedilla" unicode="&#xe7;" horiz-adv-x="1002" 
d="M519 240q41 0 68 14.5t40.5 46.5t12.5 85h312q1 -128 -55 -219t-152 -139t-218 -48q-118 0 -206.5 37t-147.5 106.5t-88.5 167t-29.5 218.5v63q0 122 29.5 220t88.5 167t147 106t205 37q127 0 223 -48.5t150.5 -145t53.5 -240.5h-312q1 56 -11 94.5t-39.5 59t-72.5 20.5
q-44 0 -70 -18.5t-39 -53.5t-16.5 -85t-3.5 -113v-63q0 -64 4 -114t17 -84.5t39 -52.5t71 -18zM409 10h253l-10 -61q50 -10 92.5 -48.5t42.5 -124.5q0 -56 -22 -101.5t-66.5 -78.5t-110 -50.5t-152.5 -17.5l-6 186q22 0 37.5 8t24 25t8.5 44q0 26 -12 40.5t-38.5 22
t-69.5 10.5z" />
    <glyph glyph-name="egrave" unicode="&#xe8;" horiz-adv-x="1053" 
d="M584 -20q-124 0 -221 37t-163.5 104.5t-101 160t-34.5 203.5v78q0 125 30.5 224t90.5 169.5t151.5 108t213.5 37.5q108 0 193 -33.5t144 -99t90 -163t31 -224.5v-147h-818v211h493v32q1 60 -15 96t-46.5 52t-74.5 16q-48 0 -77.5 -19t-45 -54.5t-21 -87.5t-5.5 -118v-78
q0 -65 14 -111.5t41 -75.5t65.5 -43.5t87.5 -14.5q65 0 127 23.5t106 76.5l143 -193q-30 -41 -86.5 -79.5t-135 -63t-176.5 -24.5zM460 1537l199 -314h-273l-282 314h356z" />
    <glyph glyph-name="eacute" unicode="&#xe9;" horiz-adv-x="1053" 
d="M584 -20q-124 0 -221 37t-163.5 104.5t-101 160t-34.5 203.5v78q0 125 30.5 224t90.5 169.5t151.5 108t213.5 37.5q108 0 193 -33.5t144 -99t90 -163t31 -224.5v-147h-818v211h493v32q1 60 -15 96t-46.5 52t-74.5 16q-48 0 -77.5 -19t-45 -54.5t-21 -87.5t-5.5 -118v-78
q0 -65 14 -111.5t41 -75.5t65.5 -43.5t87.5 -14.5q65 0 127 23.5t106 76.5l143 -193q-30 -41 -86.5 -79.5t-135 -63t-176.5 -24.5zM345 1223l198 314h356l-279 -314h-275z" />
    <glyph glyph-name="ecircumflex" unicode="&#xea;" horiz-adv-x="1053" 
d="M584 -20q-124 0 -221 37t-163.5 104.5t-101 160t-34.5 203.5v78q0 125 30.5 224t90.5 169.5t151.5 108t213.5 37.5q108 0 193 -33.5t144 -99t90 -163t31 -224.5v-147h-818v211h493v32q1 60 -15 96t-46.5 52t-74.5 16q-48 0 -77.5 -19t-45 -54.5t-21 -87.5t-5.5 -118v-78
q0 -65 14 -111.5t41 -75.5t65.5 -43.5t87.5 -14.5q65 0 127 23.5t106 76.5l143 -193q-30 -41 -86.5 -79.5t-135 -63t-176.5 -24.5zM595 1537l309 -281v-13h-260l-145 136l-143 -136h-255v17l304 277h190z" />
    <glyph glyph-name="edieresis" unicode="&#xeb;" horiz-adv-x="1053" 
d="M584 -20q-124 0 -221 37t-163.5 104.5t-101 160t-34.5 203.5v78q0 125 30.5 224t90.5 169.5t151.5 108t213.5 37.5q108 0 193 -33.5t144 -99t90 -163t31 -224.5v-147h-818v211h493v32q1 60 -15 96t-46.5 52t-74.5 16q-48 0 -77.5 -19t-45 -54.5t-21 -87.5t-5.5 -118v-78
q0 -65 14 -111.5t41 -75.5t65.5 -43.5t87.5 -14.5q65 0 127 23.5t106 76.5l143 -193q-30 -41 -86.5 -79.5t-135 -63t-176.5 -24.5zM86 1366q0 56 45 94.5t106 38.5q62 0 106.5 -38.5t44.5 -94.5t-44.5 -94.5t-106.5 -38.5q-61 0 -106 38.5t-45 94.5zM605 1366q0 56 45 94.5
t106 38.5q62 0 106.5 -38.5t44.5 -94.5t-44.5 -94.5t-106.5 -38.5q-61 0 -106 38.5t-45 94.5z" />
    <glyph glyph-name="igrave" unicode="&#xec;" horiz-adv-x="572" 
d="M454 1082v-1082h-334v1082h334zM248 1515l199 -314h-273l-282 314h356z" />
    <glyph glyph-name="iacute" unicode="&#xed;" horiz-adv-x="572" 
d="M454 1082v-1082h-334v1082h334zM133 1201l198 314h356l-279 -314h-275z" />
    <glyph glyph-name="icircumflex" unicode="&#xee;" horiz-adv-x="572" 
d="M454 1082v-1082h-334v1082h334zM383 1515l309 -281v-13h-260l-145 136l-143 -136h-255v17l304 277h190z" />
    <glyph glyph-name="idieresis" unicode="&#xef;" horiz-adv-x="572" 
d="M454 1082v-1082h-334v1082h334zM-126 1344q0 56 45 94.5t106 38.5q62 0 106.5 -38.5t44.5 -94.5t-44.5 -94.5t-106.5 -38.5q-61 0 -106 38.5t-45 94.5zM393 1344q0 56 45 94.5t106 38.5q62 0 106.5 -38.5t44.5 -94.5t-44.5 -94.5t-106.5 -38.5q-61 0 -106 38.5t-45 94.5z
" />
    <glyph glyph-name="eth" unicode="&#xf0;" horiz-adv-x="1092" 
d="M210 1335l106 244q160 -35 294 -114.5t233 -198.5t153.5 -272.5t54.5 -337.5v-63q0 -136 -38.5 -248.5t-107.5 -194.5t-162 -126t-202 -44q-108 0 -196.5 37.5t-151.5 104.5t-97 155.5t-34 190.5q0 111 26 201.5t78.5 156t131 100.5t182.5 35t187 -48t135.5 -134.5
t63.5 -200.5l-117 2q0 23 -12 47.5t-36 45.5t-60.5 34t-86.5 13q-42 0 -72 -17.5t-49.5 -50t-29 -79t-9.5 -105.5q0 -49 10 -91t29.5 -72.5t48 -47.5t63.5 -17q44 0 76.5 23.5t53.5 66t31 99.5t10 124v105q0 151 -43 265.5t-115.5 196t-162.5 134.5t-185 81zM920 1386
l-538 -356l-76 118l539 356z" />
    <glyph glyph-name="ntilde" unicode="&#xf1;" horiz-adv-x="1087" 
d="M418 851v-851h-333v1082h312zM379 578l-77 -2q-1 124 26.5 221.5t78 165.5t121.5 103.5t158 35.5q68 0 125.5 -22t99 -71t64.5 -129.5t23 -198.5v-681h-335v682q0 65 -14.5 99.5t-43.5 47.5t-71 13q-44 0 -74 -20t-48 -55.5t-25.5 -83.5t-7.5 -105zM721 1538l181 -11
q0 -73 -27.5 -135t-76.5 -100t-113 -38q-41 0 -74 12.5t-61.5 29.5t-57.5 29.5t-63 12.5q-27 0 -47 -22t-20 -68l-183 10q0 71 27.5 133.5t76.5 101t113 38.5q35 0 67 -12.5t62.5 -29t62 -29t63.5 -12.5q28 0 49 22t21 68z" />
    <glyph glyph-name="ograve" unicode="&#xf2;" horiz-adv-x="1081" 
d="M55 510v61q0 124 33 222t95.5 166.5t152 105.5t203.5 37q116 0 205.5 -37t152 -105.5t95.5 -166.5t33 -222v-61q0 -122 -33 -220.5t-95 -167.5t-152 -105.5t-204 -36.5t-204.5 36.5t-153 105.5t-95.5 167.5t-33 220.5zM388 571v-61q0 -65 8.5 -115.5t27 -85t47.5 -52
t70 -17.5q45 0 74.5 17.5t46.5 52t24 85t7 115.5v61q0 64 -8.5 114t-26.5 85.5t-47.5 53.5t-71.5 18q-40 0 -69 -18t-47 -53.5t-26.5 -85.5t-8.5 -114zM502 1536l199 -314h-273l-282 314h356z" />
    <glyph glyph-name="oacute" unicode="&#xf3;" horiz-adv-x="1081" 
d="M55 510v61q0 124 33 222t95.5 166.5t152 105.5t203.5 37q116 0 205.5 -37t152 -105.5t95.5 -166.5t33 -222v-61q0 -122 -33 -220.5t-95 -167.5t-152 -105.5t-204 -36.5t-204.5 36.5t-153 105.5t-95.5 167.5t-33 220.5zM388 571v-61q0 -65 8.5 -115.5t27 -85t47.5 -52
t70 -17.5q45 0 74.5 17.5t46.5 52t24 85t7 115.5v61q0 64 -8.5 114t-26.5 85.5t-47.5 53.5t-71.5 18q-40 0 -69 -18t-47 -53.5t-26.5 -85.5t-8.5 -114zM387 1222l198 314h356l-279 -314h-275z" />
    <glyph glyph-name="ocircumflex" unicode="&#xf4;" horiz-adv-x="1081" 
d="M55 510v61q0 124 33 222t95.5 166.5t152 105.5t203.5 37q116 0 205.5 -37t152 -105.5t95.5 -166.5t33 -222v-61q0 -122 -33 -220.5t-95 -167.5t-152 -105.5t-204 -36.5t-204.5 36.5t-153 105.5t-95.5 167.5t-33 220.5zM388 571v-61q0 -65 8.5 -115.5t27 -85t47.5 -52
t70 -17.5q45 0 74.5 17.5t46.5 52t24 85t7 115.5v61q0 64 -8.5 114t-26.5 85.5t-47.5 53.5t-71.5 18q-40 0 -69 -18t-47 -53.5t-26.5 -85.5t-8.5 -114zM637 1536l309 -281v-13h-260l-145 136l-143 -136h-255v17l304 277h190z" />
    <glyph glyph-name="otilde" unicode="&#xf5;" horiz-adv-x="1081" 
d="M55 510v61q0 124 33 222t95.5 166.5t152 105.5t203.5 37q116 0 205.5 -37t152 -105.5t95.5 -166.5t33 -222v-61q0 -122 -33 -220.5t-95 -167.5t-152 -105.5t-204 -36.5t-204.5 36.5t-153 105.5t-95.5 167.5t-33 220.5zM388 571v-61q0 -65 8.5 -115.5t27 -85t47.5 -52
t70 -17.5q45 0 74.5 17.5t46.5 52t24 85t7 115.5v61q0 64 -8.5 114t-26.5 85.5t-47.5 53.5t-71.5 18q-40 0 -69 -18t-47 -53.5t-26.5 -85.5t-8.5 -114zM720 1538l181 -11q0 -73 -27.5 -135t-76.5 -100t-113 -38q-41 0 -74 12.5t-61.5 29.5t-57.5 29.5t-63 12.5
q-27 0 -47 -22t-20 -68l-183 10q0 71 27.5 133.5t76.5 101t113 38.5q35 0 67 -12.5t62.5 -29t62 -29t63.5 -12.5q28 0 49 22t21 68z" />
    <glyph glyph-name="odieresis" unicode="&#xf6;" horiz-adv-x="1081" 
d="M55 510v61q0 124 33 222t95.5 166.5t152 105.5t203.5 37q116 0 205.5 -37t152 -105.5t95.5 -166.5t33 -222v-61q0 -122 -33 -220.5t-95 -167.5t-152 -105.5t-204 -36.5t-204.5 36.5t-153 105.5t-95.5 167.5t-33 220.5zM388 571v-61q0 -65 8.5 -115.5t27 -85t47.5 -52
t70 -17.5q45 0 74.5 17.5t46.5 52t24 85t7 115.5v61q0 64 -8.5 114t-26.5 85.5t-47.5 53.5t-71.5 18q-40 0 -69 -18t-47 -53.5t-26.5 -85.5t-8.5 -114zM128 1365q0 56 45 94.5t106 38.5q62 0 106.5 -38.5t44.5 -94.5t-44.5 -94.5t-106.5 -38.5q-61 0 -106 38.5t-45 94.5z
M647 1365q0 56 45 94.5t106 38.5q62 0 106.5 -38.5t44.5 -94.5t-44.5 -94.5t-106.5 -38.5q-61 0 -106 38.5t-45 94.5z" />
    <glyph glyph-name="divide" unicode="&#xf7;" horiz-adv-x="1094" 
d="M1029 807v-244h-964v244h964zM362 1086q0 72 50.5 118t131.5 46q82 0 132 -46t50 -118t-50.5 -118t-130.5 -46q-82 0 -132.5 46t-50.5 118zM362 277q0 72 50.5 118t131.5 46q82 0 132 -46t50 -118t-50.5 -118t-130.5 -46q-82 0 -132.5 46t-50.5 118z" />
    <glyph glyph-name="oslash" unicode="&#xf8;" horiz-adv-x="1082" 
d="M933 1219l-610 -1364h-172l610 1364h172zM56 530v21q0 119 31.5 219.5t92.5 174.5t151 115.5t208 41.5q120 0 210.5 -41.5t151.5 -115.5t92.5 -174.5t31.5 -219.5v-21q0 -118 -31.5 -218.5t-92.5 -175t-151.5 -115.5t-208.5 -41t-209 41t-152 115.5t-92.5 175
t-31.5 218.5zM389 551v-21q0 -61 6.5 -114t23.5 -92.5t46.5 -61.5t75.5 -22q45 0 74.5 22t46.5 61.5t23.5 92.5t6.5 114v21q0 59 -7 111.5t-23.5 93t-46.5 63.5t-76 23q-45 0 -74.5 -23t-46 -63.5t-23 -93t-6.5 -111.5z" />
    <glyph glyph-name="ugrave" unicode="&#xf9;" horiz-adv-x="1087" 
d="M666 263v819h333v-1082h-312zM697 483l84 2q0 -109 -24 -201.5t-70 -160.5t-113 -105.5t-155 -37.5q-74 0 -135 22.5t-105 71t-68.5 125t-24.5 183.5v700h332v-702q0 -36 7 -62t21 -43.5t35.5 -26t49.5 -8.5q64 0 100 32t51 87t15 124zM501 1536l199 -314h-273l-282 314
h356z" />
    <glyph glyph-name="uacute" unicode="&#xfa;" horiz-adv-x="1087" 
d="M666 263v819h333v-1082h-312zM697 483l84 2q0 -109 -24 -201.5t-70 -160.5t-113 -105.5t-155 -37.5q-74 0 -135 22.5t-105 71t-68.5 125t-24.5 183.5v700h332v-702q0 -36 7 -62t21 -43.5t35.5 -26t49.5 -8.5q64 0 100 32t51 87t15 124zM386 1222l198 314h356l-279 -314
h-275z" />
    <glyph glyph-name="ucircumflex" unicode="&#xfb;" horiz-adv-x="1087" 
d="M666 263v819h333v-1082h-312zM697 483l84 2q0 -109 -24 -201.5t-70 -160.5t-113 -105.5t-155 -37.5q-74 0 -135 22.5t-105 71t-68.5 125t-24.5 183.5v700h332v-702q0 -36 7 -62t21 -43.5t35.5 -26t49.5 -8.5q64 0 100 32t51 87t15 124zM636 1536l309 -281v-13h-260
l-145 136l-143 -136h-255v17l304 277h190z" />
    <glyph glyph-name="udieresis" unicode="&#xfc;" horiz-adv-x="1087" 
d="M666 263v819h333v-1082h-312zM697 483l84 2q0 -109 -24 -201.5t-70 -160.5t-113 -105.5t-155 -37.5q-74 0 -135 22.5t-105 71t-68.5 125t-24.5 183.5v700h332v-702q0 -36 7 -62t21 -43.5t35.5 -26t49.5 -8.5q64 0 100 32t51 87t15 124zM127 1365q0 56 45 94.5t106 38.5
q62 0 106.5 -38.5t44.5 -94.5t-44.5 -94.5t-106.5 -38.5q-61 0 -106 38.5t-45 94.5zM646 1365q0 56 45 94.5t106 38.5q62 0 106.5 -38.5t44.5 -94.5t-44.5 -94.5t-106.5 -38.5q-61 0 -106 38.5t-45 94.5z" />
    <glyph glyph-name="yacute" unicode="&#xfd;" horiz-adv-x="1003" 
d="M397 127l250 955h357l-397 -1243q-13 -41 -34.5 -88.5t-59 -90.5t-96 -70t-144.5 -27q-48 0 -68 4.5t-66 15.5l1 241h19h19q48 0 77 11t44 32t23 51zM358 1082l180 -757l36 -357h-222l-350 1114h356zM343 1222l198 314h356l-279 -314h-275z" />
    <glyph glyph-name="thorn" unicode="&#xfe;" horiz-adv-x="1080" 
d="M426 1536v-1952h-334v1952h334zM1027 554v-21q0 -118 -25 -219t-73.5 -176t-121 -116.5t-167.5 -41.5q-91 0 -154.5 43t-106.5 119t-69.5 174t-41.5 207v27q15 117 41 217.5t68.5 175.5t106.5 117t154 42q96 0 168.5 -39t121.5 -111.5t74 -173.5t25 -224zM695 533v21
q0 63 -7.5 115.5t-23.5 91.5t-42.5 60t-66.5 21q-46 0 -77 -16.5t-49 -50t-25 -83t-5 -115.5v-82q-3 -57 3.5 -104t24.5 -80.5t50 -52t80 -18.5q40 0 67 22.5t42.5 63t22 93.5t6.5 114z" />
    <glyph glyph-name="ydieresis" unicode="&#xff;" horiz-adv-x="1003" 
d="M397 127l250 955h357l-397 -1243q-13 -41 -34.5 -88.5t-59 -90.5t-96 -70t-144.5 -27q-48 0 -68 4.5t-66 15.5l1 241h19h19q48 0 77 11t44 32t23 51zM358 1082l180 -757l36 -357h-222l-350 1114h356zM84 1365q0 56 45 94.5t106 38.5q62 0 106.5 -38.5t44.5 -94.5
t-44.5 -94.5t-106.5 -38.5q-61 0 -106 38.5t-45 94.5zM603 1365q0 56 45 94.5t106 38.5q62 0 106.5 -38.5t44.5 -94.5t-44.5 -94.5t-106.5 -38.5q-61 0 -106 38.5t-45 94.5z" />
    <glyph glyph-name="Amacron" unicode="&#x100;" horiz-adv-x="1318" 
d="M689 1150l-313 -1150h-373l492 1456h235zM942 0l-314 1150l-45 306h238l494 -1456h-373zM940 543v-271h-689v271h689zM984 1762v-173h-648v173h648z" />
    <glyph glyph-name="amacron" unicode="&#x101;" horiz-adv-x="1022" 
d="M599 272v461q0 46 -10 75t-31.5 43.5t-60.5 14.5q-31 0 -52 -12.5t-31 -38t-10 -66.5h-333q0 75 31.5 139.5t89.5 112.5t139.5 74.5t182.5 26.5q120 0 215 -39t150 -121t55 -211v-458q0 -106 11.5 -160.5t32.5 -95.5v-17h-333q-24 50 -35 122.5t-11 149.5zM638 661
l2 -180h-117q-39 0 -66 -13.5t-44 -37t-24.5 -52t-7.5 -59.5q0 -37 12 -59t32 -31t44 -9q47 0 79.5 19t48.5 46t14 48l54 -135q-19 -38 -39.5 -76.5t-51.5 -70.5t-75.5 -51.5t-109.5 -19.5q-92 0 -169.5 37.5t-124 110t-46.5 174.5q0 80 27 145.5t83.5 113.5t147.5 74
t219 26h112zM823 1452v-173h-648v173h648z" />
    <glyph glyph-name="Abreve" unicode="&#x102;" horiz-adv-x="1318" 
d="M689 1150l-313 -1150h-373l492 1456h235zM942 0l-314 1150l-45 306h238l494 -1456h-373zM940 543v-271h-689v271h689zM800 1848h231q0 -90 -45.5 -159.5t-128.5 -108.5t-196 -39q-171 0 -271 85.5t-100 221.5h230q0 -49 32 -88t109 -39t108 39t31 88z" />
    <glyph glyph-name="abreve" unicode="&#x103;" horiz-adv-x="1022" 
d="M599 272v461q0 46 -10 75t-31.5 43.5t-60.5 14.5q-31 0 -52 -12.5t-31 -38t-10 -66.5h-333q0 75 31.5 139.5t89.5 112.5t139.5 74.5t182.5 26.5q120 0 215 -39t150 -121t55 -211v-458q0 -106 11.5 -160.5t32.5 -95.5v-17h-333q-24 50 -35 122.5t-11 149.5zM638 661
l2 -180h-117q-39 0 -66 -13.5t-44 -37t-24.5 -52t-7.5 -59.5q0 -37 12 -59t32 -31t44 -9q47 0 79.5 19t48.5 46t14 48l54 -135q-19 -38 -39.5 -76.5t-51.5 -70.5t-75.5 -51.5t-109.5 -19.5q-92 0 -169.5 37.5t-124 110t-46.5 174.5q0 80 27 145.5t83.5 113.5t147.5 74
t219 26h112zM639 1538h231q0 -90 -45.5 -159.5t-128.5 -108.5t-196 -39q-171 0 -271 85.5t-100 221.5h230q0 -49 32 -88t109 -39t108 39t31 88z" />
    <glyph glyph-name="Aogonek" unicode="&#x104;" horiz-adv-x="1318" 
d="M689 1150l-313 -1150h-373l492 1456h235zM942 0l-314 1150l-45 306h238l494 -1456h-373zM940 543v-271h-689v271h689zM1025 60l182 -60q-49 -27 -78 -51t-41 -50.5t-12 -59.5q0 -26 12 -44t41 -18q23 0 35.5 6t24.5 12l37 -168q-23 -15 -60 -29.5t-95 -14.5
q-96 0 -163.5 54.5t-67.5 159.5q0 49 14.5 95.5t54.5 89t116 78.5z" />
    <glyph glyph-name="aogonek" unicode="&#x105;" horiz-adv-x="1022" 
d="M599 272v461q0 46 -10 75t-31.5 43.5t-60.5 14.5q-31 0 -52 -12.5t-31 -38t-10 -66.5h-333q0 75 31.5 139.5t89.5 112.5t139.5 74.5t182.5 26.5q120 0 215 -39t150 -121t55 -211v-458q0 -106 11.5 -160.5t32.5 -95.5v-17h-333q-24 50 -35 122.5t-11 149.5zM638 661
l2 -180h-117q-39 0 -66 -13.5t-44 -37t-24.5 -52t-7.5 -59.5q0 -37 12 -59t32 -31t44 -9q47 0 79.5 19t48.5 46t14 48l54 -135q-19 -38 -39.5 -76.5t-51.5 -70.5t-75.5 -51.5t-109.5 -19.5q-92 0 -169.5 37.5t-124 110t-46.5 174.5q0 80 27 145.5t83.5 113.5t147.5 74
t219 26h112zM739 60l183 -60q-49 -27 -78.5 -51t-41 -50.5t-11.5 -59.5q0 -26 12 -44t40 -18q23 0 36 6t25 12l37 -168q-23 -15 -60.5 -29.5t-95.5 -14.5q-95 0 -163 54.5t-68 159.5q0 49 15 95.5t54.5 89t115.5 78.5z" />
    <glyph glyph-name="Cacute" unicode="&#x106;" horiz-adv-x="1258" 
d="M858 493h346q-3 -158 -72.5 -273.5t-194.5 -177.5t-293 -62q-137 0 -243 46.5t-179.5 134.5t-111 213.5t-37.5 283.5v141q0 157 40 283t114 214t178.5 134.5t233.5 46.5q178 0 301.5 -65t190.5 -183t75 -276h-346q2 89 -19.5 144t-71 80t-130.5 25q-57 0 -97.5 -21.5
t-66.5 -69t-38 -124.5t-12 -186v-143q0 -111 10.5 -187.5t35.5 -124t67 -69.5t106 -22q69 0 117 22.5t73.5 74.5t23.5 141zM494 1532l198 314h356l-279 -314h-275z" />
    <glyph glyph-name="cacute" unicode="&#x107;" horiz-adv-x="1002" 
d="M519 240q41 0 68 14.5t40.5 46.5t12.5 85h312q1 -128 -55 -219t-152 -139t-218 -48q-118 0 -206.5 37t-147.5 106.5t-88.5 167t-29.5 218.5v63q0 122 29.5 220t88.5 167t147 106t205 37q127 0 223 -48.5t150.5 -145t53.5 -240.5h-312q1 56 -11 94.5t-39.5 59t-72.5 20.5
q-44 0 -70 -18.5t-39 -53.5t-16.5 -85t-3.5 -113v-63q0 -64 4 -114t17 -84.5t39 -52.5t71 -18zM349 1222l198 314h356l-279 -314h-275z" />
    <glyph glyph-name="Ccircumflex" unicode="&#x108;" horiz-adv-x="1258" 
d="M858 493h346q-3 -158 -72.5 -273.5t-194.5 -177.5t-293 -62q-137 0 -243 46.5t-179.5 134.5t-111 213.5t-37.5 283.5v141q0 157 40 283t114 214t178.5 134.5t233.5 46.5q178 0 301.5 -65t190.5 -183t75 -276h-346q2 89 -19.5 144t-71 80t-130.5 25q-57 0 -97.5 -21.5
t-66.5 -69t-38 -124.5t-12 -186v-143q0 -111 10.5 -187.5t35.5 -124t67 -69.5t106 -22q69 0 117 22.5t73.5 74.5t23.5 141zM744 1846l309 -281v-13h-260l-145 136l-143 -136h-255v17l304 277h190z" />
    <glyph glyph-name="ccircumflex" unicode="&#x109;" horiz-adv-x="1002" 
d="M519 240q41 0 68 14.5t40.5 46.5t12.5 85h312q1 -128 -55 -219t-152 -139t-218 -48q-118 0 -206.5 37t-147.5 106.5t-88.5 167t-29.5 218.5v63q0 122 29.5 220t88.5 167t147 106t205 37q127 0 223 -48.5t150.5 -145t53.5 -240.5h-312q1 56 -11 94.5t-39.5 59t-72.5 20.5
q-44 0 -70 -18.5t-39 -53.5t-16.5 -85t-3.5 -113v-63q0 -64 4 -114t17 -84.5t39 -52.5t71 -18zM599 1536l309 -281v-13h-260l-145 136l-143 -136h-255v17l304 277h190z" />
    <glyph glyph-name="Cdotaccent" unicode="&#x10a;" horiz-adv-x="1258" 
d="M858 493h346q-3 -158 -72.5 -273.5t-194.5 -177.5t-293 -62q-137 0 -243 46.5t-179.5 134.5t-111 213.5t-37.5 283.5v141q0 157 40 283t114 214t178.5 134.5t233.5 46.5q178 0 301.5 -65t190.5 -183t75 -276h-346q2 89 -19.5 144t-71 80t-130.5 25q-57 0 -97.5 -21.5
t-66.5 -69t-38 -124.5t-12 -186v-143q0 -111 10.5 -187.5t35.5 -124t67 -69.5t106 -22q69 0 117 22.5t73.5 74.5t23.5 141zM481 1711q0 65 46.5 106t119.5 41q74 0 120 -41t46 -106q0 -64 -46 -105t-120 -41q-73 0 -119.5 41t-46.5 105z" />
    <glyph glyph-name="cdotaccent" unicode="&#x10b;" horiz-adv-x="1002" 
d="M519 240q41 0 68 14.5t40.5 46.5t12.5 85h312q1 -128 -55 -219t-152 -139t-218 -48q-118 0 -206.5 37t-147.5 106.5t-88.5 167t-29.5 218.5v63q0 122 29.5 220t88.5 167t147 106t205 37q127 0 223 -48.5t150.5 -145t53.5 -240.5h-312q1 56 -11 94.5t-39.5 59t-72.5 20.5
q-44 0 -70 -18.5t-39 -53.5t-16.5 -85t-3.5 -113v-63q0 -64 4 -114t17 -84.5t39 -52.5t71 -18zM336 1401q0 65 46.5 106t119.5 41q74 0 120 -41t46 -106q0 -64 -46 -105t-120 -41q-73 0 -119.5 41t-46.5 105z" />
    <glyph glyph-name="Ccaron" unicode="&#x10c;" horiz-adv-x="1258" 
d="M858 493h346q-3 -158 -72.5 -273.5t-194.5 -177.5t-293 -62q-137 0 -243 46.5t-179.5 134.5t-111 213.5t-37.5 283.5v141q0 157 40 283t114 214t178.5 134.5t233.5 46.5q178 0 301.5 -65t190.5 -183t75 -276h-346q2 89 -19.5 144t-71 80t-130.5 25q-57 0 -97.5 -21.5
t-66.5 -69t-38 -124.5t-12 -186v-143q0 -111 10.5 -187.5t35.5 -124t67 -69.5t106 -22q69 0 117 22.5t73.5 74.5t23.5 141zM516 1847l132 -134l131 134h283v-11l-308 -283h-212l-311 285v9h285z" />
    <glyph glyph-name="ccaron" unicode="&#x10d;" horiz-adv-x="1002" 
d="M519 240q41 0 68 14.5t40.5 46.5t12.5 85h312q1 -128 -55 -219t-152 -139t-218 -48q-118 0 -206.5 37t-147.5 106.5t-88.5 167t-29.5 218.5v63q0 122 29.5 220t88.5 167t147 106t205 37q127 0 223 -48.5t150.5 -145t53.5 -240.5h-312q1 56 -11 94.5t-39.5 59t-72.5 20.5
q-44 0 -70 -18.5t-39 -53.5t-16.5 -85t-3.5 -113v-63q0 -64 4 -114t17 -84.5t39 -52.5t71 -18zM372 1537l132 -134l131 134h283v-11l-308 -283h-212l-311 285v9h285z" />
    <glyph glyph-name="Dcaron" unicode="&#x10e;" horiz-adv-x="1238" 
d="M546 0h-295l2 270h293q88 0 146.5 40.5t88 126.5t29.5 220v143q0 101 -16.5 173.5t-49.5 119.5t-84 69.5t-119 22.5h-295v271h295q138 0 252 -46t197 -133t128.5 -207.5t45.5 -271.5v-141q0 -149 -45.5 -270.5t-128 -208t-195.5 -132.5t-249 -46zM452 1456v-1456h-347
v1456h347zM313 1847l132 -134l131 134h283v-11l-308 -283h-212l-311 285v9h285z" />
    <glyph glyph-name="dcaron" unicode="&#x10f;" horiz-adv-x="1233" 
d="M656 248v1288h334v-1536h-300zM53 508v61q0 128 25 227t73.5 167.5t122 103.5t168.5 35q83 0 144 -41.5t103.5 -116t70 -174.5t41.5 -214v-47q-15 -107 -42 -202.5t-70 -169t-104.5 -115.5t-144.5 -42q-96 0 -168 36.5t-120.5 105t-73.5 166t-25 220.5zM386 569v-61
q0 -65 6 -115t22 -84t43.5 -51.5t68.5 -17.5q56 0 92 29.5t53 84.5t12 129v100q3 64 -6 112.5t-29 81t-50 49t-70 16.5t-67.5 -17t-43.5 -51.5t-23.5 -85.5t-7.5 -119zM1359 1537v-69q0 -100 -42 -199.5t-93 -162.5l-156 80q30 53 50.5 112.5t20.5 150.5v88h220z" />
    <glyph glyph-name="Dcroat" unicode="&#x110;" horiz-adv-x="1268" 
d="M576 0h-295l2 270h293q88 0 146.5 40.5t88 126.5t29.5 220v143q0 101 -16.5 173.5t-49.5 119.5t-84 69.5t-119 22.5h-295v271h295q138 0 252 -46t197 -133t128.5 -207.5t45.5 -271.5v-141q0 -149 -45.5 -270.5t-128 -208t-195.5 -132.5t-249 -46zM482 1456v-1456h-347
v1456h347zM688 826v-191h-683v191h683z" />
    <glyph glyph-name="dcroat" unicode="&#x111;" horiz-adv-x="1252" 
d="M656 248v1288h334v-1536h-300zM53 528v21q0 123 25 224.5t73.5 175t122 113.5t168.5 40q85 0 148.5 -42.5t108 -118.5t73 -177.5t42.5 -218.5v-25q-15 -110 -43 -207.5t-73 -172.5t-108.5 -117.5t-149.5 -42.5q-96 0 -168 41t-120.5 115t-73.5 174t-25 218zM386 549v-21
q0 -61 6 -113t22 -91.5t43.5 -61.5t68.5 -22q56 0 92 31t53 88t12 134v79q3 66 -6 116.5t-29 84.5t-50 51.5t-70 17.5t-67.5 -22t-43.5 -61.5t-23.5 -93t-7.5 -116.5zM1117 1406v-191h-684v191h684z" />
    <glyph glyph-name="Emacron" unicode="&#x112;" horiz-adv-x="1073" 
d="M1036 270v-270h-706v270h706zM452 1456v-1456h-347v1456h347zM945 878v-261h-615v261h615zM1039 1456v-271h-709v271h709zM929 1762v-173h-648v173h648z" />
    <glyph glyph-name="emacron" unicode="&#x113;" horiz-adv-x="1053" 
d="M584 -20q-124 0 -221 37t-163.5 104.5t-101 160t-34.5 203.5v78q0 125 30.5 224t90.5 169.5t151.5 108t213.5 37.5q108 0 193 -33.5t144 -99t90 -163t31 -224.5v-147h-818v211h493v32q1 60 -15 96t-46.5 52t-74.5 16q-48 0 -77.5 -19t-45 -54.5t-21 -87.5t-5.5 -118v-78
q0 -65 14 -111.5t41 -75.5t65.5 -43.5t87.5 -14.5q65 0 127 23.5t106 76.5l143 -193q-30 -41 -86.5 -79.5t-135 -63t-176.5 -24.5zM823 1453v-173h-648v173h648z" />
    <glyph glyph-name="Ebreve" unicode="&#x114;" horiz-adv-x="1073" 
d="M1036 270v-270h-706v270h706zM452 1456v-1456h-347v1456h347zM945 878v-261h-615v261h615zM1039 1456v-271h-709v271h709zM745 1848h231q0 -90 -45.5 -159.5t-128.5 -108.5t-196 -39q-171 0 -271 85.5t-100 221.5h230q0 -49 32 -88t109 -39t108 39t31 88z" />
    <glyph glyph-name="ebreve" unicode="&#x115;" horiz-adv-x="1053" 
d="M584 -20q-124 0 -221 37t-163.5 104.5t-101 160t-34.5 203.5v78q0 125 30.5 224t90.5 169.5t151.5 108t213.5 37.5q108 0 193 -33.5t144 -99t90 -163t31 -224.5v-147h-818v211h493v32q1 60 -15 96t-46.5 52t-74.5 16q-48 0 -77.5 -19t-45 -54.5t-21 -87.5t-5.5 -118v-78
q0 -65 14 -111.5t41 -75.5t65.5 -43.5t87.5 -14.5q65 0 127 23.5t106 76.5l143 -193q-30 -41 -86.5 -79.5t-135 -63t-176.5 -24.5zM639 1539h231q0 -90 -45.5 -159.5t-128.5 -108.5t-196 -39q-171 0 -271 85.5t-100 221.5h230q0 -49 32 -88t109 -39t108 39t31 88z" />
    <glyph glyph-name="Edotaccent" unicode="&#x116;" horiz-adv-x="1073" 
d="M1036 270v-270h-706v270h706zM452 1456v-1456h-347v1456h347zM945 878v-261h-615v261h615zM1039 1456v-271h-709v271h709zM438 1711q0 65 46.5 106t119.5 41q74 0 120 -41t46 -106q0 -64 -46 -105t-120 -41q-73 0 -119.5 41t-46.5 105z" />
    <glyph glyph-name="edotaccent" unicode="&#x117;" horiz-adv-x="1053" 
d="M584 -20q-124 0 -221 37t-163.5 104.5t-101 160t-34.5 203.5v78q0 125 30.5 224t90.5 169.5t151.5 108t213.5 37.5q108 0 193 -33.5t144 -99t90 -163t31 -224.5v-147h-818v211h493v32q1 60 -15 96t-46.5 52t-74.5 16q-48 0 -77.5 -19t-45 -54.5t-21 -87.5t-5.5 -118v-78
q0 -65 14 -111.5t41 -75.5t65.5 -43.5t87.5 -14.5q65 0 127 23.5t106 76.5l143 -193q-30 -41 -86.5 -79.5t-135 -63t-176.5 -24.5zM332 1402q0 65 46.5 106t119.5 41q74 0 120 -41t46 -106q0 -64 -46 -105t-120 -41q-73 0 -119.5 41t-46.5 105z" />
    <glyph glyph-name="Eogonek" unicode="&#x118;" horiz-adv-x="1073" 
d="M1036 270v-270h-706v270h706zM452 1456v-1456h-347v1456h347zM945 878v-261h-615v261h615zM1039 1456v-271h-709v271h709zM664 60l183 -60q-50 -27 -79 -51t-40.5 -50.5t-11.5 -59.5q0 -26 12 -44t40 -18q23 0 36 6t25 12l37 -168q-24 -15 -61 -29.5t-95 -14.5
q-95 0 -163 54.5t-68 159.5q0 49 15 95.5t54.5 89t115.5 78.5z" />
    <glyph glyph-name="eogonek" unicode="&#x119;" horiz-adv-x="1053" 
d="M584 -20q-124 0 -221 37t-163.5 104.5t-101 160t-34.5 203.5v78q0 125 30.5 224t90.5 169.5t151.5 108t213.5 37.5q108 0 193 -33.5t144 -99t90 -163t31 -224.5v-147h-818v211h493v32q1 60 -15 96t-46.5 52t-74.5 16q-48 0 -77.5 -19t-45 -54.5t-21 -87.5t-5.5 -118v-78
q0 -65 14 -111.5t41 -75.5t65.5 -43.5t87.5 -14.5q65 0 127 23.5t106 76.5l143 -193q-30 -41 -86.5 -79.5t-135 -63t-176.5 -24.5zM642 95l183 -60q-49 -27 -78.5 -51.5t-41 -50.5t-11.5 -59q0 -26 12 -44t40 -18q23 0 36 6t25 12l37 -168q-23 -15 -60.5 -29.5t-95.5 -14.5
q-95 0 -163 54.5t-68 159.5q0 49 15 95.5t54.5 89t115.5 78.5z" />
    <glyph glyph-name="Ecaron" unicode="&#x11a;" horiz-adv-x="1073" 
d="M1036 270v-270h-706v270h706zM452 1456v-1456h-347v1456h347zM945 878v-261h-615v261h615zM1039 1456v-271h-709v271h709zM473 1847l132 -134l131 134h283v-11l-308 -283h-212l-311 285v9h285z" />
    <glyph glyph-name="ecaron" unicode="&#x11b;" horiz-adv-x="1053" 
d="M584 -20q-124 0 -221 37t-163.5 104.5t-101 160t-34.5 203.5v78q0 125 30.5 224t90.5 169.5t151.5 108t213.5 37.5q108 0 193 -33.5t144 -99t90 -163t31 -224.5v-147h-818v211h493v32q1 60 -15 96t-46.5 52t-74.5 16q-48 0 -77.5 -19t-45 -54.5t-21 -87.5t-5.5 -118v-78
q0 -65 14 -111.5t41 -75.5t65.5 -43.5t87.5 -14.5q65 0 127 23.5t106 76.5l143 -193q-30 -41 -86.5 -79.5t-135 -63t-176.5 -24.5zM367 1538l132 -134l131 134h283v-11l-308 -283h-212l-311 285v9h285z" />
    <glyph glyph-name="Gcircumflex" unicode="&#x11c;" horiz-adv-x="1304" 
d="M1214 778v-603q-35 -37 -106.5 -82.5t-179 -79t-253.5 -33.5q-135 0 -244 42.5t-186.5 126.5t-119.5 208.5t-42 289.5v161q0 165 42.5 290.5t119 209.5t181.5 126.5t231 42.5q188 0 307.5 -61t180 -172t68.5 -263h-332q-7 78 -31 128t-68 74t-113 24q-54 0 -97.5 -22.5
t-74 -70.5t-46.5 -123.5t-16 -180.5v-163q0 -104 15.5 -179.5t46.5 -123t81.5 -71t121.5 -23.5q47 0 79.5 10t54 23.5t34.5 22.5v231h-209v241h555zM760 1846l309 -281v-13h-260l-145 136l-143 -136h-255v17l304 277h190z" />
    <glyph glyph-name="gcircumflex" unicode="&#x11d;" horiz-adv-x="1109" 
d="M714 1082h301v-1056q0 -150 -64.5 -250.5t-180.5 -151t-271 -50.5q-65 0 -134.5 17.5t-130 48t-101.5 71.5l129 204q36 -34 92.5 -63t133.5 -29q63 0 106 22t65.5 67.5t22.5 115.5v798zM56 508v61q0 128 28.5 227t82 167.5t129.5 103.5t171 35q102 0 165.5 -41.5
t100.5 -116t58 -174.5t36 -214v-47q-16 -107 -41.5 -202.5t-66.5 -169t-103.5 -115.5t-150.5 -42q-95 0 -170 36.5t-128.5 105t-82 166t-28.5 220.5zM389 569v-61q0 -65 10 -115t30.5 -84t50.5 -51.5t71 -17.5q64 0 102.5 29.5t55 84.5t12.5 129v100q2 64 -7 112.5t-29 81
t-53 49t-79 16.5q-39 0 -70 -17t-51.5 -51.5t-31.5 -85.5t-11 -119zM615 1536l309 -281v-13h-260l-145 136l-143 -136h-255v17l304 277h190z" />
    <glyph glyph-name="Gbreve" unicode="&#x11e;" horiz-adv-x="1304" 
d="M1214 778v-603q-35 -37 -106.5 -82.5t-179 -79t-253.5 -33.5q-135 0 -244 42.5t-186.5 126.5t-119.5 208.5t-42 289.5v161q0 165 42.5 290.5t119 209.5t181.5 126.5t231 42.5q188 0 307.5 -61t180 -172t68.5 -263h-332q-7 78 -31 128t-68 74t-113 24q-54 0 -97.5 -22.5
t-74 -70.5t-46.5 -123.5t-16 -180.5v-163q0 -104 15.5 -179.5t46.5 -123t81.5 -71t121.5 -23.5q47 0 79.5 10t54 23.5t34.5 22.5v231h-209v241h555zM804 1848h231q0 -90 -45.5 -159.5t-128.5 -108.5t-196 -39q-171 0 -271 85.5t-100 221.5h230q0 -49 32 -88t109 -39t108 39
t31 88z" />
    <glyph glyph-name="gbreve" unicode="&#x11f;" horiz-adv-x="1109" 
d="M714 1082h301v-1056q0 -150 -64.5 -250.5t-180.5 -151t-271 -50.5q-65 0 -134.5 17.5t-130 48t-101.5 71.5l129 204q36 -34 92.5 -63t133.5 -29q63 0 106 22t65.5 67.5t22.5 115.5v798zM56 508v61q0 128 28.5 227t82 167.5t129.5 103.5t171 35q102 0 165.5 -41.5
t100.5 -116t58 -174.5t36 -214v-47q-16 -107 -41.5 -202.5t-66.5 -169t-103.5 -115.5t-150.5 -42q-95 0 -170 36.5t-128.5 105t-82 166t-28.5 220.5zM389 569v-61q0 -65 10 -115t30.5 -84t50.5 -51.5t71 -17.5q64 0 102.5 29.5t55 84.5t12.5 129v100q2 64 -7 112.5t-29 81
t-53 49t-79 16.5q-39 0 -70 -17t-51.5 -51.5t-31.5 -85.5t-11 -119zM659 1538h231q0 -90 -45.5 -159.5t-128.5 -108.5t-196 -39q-171 0 -271 85.5t-100 221.5h230q0 -49 32 -88t109 -39t108 39t31 88z" />
    <glyph glyph-name="Gdotaccent" unicode="&#x120;" horiz-adv-x="1304" 
d="M1214 778v-603q-35 -37 -106.5 -82.5t-179 -79t-253.5 -33.5q-135 0 -244 42.5t-186.5 126.5t-119.5 208.5t-42 289.5v161q0 165 42.5 290.5t119 209.5t181.5 126.5t231 42.5q188 0 307.5 -61t180 -172t68.5 -263h-332q-7 78 -31 128t-68 74t-113 24q-54 0 -97.5 -22.5
t-74 -70.5t-46.5 -123.5t-16 -180.5v-163q0 -104 15.5 -179.5t46.5 -123t81.5 -71t121.5 -23.5q47 0 79.5 10t54 23.5t34.5 22.5v231h-209v241h555zM497 1711q0 65 46.5 106t119.5 41q74 0 120 -41t46 -106q0 -64 -46 -105t-120 -41q-73 0 -119.5 41t-46.5 105z" />
    <glyph glyph-name="gdotaccent" unicode="&#x121;" horiz-adv-x="1109" 
d="M714 1082h301v-1056q0 -150 -64.5 -250.5t-180.5 -151t-271 -50.5q-65 0 -134.5 17.5t-130 48t-101.5 71.5l129 204q36 -34 92.5 -63t133.5 -29q63 0 106 22t65.5 67.5t22.5 115.5v798zM56 508v61q0 128 28.5 227t82 167.5t129.5 103.5t171 35q102 0 165.5 -41.5
t100.5 -116t58 -174.5t36 -214v-47q-16 -107 -41.5 -202.5t-66.5 -169t-103.5 -115.5t-150.5 -42q-95 0 -170 36.5t-128.5 105t-82 166t-28.5 220.5zM389 569v-61q0 -65 10 -115t30.5 -84t50.5 -51.5t71 -17.5q64 0 102.5 29.5t55 84.5t12.5 129v100q2 64 -7 112.5t-29 81
t-53 49t-79 16.5q-39 0 -70 -17t-51.5 -51.5t-31.5 -85.5t-11 -119zM352 1401q0 65 46.5 106t119.5 41q74 0 120 -41t46 -106q0 -64 -46 -105t-120 -41q-73 0 -119.5 41t-46.5 105z" />
    <glyph glyph-name="uni0122" unicode="&#x122;" horiz-adv-x="1304" 
d="M1214 778v-603q-35 -37 -106.5 -82.5t-179 -79t-253.5 -33.5q-135 0 -244 42.5t-186.5 126.5t-119.5 208.5t-42 289.5v161q0 165 42.5 290.5t119 209.5t181.5 126.5t231 42.5q188 0 307.5 -61t180 -172t68.5 -263h-332q-7 78 -31 128t-68 74t-113 24q-54 0 -97.5 -22.5
t-74 -70.5t-46.5 -123.5t-16 -180.5v-163q0 -104 15.5 -179.5t46.5 -123t81.5 -71t121.5 -23.5q47 0 79.5 10t54 23.5t34.5 22.5v231h-209v241h555zM790 -85v-69q0 -100 -42 -199.5t-93 -162.5l-156 80q30 53 50.5 112.5t20.5 150.5v88h220z" />
    <glyph glyph-name="uni0123" unicode="&#x123;" horiz-adv-x="1109" 
d="M714 1082h301v-1056q0 -150 -64.5 -250.5t-180.5 -151t-271 -50.5q-65 0 -134.5 17.5t-130 48t-101.5 71.5l129 204q36 -34 92.5 -63t133.5 -29q63 0 106 22t65.5 67.5t22.5 115.5v798zM56 508v61q0 128 28.5 227t82 167.5t129.5 103.5t171 35q102 0 165.5 -41.5
t100.5 -116t58 -174.5t36 -214v-47q-16 -107 -41.5 -202.5t-66.5 -169t-103.5 -115.5t-150.5 -42q-95 0 -170 36.5t-128.5 105t-82 166t-28.5 220.5zM389 569v-61q0 -65 10 -115t30.5 -84t50.5 -51.5t71 -17.5q64 0 102.5 29.5t55 84.5t12.5 129v100q2 64 -7 112.5t-29 81
t-53 49t-79 16.5q-39 0 -70 -17t-51.5 -51.5t-31.5 -85.5t-11 -119zM398 1261v140q0 74 15 138t46 113.5t76 77.5l165 -73q-19 -41 -43 -111.5t-24 -157.5l-2 -127h-233z" />
    <glyph glyph-name="Hcircumflex" unicode="&#x124;" horiz-adv-x="1344" 
d="M1006 878v-270h-669v270h669zM452 1456v-1456h-347v1456h347zM1239 1456v-1456h-346v1456h346zM777 1846l309 -281v-13h-260l-145 136l-143 -136h-255v17l304 277h190z" />
    <glyph glyph-name="hcircumflex" unicode="&#x125;" horiz-adv-x="1087" 
d="M417 1536v-1536h-333v1536h333zM378 578l-77 -2q-1 114 24.5 210t73 167t115 110t149.5 39q73 0 134.5 -23t106 -74t69.5 -133t25 -200v-672h-335v674q0 66 -15 102.5t-44 51t-71 14.5q-51 0 -82 -20t-47 -55.5t-21 -83.5t-5 -105zM604 1939l309 -281v-13h-260l-145 136
l-143 -136h-255v17l304 277h190z" />
    <glyph glyph-name="Hbar" unicode="&#x126;" horiz-adv-x="1402" 
d="M1371 1243v-183h-1329v183h1329zM1034 878v-270h-668v270h668zM480 1456v-1456h-347v1456h347zM1267 1456v-1456h-345v1456h345z" />
    <glyph glyph-name="hbar" unicode="&#x127;" horiz-adv-x="1117" 
d="M447 1536v-1536h-333v1536h333zM408 578l-77 -2q-1 114 24.5 210t73 167t115 110t149.5 39q73 0 134.5 -23t106 -74t69.5 -133t25 -200v-672h-335v674q0 66 -15 102.5t-44 51t-71 14.5q-51 0 -82 -20t-47 -55.5t-21 -83.5t-5 -105zM660 1402v-191h-683v191h683z" />
    <glyph glyph-name="Itilde" unicode="&#x128;" horiz-adv-x="597" 
d="M471 1456v-1456h-346v1456h346zM476 1848l181 -11q0 -73 -27.5 -135t-76.5 -100t-113 -38q-41 0 -74 12.5t-61.5 29.5t-57.5 29.5t-63 12.5q-27 0 -47 -22t-20 -68l-183 10q0 71 27.5 133.5t76.5 101t113 38.5q35 0 67 -12.5t62.5 -29t62 -29t63.5 -12.5q28 0 49 22
t21 68z" />
    <glyph glyph-name="itilde" unicode="&#x129;" horiz-adv-x="572" 
d="M454 1082v-1082h-334v1082h334zM466 1517l181 -11q0 -73 -27.5 -135t-76.5 -100t-113 -38q-41 0 -74 12.5t-61.5 29.5t-57.5 29.5t-63 12.5q-27 0 -47 -22t-20 -68l-183 10q0 71 27.5 133.5t76.5 101t113 38.5q35 0 67 -12.5t62.5 -29t62 -29t63.5 -12.5q28 0 49 22
t21 68z" />
    <glyph glyph-name="Imacron" unicode="&#x12a;" horiz-adv-x="597" 
d="M471 1456v-1456h-346v1456h346zM621 1762v-173h-648v173h648z" />
    <glyph glyph-name="imacron" unicode="&#x12b;" horiz-adv-x="572" 
d="M454 1082v-1082h-334v1082h334zM611 1431v-173h-648v173h648z" />
    <glyph glyph-name="Ibreve" unicode="&#x12c;" horiz-adv-x="597" 
d="M471 1456v-1456h-346v1456h346zM437 1848h231q0 -90 -45.5 -159.5t-128.5 -108.5t-196 -39q-171 0 -271 85.5t-100 221.5h230q0 -49 32 -88t109 -39t108 39t31 88z" />
    <glyph glyph-name="ibreve" unicode="&#x12d;" horiz-adv-x="572" 
d="M454 1082v-1082h-334v1082h334zM427 1517h231q0 -90 -45.5 -159.5t-128.5 -108.5t-196 -39q-171 0 -271 85.5t-100 221.5h230q0 -49 32 -88t109 -39t108 39t31 88z" />
    <glyph glyph-name="Iogonek" unicode="&#x12e;" horiz-adv-x="597" 
d="M471 1456v-1456h-346v1456h346zM217 60l182 -60q-49 -27 -78 -51t-41 -50.5t-12 -59.5q0 -26 12 -44t41 -18q23 0 35.5 6t24.5 12l37 -168q-23 -15 -60 -29.5t-95 -14.5q-96 0 -163.5 54.5t-67.5 159.5q0 49 14.5 95.5t54.5 89t116 78.5z" />
    <glyph glyph-name="iogonek" unicode="&#x12f;" horiz-adv-x="549" 
d="M442 1082v-1082h-333v1082h333zM91 1361q0 72 50.5 118t131.5 46q82 0 132.5 -46t50.5 -118t-50.5 -118t-132.5 -46q-81 0 -131.5 46t-50.5 118zM204 60l182 -60q-49 -27 -78 -51t-41 -50.5t-12 -59.5q0 -26 12 -44t41 -18q23 0 35.5 6t24.5 12l37 -168
q-23 -15 -60 -29.5t-95 -14.5q-96 0 -163.5 54.5t-67.5 159.5q0 49 14.5 95.5t54.5 89t116 78.5z" />
    <glyph glyph-name="Idotaccent" unicode="&#x130;" horiz-adv-x="597" 
d="M471 1456v-1456h-346v1456h346zM130 1711q0 65 46.5 106t119.5 41q74 0 120 -41t46 -106q0 -64 -46 -105t-120 -41q-73 0 -119.5 41t-46.5 105z" />
    <glyph glyph-name="dotlessi" unicode="&#x131;" horiz-adv-x="572" 
d="M454 1082v-1082h-334v1082h334z" />
    <glyph glyph-name="IJ" unicode="&#x132;" horiz-adv-x="1678" 
d="M471 1456v-1456h-346v1456h346zM1227 457v999h346v-999q0 -146 -62 -253t-168 -165.5t-238 -58.5q-135 0 -241 49t-166.5 151t-60.5 260h348q0 -74 13.5 -115.5t40.5 -58t66 -16.5q40 0 67 24.5t41 71t14 111.5z" />
    <glyph glyph-name="ij" unicode="&#x133;" horiz-adv-x="1088" 
d="M442 1082v-1082h-333v1082h333zM91 1361q0 72 50.5 118t131.5 46q82 0 132.5 -46t50.5 -118t-50.5 -118t-132.5 -46q-81 0 -131.5 46t-50.5 118zM665 1082h333v-1117q0 -130 -47 -219.5t-135 -136t-211 -46.5q-41 0 -75 3.5t-76 13.5l-1 255q25 -4 45 -6.5t43 -2.5
q41 0 68 15t41.5 46t14.5 78v1117zM641 1361q0 72 51 118t132 46q80 0 131 -46t51 -118t-51 -118t-131 -46q-81 0 -132 46t-51 118z" />
    <glyph glyph-name="Jcircumflex" unicode="&#x134;" horiz-adv-x="1081" 
d="M630 457v999h346v-999q0 -146 -62 -253t-168 -165.5t-238 -58.5q-135 0 -241 49t-166.5 151t-60.5 260h348q0 -74 13.5 -115.5t40.5 -58t66 -16.5q40 0 67 24.5t41 71t14 111.5zM894 1846l309 -281v-13h-260l-145 136l-143 -136h-255v17l304 277h190z" />
    <glyph glyph-name="jcircumflex" unicode="&#x135;" horiz-adv-x="591" 
d="M135 1082h333v-1097q0 -136 -47 -230.5t-133.5 -143t-205.5 -48.5q-40 0 -76 3.5t-76 13.5l14 255q24 -6 41.5 -9t49.5 -3t54 18t34 54.5t12 89.5v1097zM364 1515l309 -281v-13h-260l-145 136l-143 -136h-255v17l304 277h190z" />
    <glyph glyph-name="uni0136" unicode="&#x136;" horiz-adv-x="1226" 
d="M452 1456v-1456h-347v1456h347zM1247 1456l-512 -738l-306 -361l-65 322l191 320l265 457h427zM834 0l-321 656l270 201l460 -857h-409zM719 -32v-69q0 -100 -42 -199.5t-93 -162.5l-156 80q30 53 50.5 112.5t20.5 150.5v88h220z" />
    <glyph glyph-name="uni0137" unicode="&#x137;" horiz-adv-x="1063" 
d="M427 1537v-1537h-332v1537h332zM1063 1082l-426 -551l-233 -246l-146 214l193 267l215 316h397zM706 0l-248 493l246 177l382 -670h-380zM663 -54v-69q0 -100 -42 -199.5t-93 -162.5l-156 80q30 53 50.5 112.5t20.5 150.5v88h220z" />
    <glyph glyph-name="kgreenlandic" unicode="&#x138;" horiz-adv-x="1176" 
d="M447 1082v-1082h-333v1082h333zM1136 1082l-434 -704h-298l-38 315h157l186 389h427zM711 0l-189 441l311 141l306 -582h-428z" />
    <glyph glyph-name="Lacute" unicode="&#x139;" horiz-adv-x="1046" 
d="M1003 270v-270h-674v270h674zM452 1456v-1456h-347v1456h347zM134 1532l198 314h356l-279 -314h-275z" />
    <glyph glyph-name="lacute" unicode="&#x13a;" horiz-adv-x="549" 
d="M442 1536v-1536h-333v1536h333zM120 1609l198 314h356l-279 -314h-275z" />
    <glyph glyph-name="uni013B" unicode="&#x13b;" horiz-adv-x="1046" 
d="M1003 270v-270h-674v270h674zM452 1456v-1456h-347v1456h347zM665 -75v-69q0 -100 -42 -199.5t-93 -162.5l-156 80q30 53 50.5 112.5t20.5 150.5v88h220z" />
    <glyph glyph-name="uni013C" unicode="&#x13c;" horiz-adv-x="549" 
d="M442 1536v-1536h-333v1536h333zM387 -75v-69q0 -100 -42 -199.5t-93 -162.5l-156 80q30 53 50.5 112.5t20.5 150.5v88h220z" />
    <glyph glyph-name="Lcaron" unicode="&#x13d;" horiz-adv-x="1046" 
d="M1003 270v-270h-674v270h674zM452 1456v-1456h-347v1456h347zM907 1457v-69q0 -100 -42 -199.5t-93 -162.5l-156 80q30 53 50.5 112.5t20.5 150.5v88h220z" />
    <glyph glyph-name="lcaron" unicode="&#x13e;" horiz-adv-x="699" 
d="M442 1536v-1536h-333v1536h333zM795 1537v-69q0 -100 -42 -199.5t-93 -162.5l-156 80q30 53 50.5 112.5t20.5 150.5v88h220z" />
    <glyph glyph-name="Ldot" unicode="&#x13f;" horiz-adv-x="1046" 
d="M1003 270v-270h-674v270h674zM452 1456v-1456h-347v1456h347zM559 839q0 65 46.5 106t119.5 41q74 0 120 -41t46 -106q0 -64 -46 -105t-120 -41q-73 0 -119.5 41t-46.5 105z" />
    <glyph glyph-name="ldot" unicode="&#x140;" horiz-adv-x="769" 
d="M442 1536v-1536h-333v1536h333zM519 770q0 65 46.5 106t119.5 41q74 0 120 -41t46 -106q0 -64 -46 -105t-120 -41q-73 0 -119.5 41t-46.5 105z" />
    <glyph glyph-name="Lslash" unicode="&#x141;" horiz-adv-x="1097" 
d="M669 967v-178l-633 -187v178zM1054 270v-270h-673v270h673zM503 1456v-1456h-346v1456h346z" />
    <glyph glyph-name="lslash" unicode="&#x142;" horiz-adv-x="643" 
d="M600 967v-180l-564 -187v180zM483 1536v-1536h-335v1536h335z" />
    <glyph glyph-name="Nacute" unicode="&#x143;" horiz-adv-x="1342" 
d="M1237 1456v-1456h-345l-440 906v-906h-347v1456h347l440 -906v906h345zM524 1532l198 314h356l-279 -314h-275z" />
    <glyph glyph-name="nacute" unicode="&#x144;" horiz-adv-x="1087" 
d="M418 851v-851h-333v1082h312zM379 578l-77 -2q-1 124 26.5 221.5t78 165.5t121.5 103.5t158 35.5q68 0 125.5 -22t99 -71t64.5 -129.5t23 -198.5v-681h-335v682q0 65 -14.5 99.5t-43.5 47.5t-71 13q-44 0 -74 -20t-48 -55.5t-25.5 -83.5t-7.5 -105zM388 1222l198 314h356
l-279 -314h-275z" />
    <glyph glyph-name="uni0145" unicode="&#x145;" horiz-adv-x="1342" 
d="M1237 1456v-1456h-345l-440 906v-906h-347v1456h347l440 -906v906h345zM792 -85v-69q0 -100 -42 -199.5t-93 -162.5l-156 80q30 53 50.5 112.5t20.5 150.5v88h220z" />
    <glyph glyph-name="uni0146" unicode="&#x146;" horiz-adv-x="1087" 
d="M418 851v-851h-333v1082h312zM379 578l-77 -2q-1 124 26.5 221.5t78 165.5t121.5 103.5t158 35.5q68 0 125.5 -22t99 -71t64.5 -129.5t23 -198.5v-681h-335v682q0 65 -14.5 99.5t-43.5 47.5t-71 13q-44 0 -74 -20t-48 -55.5t-25.5 -83.5t-7.5 -105zM655 -75v-69
q0 -100 -42 -199.5t-93 -162.5l-156 80q30 53 50.5 112.5t20.5 150.5v88h220z" />
    <glyph glyph-name="Ncaron" unicode="&#x147;" horiz-adv-x="1342" 
d="M1237 1456v-1456h-345l-440 906v-906h-347v1456h347l440 -906v906h345zM547 1847l132 -134l131 134h283v-11l-308 -283h-212l-311 285v9h285z" />
    <glyph glyph-name="ncaron" unicode="&#x148;" horiz-adv-x="1087" 
d="M418 851v-851h-333v1082h312zM379 578l-77 -2q-1 124 26.5 221.5t78 165.5t121.5 103.5t158 35.5q68 0 125.5 -22t99 -71t64.5 -129.5t23 -198.5v-681h-335v682q0 65 -14.5 99.5t-43.5 47.5t-71 13q-44 0 -74 -20t-48 -55.5t-25.5 -83.5t-7.5 -105zM410 1537l132 -134
l131 134h283v-11l-308 -283h-212l-311 285v9h285z" />
    <glyph glyph-name="napostrophe" unicode="&#x149;" horiz-adv-x="1087" 
d="M418 851v-851h-333v1082h312zM379 578l-77 -2q-1 124 26.5 221.5t78 165.5t121.5 103.5t158 35.5q68 0 125.5 -22t99 -71t64.5 -129.5t23 -198.5v-681h-335v682q0 65 -14.5 99.5t-43.5 47.5t-71 13q-44 0 -74 -20t-48 -55.5t-25.5 -83.5t-7.5 -105zM171 1535v-69
q0 -100 -42 -199.5t-93 -162.5l-156 80q30 53 50.5 112.5t20.5 150.5v88h220z" />
    <glyph glyph-name="Eng" unicode="&#x14a;" horiz-adv-x="1357" 
d="M107 1456h347v-1456h-347v1456zM210 1335l244 121l693 -1335l-246 -121zM901 1456h347v-1463q0 -139 -47.5 -235t-136 -145.5t-211.5 -49.5q-41 0 -77 3.5t-78 13.5l13 265q25 -6 41.5 -8.5t50.5 -2.5q32 0 53.5 17.5t33 53t11.5 88.5v1463z" />
    <glyph glyph-name="eng" unicode="&#x14b;" horiz-adv-x="1082" 
d="M419 851v-851h-333v1082h314zM360 578l-35 -2q0 114 26.5 210t75 167t114.5 110t148 39q69 0 124.5 -24.5t98 -77.5t65 -139.5t22.5 -209.5v-666q0 -136 -47 -230.5t-133.5 -143t-206.5 -48.5q-40 0 -74.5 3.5t-75.5 13.5l13 255q25 -6 42 -9t49 -3t53.5 18t33 54.5
t11.5 89.5v667q0 54 -6.5 91t-20 58.5t-34 31t-44.5 9.5q-47 0 -84.5 -20t-62.5 -55.5t-38.5 -83.5t-13.5 -105z" />
    <glyph glyph-name="Omacron" unicode="&#x14c;" horiz-adv-x="1325" 
d="M1250 797v-139q0 -162 -42.5 -288t-121 -213t-186 -132t-237.5 -45q-131 0 -238.5 45t-186.5 132t-121.5 213t-42.5 288v139q0 162 42.5 288.5t120.5 213.5t186 132t239 45q130 0 238 -45t186 -132t121 -213.5t43 -288.5zM899 658v141q0 103 -15.5 179t-45.5 125.5
t-74 73.5t-102 24q-61 0 -105 -24t-73 -73.5t-43.5 -125.5t-14.5 -179v-141q0 -102 14.5 -177.5t44 -126t74 -75.5t104.5 -25q58 0 102 25t73.5 75.5t45 126t15.5 177.5zM984 1762v-173h-648v173h648z" />
    <glyph glyph-name="omacron" unicode="&#x14d;" horiz-adv-x="1081" 
d="M55 510v61q0 124 33 222t95.5 166.5t152 105.5t203.5 37q116 0 205.5 -37t152 -105.5t95.5 -166.5t33 -222v-61q0 -122 -33 -220.5t-95 -167.5t-152 -105.5t-204 -36.5t-204.5 36.5t-153 105.5t-95.5 167.5t-33 220.5zM388 571v-61q0 -65 8.5 -115.5t27 -85t47.5 -52
t70 -17.5q45 0 74.5 17.5t46.5 52t24 85t7 115.5v61q0 64 -8.5 114t-26.5 85.5t-47.5 53.5t-71.5 18q-40 0 -69 -18t-47 -53.5t-26.5 -85.5t-8.5 -114zM865 1452v-173h-648v173h648z" />
    <glyph glyph-name="Obreve" unicode="&#x14e;" horiz-adv-x="1325" 
d="M1250 797v-139q0 -162 -42.5 -288t-121 -213t-186 -132t-237.5 -45q-131 0 -238.5 45t-186.5 132t-121.5 213t-42.5 288v139q0 162 42.5 288.5t120.5 213.5t186 132t239 45q130 0 238 -45t186 -132t121 -213.5t43 -288.5zM899 658v141q0 103 -15.5 179t-45.5 125.5
t-74 73.5t-102 24q-61 0 -105 -24t-73 -73.5t-43.5 -125.5t-14.5 -179v-141q0 -102 14.5 -177.5t44 -126t74 -75.5t104.5 -25q58 0 102 25t73.5 75.5t45 126t15.5 177.5zM800 1848h231q0 -90 -45.5 -159.5t-128.5 -108.5t-196 -39q-171 0 -271 85.5t-100 221.5h230
q0 -49 32 -88t109 -39t108 39t31 88z" />
    <glyph glyph-name="obreve" unicode="&#x14f;" horiz-adv-x="1081" 
d="M55 510v61q0 124 33 222t95.5 166.5t152 105.5t203.5 37q116 0 205.5 -37t152 -105.5t95.5 -166.5t33 -222v-61q0 -122 -33 -220.5t-95 -167.5t-152 -105.5t-204 -36.5t-204.5 36.5t-153 105.5t-95.5 167.5t-33 220.5zM388 571v-61q0 -65 8.5 -115.5t27 -85t47.5 -52
t70 -17.5q45 0 74.5 17.5t46.5 52t24 85t7 115.5v61q0 64 -8.5 114t-26.5 85.5t-47.5 53.5t-71.5 18q-40 0 -69 -18t-47 -53.5t-26.5 -85.5t-8.5 -114zM681 1538h231q0 -90 -45.5 -159.5t-128.5 -108.5t-196 -39q-171 0 -271 85.5t-100 221.5h230q0 -49 32 -88t109 -39
t108 39t31 88z" />
    <glyph glyph-name="Ohungarumlaut" unicode="&#x150;" horiz-adv-x="1325" 
d="M1250 797v-139q0 -162 -42.5 -288t-121 -213t-186 -132t-237.5 -45q-131 0 -238.5 45t-186.5 132t-121.5 213t-42.5 288v139q0 162 42.5 288.5t120.5 213.5t186 132t239 45q130 0 238 -45t186 -132t121 -213.5t43 -288.5zM899 658v141q0 103 -15.5 179t-45.5 125.5
t-74 73.5t-102 24q-61 0 -105 -24t-73 -73.5t-43.5 -125.5t-14.5 -179v-141q0 -102 14.5 -177.5t44 -126t74 -75.5t104.5 -25q58 0 102 25t73.5 75.5t45 126t15.5 177.5zM713 1545l202 300h273l-243 -300h-232zM343 1545l180 300h272l-217 -300h-235z" />
    <glyph glyph-name="ohungarumlaut" unicode="&#x151;" horiz-adv-x="1081" 
d="M55 510v61q0 124 33 222t95.5 166.5t152 105.5t203.5 37q116 0 205.5 -37t152 -105.5t95.5 -166.5t33 -222v-61q0 -122 -33 -220.5t-95 -167.5t-152 -105.5t-204 -36.5t-204.5 36.5t-153 105.5t-95.5 167.5t-33 220.5zM388 571v-61q0 -65 8.5 -115.5t27 -85t47.5 -52
t70 -17.5q45 0 74.5 17.5t46.5 52t24 85t7 115.5v61q0 64 -8.5 114t-26.5 85.5t-47.5 53.5t-71.5 18q-40 0 -69 -18t-47 -53.5t-26.5 -85.5t-8.5 -114zM594 1235l202 300h273l-243 -300h-232zM224 1235l180 300h272l-217 -300h-235z" />
    <glyph glyph-name="OE" unicode="&#x152;" horiz-adv-x="1865" 
d="M680 1476q68 0 135 -6t128 -14v-267q-59 11 -126 19t-137 8q-59 0 -105.5 -20.5t-79.5 -62.5t-50.5 -104.5t-17.5 -146.5v-306q0 -84 18 -147t51 -105t80 -63t106 -21q70 0 136 7.5t125 19.5v-267q-61 -7 -127 -13.5t-134 -6.5q-131 0 -239 43t-186 122.5t-120.5 189
t-42.5 241.5v304q0 132 42 241.5t120 189t185.5 122.5t238.5 43zM1784 270v-270h-706v270h706zM1200 1456v-1456h-347v1456h347zM1692 878v-261h-614v261h614zM1787 1456v-271h-709v271h709z" />
    <glyph glyph-name="oe" unicode="&#x153;" horiz-adv-x="1711" 
d="M1214 -20q-115 0 -205.5 40.5t-153.5 112t-96 167t-33 205.5v38q0 119 28.5 220.5t86.5 178t145 119t204 41.5q104 0 184.5 -34t137 -98t86 -154.5t29.5 -203.5v-177h-776v211h450v26q0 54 -11 92t-35 58t-65 20q-42 0 -68 -24t-40 -65.5t-18.5 -95.5t-4.5 -114v-38
q0 -52 11.5 -100t36 -85t62.5 -58.5t90 -21.5q97 0 152.5 19.5t119.5 47.5l78 -206q-59 -47 -163.5 -84t-231.5 -37zM79 530v21q0 119 31 219.5t92.5 174.5t152 115.5t208.5 41.5q120 0 210 -41.5t152 -115.5t93 -174.5t31 -219.5v-21q0 -118 -31.5 -218.5t-92 -175
t-151 -115.5t-209.5 -41q-118 0 -209.5 41t-153 115.5t-92.5 175t-31 218.5zM411 551v-21q0 -61 7 -114t23.5 -92.5t47 -61.5t76.5 -22q45 0 74.5 22t46.5 61.5t23.5 92.5t6.5 114v21q0 59 -7 111.5t-23 93t-46.5 63.5t-76.5 23q-45 0 -74.5 -23t-46.5 -63.5t-24 -93
t-7 -111.5z" />
    <glyph glyph-name="Racute" unicode="&#x154;" horiz-adv-x="1249" 
d="M106 1456h535q157 0 272.5 -50t178 -148t62.5 -242q0 -125 -35 -209t-98.5 -138.5t-147.5 -89.5l-113 -65h-436l-2 271h315q57 0 94.5 24t56.5 68.5t19 106.5q0 63 -19 108t-55.5 69t-91.5 24h-189v-1185h-346v1456zM827 0l-290 644l367 2l294 -631v-15h-371zM400 1532
l198 314h356l-279 -314h-275z" />
    <glyph glyph-name="racute" unicode="&#x155;" horiz-adv-x="741" 
d="M427 814v-814h-333v1082h311zM713 1090l-5 -313q-20 2 -52.5 5t-53.5 3q-52 0 -89 -13.5t-61 -40t-34.5 -66.5t-9.5 -93l-58 40q0 109 19.5 198.5t55.5 155t87 101t114 35.5q23 0 46 -3t41 -9zM236 1222l198 314h356l-279 -314h-275z" />
    <glyph glyph-name="uni0156" unicode="&#x156;" horiz-adv-x="1249" 
d="M106 1456h535q157 0 272.5 -50t178 -148t62.5 -242q0 -125 -35 -209t-98.5 -138.5t-147.5 -89.5l-113 -65h-436l-2 271h315q57 0 94.5 24t56.5 68.5t19 106.5q0 63 -19 108t-55.5 69t-91.5 24h-189v-1185h-346v1456zM827 0l-290 644l367 2l294 -631v-15h-371zM687 -75
v-69q0 -100 -42 -199.5t-93 -162.5l-156 80q30 53 50.5 112.5t20.5 150.5v88h220z" />
    <glyph glyph-name="uni0157" unicode="&#x157;" horiz-adv-x="741" 
d="M427 814v-814h-333v1082h311zM713 1090l-5 -313q-20 2 -52.5 5t-53.5 3q-52 0 -89 -13.5t-61 -40t-34.5 -66.5t-9.5 -93l-58 40q0 109 19.5 198.5t55.5 155t87 101t114 35.5q23 0 46 -3t41 -9zM373 -75v-69q0 -100 -42 -199.5t-93 -162.5l-156 80q30 53 50.5 112.5
t20.5 150.5v88h220z" />
    <glyph glyph-name="Rcaron" unicode="&#x158;" horiz-adv-x="1249" 
d="M106 1456h535q157 0 272.5 -50t178 -148t62.5 -242q0 -125 -35 -209t-98.5 -138.5t-147.5 -89.5l-113 -65h-436l-2 271h315q57 0 94.5 24t56.5 68.5t19 106.5q0 63 -19 108t-55.5 69t-91.5 24h-189v-1185h-346v1456zM827 0l-290 644l367 2l294 -631v-15h-371zM422 1847
l132 -134l131 134h283v-11l-308 -283h-212l-311 285v9h285z" />
    <glyph glyph-name="rcaron" unicode="&#x159;" horiz-adv-x="741" 
d="M427 814v-814h-333v1082h311zM713 1090l-5 -313q-20 2 -52.5 5t-53.5 3q-52 0 -89 -13.5t-61 -40t-34.5 -66.5t-9.5 -93l-58 40q0 109 19.5 198.5t55.5 155t87 101t114 35.5q23 0 46 -3t41 -9zM259 1537l132 -134l131 134h283v-11l-308 -283h-212l-311 285v9h285z" />
    <glyph glyph-name="Sacute" unicode="&#x15a;" horiz-adv-x="1205" 
d="M786 387q0 34 -8.5 61.5t-31 51.5t-66.5 48.5t-116 51.5q-87 32 -169 72.5t-146.5 95t-103 128t-38.5 171.5q0 94 39 169.5t109 129t165 82t208 28.5q149 0 263 -55.5t178.5 -157t64.5 -239.5h-345q0 55 -18.5 97t-55.5 66t-95 24q-55 0 -92 -20t-56 -53.5t-19 -73.5
q0 -33 16.5 -59.5t47 -49.5t73 -44t94.5 -41q107 -37 190.5 -82.5t141 -103t87 -130.5t29.5 -165q0 -98 -35 -174t-100.5 -128.5t-157 -79.5t-205.5 -27q-105 0 -206 28.5t-182.5 88t-130.5 153t-49 222.5h348q0 -64 13.5 -108t41 -70.5t68.5 -38t97 -11.5t89.5 19.5t48 52
t14.5 71.5zM469 1532l198 314h356l-279 -314h-275z" />
    <glyph glyph-name="sacute" unicode="&#x15b;" horiz-adv-x="989" 
d="M606 299q0 29 -20 47.5t-62 36.5t-110 42q-71 23 -134 53t-110.5 69.5t-74 93.5t-26.5 124q0 69 27.5 130t81 107.5t131 73t177.5 26.5q136 0 235 -43t153 -121.5t54 -182.5h-333q0 41 -10 69t-34.5 42t-65.5 14q-26 0 -49.5 -11.5t-38 -33.5t-14.5 -53q0 -22 9.5 -38.5
t28.5 -30.5t47 -26.5t66 -25.5q98 -27 187.5 -65t147.5 -105t58 -182q0 -72 -31 -131.5t-89 -104.5t-139.5 -69t-183.5 -24q-144 0 -244 54.5t-150.5 137.5t-50.5 170h309q2 -50 20 -80.5t49.5 -44.5t75.5 -14q38 0 62.5 12t37.5 33.5t13 50.5zM323 1222l198 314h356
l-279 -314h-275z" />
    <glyph glyph-name="Scircumflex" unicode="&#x15c;" horiz-adv-x="1205" 
d="M786 387q0 34 -8.5 61.5t-31 51.5t-66.5 48.5t-116 51.5q-87 32 -169 72.5t-146.5 95t-103 128t-38.5 171.5q0 94 39 169.5t109 129t165 82t208 28.5q149 0 263 -55.5t178.5 -157t64.5 -239.5h-345q0 55 -18.5 97t-55.5 66t-95 24q-55 0 -92 -20t-56 -53.5t-19 -73.5
q0 -33 16.5 -59.5t47 -49.5t73 -44t94.5 -41q107 -37 190.5 -82.5t141 -103t87 -130.5t29.5 -165q0 -98 -35 -174t-100.5 -128.5t-157 -79.5t-205.5 -27q-105 0 -206 28.5t-182.5 88t-130.5 153t-49 222.5h348q0 -64 13.5 -108t41 -70.5t68.5 -38t97 -11.5t89.5 19.5t48 52
t14.5 71.5zM719 1846l309 -281v-13h-260l-145 136l-143 -136h-255v17l304 277h190z" />
    <glyph glyph-name="scircumflex" unicode="&#x15d;" horiz-adv-x="989" 
d="M606 299q0 29 -20 47.5t-62 36.5t-110 42q-71 23 -134 53t-110.5 69.5t-74 93.5t-26.5 124q0 69 27.5 130t81 107.5t131 73t177.5 26.5q136 0 235 -43t153 -121.5t54 -182.5h-333q0 41 -10 69t-34.5 42t-65.5 14q-26 0 -49.5 -11.5t-38 -33.5t-14.5 -53q0 -22 9.5 -38.5
t28.5 -30.5t47 -26.5t66 -25.5q98 -27 187.5 -65t147.5 -105t58 -182q0 -72 -31 -131.5t-89 -104.5t-139.5 -69t-183.5 -24q-144 0 -244 54.5t-150.5 137.5t-50.5 170h309q2 -50 20 -80.5t49.5 -44.5t75.5 -14q38 0 62.5 12t37.5 33.5t13 50.5zM573 1536l309 -281v-13h-260
l-145 136l-143 -136h-255v17l304 277h190z" />
    <glyph glyph-name="Scedilla" unicode="&#x15e;" horiz-adv-x="1205" 
d="M786 387q0 34 -8.5 61.5t-31 51.5t-66.5 48.5t-116 51.5q-87 32 -169 72.5t-146.5 95t-103 128t-38.5 171.5q0 94 39 169.5t109 129t165 82t208 28.5q149 0 263 -55.5t178.5 -157t64.5 -239.5h-345q0 55 -18.5 97t-55.5 66t-95 24q-55 0 -92 -20t-56 -53.5t-19 -73.5
q0 -33 16.5 -59.5t47 -49.5t73 -44t94.5 -41q107 -37 190.5 -82.5t141 -103t87 -130.5t29.5 -165q0 -98 -35 -174t-100.5 -128.5t-157 -79.5t-205.5 -27q-105 0 -206 28.5t-182.5 88t-130.5 153t-49 222.5h348q0 -64 13.5 -108t41 -70.5t68.5 -38t97 -11.5t89.5 19.5t48 52
t14.5 71.5zM498 10h253l-10 -61q50 -10 92.5 -48.5t42.5 -124.5q0 -56 -22 -101.5t-66.5 -78.5t-110 -50.5t-152.5 -17.5l-6 186q22 0 37.5 8t24 25t8.5 44q0 26 -12 40.5t-38.5 22t-69.5 10.5z" />
    <glyph glyph-name="scedilla" unicode="&#x15f;" horiz-adv-x="989" 
d="M606 299q0 29 -20 47.5t-62 36.5t-110 42q-71 23 -134 53t-110.5 69.5t-74 93.5t-26.5 124q0 69 27.5 130t81 107.5t131 73t177.5 26.5q136 0 235 -43t153 -121.5t54 -182.5h-333q0 41 -10 69t-34.5 42t-65.5 14q-26 0 -49.5 -11.5t-38 -33.5t-14.5 -53q0 -22 9.5 -38.5
t28.5 -30.5t47 -26.5t66 -25.5q98 -27 187.5 -65t147.5 -105t58 -182q0 -72 -31 -131.5t-89 -104.5t-139.5 -69t-183.5 -24q-144 0 -244 54.5t-150.5 137.5t-50.5 170h309q2 -50 20 -80.5t49.5 -44.5t75.5 -14q38 0 62.5 12t37.5 33.5t13 50.5zM353 0h253l-10 -61
q50 -10 92.5 -48.5t42.5 -124.5q0 -56 -22 -101.5t-66.5 -78.5t-110 -50.5t-152.5 -17.5l-6 186q22 0 37.5 8t24 25t8.5 44q0 26 -12 40.5t-38.5 22t-69.5 10.5z" />
    <glyph glyph-name="Scaron" unicode="&#x160;" horiz-adv-x="1205" 
d="M786 387q0 34 -8.5 61.5t-31 51.5t-66.5 48.5t-116 51.5q-87 32 -169 72.5t-146.5 95t-103 128t-38.5 171.5q0 94 39 169.5t109 129t165 82t208 28.5q149 0 263 -55.5t178.5 -157t64.5 -239.5h-345q0 55 -18.5 97t-55.5 66t-95 24q-55 0 -92 -20t-56 -53.5t-19 -73.5
q0 -33 16.5 -59.5t47 -49.5t73 -44t94.5 -41q107 -37 190.5 -82.5t141 -103t87 -130.5t29.5 -165q0 -98 -35 -174t-100.5 -128.5t-157 -79.5t-205.5 -27q-105 0 -206 28.5t-182.5 88t-130.5 153t-49 222.5h348q0 -64 13.5 -108t41 -70.5t68.5 -38t97 -11.5t89.5 19.5t48 52
t14.5 71.5zM491 1847l132 -134l131 134h283v-11l-308 -283h-212l-311 285v9h285z" />
    <glyph glyph-name="scaron" unicode="&#x161;" horiz-adv-x="989" 
d="M606 299q0 29 -20 47.5t-62 36.5t-110 42q-71 23 -134 53t-110.5 69.5t-74 93.5t-26.5 124q0 69 27.5 130t81 107.5t131 73t177.5 26.5q136 0 235 -43t153 -121.5t54 -182.5h-333q0 41 -10 69t-34.5 42t-65.5 14q-26 0 -49.5 -11.5t-38 -33.5t-14.5 -53q0 -22 9.5 -38.5
t28.5 -30.5t47 -26.5t66 -25.5q98 -27 187.5 -65t147.5 -105t58 -182q0 -72 -31 -131.5t-89 -104.5t-139.5 -69t-183.5 -24q-144 0 -244 54.5t-150.5 137.5t-50.5 170h309q2 -50 20 -80.5t49.5 -44.5t75.5 -14q38 0 62.5 12t37.5 33.5t13 50.5zM346 1537l132 -134l131 134
h283v-11l-308 -283h-212l-311 285v9h285z" />
    <glyph glyph-name="uni0162" unicode="&#x162;" horiz-adv-x="1214" 
d="M775 1456v-1456h-347v1456h347zM1171 1456v-271h-1128v271h1128zM474 20h253l-10 -61q50 -10 92.5 -48.5t42.5 -124.5q0 -56 -22 -101.5t-66.5 -78.5t-110 -50.5t-152.5 -17.5l-6 186q22 0 37.5 8t24 25t8.5 44q0 26 -12 40.5t-38.5 22t-69.5 10.5z" />
    <glyph glyph-name="uni0163" unicode="&#x163;" horiz-adv-x="672" 
d="M632 1082v-234h-612v234h612zM141 1351h333v-998q0 -43 8 -66.5t29.5 -33t59.5 -9.5q26 0 43.5 1.5t31.5 4.5l-1 -241q-41 -14 -85 -21.5t-95 -7.5q-103 0 -175.5 34t-110.5 107t-38 190v1040zM274 10h253l-10 -61q50 -10 92.5 -48.5t42.5 -124.5q0 -56 -22 -101.5
t-66.5 -78.5t-110 -50.5t-152.5 -17.5l-6 186q22 0 37.5 8t24 25t8.5 44q0 26 -12 40.5t-38.5 22t-69.5 10.5z" />
    <glyph glyph-name="Tcaron" unicode="&#x164;" horiz-adv-x="1214" 
d="M775 1456v-1456h-347v1456h347zM1171 1456v-271h-1128v271h1128zM467 1847l132 -134l131 134h283v-11l-308 -283h-212l-311 285v9h285z" />
    <glyph glyph-name="tcaron" unicode="&#x165;" horiz-adv-x="712" 
d="M632 1082v-234h-612v234h612zM141 1351h333v-998q0 -43 8 -66.5t29.5 -33t59.5 -9.5q26 0 43.5 1.5t31.5 4.5l-1 -241q-41 -14 -85 -21.5t-95 -7.5q-103 0 -175.5 34t-110.5 107t-38 190v1040zM859 1669v-69q0 -100 -42 -199.5t-93 -162.5l-156 80q30 53 50.5 112.5
t20.5 150.5v88h220z" />
    <glyph glyph-name="Tbar" unicode="&#x166;" horiz-adv-x="1214" 
d="M775 1456v-1456h-347v1456h347zM1171 1456v-271h-1128v271h1128zM915 914v-191h-684v191h684z" />
    <glyph glyph-name="tbar" unicode="&#x167;" horiz-adv-x="672" 
d="M632 1082v-234h-612v234h612zM141 1351h333v-998q0 -43 8 -66.5t29.5 -33t59.5 -9.5q26 0 43.5 1.5t31.5 4.5l-1 -241q-41 -14 -85 -21.5t-95 -7.5q-103 0 -175.5 34t-110.5 107t-38 190v1040zM655 698v-191h-684v191h684z" />
    <glyph glyph-name="Utilde" unicode="&#x168;" horiz-adv-x="1272" 
d="M821 1456h347v-971q0 -170 -66 -282.5t-185 -167.5t-280 -55q-160 0 -280.5 55t-188 167.5t-67.5 282.5v971h348v-971q0 -90 21.5 -141.5t63.5 -72.5t103 -21q62 0 103 21t61 72.5t20 141.5v971zM808 1848l181 -11q0 -73 -27.5 -135t-76.5 -100t-113 -38q-41 0 -74 12.5
t-61.5 29.5t-57.5 29.5t-63 12.5q-27 0 -47 -22t-20 -68l-183 10q0 71 27.5 133.5t76.5 101t113 38.5q35 0 67 -12.5t62.5 -29t62 -29t63.5 -12.5q28 0 49 22t21 68z" />
    <glyph glyph-name="utilde" unicode="&#x169;" horiz-adv-x="1087" 
d="M666 263v819h333v-1082h-312zM697 483l84 2q0 -109 -24 -201.5t-70 -160.5t-113 -105.5t-155 -37.5q-74 0 -135 22.5t-105 71t-68.5 125t-24.5 183.5v700h332v-702q0 -36 7 -62t21 -43.5t35.5 -26t49.5 -8.5q64 0 100 32t51 87t15 124zM719 1538l181 -11
q0 -73 -27.5 -135t-76.5 -100t-113 -38q-41 0 -74 12.5t-61.5 29.5t-57.5 29.5t-63 12.5q-27 0 -47 -22t-20 -68l-183 10q0 71 27.5 133.5t76.5 101t113 38.5q35 0 67 -12.5t62.5 -29t62 -29t63.5 -12.5q28 0 49 22t21 68z" />
    <glyph glyph-name="Umacron" unicode="&#x16a;" horiz-adv-x="1272" 
d="M821 1456h347v-971q0 -170 -66 -282.5t-185 -167.5t-280 -55q-160 0 -280.5 55t-188 167.5t-67.5 282.5v971h348v-971q0 -90 21.5 -141.5t63.5 -72.5t103 -21q62 0 103 21t61 72.5t20 141.5v971zM953 1762v-173h-648v173h648z" />
    <glyph glyph-name="umacron" unicode="&#x16b;" horiz-adv-x="1087" 
d="M666 263v819h333v-1082h-312zM697 483l84 2q0 -109 -24 -201.5t-70 -160.5t-113 -105.5t-155 -37.5q-74 0 -135 22.5t-105 71t-68.5 125t-24.5 183.5v700h332v-702q0 -36 7 -62t21 -43.5t35.5 -26t49.5 -8.5q64 0 100 32t51 87t15 124zM864 1452v-173h-648v173h648z" />
    <glyph glyph-name="Ubreve" unicode="&#x16c;" horiz-adv-x="1272" 
d="M821 1456h347v-971q0 -170 -66 -282.5t-185 -167.5t-280 -55q-160 0 -280.5 55t-188 167.5t-67.5 282.5v971h348v-971q0 -90 21.5 -141.5t63.5 -72.5t103 -21q62 0 103 21t61 72.5t20 141.5v971zM769 1848h231q0 -90 -45.5 -159.5t-128.5 -108.5t-196 -39
q-171 0 -271 85.5t-100 221.5h230q0 -49 32 -88t109 -39t108 39t31 88z" />
    <glyph glyph-name="ubreve" unicode="&#x16d;" horiz-adv-x="1087" 
d="M666 263v819h333v-1082h-312zM697 483l84 2q0 -109 -24 -201.5t-70 -160.5t-113 -105.5t-155 -37.5q-74 0 -135 22.5t-105 71t-68.5 125t-24.5 183.5v700h332v-702q0 -36 7 -62t21 -43.5t35.5 -26t49.5 -8.5q64 0 100 32t51 87t15 124zM680 1538h231q0 -90 -45.5 -159.5
t-128.5 -108.5t-196 -39q-171 0 -271 85.5t-100 221.5h230q0 -49 32 -88t109 -39t108 39t31 88z" />
    <glyph glyph-name="Uring" unicode="&#x16e;" horiz-adv-x="1272" 
d="M821 1456h347v-971q0 -170 -66 -282.5t-185 -167.5t-280 -55q-160 0 -280.5 55t-188 167.5t-67.5 282.5v971h348v-971q0 -90 21.5 -141.5t63.5 -72.5t103 -21q62 0 103 21t61 72.5t20 141.5v971zM407 1729q0 55 29 101t79.5 74t115.5 28q98 0 161.5 -60t63.5 -143
q0 -55 -29 -100t-79.5 -72t-116.5 -27q-97 0 -160.5 58.5t-63.5 140.5zM528 1729q0 -43 27.5 -73.5t75.5 -30.5q49 0 76.5 30.5t27.5 73.5q0 44 -27.5 75t-76.5 31q-48 0 -75.5 -31t-27.5 -75z" />
    <glyph glyph-name="uring" unicode="&#x16f;" horiz-adv-x="1087" 
d="M666 263v819h333v-1082h-312zM697 483l84 2q0 -109 -24 -201.5t-70 -160.5t-113 -105.5t-155 -37.5q-74 0 -135 22.5t-105 71t-68.5 125t-24.5 183.5v700h332v-702q0 -36 7 -62t21 -43.5t35.5 -26t49.5 -8.5q64 0 100 32t51 87t15 124zM318 1419q0 55 29 101t79.5 74
t115.5 28q98 0 161.5 -60t63.5 -143q0 -55 -29 -100t-79.5 -72t-116.5 -27q-97 0 -160.5 58.5t-63.5 140.5zM439 1419q0 -43 27.5 -73.5t75.5 -30.5q49 0 76.5 30.5t27.5 73.5q0 44 -27.5 75t-76.5 31q-48 0 -75.5 -31t-27.5 -75z" />
    <glyph glyph-name="Uhungarumlaut" unicode="&#x170;" horiz-adv-x="1272" 
d="M821 1456h347v-971q0 -170 -66 -282.5t-185 -167.5t-280 -55q-160 0 -280.5 55t-188 167.5t-67.5 282.5v971h348v-971q0 -90 21.5 -141.5t63.5 -72.5t103 -21q62 0 103 21t61 72.5t20 141.5v971zM682 1545l202 300h273l-243 -300h-232zM312 1545l180 300h272l-217 -300
h-235z" />
    <glyph glyph-name="uhungarumlaut" unicode="&#x171;" horiz-adv-x="1087" 
d="M666 263v819h333v-1082h-312zM697 483l84 2q0 -109 -24 -201.5t-70 -160.5t-113 -105.5t-155 -37.5q-74 0 -135 22.5t-105 71t-68.5 125t-24.5 183.5v700h332v-702q0 -36 7 -62t21 -43.5t35.5 -26t49.5 -8.5q64 0 100 32t51 87t15 124zM594 1235l202 300h273l-243 -300
h-232zM224 1235l180 300h272l-217 -300h-235z" />
    <glyph glyph-name="Uogonek" unicode="&#x172;" horiz-adv-x="1272" 
d="M821 1456h347v-971q0 -170 -66 -282.5t-185 -167.5t-280 -55q-160 0 -280.5 55t-188 167.5t-67.5 282.5v971h348v-971q0 -90 21.5 -141.5t63.5 -72.5t103 -21q62 0 103 21t61 72.5t20 141.5v971zM804 136l182 -60q-49 -27 -78 -51t-41 -50.5t-12 -59.5q0 -26 12 -44
t41 -18q23 0 35.5 6t24.5 12l37 -168q-23 -15 -60 -29.5t-95 -14.5q-96 0 -163.5 54.5t-67.5 159.5q0 49 14.5 95.5t54.5 89t116 78.5z" />
    <glyph glyph-name="uogonek" unicode="&#x173;" horiz-adv-x="1087" 
d="M666 263v819h333v-1082h-311zM697 483l84 2q0 -109 -24 -201.5t-70 -160.5t-113 -105.5t-155 -37.5q-74 0 -135 22.5t-105 71t-68.5 125t-24.5 183.5v700h332v-702q0 -36 7.5 -62t21 -43.5t35 -26t49.5 -8.5q64 0 100.5 32t51 87t14.5 124zM775 60l182 -60
q-49 -27 -78 -51t-41 -50.5t-12 -59.5q0 -26 12 -44t41 -18q23 0 35.5 6t24.5 12l37 -168q-23 -15 -60 -29.5t-95 -14.5q-96 0 -163.5 54.5t-67.5 159.5q0 49 14.5 95.5t54.5 89t116 78.5z" />
    <glyph glyph-name="Wcircumflex" unicode="&#x174;" horiz-adv-x="1652" 
d="M413 132l262 1324h169l100 -113l-280 -1343h-187zM371 1456l221 -1334l-71 -122h-216l-278 1456h344zM1058 129l220 1327h342l-278 -1456h-215zM969 1456l269 -1332l-67 -124h-187l-287 1345l104 111h168zM925 1846l309 -281v-13h-260l-145 136l-143 -136h-255v17
l304 277h190z" />
    <glyph glyph-name="wcircumflex" unicode="&#x175;" horiz-adv-x="1383" 
d="M394 322l181 760h207l-69 -381l-177 -701h-165zM344 1082l106 -754l8 -328h-201l-231 1082h318zM930 344l107 738h318l-229 -1082h-201zM805 1082l183 -758l23 -324h-167l-172 699l-67 383h200zM788 1536l309 -281v-13h-260l-145 136l-143 -136h-255v17l304 277h190z" />
    <glyph glyph-name="Ycircumflex" unicode="&#x176;" horiz-adv-x="1209" 
d="M377 1456l227 -632l229 632h372l-424 -933v-523h-352v523l-425 933h373zM702 1846l309 -281v-13h-260l-145 136l-143 -136h-255v17l304 277h190z" />
    <glyph glyph-name="ycircumflex" unicode="&#x177;" horiz-adv-x="1003" 
d="M397 127l250 955h357l-397 -1243q-13 -41 -34.5 -88.5t-59 -90.5t-96 -70t-144.5 -27q-48 0 -68 4.5t-66 15.5l1 241h19h19q48 0 77 11t44 32t23 51zM358 1082l180 -757l36 -357h-222l-350 1114h356zM593 1536l309 -281v-13h-260l-145 136l-143 -136h-255v17l304 277h190
z" />
    <glyph glyph-name="Ydieresis" unicode="&#x178;" horiz-adv-x="1209" 
d="M377 1456l227 -632l229 632h372l-424 -933v-523h-352v523l-425 933h373zM193 1675q0 56 45 94.5t106 38.5q62 0 106.5 -38.5t44.5 -94.5t-44.5 -94.5t-106.5 -38.5q-61 0 -106 38.5t-45 94.5zM712 1675q0 56 45 94.5t106 38.5q62 0 106.5 -38.5t44.5 -94.5t-44.5 -94.5
t-106.5 -38.5q-61 0 -106 38.5t-45 94.5z" />
    <glyph glyph-name="Zacute" unicode="&#x179;" horiz-adv-x="1172" 
d="M1121 270v-270h-973v270h973zM1117 1276l-796 -1276h-251v185l806 1271h241v-180zM1006 1456v-271h-945v271h945zM444 1532l198 314h356l-279 -314h-275z" />
    <glyph glyph-name="zacute" unicode="&#x17a;" horiz-adv-x="997" 
d="M921 260v-260h-772v260h772zM915 900l-616 -900h-229v188l616 894h229v-182zM807 1082v-260h-719v260h719zM341 1222l198 314h356l-279 -314h-275z" />
    <glyph glyph-name="Zdotaccent" unicode="&#x17b;" horiz-adv-x="1172" 
d="M1121 270v-270h-973v270h973zM1117 1276l-796 -1276h-251v185l806 1271h241v-180zM1006 1456v-271h-945v271h945zM431 1711q0 65 46.5 106t119.5 41q74 0 120 -41t46 -106q0 -64 -46 -105t-120 -41q-73 0 -119.5 41t-46.5 105z" />
    <glyph glyph-name="zdotaccent" unicode="&#x17c;" horiz-adv-x="997" 
d="M921 260v-260h-772v260h772zM915 900l-616 -900h-229v188l616 894h229v-182zM807 1082v-260h-719v260h719zM328 1401q0 65 46.5 106t119.5 41q74 0 120 -41t46 -106q0 -64 -46 -105t-120 -41q-73 0 -119.5 41t-46.5 105z" />
    <glyph glyph-name="Zcaron" unicode="&#x17d;" horiz-adv-x="1172" 
d="M1121 270v-270h-973v270h973zM1117 1276l-796 -1276h-251v185l806 1271h241v-180zM1006 1456v-271h-945v271h945zM466 1847l132 -134l131 134h283v-11l-308 -283h-212l-311 285v9h285z" />
    <glyph glyph-name="zcaron" unicode="&#x17e;" horiz-adv-x="997" 
d="M921 260v-260h-772v260h772zM915 900l-616 -900h-229v188l616 894h229v-182zM807 1082v-260h-719v260h719zM364 1537l132 -134l131 134h283v-11l-308 -283h-212l-311 285v9h285z" />
    <glyph glyph-name="longs" unicode="&#x17f;" horiz-adv-x="526" 
d="M424 0h-333v1170q0 126 48 212t138.5 130.5t217.5 44.5q41 0 79.5 -6t78.5 -15l-23 -249q-22 5 -42 7.5t-50 2.5q-37 0 -62.5 -14.5t-38.5 -43t-13 -69.5v-1170z" />
    <glyph glyph-name="uni018F" unicode="&#x18f;" horiz-adv-x="1334" 
d="M658 -21q-145 0 -256 48.5t-185 139t-112 218t-38 285.5v177h915v-276h-570v-31q0 -55 13.5 -103t42 -84t76 -56.5t114.5 -20.5q62 0 108 28.5t76.5 78.5t45 116t14.5 141v171q0 76 -16 142.5t-54.5 117t-103.5 79.5t-162 29q-124 0 -219 -19.5t-148 -37.5l-46 282
q19 10 87.5 27.5t162 31.5t187.5 14q162 0 285 -49t205.5 -138t124.5 -211t42 -268v-171q0 -146 -44.5 -267t-124.5 -209.5t-187.5 -136.5t-232.5 -48z" />
    <glyph glyph-name="florin" unicode="&#x192;" horiz-adv-x="727" 
d="M683 1082v-234h-191l-1 -883q0 -130 -44 -219.5t-125.5 -136t-194.5 -46.5q-41 0 -76 3.5t-75 13.5l13 255q14 -4 38.5 -8t42.5 -4q38 0 56.5 16t25 47.5t6.5 78.5v883h-142v234h142v88q0 126 48.5 212t138.5 130.5t218 44.5q40 0 78.5 -6t79.5 -15l-25 -249
q-20 5 -40 7.5t-51 2.5q-35 0 -61 -14.5t-39 -43t-13 -69.5v-88h191z" />
    <glyph glyph-name="Ohorn" unicode="&#x1a0;" horiz-adv-x="1359" 
d="M1179 1556h200q0 -144 -36 -246t-111 -155.5t-195 -53.5v164q58 0 88.5 35t42 100t11.5 156zM1255 757v-59q0 -167 -43.5 -299.5t-122.5 -226t-187.5 -143t-237.5 -49.5q-104 0 -195.5 32t-164 92.5t-125.5 148.5t-81 200t-28 245v59q0 167 43.5 300t122.5 226.5t187 143
t239 49.5q103 0 193.5 -32t163.5 -93t126 -148.5t81.5 -199.5t28.5 -246zM903 698v61q0 86 -10.5 156.5t-30.5 123.5t-49 89t-66.5 54.5t-84.5 18.5q-61 0 -106 -28.5t-75 -84.5t-44.5 -138.5t-14.5 -190.5v-61q0 -85 9.5 -155.5t28.5 -124t48.5 -90t68 -55.5t87.5 -19
q57 0 102 29t75.5 86t46 139.5t15.5 189.5z" />
    <glyph glyph-name="ohorn" unicode="&#x1a1;" horiz-adv-x="1129" 
d="M941 1177h180q0 -124 -38 -212.5t-115.5 -135t-199.5 -46.5v125q68 0 105.5 32.5t52.5 92.5t15 144zM53 530v21q0 119 31.5 219.5t93 174.5t151.5 115.5t208 41.5q120 0 210.5 -41.5t151.5 -115.5t92.5 -174.5t31.5 -219.5v-21q0 -118 -31.5 -218.5t-92.5 -175
t-151.5 -115.5t-208.5 -41t-209 41t-152.5 115.5t-93 175t-31.5 218.5zM387 551v-21q0 -61 6.5 -114t23.5 -92.5t46.5 -61.5t75.5 -22q45 0 74.5 22t46 61.5t23 92.5t6.5 114v21q0 59 -6.5 111.5t-23 93t-46.5 63.5t-76 23q-45 0 -74.5 -23t-46 -63.5t-23 -93t-6.5 -111.5z
" />
    <glyph glyph-name="Uhorn" unicode="&#x1af;" horiz-adv-x="1386" 
d="M1337 1537h201q0 -151 -34.5 -258t-122 -163.5t-246.5 -56.5v164q101 0 142.5 38t50.5 108.5t9 167.5zM821 1456h347v-951q0 -170 -66 -287.5t-185 -177.5t-280 -60q-160 0 -280.5 60t-188 177.5t-67.5 287.5v951h348v-951q0 -90 21.5 -146.5t63.5 -82.5t103 -26
q62 0 103 26t61 82.5t20 146.5v951z" />
    <glyph glyph-name="uhorn" unicode="&#x1b0;" horiz-adv-x="1161" 
d="M1085 1181h180q0 -130 -37 -217.5t-124 -132t-235 -44.5l2 143q94 0 139.5 27.5t60 83.5t14.5 140zM666 263v819h333v-1082h-312zM697 483l84 2q0 -109 -24 -201.5t-70 -160.5t-113 -105.5t-155 -37.5q-74 0 -135 22.5t-105 71t-68.5 125t-24.5 183.5v700h332v-702
q0 -36 7 -62t21 -43.5t35.5 -26t49.5 -8.5q64 0 100 32t51 87t15 124z" />
    <glyph glyph-name="uni01F0" unicode="&#x1f0;" horiz-adv-x="591" 
d="M135 1082h333v-1097q0 -136 -47 -230.5t-133.5 -143t-205.5 -48.5q-40 0 -76 3.5t-76 13.5l14 255q24 -6 41.5 -9t49.5 -3t54 18t34 54.5t12 89.5v1097zM137 1516l132 -134l131 134h283v-11l-308 -283h-212l-311 285v9h285z" />
    <glyph glyph-name="Aringacute" unicode="&#x1fa;" horiz-adv-x="1318" 
d="M689 1150l-313 -1150h-373l492 1456h235zM942 0l-314 1150l-45 306h238l494 -1456h-373zM940 543v-271h-689v271h689zM573 1803l198 216h287l-279 -216h-206zM453 1573q0 82 59.5 137.5t145.5 55.5q87 0 145.5 -55.5t58.5 -137.5q0 -83 -58.5 -136.5t-145.5 -53.5
q-86 0 -145.5 54t-59.5 136zM574 1573q0 -40 23.5 -65t61.5 -25q37 0 58.5 25t21.5 65q0 41 -21.5 66.5t-58.5 25.5t-61 -25.5t-24 -66.5z" />
    <glyph glyph-name="aringacute" unicode="&#x1fb;" horiz-adv-x="1022" 
d="M599 272v461q0 46 -10 75t-31.5 43.5t-60.5 14.5q-31 0 -52 -12.5t-31 -38t-10 -66.5h-333q0 75 31.5 139.5t89.5 112.5t139.5 74.5t182.5 26.5q120 0 215 -39t150 -121t55 -211v-458q0 -106 11.5 -160.5t32.5 -95.5v-17h-333q-24 50 -35 122.5t-11 149.5zM638 661
l2 -180h-117q-39 0 -66 -13.5t-44 -37t-24.5 -52t-7.5 -59.5q0 -37 12 -59t32 -31t44 -9q47 0 79.5 19t48.5 46t14 48l54 -135q-19 -38 -39.5 -76.5t-51.5 -70.5t-75.5 -51.5t-109.5 -19.5q-92 0 -169.5 37.5t-124 110t-46.5 174.5q0 80 27 145.5t83.5 113.5t147.5 74
t219 26h112zM412 1493l198 216h287l-279 -216h-206zM292 1263q0 82 59.5 137.5t145.5 55.5q87 0 145.5 -55.5t58.5 -137.5q0 -83 -58.5 -136.5t-145.5 -53.5q-86 0 -145.5 54t-59.5 136zM413 1263q0 -40 23.5 -65t61.5 -25q37 0 58.5 25t21.5 65q0 41 -21.5 66.5t-58.5 25.5
t-61 -25.5t-24 -66.5z" />
    <glyph glyph-name="AEacute" unicode="&#x1fc;" horiz-adv-x="1801" 
d="M940 1298l-533 -1298h-385l665 1456h209zM1017 599v-270h-700v270h700zM1721 264v-264h-674v264h674zM1160 1456l56 -1456h-332l-56 1456h332zM1590 876v-264h-581v264h581zM1665 1456v-264h-674v264h674zM712 1544l198 314h356l-279 -314h-275z" />
    <glyph glyph-name="aeacute" unicode="&#x1fd;" horiz-adv-x="1611" 
d="M662 183v518q0 44 -13 75.5t-37 48.5t-60 17q-39 0 -65 -13.5t-40 -36.5t-14 -52l-334 19q0 75 32.5 137.5t92.5 108.5t144.5 71.5t189.5 25.5q130 0 225.5 -45t148.5 -134.5t53 -223.5v-481zM704 655l3 -204h-156q-49 0 -84 -18.5t-52.5 -48.5t-17.5 -64
q0 -33 13.5 -57.5t41 -37.5t71.5 -13q32 0 64.5 13t60.5 33.5t45 44.5t17 46l149 -156q-24 -48 -75 -97.5t-132 -82.5t-193 -33q-128 0 -216 42.5t-133.5 120t-45.5 181.5q0 79 31 140.5t92 104t151.5 64.5t210.5 22h155zM1147 -20q-118 0 -208 37t-152.5 105t-94 160.5
t-31.5 202.5v79q0 119 29 217.5t87.5 170.5t148 111.5t211.5 38.5q98 0 176.5 -34t134 -98t85.5 -154.5t30 -203.5v-177h-776v211h451v26q0 54 -12 92t-34.5 58t-54.5 20q-47 0 -77.5 -20.5t-46.5 -58t-22 -88.5t-6 -111v-79q0 -53 11.5 -97.5t36.5 -77.5t64.5 -51.5
t96.5 -18.5q88 0 144 19.5t113 47.5l80 -206q-38 -31 -99 -59t-134.5 -45t-150.5 -17zM652 1223l198 314h356l-279 -314h-275z" />
    <glyph glyph-name="Oslashacute" unicode="&#x1fe;" horiz-adv-x="1321" 
d="M1184 1518l-846 -1613h-203l847 1613h202zM1267 757v-59q0 -167 -43.5 -299.5t-123.5 -226t-188 -143t-238 -49.5q-104 0 -195 32t-164 92.5t-125.5 148.5t-81 200t-28.5 245v59q0 167 43.5 300t122.5 226.5t187 143t240 49.5q104 0 194 -32t163.5 -93t126.5 -148.5
t81.5 -199.5t28.5 -246zM914 698v61q0 86 -10.5 156.5t-30.5 123.5t-49.5 89t-67 54.5t-83.5 18.5q-61 0 -105.5 -28.5t-75 -84.5t-45 -138.5t-14.5 -190.5v-61q0 -85 10 -155.5t29 -124t48 -90t67.5 -55.5t86.5 -19q58 0 102.5 29t75 86t46.5 139.5t16 189.5zM515 1606
l198 314h356l-279 -314h-275z" />
    <glyph glyph-name="oslashacute" unicode="&#x1ff;" horiz-adv-x="1082" 
d="M933 1219l-610 -1364h-172l610 1364h172zM56 530v21q0 119 31.5 219.5t92.5 174.5t151 115.5t208 41.5q120 0 210.5 -41.5t151.5 -115.5t92.5 -174.5t31.5 -219.5v-21q0 -118 -31.5 -218.5t-92.5 -175t-151.5 -115.5t-208.5 -41t-209 41t-152 115.5t-92.5 175
t-31.5 218.5zM389 551v-21q0 -61 6.5 -114t23.5 -92.5t46.5 -61.5t75.5 -22q45 0 74.5 22t46.5 61.5t23.5 92.5t6.5 114v21q0 59 -7 111.5t-23.5 93t-46.5 63.5t-76 23q-45 0 -74.5 -23t-46 -63.5t-23 -93t-6.5 -111.5zM354 1216l198 314h356l-279 -314h-275z" />
    <glyph glyph-name="uni0218" unicode="&#x218;" horiz-adv-x="1205" 
d="M786 387q0 34 -8.5 61.5t-31 51.5t-66.5 48.5t-116 51.5q-87 32 -169 72.5t-146.5 95t-103 128t-38.5 171.5q0 94 39 169.5t109 129t165 82t208 28.5q149 0 263 -55.5t178.5 -157t64.5 -239.5h-345q0 55 -18.5 97t-55.5 66t-95 24q-55 0 -92 -20t-56 -53.5t-19 -73.5
q0 -33 16.5 -59.5t47 -49.5t73 -44t94.5 -41q107 -37 190.5 -82.5t141 -103t87 -130.5t29.5 -165q0 -98 -35 -174t-100.5 -128.5t-157 -79.5t-205.5 -27q-105 0 -206 28.5t-182.5 88t-130.5 153t-49 222.5h348q0 -64 13.5 -108t41 -70.5t68.5 -38t97 -11.5t89.5 19.5t48 52
t14.5 71.5zM734 -85v-69q0 -100 -42 -199.5t-93 -162.5l-156 80q30 53 50.5 112.5t20.5 150.5v88h220z" />
    <glyph glyph-name="uni0219" unicode="&#x219;" horiz-adv-x="989" 
d="M606 299q0 29 -20 47.5t-62 36.5t-110 42q-71 23 -134 53t-110.5 69.5t-74 93.5t-26.5 124q0 69 27.5 130t81 107.5t131 73t177.5 26.5q136 0 235 -43t153 -121.5t54 -182.5h-333q0 41 -10 69t-34.5 42t-65.5 14q-26 0 -49.5 -11.5t-38 -33.5t-14.5 -53q0 -22 9.5 -38.5
t28.5 -30.5t47 -26.5t66 -25.5q98 -27 187.5 -65t147.5 -105t58 -182q0 -72 -31 -131.5t-89 -104.5t-139.5 -69t-183.5 -24q-144 0 -244 54.5t-150.5 137.5t-50.5 170h309q2 -50 20 -80.5t49.5 -44.5t75.5 -14q38 0 62.5 12t37.5 33.5t13 50.5zM590 -95v-69
q0 -100 -42 -199.5t-93 -162.5l-156 80q30 53 50.5 112.5t20.5 150.5v88h220z" />
    <glyph glyph-name="uni021A" unicode="&#x21a;" horiz-adv-x="1214" 
d="M775 1456v-1456h-347v1456h347zM1171 1456v-271h-1128v271h1128zM711 -75v-69q0 -100 -42 -199.5t-93 -162.5l-156 80q30 53 50.5 112.5t20.5 150.5v88h220z" />
    <glyph glyph-name="uni021B" unicode="&#x21b;" horiz-adv-x="672" 
d="M632 1082v-234h-612v234h612zM141 1351h333v-998q0 -43 8 -66.5t29.5 -33t59.5 -9.5q26 0 43.5 1.5t31.5 4.5l-1 -241q-41 -14 -85 -21.5t-95 -7.5q-103 0 -175.5 34t-110.5 107t-38 190v1040zM511 -85v-69q0 -100 -42 -199.5t-93 -162.5l-156 80q30 53 50.5 112.5
t20.5 150.5v88h220z" />
    <glyph glyph-name="uni0237" unicode="&#x237;" horiz-adv-x="591" 
d="M135 1082h333v-1097q0 -136 -47 -230.5t-133.5 -143t-205.5 -48.5q-40 0 -76 3.5t-76 13.5l14 255q24 -6 41.5 -9t49.5 -3t54 18t34 54.5t12 89.5v1097z" />
    <glyph glyph-name="uni0259" unicode="&#x259;" horiz-adv-x="1022" 
d="M482 1103q115 0 205.5 -40.5t153.5 -112t96 -167t33 -205.5v-38q0 -118 -29 -220t-86 -178.5t-144 -119t-205 -41.5q-103 0 -184 34t-137.5 98t-86 154.5t-29.5 203.5v177h776v-211h-450v-26q0 -53 11 -91.5t35.5 -58.5t64.5 -20q43 0 69 24t39.5 65.5t18 95.5t4.5 114
v38q0 53 -11.5 100.5t-35.5 84.5t-62 58.5t-92 21.5q-97 0 -152 -19t-118 -48l-79 206q60 47 164.5 84t230.5 37z" />
    <glyph glyph-name="uni02BC" unicode="&#x2bc;" horiz-adv-x="493" 
d="M390 1536v-164q0 -67 -25.5 -137t-65 -131.5t-85.5 -103.5l-144 80q29 57 53.5 126.5t24.5 166.5v163h242z" />
    <glyph glyph-name="circumflex" unicode="&#x2c6;" horiz-adv-x="991" 
d="M590 1536l309 -281v-13h-260l-145 136l-143 -136h-255v17l304 277h190z" />
    <glyph glyph-name="caron" unicode="&#x2c7;" horiz-adv-x="945" 
d="M339 1537l132 -134l131 134h283v-11l-308 -283h-212l-311 285v9h285z" />
    <glyph glyph-name="uni02C9" unicode="&#x2c9;" horiz-adv-x="1021" 
d="M829 1458v-173h-648v173h648z" />
    <glyph glyph-name="breve" unicode="&#x2d8;" horiz-adv-x="928" 
d="M604 1538h231q0 -90 -45.5 -159.5t-128.5 -108.5t-196 -39q-171 0 -271 85.5t-100 221.5h230q0 -49 32 -88t109 -39t108 39t31 88z" />
    <glyph glyph-name="dotaccent" unicode="&#x2d9;" horiz-adv-x="563" 
d="M107 1378q0 65 46.5 106t119.5 41q74 0 120 -41t46 -106q0 -64 -46 -105t-120 -41q-73 0 -119.5 41t-46.5 105z" />
    <glyph glyph-name="ring" unicode="&#x2da;" horiz-adv-x="675" 
d="M119 1294q0 55 29 101t79.5 74t115.5 28q98 0 161.5 -60t63.5 -143q0 -55 -29 -100t-79.5 -72t-116.5 -27q-97 0 -160.5 58.5t-63.5 140.5zM240 1294q0 -43 27.5 -73.5t75.5 -30.5q49 0 76.5 30.5t27.5 73.5q0 44 -27.5 75t-76.5 31q-48 0 -75.5 -31t-27.5 -75z" />
    <glyph glyph-name="ogonek" unicode="&#x2db;" horiz-adv-x="627" 
d="M216 60l182 -60q-49 -27 -78 -51t-41 -50.5t-12 -59.5q0 -26 12 -44t41 -18q23 0 35.5 6t24.5 12l37 -168q-23 -15 -60 -29.5t-95 -14.5q-96 0 -163.5 54.5t-67.5 159.5q0 49 14.5 95.5t54.5 89t116 78.5z" />
    <glyph glyph-name="tilde" unicode="&#x2dc;" horiz-adv-x="943" 
d="M657 1543l181 -11q0 -73 -27.5 -135t-76.5 -100t-113 -38q-41 0 -74 12.5t-61.5 29.5t-57.5 29.5t-63 12.5q-27 0 -47 -22t-20 -68l-183 10q0 71 27.5 133.5t76.5 101t113 38.5q35 0 67 -12.5t62.5 -29t62 -29t63.5 -12.5q28 0 49 22t21 68z" />
    <glyph glyph-name="hungarumlaut" unicode="&#x2dd;" horiz-adv-x="842" 
d="M409 1235l202 300h273l-243 -300h-232zM39 1235l180 300h272l-217 -300h-235z" />
    <glyph glyph-name="uni02F3" unicode="&#x2f3;" horiz-adv-x="638" 
d="M150 -225q0 74 53 123.5t130 49.5t129 -49.5t52 -123.5t-52 -122t-129 -48t-130 48.5t-53 121.5zM270 -225q0 -31 17.5 -50.5t45.5 -19.5q26 0 42.5 19.5t16.5 50.5q0 32 -16.5 52t-42.5 20q-28 0 -45.5 -20t-17.5 -52z" />
    <glyph glyph-name="gravecomb" unicode="&#x300;" horiz-adv-x="0" 
d="M-490 1536l185 -314h-270l-266 314h351z" />
    <glyph glyph-name="acutecomb" unicode="&#x301;" horiz-adv-x="0" 
d="M-635 1222l183 314h350l-262 -314h-271z" />
    <glyph glyph-name="tildecomb" unicode="&#x303;" horiz-adv-x="0" 
d="M-328 1543l181 -11q0 -73 -27.5 -135t-76.5 -100t-113 -38q-41 0 -74 12.5t-61.5 29.5t-57.5 29.5t-63 12.5q-27 0 -47 -22t-20 -68l-183 10q0 71 27.5 133.5t76.5 101t113 38.5q35 0 67 -12.5t62.5 -29t62 -29t63.5 -12.5q28 0 49 22t21 68z" />
    <glyph glyph-name="hookabovecomb" unicode="&#x309;" horiz-adv-x="0" 
d="M-439 1276h-253l-23 126q43 2 70 9.5t39.5 21t12.5 32.5q0 20 -8 33t-23 20t-36 10t-48 3l6 145q98 0 172.5 -13.5t124 -39t75 -62t25.5 -82.5q0 -66 -42.5 -99.5t-92.5 -41.5z" />
    <glyph glyph-name="uni030F" unicode="&#x30f;" horiz-adv-x="0" 
d="M-457 1252h-265l-259 266h302zM-95 1252h-268l-225 266h307z" />
    <glyph glyph-name="dotbelowcomb" unicode="&#x323;" horiz-adv-x="0" 
d="M-784 -230q0 64 52 106.5t135 42.5t135 -42.5t52 -106.5t-52 -106.5t-135 -42.5t-135 42.5t-52 106.5z" />
    <glyph glyph-name="tonos" unicode="&#x384;" horiz-adv-x="779" 
d="M240 1256l85 346h304l-189 -346h-200z" />
    <glyph glyph-name="dieresistonos" unicode="&#x385;" horiz-adv-x="1110" 
d="M458 1424l35 356h286l-177 -356h-144zM97 1365q0 56 43.5 94.5t102.5 38.5q61 0 104 -38.5t43 -94.5t-43 -94.5t-104 -38.5q-59 0 -102.5 38.5t-43.5 94.5zM697 1365q0 56 43.5 94.5t103.5 38.5q59 0 102.5 -38.5t43.5 -94.5t-43.5 -94.5t-102.5 -38.5q-60 0 -103.5 38.5
t-43.5 94.5z" />
    <glyph glyph-name="Alphatonos" unicode="&#x386;" horiz-adv-x="1318" 
d="M689 1150l-313 -1150h-373l492 1456h235zM942 0l-314 1150l-45 306h238l494 -1456h-373zM940 543v-271h-689v271h689zM-3 1255l85 346h304l-189 -346h-200z" />
    <glyph glyph-name="anoteleia" unicode="&#x387;" horiz-adv-x="640" 
d="M134 685q0 72 50.5 120.5t131.5 48.5q82 0 132 -48.5t50 -120.5t-50 -120.5t-132 -48.5q-81 0 -131.5 48.5t-50.5 120.5z" />
    <glyph glyph-name="Epsilontonos" unicode="&#x388;" horiz-adv-x="1173" 
d="M1136 270v-270h-706v270h706zM552 1456v-1456h-347v1456h347zM1045 878v-261h-615v261h615zM1139 1456v-271h-709v271h709zM-302 1258l85 346h304l-189 -346h-200z" />
    <glyph glyph-name="Etatonos" unicode="&#x389;" horiz-adv-x="1444" 
d="M1106 878v-270h-669v270h669zM552 1456v-1456h-347v1456h347zM1339 1456v-1456h-346v1456h346zM-304 1252l85 346h304l-189 -346h-200z" />
    <glyph glyph-name="Iotatonos" unicode="&#x38a;" horiz-adv-x="697" 
d="M571 1456v-1456h-346v1456h346zM-307 1258l85 346h304l-189 -346h-200z" />
    <glyph glyph-name="Omicrontonos" unicode="&#x38c;" horiz-adv-x="1345" 
d="M1270 797v-139q0 -162 -42.5 -288t-121 -213t-186 -132t-237.5 -45q-131 0 -238.5 45t-186.5 132t-121.5 213t-42.5 288v139q0 162 42.5 288.5t120.5 213.5t186 132t239 45q130 0 238 -45t186 -132t121 -213.5t43 -288.5zM919 658v141q0 103 -15.5 179t-45.5 125.5
t-74 73.5t-102 24q-61 0 -105 -24t-73 -73.5t-43.5 -125.5t-14.5 -179v-141q0 -102 14.5 -177.5t44 -126t74 -75.5t104.5 -25q58 0 102 25t73.5 75.5t45 126t15.5 177.5zM-196 1255l85 346h304l-189 -346h-200z" />
    <glyph glyph-name="Upsilontonos" unicode="&#x38e;" horiz-adv-x="1309" 
d="M477 1456l227 -632l229 632h372l-424 -933v-523h-352v523l-425 933h373zM-267 1255l85 346h304l-189 -346h-200z" />
    <glyph glyph-name="Omegatonos" unicode="&#x38f;" horiz-adv-x="1317" 
d="M810 794v77q0 82 -10 143.5t-29 103t-46.5 62.5t-63.5 21q-35 0 -62 -21t-46 -62.5t-28.5 -103t-9.5 -143.5v-77q0 -122 8 -211t22 -150t35 -98.5t46 -56.5v-146q-85 11 -175 64t-165 140.5t-121.5 203.5t-46.5 254v75q0 133 39 244t111.5 192t172 125.5t220.5 44.5
q122 0 221.5 -44.5t172 -125.5t112 -192t39.5 -244v-75q0 -138 -46 -253.5t-120.5 -203t-162.5 -140.5t-173 -65v146q24 20 42.5 57.5t33 98.5t22.5 150t8 210zM704 0v274h479v-274h-479zM141 0v274h485v-274h-485zM-164 1255l85 346h304l-189 -346h-200z" />
    <glyph glyph-name="iotadieresistonos" unicode="&#x390;" horiz-adv-x="674" 
d="M104 1082h333l-1 -720q0 -43 8.5 -66.5t30 -33t58.5 -9.5q27 0 44 1.5t32 4.5l-1 -241q-42 -14 -86 -21.5t-95 -7.5q-103 0 -175.5 34t-110 107t-37.5 190v762zM217 1402l35 356h286l-177 -356h-144zM-144 1343q0 56 43.5 94.5t102.5 38.5q61 0 104 -38.5t43 -94.5
t-43 -94.5t-104 -38.5q-59 0 -102.5 38.5t-43.5 94.5zM456 1343q0 56 43.5 94.5t103.5 38.5q59 0 102.5 -38.5t43.5 -94.5t-43.5 -94.5t-102.5 -38.5q-60 0 -103.5 38.5t-43.5 94.5z" />
    <glyph glyph-name="Alpha" unicode="&#x391;" horiz-adv-x="1318" 
d="M689 1150l-313 -1150h-373l492 1456h235zM942 0l-314 1150l-45 306h238l494 -1456h-373zM940 543v-271h-689v271h689z" />
    <glyph glyph-name="Beta" unicode="&#x392;" horiz-adv-x="1243" 
d="M660 619h-339l-1 230h274q71 0 113 18.5t61 54.5t19 90q0 62 -19.5 100t-61.5 55.5t-108 17.5h-146v-1185h-347v1456h493q126 0 224.5 -24.5t168.5 -74.5t106.5 -125.5t36.5 -177.5q0 -89 -35.5 -167t-119 -126.5t-229.5 -50.5zM647 0h-410l119 270h291q62 0 98.5 22.5
t52 60t15.5 83.5q0 56 -15 97t-48 63.5t-90 22.5h-276l2 230h325l82 -92q139 6 218.5 -41t113 -124t33.5 -161q0 -143 -57 -239t-171 -144t-283 -48z" />
    <glyph glyph-name="Gamma" unicode="&#x393;" horiz-adv-x="1073" 
d="M1018 1456v-271h-568v-1185h-346v1456h914z" />
    <glyph glyph-name="uni0394" unicode="&#x394;" horiz-adv-x="1433" 
d="M829 1338l-441 -1338h-365l512 1456h182zM1068 0l-453 1347l114 109h182l523 -1456h-366zM1092 270v-270h-785v270h785z" />
    <glyph glyph-name="uni0394" unicode="&#x2206;" horiz-adv-x="1433" 
d="M829 1338l-441 -1338h-365l512 1456h182zM1068 0l-453 1347l114 109h182l523 -1456h-366zM1092 270v-270h-785v270h785z" />
    <glyph glyph-name="Epsilon" unicode="&#x395;" horiz-adv-x="1073" 
d="M1036 270v-270h-706v270h706zM452 1456v-1456h-347v1456h347zM945 878v-261h-615v261h615zM1039 1456v-271h-709v271h709z" />
    <glyph glyph-name="Zeta" unicode="&#x396;" horiz-adv-x="1172" 
d="M1121 270v-270h-973v270h973zM1117 1276l-796 -1276h-251v185l806 1271h241v-180zM1006 1456v-271h-945v271h945z" />
    <glyph glyph-name="Eta" unicode="&#x397;" horiz-adv-x="1344" 
d="M1006 878v-270h-669v270h669zM452 1456v-1456h-347v1456h347zM1239 1456v-1456h-346v1456h346z" />
    <glyph glyph-name="Theta" unicode="&#x398;" horiz-adv-x="1327" 
d="M803 848v-259h-268v259h268zM1259 757v-59q0 -167 -43.5 -299.5t-123.5 -226t-187.5 -143t-237.5 -49.5q-105 0 -196 32t-164 92.5t-125.5 148.5t-80.5 200t-28 245v59q0 167 43 300t122 226.5t187.5 143t239.5 49.5q104 0 194 -32t163.5 -93t126 -148.5t81.5 -199.5
t29 -246zM906 698v61q0 86 -10.5 156.5t-30.5 123.5t-49 89t-67 54.5t-84 18.5q-61 0 -105.5 -28.5t-74.5 -84.5t-45 -138.5t-15 -190.5v-61q0 -85 10 -155.5t29 -124t48 -90t67.5 -55.5t87.5 -19q57 0 102 29t75 86t46 139.5t16 189.5z" />
    <glyph glyph-name="Iota" unicode="&#x399;" horiz-adv-x="597" 
d="M471 1456v-1456h-346v1456h346z" />
    <glyph glyph-name="Kappa" unicode="&#x39a;" horiz-adv-x="1226" 
d="M452 1456v-1456h-347v1456h347zM1247 1456l-512 -738l-306 -361l-65 322l191 320l265 457h427zM834 0l-321 656l270 201l460 -857h-409z" />
    <glyph glyph-name="Lambda" unicode="&#x39b;" horiz-adv-x="1231" 
d="M643 1116l-265 -1116h-374l424 1456h258zM854 0l-264 1119l-43 337h257l426 -1456h-376z" />
    <glyph glyph-name="Mu" unicode="&#x39c;" horiz-adv-x="1675" 
d="M278 1456h281l277 -1013l277 1013h281l-443 -1456h-229zM105 1456h292l55 -1116v-340h-347v1456zM1275 1456h293v-1456h-348v340z" />
    <glyph glyph-name="Nu" unicode="&#x39d;" horiz-adv-x="1342" 
d="M1237 1456v-1456h-345l-440 906v-906h-347v1456h347l440 -906v906h345z" />
    <glyph glyph-name="Xi" unicode="&#x39e;" horiz-adv-x="1085" 
d="M83 0v270h936v-270h-936zM206 600v257h696v-257h-696zM117 1185v271h846v-271h-846z" />
    <glyph glyph-name="Omicron" unicode="&#x39f;" horiz-adv-x="1325" 
d="M1250 797v-139q0 -162 -42.5 -288t-121 -213t-186 -132t-237.5 -45q-131 0 -238.5 45t-186.5 132t-121.5 213t-42.5 288v139q0 162 42.5 288.5t120.5 213.5t186 132t239 45q130 0 238 -45t186 -132t121 -213.5t43 -288.5zM899 658v141q0 103 -15.5 179t-45.5 125.5
t-74 73.5t-102 24q-61 0 -105 -24t-73 -73.5t-43.5 -125.5t-14.5 -179v-141q0 -102 14.5 -177.5t44 -126t74 -75.5t104.5 -25q58 0 102 25t73.5 75.5t45 126t15.5 177.5z" />
    <glyph glyph-name="Pi" unicode="&#x3a0;" horiz-adv-x="1347" 
d="M1244 1456v-1456h-347v1185h-448v-1185h-346v1456h1141z" />
    <glyph glyph-name="Rho" unicode="&#x3a1;" horiz-adv-x="1256" 
d="M650 494h-327v271h327q62 0 101 25t57 69.5t18 100.5q0 60 -18.5 111t-57 82.5t-100.5 31.5h-198v-1185h-347v1456h545q162 0 280.5 -64t182 -175.5t63.5 -254.5q0 -141 -63.5 -246t-182 -163.5t-280.5 -58.5z" />
    <glyph glyph-name="Sigma" unicode="&#x3a3;" horiz-adv-x="1085" 
d="M1037 269v-269h-829v269h829zM1029 1456v-271h-764v271h764zM822 745v-13l-453 -732h-291v151l377 588l-377 567v150h291z" />
    <glyph glyph-name="Tau" unicode="&#x3a4;" horiz-adv-x="1214" 
d="M775 1456v-1456h-347v1456h347zM1171 1456v-271h-1128v271h1128z" />
    <glyph glyph-name="Upsilon" unicode="&#x3a5;" horiz-adv-x="1209" 
d="M377 1456l227 -632l229 632h372l-424 -933v-523h-352v523l-425 933h373z" />
    <glyph glyph-name="Phi" unicode="&#x3a6;" horiz-adv-x="1538" 
d="M911 162h-268q-126 0 -230 38.5t-179.5 111t-117 175t-41.5 229.5q0 177 71.5 307t200 200.5t296.5 70.5h267q126 0 230.5 -40t180 -115.5t116.5 -181.5t41 -239q0 -170 -72 -295t-199.5 -193t-295.5 -68zM643 457h269q65 0 116 28t81 86t30 147q0 73 -17.5 126t-48 87.5
t-71.5 51t-90 16.5h-269q-64 0 -115.5 -30t-82.5 -92.5t-31 -160.5q0 -67 17.5 -116t49.5 -80.5t73.5 -47t88.5 -15.5zM952 1456v-1456h-346v1456h346z" />
    <glyph glyph-name="Chi" unicode="&#x3a7;" horiz-adv-x="1231" 
d="M415 1456l201 -484l200 484h394l-365 -722l375 -734h-399l-205 493l-206 -493h-400l376 734l-367 722h396z" />
    <glyph glyph-name="Psi" unicode="&#x3a8;" horiz-adv-x="1433" 
d="M1056 1456h347v-439q0 -198 -72.5 -336.5t-205.5 -210.5t-315 -72h-182q-137 0 -247 41t-187.5 120t-118.5 194t-41 264v439h346v-439q0 -90 16.5 -156t50 -108.5t83.5 -63.5t117 -21h181q87 0 136.5 37.5t70.5 114.5t21 197v439zM903 1456v-1456h-345v1456h345z" />
    <glyph glyph-name="uni03A9" unicode="&#x3a9;" horiz-adv-x="1297" 
d="M790 794v77q0 82 -10 143.5t-29 103t-46.5 62.5t-63.5 21q-35 0 -62 -21t-46 -62.5t-28.5 -103t-9.5 -143.5v-77q0 -122 8 -211t22 -150t35 -98.5t46 -56.5v-146q-85 11 -175 64t-165 140.5t-121.5 203.5t-46.5 254v75q0 133 39 244t111.5 192t172 125.5t220.5 44.5
q122 0 221.5 -44.5t172 -125.5t112 -192t39.5 -244v-75q0 -138 -46 -253.5t-120.5 -203t-162.5 -140.5t-173 -65v146q24 20 42.5 57.5t33 98.5t22.5 150t8 210zM684 0v274h479v-274h-479zM121 0v274h485v-274h-485z" />
    <glyph glyph-name="uni03A9" unicode="&#x2126;" horiz-adv-x="1297" 
d="M790 794v77q0 82 -10 143.5t-29 103t-46.5 62.5t-63.5 21q-35 0 -62 -21t-46 -62.5t-28.5 -103t-9.5 -143.5v-77q0 -122 8 -211t22 -150t35 -98.5t46 -56.5v-146q-85 11 -175 64t-165 140.5t-121.5 203.5t-46.5 254v75q0 133 39 244t111.5 192t172 125.5t220.5 44.5
q122 0 221.5 -44.5t172 -125.5t112 -192t39.5 -244v-75q0 -138 -46 -253.5t-120.5 -203t-162.5 -140.5t-173 -65v146q24 20 42.5 57.5t33 98.5t22.5 150t8 210zM684 0v274h479v-274h-479zM121 0v274h485v-274h-485z" />
    <glyph glyph-name="Iotadieresis" unicode="&#x3aa;" horiz-adv-x="597" 
d="M471 1456v-1456h-346v1456h346zM-116 1675q0 56 45 94.5t106 38.5q62 0 106.5 -38.5t44.5 -94.5t-44.5 -94.5t-106.5 -38.5q-61 0 -106 38.5t-45 94.5zM403 1675q0 56 45 94.5t106 38.5q62 0 106.5 -38.5t44.5 -94.5t-44.5 -94.5t-106.5 -38.5q-61 0 -106 38.5t-45 94.5z
" />
    <glyph glyph-name="Upsilondieresis" unicode="&#x3ab;" horiz-adv-x="1209" 
d="M377 1456l227 -632l229 632h372l-424 -933v-523h-352v523l-425 933h373zM193 1675q0 56 45 94.5t106 38.5q62 0 106.5 -38.5t44.5 -94.5t-44.5 -94.5t-106.5 -38.5q-61 0 -106 38.5t-45 94.5zM712 1675q0 56 45 94.5t106 38.5q62 0 106.5 -38.5t44.5 -94.5t-44.5 -94.5
t-106.5 -38.5q-61 0 -106 38.5t-45 94.5z" />
    <glyph glyph-name="alphatonos" unicode="&#x3ac;" horiz-adv-x="1080" 
d="M62 518v21q0 123 25 226t74.5 178.5t122 117t168.5 41.5q63 0 112 -28.5t84.5 -80.5t61.5 -123t43 -156t29 -179v-25q-15 -110 -39 -206t-62 -169t-95 -114t-136 -41q-96 0 -168.5 39.5t-121.5 111.5t-73.5 170.5t-24.5 216.5zM395 539v-21q0 -61 6.5 -111.5t22.5 -88
t43 -58t68 -20.5t69 16.5t46 47.5t27 76t11 103v79q-2 66 -11 118t-27 88t-46 55t-67 19q-40 0 -67.5 -23.5t-44 -65t-23.5 -96.5t-7 -118zM684 1082h291v-712q0 -36 4 -60.5t11 -40t18 -22t27 -6.5q5 0 7.5 1t3.5 2l24 -244q-31 -13 -58.5 -17t-60.5 -4q-61 0 -112 18
t-90 55.5t-65.5 94t-40.5 132.5v573zM454 1256l85 346h304l-189 -346h-200z" />
    <glyph glyph-name="epsilontonos" unicode="&#x3ad;" horiz-adv-x="1089" 
d="M491 588h245v-138h-162q-41 0 -75 -11t-53 -35.5t-19 -67.5q0 -21 7.5 -42t25 -37.5t43 -26.5t61.5 -10q51 0 81.5 13.5t45 36.5t14.5 50h333q0 -88 -38.5 -152.5t-103.5 -106t-145.5 -61.5t-162.5 -20q-103 0 -193 22t-157.5 64t-105 102.5t-37.5 137.5q0 68 27 120.5
t79 88.5t125 54.5t165 18.5zM736 516h-245q-82 0 -151 21t-120.5 58.5t-79.5 86.5t-28 104q0 77 35 135.5t99 98.5t151.5 60.5t190.5 20.5q89 0 168 -22.5t138.5 -65.5t94 -104.5t34.5 -140.5h-334q0 32 -15.5 52.5t-44 30.5t-64.5 10q-44 0 -70 -16t-38 -40t-12 -50
q0 -23 9.5 -41t26 -31t40.5 -19.5t53 -6.5h162v-141zM446 1255l85 346h304l-189 -346h-200z" />
    <glyph glyph-name="etatonos" unicode="&#x3ae;" horiz-adv-x="1082" 
d="M419 851v-851h-333v1082h314zM357 578l-53 -2q0 114 28 210t79.5 167t122 110t155.5 39q69 0 124.5 -22.5t98 -71t65 -127t22.5 -190.5v-1107h-335v1108q0 38 -6.5 66t-20 46.5t-33.5 28t-45 9.5q-47 0 -84.5 -20t-63.5 -55.5t-40 -83.5t-14 -105zM418 1256l85 346h304
l-189 -346h-200z" />
    <glyph glyph-name="iotatonos" unicode="&#x3af;" horiz-adv-x="674" 
d="M104 1082h333l-1 -720q0 -43 8.5 -66.5t30 -33t58.5 -9.5q27 0 44 1.5t32 4.5l-1 -241q-42 -14 -86 -21.5t-95 -7.5q-103 0 -175.5 34t-110 107t-37.5 190v762zM166 1234l85 346h304l-189 -346h-200z" />
    <glyph glyph-name="upsilondieresistonos" unicode="&#x3b0;" horiz-adv-x="1050" 
d="M96 1082h334v-672q0 -49 5 -82.5t15 -52.5t21.5 -27.5t24.5 -8.5q38 0 67.5 28t49.5 75t30.5 105.5t10.5 118.5q-2 133 -23 262.5t-58 253.5h307q28 -61 52 -139.5t39 -172.5t15 -204q0 -126 -27 -233t-84.5 -186.5t-148.5 -123.5t-220 -44q-91 0 -166.5 25.5t-130 78.5
t-84 135t-29.5 194v670zM472 1424l35 356h286l-177 -356h-144zM111 1365q0 56 43.5 94.5t102.5 38.5q61 0 104 -38.5t43 -94.5t-43 -94.5t-104 -38.5q-59 0 -102.5 38.5t-43.5 94.5zM711 1365q0 56 43.5 94.5t103.5 38.5q59 0 102.5 -38.5t43.5 -94.5t-43.5 -94.5
t-102.5 -38.5q-60 0 -103.5 38.5t-43.5 94.5z" />
    <glyph glyph-name="alpha" unicode="&#x3b1;" horiz-adv-x="1080" 
d="M62 518v21q0 123 25 226t74.5 178.5t122 117t168.5 41.5q63 0 112 -28.5t84.5 -80.5t61.5 -123t43 -156t29 -179v-25q-15 -110 -39 -206t-62 -169t-95 -114t-136 -41q-96 0 -168.5 39.5t-121.5 111.5t-73.5 170.5t-24.5 216.5zM395 539v-21q0 -61 6.5 -111.5t22.5 -88
t43 -58t68 -20.5t69 16.5t46 47.5t27 76t11 103v79q-2 66 -11 118t-27 88t-46 55t-67 19q-40 0 -67.5 -23.5t-44 -65t-23.5 -96.5t-7 -118zM684 1082h291v-712q0 -36 4 -60.5t11 -40t18 -22t27 -6.5q5 0 7.5 1t3.5 2l24 -244q-31 -13 -58.5 -17t-60.5 -4q-61 0 -112 18
t-90 55.5t-65.5 94t-40.5 132.5v573z" />
    <glyph glyph-name="beta" unicode="&#x3b2;" horiz-adv-x="1166" 
d="M549 795h120q139 0 238.5 -46t152 -132t52.5 -208q0 -136 -47 -232t-137.5 -146.5t-221.5 -50.5q-74 0 -152.5 24.5t-145.5 76t-108 132t-41 192.5h120q0 -46 29 -83.5t82.5 -59.5t126.5 -22q51 0 87 23.5t55.5 63.5t19.5 89q0 74 -19.5 120t-57 68t-92.5 22h-61v169z
M600 1476q139 0 242 -44.5t160 -132t57 -217.5q0 -106 -51 -191.5t-142 -135.5t-211 -50h-106v152h48q46 0 74 22.5t41 65.5t13 106q0 44 -13.5 81.5t-41 60.5t-70.5 23q-40 0 -71.5 -23.5t-49 -67.5t-17.5 -107v-1433h-332v1433q0 143 63.5 245.5t170 157.5t236.5 55z" />
    <glyph glyph-name="gamma" unicode="&#x3b3;" horiz-adv-x="995" 
d="M661 70v-487h-334v487h334zM472 270l161 812h350l-318 -1082h-225zM359 1082l172 -820l19 -262h-225l-317 1082h351z" />
    <glyph glyph-name="delta" unicode="&#x3b4;" horiz-adv-x="1082" 
d="M170 1244q0 105 48 179t136.5 113t213.5 39q72 0 117.5 -10.5t115.5 -30.5l1 -242q-30 11 -83 27t-110 16q-41 0 -69.5 -10t-44 -28.5t-15.5 -45.5q0 -13 3.5 -27.5t13 -29.5t29 -31t53.5 -31q150 -56 252.5 -137.5t155 -192t52.5 -252.5v-20q0 -117 -32.5 -217
t-95.5 -175t-154 -116.5t-208 -41.5t-209 40t-155 112t-96 168.5t-33 209.5v20q0 111 38 203t102 154t139 83l-4 6q-46 31 -82 70t-57.5 88t-21.5 110zM388 568v-20q0 -63 9.5 -119t29 -98.5t49.5 -67t73 -24.5q42 0 72 24.5t49.5 67t28.5 98.5t9 119v20q0 48 -10 96
t-30.5 89.5t-50.5 70.5t-69 39q-42 0 -72 -24t-49.5 -65t-29 -94t-9.5 -112z" />
    <glyph glyph-name="epsilon" unicode="&#x3b5;" horiz-adv-x="1089" 
d="M491 588h245v-138h-162q-41 0 -75 -11t-53 -35.5t-19 -67.5q0 -21 7.5 -42t25 -37.5t43 -26.5t61.5 -10q51 0 81.5 13.5t45 36.5t14.5 50h333q0 -88 -38.5 -152.5t-103.5 -106t-145.5 -61.5t-162.5 -20q-103 0 -193 22t-157.5 64t-105 102.5t-37.5 137.5q0 68 27 120.5
t79 88.5t125 54.5t165 18.5zM736 516h-245q-82 0 -151 21t-120.5 58.5t-79.5 86.5t-28 104q0 77 35 135.5t99 98.5t151.5 60.5t190.5 20.5q89 0 168 -22.5t138.5 -65.5t94 -104.5t34.5 -140.5h-334q0 32 -15.5 52.5t-44 30.5t-64.5 10q-44 0 -70 -16t-38 -40t-12 -50
q0 -23 9.5 -41t26 -31t40.5 -19.5t53 -6.5h162v-141z" />
    <glyph glyph-name="zeta" unicode="&#x3b6;" horiz-adv-x="945" 
d="M684 1456h221v-178l-333 -435q-54 -71 -90.5 -132t-55 -125t-18.5 -146q0 -46 10.5 -77t29.5 -51.5t45.5 -34t59.5 -25.5l42 -17q88 -26 152.5 -58t101 -82.5t35.5 -132.5q-1 -60 -37 -127t-93 -127t-118 -100l-167 121q31 32 49 63t25.5 57t5.5 43q2 23 -4 41
t-23.5 31.5t-50.5 22.5l-59 18q-83 24 -146.5 59t-105 81t-62 105t-20.5 131q0 126 30.5 223t86 186t129.5 188zM61 1456h684v-258h-684v258z" />
    <glyph glyph-name="eta" unicode="&#x3b7;" horiz-adv-x="1082" 
d="M419 851v-851h-333v1082h314zM357 578l-53 -2q0 114 28 210t79.5 167t122 110t155.5 39q69 0 124.5 -22.5t98 -71t65 -127t22.5 -190.5v-1107h-335v1108q0 38 -6.5 66t-20 46.5t-33.5 28t-45 9.5q-47 0 -84.5 -20t-63.5 -55.5t-40 -83.5t-14 -105z" />
    <glyph glyph-name="theta" unicode="&#x3b8;" horiz-adv-x="1157" 
d="M579 1476q83 0 155 -23.5t130.5 -72t100.5 -121.5t64.5 -172.5t22.5 -225.5v-266q0 -126 -22 -225.5t-63.5 -172.5t-100 -121.5t-130.5 -72t-155 -23.5t-156 23.5t-131.5 72t-100.5 121.5t-64 172.5t-22 225.5v266q0 126 22 225.5t64 172.5t100 121.5t130.5 72
t155.5 23.5zM579 1216q-33 0 -58 -16.5t-43.5 -52.5t-28 -96t-9.5 -147v-46h279v46q0 70 -6.5 122t-18.5 88t-29 58.5t-38.5 33t-47.5 10.5zM581 240q25 0 46.5 10t38.5 32.5t29 59t18 89t6 123.5v57h-279v-57q0 -71 6 -123.5t18 -89t29 -59t39.5 -32.5t48.5 -10z" />
    <glyph glyph-name="iota" unicode="&#x3b9;" horiz-adv-x="674" 
d="M104 1082h333l-1 -720q0 -43 8.5 -66.5t30 -33t58.5 -9.5q27 0 44 1.5t32 4.5l-1 -241q-42 -14 -86 -21.5t-95 -7.5q-103 0 -175.5 34t-110 107t-37.5 190v762z" />
    <glyph glyph-name="kappa" unicode="&#x3ba;" horiz-adv-x="1176" 
d="M447 1082v-1082h-333v1082h333zM1136 1082l-434 -704h-298l-38 315h157l186 389h427zM711 0l-189 441l311 141l306 -582h-428z" />
    <glyph glyph-name="lambda" unicode="&#x3bb;" horiz-adv-x="1047" 
d="M524 658l-169 -658h-357l358 1114l225 -1zM290 1557q50 0 91 -12t73.5 -34.5t57 -55t39.5 -73.5l380 -1024q9 -27 21.5 -54t31.5 -45.5t45 -18.5h14h14l-1 -254q-26 -4 -54 -4.5t-66 -0.5q-89 0 -150.5 30.5t-99.5 83.5t-59 118l-234 742l-102 251q-11 32 -28.5 51.5
t-41 28.5t-52.5 9q-16 0 -28 -0.5t-33 -2.5l-9 240q41 12 95 18.5t96 6.5z" />
    <glyph glyph-name="uni03BC" unicode="&#x3bc;" horiz-adv-x="1244" 
d="M752 1082h334v-1082h-314l-20 250v832zM789 503l136 2q0 -114 -21.5 -210t-64.5 -167t-106.5 -110t-146.5 -39q-63 0 -114.5 25t-91.5 77.5t-65 134.5l-23 246h170q0 -67 9 -110t27 -66.5t44 -33t60 -9.5q51 0 87 19.5t58 54.5t32 82.5t10 103.5zM129 1082h333v-1498
h-333v1498z" />
    <glyph glyph-name="nu" unicode="&#x3bd;" horiz-adv-x="1000" 
d="M457 231l181 851h350l-320 -1082h-206zM361 1082l178 -851l-3 -231h-207l-319 1082h351z" />
    <glyph glyph-name="xi" unicode="&#x3be;" horiz-adv-x="1070" 
d="M936 1422l-53 -251q-55 15 -87.5 23.5t-57.5 11.5t-60 3q-51 0 -84.5 -15t-49.5 -43t-16 -68q0 -26 8 -48.5t26 -39t46.5 -26t68.5 -9.5h144v-183h-148q-106 0 -193.5 17.5t-151.5 54t-98 93.5t-34 136q0 93 30.5 166.5t87.5 125t137.5 79t179.5 27.5q73 0 122.5 -6
t91 -17.5t91.5 -30.5zM684 866h137v-177h-133q-82 0 -138 -26t-84 -76t-28 -123q0 -63 25.5 -103.5t70 -65t99.5 -40.5l83 -22q87 -22 152 -54t101 -84t35 -134q1 -60 -35.5 -127t-93.5 -127t-119 -100l-166 121q32 32 49.5 63t24.5 57t7 43q0 19 -9 36.5t-26 32.5t-43 26
l-61 21q-105 36 -185 68t-134 76t-81 114.5t-27 182.5q0 101 38 179t111.5 131t181.5 80.5t248 27.5z" />
    <glyph glyph-name="omicron" unicode="&#x3bf;" horiz-adv-x="1081" 
d="M55 510v61q0 124 33 222t95.5 166.5t152 105.5t203.5 37q116 0 205.5 -37t152 -105.5t95.5 -166.5t33 -222v-61q0 -122 -33 -220.5t-95 -167.5t-152 -105.5t-204 -36.5t-204.5 36.5t-153 105.5t-95.5 167.5t-33 220.5zM388 571v-61q0 -65 8.5 -115.5t27 -85t47.5 -52
t70 -17.5q45 0 74.5 17.5t46.5 52t24 85t7 115.5v61q0 64 -8.5 114t-26.5 85.5t-47.5 53.5t-71.5 18q-40 0 -69 -18t-47 -53.5t-26.5 -85.5t-8.5 -114z" />
    <glyph glyph-name="pi" unicode="&#x3c0;" horiz-adv-x="1295" 
d="M1238 1082v-242h-1173v242h1173zM564 1082v-1082h-332v1082h332zM739 1082h333l-1 -720q0 -43 8 -66.5t29.5 -33t59.5 -9.5q27 0 44 1.5t31 4.5v-241q-43 -14 -86.5 -21.5t-94.5 -7.5q-103 0 -175.5 34t-110 107t-37.5 190v762z" />
    <glyph glyph-name="rho" unicode="&#x3c1;" horiz-adv-x="1082" 
d="M93 -416v995q0 110 31 205t92 166.5t151.5 111.5t210.5 40q110 0 194 -41.5t141.5 -117t86.5 -178.5t29 -226v-21q0 -118 -25 -216.5t-74 -171t-121.5 -112t-166.5 -39.5q-86 0 -145.5 41t-100 114t-65.5 169t-40 205q5 -2 28.5 -9t46 -13t24.5 -6q-4 -76 11.5 -130
t54.5 -82.5t102 -28.5q40 0 67 20.5t43 58t22.5 88.5t6.5 112v21q0 63 -7.5 118t-24 96.5t-43.5 65t-67 23.5q-34 0 -58.5 -21.5t-40 -61.5t-23 -95t-7.5 -121v-959h-333z" />
    <glyph glyph-name="sigma1" unicode="&#x3c2;" horiz-adv-x="961" 
d="M521 1102q128 0 223.5 -51t148 -148t52.5 -235h-312q0 49 -11 88t-35.5 62.5t-65.5 23.5q-45 0 -73.5 -23t-43.5 -63.5t-20.5 -92.5t-5.5 -111v-23q0 -90 18 -142.5t56 -82t96 -51.5q100 -30 164.5 -60.5t96.5 -78.5t37 -133q1 -60 -34.5 -127.5t-91 -127.5t-117.5 -100
l-173 122q31 32 49.5 63t26.5 57t7 43q0 25 -8 43.5t-23.5 31.5t-34.5 20q-136 42 -225.5 106.5t-132.5 165.5t-43 251v23q0 117 30 217.5t89 175t148.5 116t207.5 41.5z" />
    <glyph glyph-name="sigma" unicode="&#x3c3;" horiz-adv-x="1107" 
d="M53 530v21q0 114 31.5 211t93 169t151.5 111.5t208 39.5q16 -13 34 -49t51 -73t94 -55q64 -26 129.5 -85t110.5 -139t45 -171v-21q0 -110 -30 -203t-88 -162t-144 -107t-200 -38q-118 0 -209 41.5t-152.5 115.5t-93 175t-31.5 219zM386 551v-21q0 -61 6.5 -114
t23.5 -92.5t47 -62t76 -22.5q39 0 64.5 22.5t40 62t20 92.5t5.5 114v21q0 55 -6 104t-19.5 86.5t-39 59t-66.5 21.5q-45 0 -74.5 -21.5t-47 -59t-24 -86.5t-6.5 -104zM1071 1082v-260h-533v260h533z" />
    <glyph glyph-name="tau" unicode="&#x3c4;" horiz-adv-x="1001" 
d="M974 1082v-258h-946v258h946zM323 1082h334v-731q0 -40 7 -64.5t23.5 -35t42.5 -10.5q35 0 51 3.5t41 9.5l23 -250q-47 -14 -86 -19t-91 -5q-108 0 -185 41t-118.5 123.5t-41.5 206.5v731z" />
    <glyph glyph-name="upsilon" unicode="&#x3c5;" horiz-adv-x="1050" 
d="M96 1082h334v-672q0 -49 5 -82.5t15 -52.5t21.5 -27.5t24.5 -8.5q38 0 67.5 28t49.5 75t30.5 105.5t10.5 118.5q-2 133 -23 262.5t-58 253.5h307q28 -61 52 -139.5t39 -172.5t15 -204q0 -126 -27 -233t-84.5 -186.5t-148.5 -123.5t-220 -44q-91 0 -166.5 25.5t-130 78.5
t-84 135t-29.5 194v670z" />
    <glyph glyph-name="phi" unicode="&#x3c6;" horiz-adv-x="1479" 
d="M565 -478v1264q0 92 44 163.5t115.5 112.5t156.5 41q152 0 255.5 -49.5t166 -130t91 -174.5t28.5 -184q0 -111 -34 -215.5t-111.5 -188.5t-208.5 -133t-326 -49q-201 0 -337 51.5t-216.5 140t-115.5 201t-35 235.5q0 106 26.5 200.5t70 170t91.5 124.5l244 -160
q-30 -45 -52 -101t-33.5 -116.5t-12.5 -117.5q0 -84 17 -151.5t59 -116t113.5 -74.5t180.5 -26q138 0 213 42.5t104 116.5t29 167q0 65 -10.5 116.5t-30 87.5t-48 55t-65.5 19q-33 0 -34.5 -17t-1.5 -31v-1273h-333z" />
    <glyph glyph-name="chi" unicode="&#x3c7;" horiz-adv-x="1009" 
d="M1037 1082l-677 -1498h-322l661 1498h338zM171 1099q89 0 145 -27.5t91 -70.5t56 -90t38 -87l358 -875q7 -27 20 -50t32 -40t42 -25q10 -4 21.5 -5t21.5 -1l-9 -251q-37 -7 -82.5 -8.5t-90.5 3.5q-61 8 -107 48.5t-79 97t-54.5 112.5t-32.5 94l-324 824q-11 34 -36 53.5
t-56 28t-63 8.5q-10 0 -29 -1.5t-30 -4.5l-9 241q50 12 87 19t90 7z" />
    <glyph glyph-name="psi" unicode="&#x3c8;" horiz-adv-x="1480" 
d="M55 1082h335v-498q0 -102 27 -169t74.5 -105.5t109.5 -54.5t131 -16q102 0 170.5 26t109.5 74.5t59.5 116t18.5 151.5q-1 122 -26.5 241.5t-62.5 233.5h296q34 -56 62.5 -128t46 -159t17.5 -188q0 -123 -34 -235.5t-112.5 -201t-209 -140t-325.5 -51.5q-154 0 -280 34.5
t-217.5 108t-140.5 189t-49 276.5v495zM566 1082h333v-1560h-333v1560z" />
    <glyph glyph-name="omega" unicode="&#x3c9;" horiz-adv-x="1564" 
d="M1056 1082h307q40 -61 72.5 -139.5t52.5 -172.5t20 -204q0 -126 -20.5 -232.5t-69 -186t-131 -123.5t-205.5 -44q-82 0 -149.5 36.5t-116.5 107t-75 174t-26 237.5v337h249v-371q0 -73 8.5 -123t24 -80.5t34.5 -44t41 -13.5q32 0 51.5 28t31.5 75t16.5 105t4.5 118
q-4 133 -35 262.5t-85 253.5zM208 1082h308q-53 -124 -85 -253.5t-35 -262.5q0 -48 3 -95.5t9.5 -89t19 -73.5t30 -50t42.5 -18q21 0 41 13.5t34.5 44t23.5 80.5t9 123v371h250v-337q0 -134 -27 -237.5t-75.5 -174t-115.5 -107t-151 -36.5q-98 0 -169.5 28.5t-121 81
t-79 125.5t-43 162t-13.5 189q0 110 20 204t53 172.5t72 139.5z" />
    <glyph glyph-name="iotadieresis" unicode="&#x3ca;" horiz-adv-x="674" 
d="M104 1082h333l-1 -720q0 -43 8.5 -66.5t30 -33t58.5 -9.5q27 0 44 1.5t32 4.5l-1 -241q-42 -14 -86 -21.5t-95 -7.5q-103 0 -175.5 34t-110 107t-37.5 190v762zM-124 1343q0 56 45 94.5t106 38.5q62 0 106.5 -38.5t44.5 -94.5t-44.5 -94.5t-106.5 -38.5q-61 0 -106 38.5
t-45 94.5zM395 1343q0 56 45 94.5t106 38.5q62 0 106.5 -38.5t44.5 -94.5t-44.5 -94.5t-106.5 -38.5q-61 0 -106 38.5t-45 94.5z" />
    <glyph glyph-name="upsilondieresis" unicode="&#x3cb;" horiz-adv-x="1050" 
d="M96 1082h334v-672q0 -49 5 -82.5t15 -52.5t21.5 -27.5t24.5 -8.5q38 0 67.5 28t49.5 75t30.5 105.5t10.5 118.5q-2 133 -23 262.5t-58 253.5h307q28 -61 52 -139.5t39 -172.5t15 -204q0 -126 -27 -233t-84.5 -186.5t-148.5 -123.5t-220 -44q-91 0 -166.5 25.5t-130 78.5
t-84 135t-29.5 194v670zM131 1365q0 56 45 94.5t106 38.5q62 0 106.5 -38.5t44.5 -94.5t-44.5 -94.5t-106.5 -38.5q-61 0 -106 38.5t-45 94.5zM650 1365q0 56 45 94.5t106 38.5q62 0 106.5 -38.5t44.5 -94.5t-44.5 -94.5t-106.5 -38.5q-61 0 -106 38.5t-45 94.5z" />
    <glyph glyph-name="omicrontonos" unicode="&#x3cc;" horiz-adv-x="1081" 
d="M55 510v61q0 124 33 222t95.5 166.5t152 105.5t203.5 37q116 0 205.5 -37t152 -105.5t95.5 -166.5t33 -222v-61q0 -122 -33 -220.5t-95 -167.5t-152 -105.5t-204 -36.5t-204.5 36.5t-153 105.5t-95.5 167.5t-33 220.5zM388 571v-61q0 -65 8.5 -115.5t27 -85t47.5 -52
t70 -17.5q45 0 74.5 17.5t46.5 52t24 85t7 115.5v61q0 64 -8.5 114t-26.5 85.5t-47.5 53.5t-71.5 18q-40 0 -69 -18t-47 -53.5t-26.5 -85.5t-8.5 -114zM418 1256l85 346h304l-189 -346h-200z" />
    <glyph glyph-name="upsilontonos" unicode="&#x3cd;" horiz-adv-x="1050" 
d="M96 1082h334v-672q0 -49 5 -82.5t15 -52.5t21.5 -27.5t24.5 -8.5q38 0 67.5 28t49.5 75t30.5 105.5t10.5 118.5q-2 133 -23 262.5t-58 253.5h307q28 -61 52 -139.5t39 -172.5t15 -204q0 -126 -27 -233t-84.5 -186.5t-148.5 -123.5t-220 -44q-91 0 -166.5 25.5t-130 78.5
t-84 135t-29.5 194v670zM421 1256l85 346h304l-189 -346h-200z" />
    <glyph glyph-name="omegatonos" unicode="&#x3ce;" horiz-adv-x="1564" 
d="M1056 1082h307q40 -61 72.5 -139.5t52.5 -172.5t20 -204q0 -126 -20.5 -232.5t-69 -186t-131 -123.5t-205.5 -44q-82 0 -149.5 36.5t-116.5 107t-75 174t-26 237.5v337h249v-371q0 -73 8.5 -123t24 -80.5t34.5 -44t41 -13.5q32 0 51.5 28t31.5 75t16.5 105t4.5 118
q-4 133 -35 262.5t-85 253.5zM208 1082h308q-53 -124 -85 -253.5t-35 -262.5q0 -48 3 -95.5t9.5 -89t19 -73.5t30 -50t42.5 -18q21 0 41 13.5t34.5 44t23.5 80.5t9 123v371h250v-337q0 -134 -27 -237.5t-75.5 -174t-115.5 -107t-151 -36.5q-98 0 -169.5 28.5t-121 81
t-79 125.5t-43 162t-13.5 189q0 110 20 204t53 172.5t72 139.5zM653 1256l85 346h304l-189 -346h-200z" />
    <glyph glyph-name="theta1" unicode="&#x3d1;" horiz-adv-x="1163" 
d="M1151 838l11 -276q-55 -15 -130.5 -32t-145.5 -17q-148 0 -275 65t-205 182t-78 272v25q0 130 49.5 223.5t137.5 144.5t202 51q83 0 149.5 -29.5t113.5 -86t72.5 -138t25.5 -185.5v-571q0 -143 -61.5 -253t-172 -171.5t-258.5 -61.5q-106 0 -192.5 37.5t-148.5 103.5
t-96 154.5t-34 190.5v213h312v-213q0 -59 21.5 -108t62.5 -78t98 -29q36 0 61 27t38.5 75.5t13.5 112.5v612q0 28 -1.5 48t-5 33.5t-9 20t-13.5 6.5q-15 0 -28 -12t-19.5 -36t-6.5 -60v-28q0 -73 28 -129t83.5 -87.5t135.5 -31.5q72 0 139.5 12t125.5 24z" />
    <glyph glyph-name="Upsilon1" unicode="&#x3d2;" horiz-adv-x="1208" 
d="M775 708v-708h-347v708h347zM574 695l170 526q31 92 77 151t107 87.5t137 28.5q42 0 80.5 -8.5t68.5 -16.5l-36 -256q-3 1 -25.5 2t-31.5 1q-23 0 -40.5 -9t-28.5 -25t-15 -37l-272 -706h-212zM464 1232l174 -543l15 -256h-217l-267 706q-6 23 -18 38.5t-29 24t-39 8.5
q-7 0 -29.5 -1t-24.5 -2l-34 256q27 8 64 16.5t82 8.5q73 0 133.5 -23t108.5 -78.5t81 -154.5z" />
    <glyph glyph-name="omega1" unicode="&#x3d6;" horiz-adv-x="1632" 
d="M1636 1082v-222h-1640v222h1640zM1114 1082h305q41 -61 73.5 -139.5t52.5 -172.5t20 -204q0 -100 -13.5 -189t-43.5 -162t-79 -125.5t-122 -81t-172 -28.5q-88 0 -159.5 36.5t-123 107t-79.5 174t-28 237.5v149h249v-183q0 -73 10.5 -123t28.5 -80.5t41.5 -44t49.5 -13.5
t45 18t31 50t19 73.5t10 89t3 95.5q-4 133 -34.5 262.5t-83.5 253.5zM210 1082h308q-53 -124 -84.5 -253.5t-35.5 -262.5q0 -48 3 -95.5t10 -89t19 -73.5t31 -50t45 -18q27 0 50.5 13.5t41.5 44t29 80.5t11 123v183h248v-149q0 -134 -27.5 -237.5t-79.5 -174t-123.5 -107
t-159.5 -36.5q-99 0 -171.5 28.5t-122.5 81t-80 125.5t-43.5 162t-13.5 189q0 110 20 204t53.5 172.5t71.5 139.5z" />
    <glyph glyph-name="uni0400" unicode="&#x400;" horiz-adv-x="1073" 
d="M1036 270v-270h-706v270h706zM452 1456v-1456h-347v1456h347zM945 878v-261h-615v261h615zM1039 1456v-271h-709v271h709zM566 1846l199 -314h-273l-282 314h356z" />
    <glyph glyph-name="uni0401" unicode="&#x401;" horiz-adv-x="1073" 
d="M1036 270v-270h-706v270h706zM452 1456v-1456h-347v1456h347zM945 878v-261h-615v261h615zM1039 1456v-271h-709v271h709zM192 1675q0 56 45 94.5t106 38.5q62 0 106.5 -38.5t44.5 -94.5t-44.5 -94.5t-106.5 -38.5q-61 0 -106 38.5t-45 94.5zM711 1675q0 56 45 94.5
t106 38.5q62 0 106.5 -38.5t44.5 -94.5t-44.5 -94.5t-106.5 -38.5q-61 0 -106 38.5t-45 94.5z" />
    <glyph glyph-name="uni0402" unicode="&#x402;" horiz-adv-x="1427" 
d="M526 575v262q49 14 104.5 27.5t115.5 22.5t122 9q148 0 263.5 -47.5t181.5 -147t66 -255.5q0 -75 -24.5 -156.5t-85.5 -152t-167.5 -114t-270.5 -43.5l1 253q79 0 120.5 21t58.5 52.5t19.5 63.5t3.5 53q1 60 -21.5 106t-65 72t-101.5 26q-67 0 -117 -5.5t-97 -17
t-106 -29.5zM676 1456v-1456h-347v1456h347zM1078 1456v-271h-1050v271h1050z" />
    <glyph glyph-name="uni0403" unicode="&#x403;" horiz-adv-x="1073" 
d="M1018 1456v-271h-568v-1185h-346v1456h914zM418 1532l198 314h356l-279 -314h-275z" />
    <glyph glyph-name="uni0404" unicode="&#x404;" horiz-adv-x="1246" 
d="M751 863v-271h-536v271h536zM857 492h346q-6 -152 -76 -268t-193.5 -180.5t-291.5 -64.5q-136 0 -242.5 49t-180.5 141t-112.5 223t-38.5 295v78q0 165 40.5 296t115.5 224t179.5 142t233.5 49q180 0 301.5 -68t188 -186.5t78.5 -269.5h-344q-2 82 -23.5 138.5t-69 85.5
t-131.5 29q-55 0 -97 -25t-70.5 -77.5t-42.5 -135.5t-14 -200v-80q0 -93 8 -164.5t24.5 -123.5t43 -85.5t64.5 -49.5t89 -16q70 0 117.5 27t72.5 81t25 136z" />
    <glyph glyph-name="uni0405" unicode="&#x405;" horiz-adv-x="1205" 
d="M786 387q0 34 -8.5 61.5t-31 51.5t-66.5 48.5t-116 51.5q-87 32 -169 72.5t-146.5 95t-103 128t-38.5 171.5q0 94 39 169.5t109 129t165 82t208 28.5q149 0 263 -55.5t178.5 -157t64.5 -239.5h-345q0 55 -18.5 97t-55.5 66t-95 24q-55 0 -92 -20t-56 -53.5t-19 -73.5
q0 -33 16.5 -59.5t47 -49.5t73 -44t94.5 -41q107 -37 190.5 -82.5t141 -103t87 -130.5t29.5 -165q0 -98 -35 -174t-100.5 -128.5t-157 -79.5t-205.5 -27q-105 0 -206 28.5t-182.5 88t-130.5 153t-49 222.5h348q0 -64 13.5 -108t41 -70.5t68.5 -38t97 -11.5t89.5 19.5t48 52
t14.5 71.5z" />
    <glyph glyph-name="uni0406" unicode="&#x406;" horiz-adv-x="597" 
d="M471 1456v-1456h-346v1456h346z" />
    <glyph glyph-name="uni0407" unicode="&#x407;" horiz-adv-x="597" 
d="M471 1456v-1456h-346v1456h346zM-116 1675q0 56 45 94.5t106 38.5q62 0 106.5 -38.5t44.5 -94.5t-44.5 -94.5t-106.5 -38.5q-61 0 -106 38.5t-45 94.5zM403 1675q0 56 45 94.5t106 38.5q62 0 106.5 -38.5t44.5 -94.5t-44.5 -94.5t-106.5 -38.5q-61 0 -106 38.5t-45 94.5z
" />
    <glyph glyph-name="uni0408" unicode="&#x408;" horiz-adv-x="1081" 
d="M630 457v999h346v-999q0 -146 -62 -253t-168 -165.5t-238 -58.5q-135 0 -241 49t-166.5 151t-60.5 260h348q0 -74 13.5 -115.5t40.5 -58t66 -16.5q40 0 67 24.5t41 71t14 111.5z" />
    <glyph glyph-name="uni0409" unicode="&#x409;" horiz-adv-x="1998" 
d="M298 1456h345l-35 -740q-8 -168 -31.5 -289.5t-64 -204t-96 -131.5t-129 -70t-162.5 -21h-82v270l35 4q41 5 72.5 25.5t54 61.5t38 105t24.5 155.5t12 214.5zM1019 1456v-271h-699v271h699zM1125 985h279q165 0 287.5 -64t190.5 -175t68 -253q0 -107 -39 -197
t-110.5 -156.5t-172 -103t-224.5 -36.5h-497v1456h347v-1186h150q64 0 108.5 31.5t67.5 82.5t23 111q0 58 -23 108t-67.5 81t-108.5 31h-279v270z" />
    <glyph glyph-name="uni040A" unicode="&#x40a;" horiz-adv-x="1987" 
d="M1010 847v-270h-675v270h675zM449 1456v-1456h-345v1456h345zM1116 990h278q164 0 287 -64.5t190 -176t67 -254.5q0 -108 -38.5 -198.5t-110 -157t-172 -103t-223.5 -36.5h-497v1456h345v-1188h152q63 0 107.5 32t67.5 84.5t23 112.5q0 58 -23 109t-67.5 82.5
t-107.5 31.5h-278v270z" />
    <glyph glyph-name="uni040B" unicode="&#x40b;" horiz-adv-x="1422" 
d="M1339 1h-345v443q0 88 -25 136.5t-74 68.5t-124 20q-18 0 -55 -2.5t-80 -7.5t-80 -11.5t-52 -15.5v270q17 8 55.5 15t83 12t80 7.5t48.5 2.5q171 0 298.5 -53t198.5 -162.5t71 -279.5v-443zM647 1456v-1456h-347v1456h347zM1036 1456v-271h-1012v271h1012z" />
    <glyph glyph-name="uni040C" unicode="&#x40c;" horiz-adv-x="1226" 
d="M452 1456v-1456h-347v1456h347zM1247 1456l-512 -738l-306 -361l-65 322l191 320l265 457h427zM834 0l-321 656l270 201l460 -857h-409zM401 1532l198 314h356l-279 -314h-275z" />
    <glyph glyph-name="uni040D" unicode="&#x40d;" horiz-adv-x="1323" 
d="M432 537l448 919h346v-1456h-346v918l-448 -918h-347v1456h347v-919zM618 1846l199 -314h-273l-282 314h356z" />
    <glyph glyph-name="uni040E" unicode="&#x40e;" horiz-adv-x="1213" 
d="M527 549l306 907h366l-443 -1155q-27 -64 -61.5 -122t-80.5 -103t-108 -71t-146 -26q-21 0 -50 0.5t-51 1.5l-7 272q12 -3 33 -3.5t30 -0.5q54 0 84.5 14.5t48 44t30.5 75.5zM379 1456l253 -632l111 -404h-248l-483 1036h367zM780 1848h231q0 -90 -45.5 -159.5
t-128.5 -108.5t-196 -39q-171 0 -271 85.5t-100 221.5h230q0 -49 32 -88t109 -39t108 39t31 88z" />
    <glyph glyph-name="uni040F" unicode="&#x40f;" horiz-adv-x="1325" 
d="M81 0v1456h345v-1186h449v1186h348v-1456h-1142zM842 271v-631h-348v631h348z" />
    <glyph glyph-name="uni0410" unicode="&#x410;" horiz-adv-x="1318" 
d="M689 1150l-313 -1150h-373l492 1456h235zM942 0l-314 1150l-45 306h238l494 -1456h-373zM940 543v-271h-689v271h689z" />
    <glyph glyph-name="uni0411" unicode="&#x411;" horiz-adv-x="1197" 
d="M1020 1456v-271h-568v-1185h-346v1456h914zM325 955h280q164 0 287 -59t190 -165t67 -248q0 -107 -38.5 -195.5t-110.5 -153t-172 -99.5t-223 -35h-498v1456h347v-1186h151q63 0 107 29t67.5 77.5t23.5 108.5q0 58 -23.5 103t-67.5 71t-107 26h-280v270z" />
    <glyph glyph-name="uni0412" unicode="&#x412;" horiz-adv-x="1243" 
d="M660 619h-339l-1 230h274q71 0 113 18.5t61 54.5t19 90q0 62 -19.5 100t-61.5 55.5t-108 17.5h-146v-1185h-347v1456h493q126 0 224.5 -24.5t168.5 -74.5t106.5 -125.5t36.5 -177.5q0 -89 -35.5 -167t-119 -126.5t-229.5 -50.5zM647 0h-410l119 270h291q62 0 98.5 22.5
t52 60t15.5 83.5q0 56 -15 97t-48 63.5t-90 22.5h-276l2 230h325l82 -92q139 6 218.5 -41t113 -124t33.5 -161q0 -143 -57 -239t-171 -144t-283 -48z" />
    <glyph glyph-name="uni0413" unicode="&#x413;" horiz-adv-x="1073" 
d="M1018 1456v-271h-568v-1185h-346v1456h914z" />
    <glyph glyph-name="uni0414" unicode="&#x414;" horiz-adv-x="1426" 
d="M1177 270v-270h-929v270h929zM363 270v-627h-321l-24 627h345zM1412 270l-37 -628h-311v628h348zM1032 1456v-271h-676v271h676zM1266 1456v-1456h-345v1456h345zM335 1456h345l-41 -597q-10 -153 -32 -266t-53 -195t-67 -141t-75.5 -103t-78.5 -80t-76 -74h-208v270h65
q29 22 57 59.5t52 102.5t42 169t28 258z" />
    <glyph glyph-name="uni0415" unicode="&#x415;" horiz-adv-x="1073" 
d="M1036 270v-270h-706v270h706zM452 1456v-1456h-347v1456h347zM945 878v-261h-615v261h615zM1039 1456v-271h-709v271h709z" />
    <glyph glyph-name="uni0416" unicode="&#x416;" horiz-adv-x="2017" 
d="M557 569l-527 887h437l256 -571h226l-42 -316h-350zM714 630l-263 -630h-431l397 807zM1197 1456v-1456h-346v1456h346zM2003 1456l-513 -887h-352l-44 316h229l244 571h436zM1582 0l-250 630l297 177l385 -807h-432z" />
    <glyph glyph-name="uni0417" unicode="&#x417;" horiz-adv-x="1211" 
d="M664 697h-236v176h171q52 0 84.5 21.5t48 62t15.5 95.5q0 41 -18 76t-54 56t-92 21q-42 0 -77.5 -17t-56 -49.5t-20.5 -80.5h-345q0 98 39.5 175t108.5 131t160 82.5t191 28.5q116 0 209.5 -26.5t161 -78.5t103.5 -129.5t36 -179.5q0 -75 -31 -141t-88 -116t-136 -78.5
t-174 -28.5zM428 786h236q106 0 189.5 -25t142 -73t89 -118.5t30.5 -161.5q0 -102 -39.5 -181.5t-111 -134.5t-168.5 -83t-213 -28q-94 0 -186.5 24.5t-167.5 75.5t-120 131t-45 192h348q0 -44 22 -79t61 -55t88 -20q58 0 99.5 22t63 60t21.5 84q0 54 -10.5 91.5t-32 61
t-53 34t-72.5 10.5h-171v173z" />
    <glyph glyph-name="uni0418" unicode="&#x418;" horiz-adv-x="1323" 
d="M432 537l448 919h346v-1456h-346v918l-448 -918h-347v1456h347v-919z" />
    <glyph glyph-name="uni0419" unicode="&#x419;" horiz-adv-x="1323" 
d="M432 537l448 919h346v-1456h-346v918l-448 -918h-347v1456h347v-919zM797 1848h231q0 -90 -45.5 -159.5t-128.5 -108.5t-196 -39q-171 0 -271 85.5t-100 221.5h230q0 -49 32 -88t109 -39t108 39t31 88z" />
    <glyph glyph-name="uni041A" unicode="&#x41a;" horiz-adv-x="1242" 
d="M449 1456v-1456h-346v1456h346zM1215 1456l-470 -880h-355l-43 317h219l230 563h419zM853 0l-287 637l253 235l442 -872h-408z" />
    <glyph glyph-name="uni041B" unicode="&#x41b;" horiz-adv-x="1350" 
d="M1013 1456v-271h-691v271h691zM1248 1456v-1456h-347v1456h347zM300 1456h344l-34 -740q-8 -168 -32 -289.5t-64 -204t-96 -131.5t-129 -70t-162 -21h-83v270l36 4q41 5 72.5 25.5t54 61.5t37.5 105t24.5 155.5t12.5 214.5z" />
    <glyph glyph-name="uni041C" unicode="&#x41c;" horiz-adv-x="1675" 
d="M278 1456h281l277 -1013l277 1013h281l-443 -1456h-229zM105 1456h292l55 -1116v-340h-347v1456zM1275 1456h293v-1456h-348v340z" />
    <glyph glyph-name="uni041D" unicode="&#x41d;" horiz-adv-x="1344" 
d="M1006 878v-270h-669v270h669zM452 1456v-1456h-347v1456h347zM1239 1456v-1456h-346v1456h346z" />
    <glyph glyph-name="uni041E" unicode="&#x41e;" horiz-adv-x="1325" 
d="M1250 797v-139q0 -162 -42.5 -288t-121 -213t-186 -132t-237.5 -45q-131 0 -238.5 45t-186.5 132t-121.5 213t-42.5 288v139q0 162 42.5 288.5t120.5 213.5t186 132t239 45q130 0 238 -45t186 -132t121 -213.5t43 -288.5zM899 658v141q0 103 -15.5 179t-45.5 125.5
t-74 73.5t-102 24q-61 0 -105 -24t-73 -73.5t-43.5 -125.5t-14.5 -179v-141q0 -102 14.5 -177.5t44 -126t74 -75.5t104.5 -25q58 0 102 25t73.5 75.5t45 126t15.5 177.5z" />
    <glyph glyph-name="uni041F" unicode="&#x41f;" horiz-adv-x="1347" 
d="M1244 1456v-1456h-347v1185h-448v-1185h-346v1456h1141z" />
    <glyph glyph-name="uni0420" unicode="&#x420;" horiz-adv-x="1256" 
d="M650 494h-327v271h327q62 0 101 25t57 69.5t18 100.5q0 60 -18.5 111t-57 82.5t-100.5 31.5h-198v-1185h-347v1456h545q162 0 280.5 -64t182 -175.5t63.5 -254.5q0 -141 -63.5 -246t-182 -163.5t-280.5 -58.5z" />
    <glyph glyph-name="uni0421" unicode="&#x421;" horiz-adv-x="1258" 
d="M858 493h346q-3 -158 -72.5 -273.5t-194.5 -177.5t-293 -62q-137 0 -243 46.5t-179.5 134.5t-111 213.5t-37.5 283.5v141q0 157 40 283t114 214t178.5 134.5t233.5 46.5q178 0 301.5 -65t190.5 -183t75 -276h-346q2 89 -19.5 144t-71 80t-130.5 25q-57 0 -97.5 -21.5
t-66.5 -69t-38 -124.5t-12 -186v-143q0 -111 10.5 -187.5t35.5 -124t67 -69.5t106 -22q69 0 117 22.5t73.5 74.5t23.5 141z" />
    <glyph glyph-name="uni0422" unicode="&#x422;" horiz-adv-x="1214" 
d="M775 1456v-1456h-347v1456h347zM1171 1456v-271h-1128v271h1128z" />
    <glyph glyph-name="uni0423" unicode="&#x423;" horiz-adv-x="1213" 
d="M527 549l306 907h366l-443 -1155q-27 -64 -61.5 -122t-80.5 -103t-108 -71t-146 -26q-21 0 -50 0.5t-51 1.5l-7 272q12 -3 33 -3.5t30 -0.5q54 0 84.5 14.5t48 44t30.5 75.5zM379 1456l253 -632l111 -404h-248l-483 1036h367z" />
    <glyph glyph-name="uni0424" unicode="&#x424;" horiz-adv-x="1619" 
d="M636 1332h355q121 0 223 -43t178 -123t117.5 -193t41.5 -254q0 -136 -41.5 -246t-117.5 -188t-178 -119.5t-223 -41.5h-355q-121 0 -224.5 41.5t-179.5 119t-118.5 187t-42.5 245.5q0 141 42.5 254t118.5 194t179.5 124t224.5 43zM636 1050q-66 0 -120 -36t-86 -109.5
t-32 -187.5q0 -79 19 -138t52.5 -97t76 -57t90.5 -19h357q65 0 117 34.5t83 104.5t31 174q0 85 -18 147t-50 103t-73.5 61t-89.5 20h-357zM980 1516v-1576h-333v1576h333z" />
    <glyph glyph-name="uni0425" unicode="&#x425;" horiz-adv-x="1231" 
d="M415 1456l201 -484l200 484h394l-365 -722l375 -734h-399l-205 493l-206 -493h-400l376 734l-367 722h396z" />
    <glyph glyph-name="uni0426" unicode="&#x426;" horiz-adv-x="1486" 
d="M1435 267l-20 -618h-327v351h-97v267h444zM82 0v1456h345v-1186h449v1186h347v-1456h-1141z" />
    <glyph glyph-name="uni0427" unicode="&#x427;" horiz-adv-x="1345" 
d="M129 1456h346v-443q0 -88 24.5 -137t74 -69t123.5 -20q17 0 54.5 2.5t80.5 7.5t79.5 11.5t52.5 15.5v-270q-17 -8 -56 -15t-82.5 -12t-79.5 -7.5t-49 -2.5q-171 0 -299 53t-198.5 163t-70.5 280v443zM897 1456h347v-1456h-347v1456z" />
    <glyph glyph-name="uni0428" unicode="&#x428;" horiz-adv-x="1850" 
d="M98 1456h348v-1186h309v1186h346v-1186h304v1186h346v-1456h-1653v1456z" />
    <glyph glyph-name="uni0429" unicode="&#x429;" horiz-adv-x="2013" 
d="M1956 259l-20 -609h-313v351h-103v258h436zM98 1456h348v-1186h309v1186h346v-1186h304v1186h346v-1456h-1653v1456z" />
    <glyph glyph-name="uni042A" unicode="&#x42a;" horiz-adv-x="1486" 
d="M41 1196v260h505v-260h-505zM615 955h280q165 0 287.5 -59t189.5 -165t67 -248q0 -107 -38.5 -195.5t-110 -153t-171.5 -99.5t-224 -35h-498v1456h348v-1186h150q63 0 107 29t67.5 77.5t23.5 108.5q0 58 -23.5 103t-67.5 71t-107 26h-280v270z" />
    <glyph glyph-name="uni042B" unicode="&#x42b;" horiz-adv-x="1674" 
d="M323 955h280q164 0 287 -59t190 -165t67 -248q0 -107 -38.5 -195.5t-110.5 -153t-172 -99.5t-223 -35h-498v1456h347v-1186h151q63 0 107 29t67.5 77.5t23.5 108.5q0 58 -23.5 103t-67.5 71t-107 26h-280v270zM1574 1456v-1456h-345v1456h345z" />
    <glyph glyph-name="uni042C" unicode="&#x42c;" horiz-adv-x="1198" 
d="M325 955h280q164 0 287 -59t190 -165t67 -248q0 -107 -38.5 -195.5t-110.5 -153t-172 -99.5t-223 -35h-498v1456h347v-1186h151q63 0 107 29t67.5 77.5t23.5 108.5q0 58 -23.5 103t-67.5 71t-107 26h-280v270z" />
    <glyph glyph-name="uni042D" unicode="&#x42d;" horiz-adv-x="1217" 
d="M1029 864v-271h-577v271h577zM16 492h346q2 -82 27 -136t72.5 -81t116.5 -27q63 0 106.5 25.5t70.5 78.5t39.5 136t12.5 199v80q0 93 -9 165t-27 123.5t-44.5 84.5t-63 49t-81.5 16q-82 0 -130 -29t-69.5 -85.5t-22.5 -138.5h-346q13 151 79.5 269.5t188.5 186.5t300 68
q129 0 234 -49t180 -142t115.5 -224t40.5 -296v-78q0 -164 -38.5 -295t-112.5 -223t-180 -141t-244 -49q-166 0 -290 64.5t-194 180.5t-77 268z" />
    <glyph glyph-name="uni042E" unicode="&#x42e;" horiz-adv-x="1860" 
d="M460 1456v-1456h-346v1456h346zM684 822v-261h-395v261h395zM1758 797v-139q0 -162 -43 -288t-121.5 -213t-185.5 -132t-237 -45q-131 0 -239 45t-186.5 132t-121.5 213t-43 288v139q0 162 43 288.5t121 213.5t185.5 132t238.5 45q130 0 238 -45t186 -132t121.5 -213.5
t43.5 -288.5zM1406 658v141q0 103 -15 179t-45 125.5t-74.5 73.5t-102.5 24q-60 0 -104 -24t-73.5 -73.5t-43.5 -125.5t-14 -179v-141q0 -102 14 -177.5t43.5 -126t74.5 -75.5t105 -25q57 0 101.5 25t74 75.5t44.5 126t15 177.5z" />
    <glyph glyph-name="uni042F" unicode="&#x42f;" horiz-adv-x="1096" 
d="M797 511h-343l-103 43q-167 56 -253.5 166.5t-86.5 282.5q0 150 62 250.5t176.5 151.5t271.5 51h494v-1456h-347v1185h-147q-88 0 -126.5 -54.5t-38.5 -158.5q0 -80 19 -126t56.5 -65.5t94.5 -19.5h269zM568 642l-280 -642h-378l276 642h382z" />
    <glyph glyph-name="uni0430" unicode="&#x430;" horiz-adv-x="1022" 
d="M599 272v461q0 46 -10 75t-31.5 43.5t-60.5 14.5q-31 0 -52 -12.5t-31 -38t-10 -66.5h-333q0 75 31.5 139.5t89.5 112.5t139.5 74.5t182.5 26.5q120 0 215 -39t150 -121t55 -211v-458q0 -106 11.5 -160.5t32.5 -95.5v-17h-333q-24 50 -35 122.5t-11 149.5zM638 661
l2 -180h-117q-39 0 -66 -13.5t-44 -37t-24.5 -52t-7.5 -59.5q0 -37 12 -59t32 -31t44 -9q47 0 79.5 19t48.5 46t14 48l54 -135q-19 -38 -39.5 -76.5t-51.5 -70.5t-75.5 -51.5t-109.5 -19.5q-92 0 -169.5 37.5t-124 110t-46.5 174.5q0 80 27 145.5t83.5 113.5t147.5 74
t219 26h112z" />
    <glyph glyph-name="uni0431" unicode="&#x431;" horiz-adv-x="1114" 
d="M687 1560h266q0 -72 -13 -129.5t-50.5 -103t-110.5 -79t-195 -56.5q-74 -16 -123.5 -55t-78.5 -105.5t-40 -164.5t-8 -232v-27l-254 -46v27q1 201 32.5 349.5t90 250.5t141 163t186.5 86q61 16 95 31t48 36t14 55zM628 1022q104 0 183 -38t132 -107t80.5 -162.5
t27.5 -203.5v-21q0 -110 -31.5 -203.5t-92.5 -162.5t-152 -107t-209 -38t-209 42.5t-152.5 119.5t-93 181t-31.5 228v21q-1 14 17.5 26.5t43.5 32t44 53.5q68 121 137 195.5t144.5 109t161.5 34.5zM564 762q-60 0 -93 -34.5t-45.5 -91.5t-12.5 -125v-21q0 -53 6.5 -98.5
t23.5 -80t47 -53.5t76 -19q45 0 75 19t47 53.5t23.5 80t6.5 98.5v21q0 51 -7 96.5t-23.5 80t-46.5 54.5t-77 20z" />
    <glyph glyph-name="uni0432" unicode="&#x432;" horiz-adv-x="1080" 
d="M612 441h-299l-2 208h247q33 0 51.5 9t26 27.5t7.5 44.5t-6 44t-18 29t-29.5 16t-41.5 5h-102v-824h-332v1082h434q100 0 178.5 -18.5t134 -56t85 -94.5t29.5 -134q0 -50 -22.5 -94t-66.5 -78t-108 -55.5t-146 -26.5zM612 0h-371l102 258h269q34 0 54 10t29 30t9 49
q0 28 -7 49t-26.5 33t-58.5 12h-242l2 208h256l70 -85q120 -7 194.5 -43t109.5 -91t35 -121q0 -77 -27.5 -135t-81.5 -96.5t-133 -58t-183 -19.5z" />
    <glyph glyph-name="uni0433" unicode="&#x433;" horiz-adv-x="809" 
d="M796 1082v-260h-378v-822h-333v1082h711z" />
    <glyph glyph-name="uni0434" unicode="&#x434;" horiz-adv-x="1249" 
d="M274 1082h333l-3 -341q-3 -184 -40.5 -315.5t-101.5 -219t-147 -137t-176 -69.5h-33l-8 256l25 4q58 60 89 114.5t43 109.5t14 117.5t2 139.5zM366 1082h704v-1082h-332v822h-372v260zM33 260h1192v-588h-333v328h-517v-328h-342v588z" />
    <glyph glyph-name="uni0435" unicode="&#x435;" horiz-adv-x="1053" 
d="M584 -20q-124 0 -221 37t-163.5 104.5t-101 160t-34.5 203.5v78q0 125 30.5 224t90.5 169.5t151.5 108t213.5 37.5q108 0 193 -33.5t144 -99t90 -163t31 -224.5v-147h-818v211h493v32q1 60 -15 96t-46.5 52t-74.5 16q-48 0 -77.5 -19t-45 -54.5t-21 -87.5t-5.5 -118v-78
q0 -65 14 -111.5t41 -75.5t65.5 -43.5t87.5 -14.5q65 0 127 23.5t106 76.5l143 -193q-30 -41 -86.5 -79.5t-135 -63t-176.5 -24.5z" />
    <glyph glyph-name="uni0436" unicode="&#x436;" horiz-adv-x="1741" 
d="M472 378l-432 704h416l171 -389h188l-39 -315h-304zM628 441l-175 -441h-395l282 582zM1043 1082v-1082h-332v1082h332zM1717 1082l-432 -704h-305l-36 315h186l171 389h416zM1302 0l-173 441l300 141l280 -582h-407z" />
    <glyph glyph-name="uni0437" unicode="&#x437;" horiz-adv-x="997" 
d="M587 516h-210v136h127q34 0 54.5 13t30.5 36.5t10 53.5q0 26 -6 50t-24.5 40t-56.5 16q-31 0 -54 -10t-35 -30.5t-12 -52.5h-334q0 105 55.5 179.5t149.5 114t207 39.5q101 0 182 -20.5t139 -60.5t89.5 -98.5t31.5 -135.5q0 -55 -24 -104t-69 -86.5t-109 -58.5t-142 -21z
M377 588h210q87 0 154.5 -18.5t113.5 -54.5t70 -88.5t24 -120.5q0 -77 -34 -137.5t-95.5 -102.5t-146 -64t-183.5 -22q-106 0 -204.5 36t-161 111t-62.5 193h333q0 -27 11.5 -50t37.5 -36.5t69 -13.5t65.5 17t30.5 44t8 55q0 43 -13 69t-38.5 38.5t-61.5 12.5h-127v132z" />
    <glyph glyph-name="uni0438" unicode="&#x438;" horiz-adv-x="1080" 
d="M419 454l245 628h332v-1082h-332v630l-245 -630h-334v1082h334v-628z" />
    <glyph glyph-name="uni0439" unicode="&#x439;" horiz-adv-x="1080" 
d="M419 454l245 628h332v-1082h-332v630l-245 -630h-334v1082h334v-628zM689 1538h231q0 -90 -45.5 -159.5t-128.5 -108.5t-196 -39q-171 0 -271 85.5t-100 221.5h230q0 -49 32 -88t109 -39t108 39t31 88z" />
    <glyph glyph-name="uni043A" unicode="&#x43a;" horiz-adv-x="1113" 
d="M447 1082v-1082h-333v1082h333zM1091 1082l-405 -704h-282l-38 315h162l137 389h426zM667 0l-162 441l310 141l303 -582h-451z" />
    <glyph glyph-name="uni043B" unicode="&#x43b;" horiz-adv-x="1082" 
d="M766 1082v-260h-490v260h490zM996 1082v-1082h-332v1082h332zM192 1082h325l-29 -557q-5 -116 -24.5 -203t-51.5 -148.5t-75.5 -100t-98 -56t-117.5 -17.5h-99l-5 258l33 4q23 3 41.5 18t32 42t24 69t17 99t9.5 131z" />
    <glyph glyph-name="uni043C" unicode="&#x43c;" horiz-adv-x="1474" 
d="M724 372l205 710h256l-350 -1082h-222l-349 1082h257zM446 1082v-1082h-332v1082h332zM1014 0v1082h333v-1082h-333z" />
    <glyph glyph-name="uni043D" unicode="&#x43d;" horiz-adv-x="1080" 
d="M780 660v-259h-483v259h483zM418 1082v-1082h-333v1082h333zM993 1082v-1082h-333v1082h333z" />
    <glyph glyph-name="uni043E" unicode="&#x43e;" horiz-adv-x="1081" 
d="M55 510v61q0 124 33 222t95.5 166.5t152 105.5t203.5 37q116 0 205.5 -37t152 -105.5t95.5 -166.5t33 -222v-61q0 -122 -33 -220.5t-95 -167.5t-152 -105.5t-204 -36.5t-204.5 36.5t-153 105.5t-95.5 167.5t-33 220.5zM388 571v-61q0 -65 8.5 -115.5t27 -85t47.5 -52
t70 -17.5q45 0 74.5 17.5t46.5 52t24 85t7 115.5v61q0 64 -8.5 114t-26.5 85.5t-47.5 53.5t-71.5 18q-40 0 -69 -18t-47 -53.5t-26.5 -85.5t-8.5 -114z" />
    <glyph glyph-name="uni043F" unicode="&#x43f;" horiz-adv-x="1080" 
d="M766 1082v-260h-455v260h455zM418 1082v-1082h-333v1082h333zM996 1082v-1082h-333v1082h333z" />
    <glyph glyph-name="uni0440" unicode="&#x440;" horiz-adv-x="1083" 
d="M427 874v-1290h-332v1498h309zM1029 574v-61q0 -123 -24.5 -221.5t-73.5 -168t-121.5 -106.5t-167.5 -37q-88 0 -150 42.5t-102.5 117t-65.5 170.5t-41 203v48q16 114 40.5 213t65.5 172.5t102.5 114.5t149.5 41q96 0 168 -34t121.5 -101.5t74 -166t24.5 -226.5zM697 513
v61q0 68 -7.5 118t-23.5 84t-42.5 50t-66.5 16q-46 0 -77 -15.5t-49 -47.5t-24.5 -79.5t-4.5 -111.5v-104q-4 -73 9 -128t49 -85.5t99 -30.5q41 0 67.5 17.5t42 53t22 86.5t6.5 116z" />
    <glyph glyph-name="uni0441" unicode="&#x441;" horiz-adv-x="1002" 
d="M519 240q41 0 68 14.5t40.5 46.5t12.5 85h312q1 -128 -55 -219t-152 -139t-218 -48q-118 0 -206.5 37t-147.5 106.5t-88.5 167t-29.5 218.5v63q0 122 29.5 220t88.5 167t147 106t205 37q127 0 223 -48.5t150.5 -145t53.5 -240.5h-312q1 56 -11 94.5t-39.5 59t-72.5 20.5
q-44 0 -70 -18.5t-39 -53.5t-16.5 -85t-3.5 -113v-63q0 -64 4 -114t17 -84.5t39 -52.5t71 -18z" />
    <glyph glyph-name="uni0442" unicode="&#x442;" horiz-adv-x="1017" 
d="M671 1082v-1082h-333v1082h333zM979 1082v-258h-945v258h945z" />
    <glyph glyph-name="uni0443" unicode="&#x443;" horiz-adv-x="1003" 
d="M397 127l250 955h357l-397 -1243q-13 -41 -34.5 -88.5t-59 -90.5t-96 -70t-144.5 -27q-48 0 -68 4.5t-66 15.5l1 241h19h19q48 0 77 11t44 32t23 51zM358 1082l180 -757l36 -357h-222l-350 1114h356z" />
    <glyph glyph-name="uni0444" unicode="&#x444;" horiz-adv-x="1404" 
d="M1351 539v-21q0 -118 -24 -216.5t-71.5 -170.5t-116.5 -111.5t-159 -39.5q-91 0 -155.5 41t-108 113.5t-70.5 168.5t-42 205v27q15 117 41.5 220t70 181t108 122t154.5 44q73 0 132 -27t104 -76.5t75.5 -119t46 -155.5t15.5 -185zM1018 518v21q0 50 -4.5 95.5t-13 83.5
t-23 66t-35 43t-48.5 15q-68 0 -111.5 -33.5t-63.5 -96t-18 -150.5v-82q-1 -76 18 -129.5t62.5 -82t114.5 -28.5q35 0 58.5 20.5t37 58t20 88t6.5 111.5zM54 518v21q0 99 15.5 185t46 155.5t75 119t103.5 76.5t131 27q91 0 155.5 -44t108 -122t71 -181t41.5 -220v-25
q-15 -110 -42 -206t-71 -169t-108.5 -114t-155.5 -41q-90 0 -159.5 39.5t-116.5 111.5t-70.5 170.5t-23.5 216.5zM386 539v-21q0 -61 6 -111.5t20 -87.5t38 -57.5t59 -20.5q72 0 115.5 28.5t63 82.5t16.5 131v79q3 88 -17 150.5t-63 96t-113 33.5q-35 0 -59 -23.5t-38.5 -65
t-21 -96.5t-6.5 -118zM536 -416v1952h333v-1952h-333z" />
    <glyph glyph-name="uni0445" unicode="&#x445;" horiz-adv-x="997" 
d="M380 1082l124 -298l130 298h344l-254 -527l267 -555h-347l-140 320l-139 -320h-347l267 555l-253 527h348z" />
    <glyph glyph-name="uni0446" unicode="&#x446;" horiz-adv-x="1191" 
d="M85 0v1082h333v-822h245v822h333v-1082h-911zM1167 258l-20 -579h-313v321h-103v258h436z" />
    <glyph glyph-name="uni0447" unicode="&#x447;" horiz-adv-x="1078" 
d="M995 1082v-1082h-334v1082h334zM825 635v-260q-19 -15 -63.5 -29t-94 -22.5t-81.5 -8.5q-158 0 -270.5 43t-173 135.5t-60.5 239.5v349h333v-349q0 -65 15.5 -99.5t53.5 -46.5t102 -12q38 0 73.5 7t76 20.5t89.5 32.5z" />
    <glyph glyph-name="uni0448" unicode="&#x448;" horiz-adv-x="1604" 
d="M85 1082h333v-822h208v822h334v-822h209v822h332v-1082h-1416v1082z" />
    <glyph glyph-name="uni0449" unicode="&#x449;" horiz-adv-x="1812" 
d="M1742 258l-20 -579h-314v321h-102v258h436zM86 1082h333v-822h209v822h333v-822h209v822h334v-1082h-1418v1082z" />
    <glyph glyph-name="uni044A" unicode="&#x44a;" horiz-adv-x="1301" 
d="M613 1082v-261h-570v261h570zM519 785h276q148 0 252.5 -49.5t161 -139t56.5 -208.5q0 -85 -32.5 -156.5t-93 -123t-147.5 -80t-197 -28.5h-476v1082h333v-824h143q49 0 79.5 18t44.5 48t14 66q0 40 -14 70.5t-44.5 48t-79.5 17.5h-276v259z" />
    <glyph glyph-name="uni044B" unicode="&#x44b;" horiz-adv-x="1648" 
d="M314 785h278q146 0 250.5 -49.5t161 -139t56.5 -208.5q0 -85 -32 -156.5t-92.5 -123t-147 -80t-197.5 -28.5h-477v1082h333v-824h145q49 0 78 18t43.5 48t14.5 66q0 40 -14.5 70.5t-43.5 48t-78 17.5h-278v259zM1531 1082v-1082h-334v1082h334z" />
    <glyph glyph-name="uni044C" unicode="&#x44c;" horiz-adv-x="1092" 
d="M314 785h278q146 0 250.5 -49.5t161 -139t56.5 -208.5q0 -85 -32 -156.5t-92.5 -123t-147 -80t-197.5 -28.5h-477v1082h333v-824h145q49 0 78 18t43.5 48t14.5 66q0 40 -14.5 70.5t-43.5 48t-78 17.5h-278v259z" />
    <glyph glyph-name="uni044D" unicode="&#x44d;" horiz-adv-x="978" 
d="M466 842q-40 0 -64.5 -17.5t-34.5 -49.5t-10 -78h-311q0 122 53.5 213t149 141.5t217.5 50.5q119 0 208.5 -41.5t150 -116t90.5 -175t30 -217.5v-23q0 -117 -30.5 -217t-90 -174.5t-149 -116t-206.5 -41.5q-128 0 -223 51t-147.5 148t-52.5 235h311q0 -49 10.5 -88.5
t35 -62.5t66.5 -23q45 0 73 23t42.5 63t20 92.5t5.5 110.5v23q0 60 -5 112.5t-20 92.5t-43.5 62.5t-75.5 22.5zM704 634v-183h-289v183h289z" />
    <glyph glyph-name="uni044E" unicode="&#x44e;" horiz-adv-x="1544" 
d="M729 682v-261h-554v261h554zM453 1082v-1082h-333v1082h333zM519 530v21q0 119 31 219.5t92 174.5t152 115.5t208 41.5q119 0 210 -41.5t152 -115.5t92 -174.5t31 -219.5v-21q0 -118 -30.5 -218.5t-92 -175t-152 -115.5t-208.5 -41q-119 0 -209.5 41t-152 115.5
t-92.5 175t-31 218.5zM851 551v-21q0 -61 7 -114t23.5 -92.5t46.5 -61.5t76 -22q44 0 73.5 22t46.5 61.5t23.5 92.5t6.5 114v21q0 59 -6.5 111.5t-23 93t-46.5 63.5t-76 23q-45 0 -74.5 -23t-46 -63.5t-23.5 -93t-7 -111.5z" />
    <glyph glyph-name="uni044F" unicode="&#x44f;" horiz-adv-x="1088" 
d="M314 551h331l-272 -551h-330zM518 1082h454v-1082h-331v824h-123q-40 0 -68 -19t-42.5 -48.5t-14.5 -59.5q0 -29 15 -57t44.5 -46.5t72.5 -18.5h247v-217h-247q-107 0 -192.5 26t-146.5 73.5t-93 111.5t-32 140q0 81 32 149t92 118.5t144 78t189 27.5z" />
    <glyph glyph-name="uni0450" unicode="&#x450;" horiz-adv-x="1053" 
d="M584 -20q-124 0 -221 37t-163.5 104.5t-101 160t-34.5 203.5v78q0 125 30.5 224t90.5 169.5t151.5 108t213.5 37.5q108 0 193 -33.5t144 -99t90 -163t31 -224.5v-147h-818v211h493v32q1 60 -15 96t-46.5 52t-74.5 16q-48 0 -77.5 -19t-45 -54.5t-21 -87.5t-5.5 -118v-78
q0 -65 14 -111.5t41 -75.5t65.5 -43.5t87.5 -14.5q65 0 127 23.5t106 76.5l143 -193q-30 -41 -86.5 -79.5t-135 -63t-176.5 -24.5zM460 1537l199 -314h-273l-282 314h356z" />
    <glyph glyph-name="uni0451" unicode="&#x451;" horiz-adv-x="1053" 
d="M584 -20q-124 0 -221 37t-163.5 104.5t-101 160t-34.5 203.5v78q0 125 30.5 224t90.5 169.5t151.5 108t213.5 37.5q108 0 193 -33.5t144 -99t90 -163t31 -224.5v-147h-818v211h493v32q1 60 -15 96t-46.5 52t-74.5 16q-48 0 -77.5 -19t-45 -54.5t-21 -87.5t-5.5 -118v-78
q0 -65 14 -111.5t41 -75.5t65.5 -43.5t87.5 -14.5q65 0 127 23.5t106 76.5l143 -193q-30 -41 -86.5 -79.5t-135 -63t-176.5 -24.5zM86 1366q0 56 45 94.5t106 38.5q62 0 106.5 -38.5t44.5 -94.5t-44.5 -94.5t-106.5 -38.5q-61 0 -106 38.5t-45 94.5zM605 1366q0 56 45 94.5
t106 38.5q62 0 106.5 -38.5t44.5 -94.5t-44.5 -94.5t-106.5 -38.5q-61 0 -106 38.5t-45 94.5z" />
    <glyph glyph-name="uni0452" unicode="&#x452;" horiz-adv-x="1087" 
d="M663 476h335v-491q0 -136 -47 -230.5t-133.5 -143t-206.5 -48.5q-40 0 -75 3.5t-75 13.5l13 255q25 -6 42 -9t49 -3t53.5 18t33 54.5t11.5 89.5v491zM417 1536v-1536h-333v1536h333zM378 578l-77 -2q-1 114 24.5 210t73 167t115 110t149.5 39q73 0 134 -23t106 -74
t70 -133t25 -200v-672h-335v674q0 66 -15 102.5t-44 51t-71 14.5q-51 0 -82 -20t-47 -55.5t-21 -83.5t-5 -105zM629 1375v-191h-684v191h684z" />
    <glyph glyph-name="uni0453" unicode="&#x453;" horiz-adv-x="809" 
d="M796 1082v-260h-378v-822h-333v1082h711zM245 1222l198 314h356l-279 -314h-275z" />
    <glyph glyph-name="uni0454" unicode="&#x454;" horiz-adv-x="978" 
d="M595 616v-183h-281v183h281zM510 240q40 0 67.5 17.5t41 50t11.5 78.5h313q1 -122 -55 -213.5t-152.5 -142t-217.5 -50.5q-119 0 -207 41.5t-147 116t-88.5 174.5t-29.5 217v23q0 117 29.5 217.5t88 175t146.5 116t206 41.5q127 0 223 -51t150.5 -148t53.5 -235h-313
q2 49 -10.5 88t-39.5 62.5t-72 23.5q-44 0 -70 -23t-39 -63.5t-16.5 -92.5t-3.5 -111v-23q0 -60 3.5 -112.5t17 -92t39.5 -62t71 -22.5z" />
    <glyph glyph-name="uni0455" unicode="&#x455;" horiz-adv-x="989" 
d="M606 299q0 29 -20 47.5t-62 36.5t-110 42q-71 23 -134 53t-110.5 69.5t-74 93.5t-26.5 124q0 69 27.5 130t81 107.5t131 73t177.5 26.5q136 0 235 -43t153 -121.5t54 -182.5h-333q0 41 -10 69t-34.5 42t-65.5 14q-26 0 -49.5 -11.5t-38 -33.5t-14.5 -53q0 -22 9.5 -38.5
t28.5 -30.5t47 -26.5t66 -25.5q98 -27 187.5 -65t147.5 -105t58 -182q0 -72 -31 -131.5t-89 -104.5t-139.5 -69t-183.5 -24q-144 0 -244 54.5t-150.5 137.5t-50.5 170h309q2 -50 20 -80.5t49.5 -44.5t75.5 -14q38 0 62.5 12t37.5 33.5t13 50.5z" />
    <glyph glyph-name="uni0456" unicode="&#x456;" horiz-adv-x="549" 
d="M442 1082v-1082h-333v1082h333zM91 1361q0 72 50.5 118t131.5 46q82 0 132.5 -46t50.5 -118t-50.5 -118t-132.5 -46q-81 0 -131.5 46t-50.5 118z" />
    <glyph glyph-name="uni0457" unicode="&#x457;" horiz-adv-x="572" 
d="M454 1082v-1082h-334v1082h334zM-126 1344q0 56 45 94.5t106 38.5q62 0 106.5 -38.5t44.5 -94.5t-44.5 -94.5t-106.5 -38.5q-61 0 -106 38.5t-45 94.5zM393 1344q0 56 45 94.5t106 38.5q62 0 106.5 -38.5t44.5 -94.5t-44.5 -94.5t-106.5 -38.5q-61 0 -106 38.5t-45 94.5z
" />
    <glyph glyph-name="uni0458" unicode="&#x458;" horiz-adv-x="539" 
d="M116 1082h333v-1117q0 -130 -47 -219.5t-135 -136t-211 -46.5q-41 0 -75 3.5t-76 13.5l-1 255q25 -4 45 -6.5t43 -2.5q41 0 68 15t41.5 46t14.5 78v1117zM92 1361q0 72 51 118t132 46q80 0 131 -46t51 -118t-51 -118t-131 -46q-81 0 -132 46t-51 118z" />
    <glyph glyph-name="uni0459" unicode="&#x459;" horiz-adv-x="1651" 
d="M193 1082h325l-29 -557q-6 -116 -25.5 -203t-51.5 -148.5t-75.5 -100t-97 -56t-116.5 -17.5h-100l-4 258l31 4q24 3 42.5 18t32 42t23.5 69t17 99t9 131zM771 1082v-260h-493v260h493zM869 765h277q146 0 251 -48.5t161.5 -134.5t56.5 -199q0 -85 -32.5 -155.5
t-93 -121.5t-147.5 -78.5t-196 -27.5h-477v1082h333v-824h144q48 0 78.5 17t44.5 45.5t14 64.5q0 35 -14 62t-44.5 43t-78.5 16h-277v259z" />
    <glyph glyph-name="uni045A" unicode="&#x45a;" horiz-adv-x="1643" 
d="M780 660v-259h-483v259h483zM418 1082v-1082h-333v1082h333zM860 765h276q148 0 252 -48.5t160.5 -134.5t56.5 -199q0 -85 -32 -155.5t-92.5 -121.5t-147.5 -78.5t-197 -27.5h-476v1082h333v-824h143q49 0 79.5 17t44.5 45.5t14 64.5q0 35 -14 62t-44.5 43t-79.5 16h-276
v259z" />
    <glyph glyph-name="uni045B" unicode="&#x45b;" horiz-adv-x="1082" 
d="M417 1536v-1536h-333v1536h333zM378 578l-77 -2q-1 114 24.5 210t73 167t115 110t149.5 39q73 0 134.5 -23t106 -74t69.5 -133t25 -200v-672h-335v674q0 66 -15 102.5t-44 51t-71 14.5q-51 0 -82 -20t-47 -55.5t-21 -83.5t-5 -105zM637 1390v-191h-683v191h683z" />
    <glyph glyph-name="uni045C" unicode="&#x45c;" horiz-adv-x="1113" 
d="M447 1082v-1082h-333v1082h333zM1091 1082l-405 -704h-282l-38 315h162l137 389h426zM667 0l-162 441l310 141l303 -582h-451zM414 1222l198 314h356l-279 -314h-275z" />
    <glyph glyph-name="uni045D" unicode="&#x45d;" horiz-adv-x="1080" 
d="M419 454l245 628h332v-1082h-332v630l-245 -630h-334v1082h334v-628zM510 1536l199 -314h-273l-282 314h356z" />
    <glyph glyph-name="uni045E" unicode="&#x45e;" horiz-adv-x="1003" 
d="M397 127l250 955h357l-397 -1243q-13 -41 -34.5 -88.5t-59 -90.5t-96 -70t-144.5 -27q-48 0 -68 4.5t-66 15.5l1 241h19h19q48 0 77 11t44 32t23 51zM358 1082l180 -757l36 -357h-222l-350 1114h356zM637 1538h231q0 -90 -45.5 -159.5t-128.5 -108.5t-196 -39
q-171 0 -271 85.5t-100 221.5h230q0 -49 32 -88t109 -39t108 39t31 88z" />
    <glyph glyph-name="uni045F" unicode="&#x45f;" horiz-adv-x="1080" 
d="M373 260h333v-620h-333v620zM85 1082h333v-822h245v822h333v-1082h-911v1082z" />
    <glyph glyph-name="uni0460" unicode="&#x460;" horiz-adv-x="1889" 
d="M763 1456h282v-965q0 -124 -33 -219.5t-91.5 -161t-138 -98.5t-173.5 -33q-110 0 -203.5 33t-163 98.5t-107.5 161t-38 219.5v965h346v-965q0 -64 11.5 -109.5t33 -75t52.5 -43.5t69 -14q50 0 84.5 25t52 78.5t17.5 138.5v965zM1428 1456h347v-965q0 -166 -66 -280
t-179.5 -173t-259.5 -59q-96 0 -176.5 33t-141 98.5t-93.5 161t-33 219.5v965h282v-965q0 -64 11 -109.5t32.5 -75t51 -43.5t67.5 -14q52 0 87 25t53 78.5t18 138.5v965z" />
    <glyph glyph-name="uni0461" unicode="&#x461;" horiz-adv-x="1625" 
d="M667 1082h271v-600q0 -123 -29.5 -216.5t-83 -157.5t-128 -96.5t-164.5 -32.5q-98 0 -181 32.5t-143 96.5t-92.5 157.5t-32.5 216.5v600h334v-600q0 -64 7 -110t21.5 -75.5t36 -43.5t51.5 -14q46 0 75.5 25.5t43.5 79t14 138.5v600zM1237 1082h334v-600
q0 -163 -56.5 -275.5t-156.5 -170t-232 -57.5q-91 0 -164.5 32.5t-125.5 96.5t-79.5 157.5t-27.5 216.5v600h271v-600q0 -64 6.5 -110t22 -75.5t39.5 -43.5t58 -14q30 0 51.5 14t34.5 43.5t19 75.5t6 110v600z" />
    <glyph glyph-name="uni0462" unicode="&#x462;" horiz-adv-x="1198" 
d="M325 955h280q164 0 287 -59t190 -165t67 -248q0 -107 -38.5 -195.5t-110.5 -153t-172 -99.5t-223 -35h-498v1456h347v-1186h151q63 0 107 29t67.5 77.5t23.5 108.5q0 58 -23.5 103t-67.5 71t-107 26h-280v270zM655 1276v-191h-684v191h684z" />
    <glyph glyph-name="uni0463" unicode="&#x463;" horiz-adv-x="1092" 
d="M314 805h278q145 0 250 -51t161.5 -141.5t56.5 -209.5q0 -120 -56.5 -210.5t-161.5 -141.5t-250 -51h-478v1562h335v-1304h143q49 0 78 19.5t43.5 53t14.5 74.5q0 40 -14.5 72t-43.5 50.5t-78 18.5h-278v259zM644 1274v-191h-653v191h653z" />
    <glyph glyph-name="uni0464" unicode="&#x464;" horiz-adv-x="1698" 
d="M1254 869v-261h-927v261h927zM1363 494h344q-6 -152 -75 -268t-192.5 -180.5t-292.5 -64.5q-136 0 -243 49t-181 141t-112.5 223t-38.5 295v79q0 164 40.5 295.5t116 224t180.5 141.5t234 49q179 0 301 -68t188.5 -186.5t77.5 -269.5h-345q-1 82 -22 137.5t-69.5 83.5
t-130.5 28q-56 0 -97 -24t-68.5 -76t-40 -134.5t-12.5 -198.5v-81q0 -93 7 -164t23 -122t42 -83.5t63 -48t87 -15.5q70 0 117.5 25.5t72.5 78t26 134.5zM434 1456v-1456h-346v1456h346z" />
    <glyph glyph-name="uni0465" unicode="&#x465;" horiz-adv-x="1453" 
d="M1075 640v-191h-789v191h789zM974 240q42 0 69 17.5t40.5 50t12.5 78.5h312q1 -122 -55 -213.5t-152.5 -142t-218.5 -50.5q-118 0 -206 41.5t-147 116t-88.5 174.5t-29.5 217v23q0 117 29 217.5t88 175t147 116t206 41.5q126 0 222.5 -51t151 -148t53.5 -235h-312
q1 49 -11.5 88t-39.5 62.5t-73 23.5q-43 0 -69 -23t-38.5 -63.5t-16.5 -92.5t-4 -111v-23q0 -60 3.5 -112.5t16.5 -92t39.5 -62t70.5 -22.5zM430 1082v-1082h-335v1082h335z" />
    <glyph glyph-name="uni0466" unicode="&#x466;" horiz-adv-x="1339" 
d="M766 1340l-391 -1340h-365l463 1456h183zM950 0l-398 1350l115 106h183l466 -1456h-366zM1013 636v-222h-759v222h759zM792 521v-521h-270v521h270z" />
    <glyph glyph-name="uni0467" unicode="&#x467;" horiz-adv-x="1106" 
d="M516 635l-164 -635h-340l355 1082h246zM743 0l-166 635l-95 447h245l356 -1082h-340zM924 460v-198h-750v198h750zM630 350v-350h-183v350h183z" />
    <glyph glyph-name="uni0468" unicode="&#x468;" horiz-adv-x="1853" 
d="M926 634v-220h-587v220h587zM1277 1340l-391 -1340h-366l465 1456h182zM1462 0l-400 1350l115 106h184l466 -1456h-365zM1524 636v-222h-759v222h759zM1303 521v-521h-270v521h270zM455 1456v-1456h-344v1456h344z" />
    <glyph glyph-name="uni0469" unicode="&#x469;" horiz-adv-x="1579" 
d="M862 459v-196h-716v196h716zM991 635l-164 -635h-340l355 1082h246zM1218 0l-166 635l-95 447h245l356 -1082h-340zM1399 460v-198h-750v198h750zM1105 350v-350h-183v350h183zM422 1082v-1082h-334v1082h334z" />
    <glyph glyph-name="uni046A" unicode="&#x46a;" horiz-adv-x="1691" 
d="M433 0h-345v325q0 172 63 275t182.5 149t286.5 46h451q167 0 286.5 -46t182.5 -149t63 -275v-325h-345v325q0 76 -20.5 118.5t-62 60t-104.5 17.5h-451q-94 0 -140.5 -41t-46.5 -155v-325zM1214 1456v-275h-684v275h684zM794 716l322 740h374l-472 -920h-183zM621 1456
l326 -748l-45 -172h-184l-472 920h375zM1037 747v-747h-345v747h345z" />
    <glyph glyph-name="uni046B" unicode="&#x46b;" horiz-adv-x="1402" 
d="M421 0h-333v190q0 156 54.5 249.5t158 135.5t248.5 42h305q144 0 247 -42t159 -135.5t56 -249.5v-190h-334v190q0 71 -14 111t-42 56t-72 16h-305q-43 0 -72 -16t-42.5 -56t-13.5 -111v-190zM1082 1082v-202h-712v202h712zM646 502l228 580h357l-378 -711h-172zM545 1082
l232 -586l-40 -125h-171l-378 711h357zM872 496v-496h-332v496h332z" />
    <glyph glyph-name="uni046C" unicode="&#x46c;" horiz-adv-x="2260" 
d="M1234 799v-264h-926v264h926zM471 1456v-1456h-346v1456h346zM1004 0h-345v325q0 172 63 275t182 149t288 46h450q167 0 286.5 -46t182.5 -149t63 -275v-325h-346v325q0 76 -20.5 118.5t-61.5 60t-104 17.5h-450q-96 0 -142 -41t-46 -155v-325zM1785 1456v-275h-684v275
h684zM1365 716l322 740h374l-471 -920h-183zM1192 1456l327 -748l-46 -172h-184l-471 920h374zM1608 747v-747h-345v747h345z" />
    <glyph glyph-name="uni046D" unicode="&#x46d;" horiz-adv-x="1957" 
d="M1136 617v-233h-923v233h923zM454 1082v-1082h-334v1082h334zM974 0h-334v190q0 156 55 249.5t158.5 135.5t248.5 42h306q144 0 247 -42t158.5 -135.5t55.5 -249.5v-190h-334v190q0 71 -14 111t-42 56t-71 16h-306q-44 0 -72 -16t-42 -56t-14 -111v-190zM1635 1082v-202
h-712v202h712zM1200 502l228 580h357l-378 -711h-172zM1098 1082l232 -586l-40 -125h-170l-379 711h357zM1426 496v-496h-333v496h333z" />
    <glyph glyph-name="uni046E" unicode="&#x46e;" horiz-adv-x="984" 
d="M114 1456h212q116 0 208.5 -21t159 -65.5t101.5 -116t35 -171.5q0 -101 -34.5 -174t-97.5 -119.5t-150.5 -69t-193.5 -22.5h-150v183h144q55 0 87 22t47 59t15 82q0 46 -18 78t-56 48.5t-97 16.5h-212v270zM204 786h137q129 0 230 -25t171 -73t106.5 -118.5t36.5 -161.5
q0 -102 -33 -182t-96 -135t-151 -83.5t-198 -28.5h-56q-44 0 -62.5 -25t-18.5 -64q0 -41 21 -69.5t49.5 -46.5t50.5 -29l-80 -193q-126 22 -200.5 76.5t-107 135t-33.5 178.5q0 104 43 172t120.5 102t180.5 34h69q40 0 71.5 11.5t53 32t33 48.5t11.5 62q0 50 -14 88t-41 64
t-67 39.5t-93 13.5h-133v177zM296 1928l132 -134l131 134h283v-11l-308 -283h-212l-310 285v9h284z" />
    <glyph glyph-name="uni046F" unicode="&#x46f;" horiz-adv-x="998" 
d="M116 1082h216q113 0 203.5 -16t155 -51t99 -91t34.5 -134q0 -79 -32 -136t-90.5 -93.5t-139.5 -54t-180 -17.5h-172v141h169q41 0 65 16t35 44t11 62q0 24 -9.5 43t-28.5 31.5t-49 19.5t-70 7h-217v229zM210 578h161q120 0 214 -18t159 -53t99.5 -86t34.5 -117
q0 -77 -31 -137t-88.5 -102t-139 -64t-184.5 -22h-45q-57 0 -81 -25t-24 -64q0 -41 17 -69.5t40 -46.5t41 -29l-80 -172q-90 27 -156 79.5t-102.5 126.5t-37.5 163q0 90 37.5 149t104.5 88t157 29h61q42 0 75.5 8.5t56 23.5t34.5 35.5t12 44.5q0 30 -11 52.5t-34 38.5
t-56 24t-76 8h-158v135zM318 1525l132 -134l131 134h283v-11l-308 -283h-212l-310 285v9h284z" />
    <glyph glyph-name="uni0470" unicode="&#x470;" horiz-adv-x="1433" 
d="M1056 1456h347v-439q0 -198 -72.5 -336.5t-205.5 -210.5t-315 -72h-182q-137 0 -247 41t-187.5 120t-118.5 194t-41 264v439h346v-439q0 -90 16.5 -156t50 -108.5t83.5 -63.5t117 -21h181q87 0 136.5 37.5t70.5 114.5t21 197v439zM903 1456v-1456h-345v1456h345z" />
    <glyph glyph-name="uni0471" unicode="&#x471;" horiz-adv-x="1480" 
d="M55 1082h335v-498q0 -102 27 -169t74.5 -105.5t109.5 -54.5t131 -16q102 0 170.5 26t109.5 74.5t59.5 116t18.5 151.5q-1 122 -26.5 241.5t-62.5 233.5h296q34 -56 62.5 -128t46 -159t17.5 -188q0 -123 -34 -235.5t-112.5 -201t-209 -140t-325.5 -51.5q-154 0 -280 34.5
t-217.5 108t-140.5 189t-49 276.5v495zM566 1082h333v-1560h-333v1560z" />
    <glyph glyph-name="uni0472" unicode="&#x472;" horiz-adv-x="1327" 
d="M678 1476q103 0 193.5 -32t163.5 -93t125.5 -148.5t81.5 -199.5t29 -246v-59q0 -167 -43.5 -299.5t-123 -226t-187.5 -143t-237 -49.5q-106 0 -196.5 32t-164 92.5t-126 148.5t-80.5 200t-28 245v59q0 167 43 300t122 226.5t188 143t240 49.5zM678 1201q-52 0 -93 -21.5
t-70.5 -64t-47.5 -105.5t-25 -145q0 -9 -1 -16.5t-2 -16.5h477q-1 8 -2 15.5t-2 15.5q-6 82 -25 146t-49 106t-70 64t-90 22zM680 254q50 0 90 22.5t69.5 66.5t48.5 108t26 147q2 9 2.5 20.5t1.5 22.5h-480q1 -10 1.5 -20.5t1.5 -20.5q8 -83 26 -148t47.5 -108.5t71 -66.5
t94.5 -23z" />
    </font>
</defs>
</svg>
